<?xml version="1.0" standalone="no"?>
<!DOCTYPE svg PUBLIC "-//W3C//DTD SVG 1.1//EN" "http://www.w3.org/Graphics/SVG/1.1/DTD/svg11.dtd" >
<svg xmlns="http://www.w3.org/2000/svg" xmlns:xlink="http://www.w3.org/1999/xlink" version="1.1">
<metadata>
Created by FontForge 20170731 at Tue Oct  5 14:02:18 2021
 By Aleksey,,,
Copyright (c) 2020 by Ilham Herry. All rights reserved.
</metadata>
<defs>
<font id="Genty-Regular" horiz-adv-x="1052" >
  <font-face 
    font-family="Genty"
    font-weight="400"
    font-stretch="normal"
    units-per-em="2048"
    panose-1="0 0 5 0 0 0 0 0 0 0"
    ascent="1638"
    descent="-410"
    x-height="1024"
    cap-height="1524"
    bbox="-4796 -1073 2329.78 1882"
    underline-thickness="102"
    underline-position="-307"
    unicode-range="U+0020-FB02"
  />
<missing-glyph horiz-adv-x="997" 
d="M41 1468h915v-1589h-915v1589zM135 1399l365 -654l362 654h-727zM459 674l-348 626v-1253zM539 674l348 -627v1253zM500 602l-365 -653h727z" />
    <glyph glyph-name="fi" unicode="fi" horiz-adv-x="1034" 
d="M1083 561q9 13 23.5 16.5t28.5 -2.5t26 -16t16 -23t-1 -24q-12 -20 -38.5 -75.5t-51.5 -107t-66 -114t-83 -108t-100.5 -76.5t-121.5 -31q-97 0 -143 70t-46 186q0 141 52 305q59 184 106 283q-27 1 -87.5 3.5t-114 5t-99.5 5.5q-42 -189 -68 -426q-3 -28 -7 -75.5
t-7 -77.5t-9.5 -71.5t-14.5 -67.5t-22.5 -55.5t-34 -46t-48.5 -27.5t-66 -11q-36 0 -61.5 8t-41.5 27t-25 42t-9 62t3.5 77.5t16 98t25 113t33.5 133.5q47 172 90 305h-26q-108 0 -116 62q-5 40 30 75q18 18 34 19h138q55 139 127 260q88 144 197.5 214.5t281.5 70.5
q39 0 79 -5t90.5 -23t87.5 -46.5t62 -81t23 -121.5v-14v-4q-19 -164 -203 -164q-137 0 -170 88q-24 62 -48.5 85.5t-80.5 23.5q-130 0 -217 -283l444 2h2q70 0 70 -92q0 -64 -46 -190.5t-46 -180.5q0 -50 25 -76t67 -26q43 0 75 25.5t66 76.5z" />
    <glyph glyph-name="fl" unicode="fl" horiz-adv-x="1046" 
d="M1094 561q9 14 24.5 17.5t29 -3t25.5 -16.5t15.5 -24t-2.5 -25q-11 -19 -39 -76t-53.5 -107t-69 -113t-87 -107.5t-105 -75.5t-127.5 -31q-195 0 -195 211q0 150 70 350q170 491 213 594q-9 49 -41.5 79t-83.5 30q-134 0 -226 -242h201q27 0 30 -47t-20 -94t-61 -47
l-203 18q-49 -190 -74 -420q-3 -28 -7 -75.5t-7 -77.5t-9.5 -71.5t-14.5 -67.5t-22.5 -55.5t-34 -46t-48.5 -27.5t-66 -11q-36 0 -61.5 8t-41.5 27t-25 42t-9 62t3.5 77.5t16 98t25 113t33.5 133.5q50 183 92 305h-28q-108 0 -116 62q-5 40 30 75q18 18 34 19h138
q219 545 522 545q184 0 235 -131q43 37 93 37q65 0 79.5 -48t-30.5 -145q-176 -353 -240 -588q-15 -51 -21 -88t-2.5 -73t27.5 -55t68 -19q98 0 166 104z" />
    <glyph glyph-name="F_i" unicode="Fi" horiz-adv-x="1835" 
d="M295 782q-120 0 -188 83t-68 202q0 110 55.5 207t159 171.5t263.5 117.5t357 43q183 0 411 -23.5t345 -23.5q86 0 172 11t99 11q44 0 61.5 -41t17.5 -129q0 -126 -86.5 -214.5t-236.5 -88.5q-89 0 -171 23t-149 56t-136.5 65.5t-165 55.5t-204.5 23q-95 0 -171 -18.5
t-125.5 -61.5t-49.5 -106q0 -41 22 -68.5t56 -27.5q19 -46 -7 -108t-97 -110.5t-164 -48.5zM1270 848q57 0 78.5 -20t21.5 -56q0 -61 -54.5 -114.5t-152.5 -53.5q-91 0 -176 10q-30 -88 -61 -157q-115 -274 -275 -408.5t-356 -134.5q-103 0 -181.5 29.5t-124.5 79.5
t-68.5 109.5t-22.5 125.5q0 132 77 233t195 101q12 0 21.5 -7.5t9.5 -17.5q0 -68 53 -109.5t141 -41.5t183.5 60t164.5 179q-40 4 -57 4q-35 0 -52.5 21t-17.5 55q0 47 30.5 76t90.5 29h86q21 53 57 149.5t48 128.5q37 99 133 99q66 0 89 -29t5 -82q-39 -115 -86 -262
q176 4 201 4zM1880 561q9 14 24 17.5t28.5 -2.5t25.5 -16.5t15.5 -23.5t-1.5 -24q-12 -20 -38.5 -75.5t-51.5 -107t-66 -114t-83 -108t-100.5 -76.5t-121.5 -31q-97 0 -142.5 70t-45.5 186q0 144 51 305q75 237 143 350t152 113q70 0 70 -92q0 -64 -46 -190.5t-46 -180.5
q0 -50 25 -76t67 -26q43 0 75 25.5t66 76.5z" />
    <glyph glyph-name="K_i" unicode="Ki" horiz-adv-x="2185" 
d="M2234 561q9 14 24 17.5t28.5 -2.5t25.5 -16.5t16 -23.5t-1 -24q-12 -20 -38.5 -75.5t-51.5 -107t-66 -114t-83 -108t-100.5 -76.5t-121.5 -31q-94 0 -140 66.5t-49 177.5q-172 -244 -370 -244q-66 0 -111 26.5t-66 70.5t-32 99.5t-10 114t2 114t2 99.5t-9 70.5t-32 26.5
t-37 -15.5t-33 -64.5q-112 -330 -269 -478.5t-386 -148.5q-206 0 -317 105.5t-111 271.5q0 127 71 224t181 97q12 0 21 -7t9 -17q0 -76 64 -124t159 -48q111 0 224.5 88.5t179.5 261.5q31 81 96 240t78 190q-87 21 -154.5 6.5t-114 -54t-70.5 -92t-24 -108.5q0 -44 22 -74
t56 -30q11 -23 7 -51t-15.5 -58t-37 -58t-56.5 -50t-74.5 -35.5t-91.5 -13.5q-120 0 -188 77.5t-68 188.5q0 138 54 262t149 216.5t234.5 147t301.5 54.5q113 0 185.5 -25t103 -73t29.5 -112.5t-33 -148.5q-2 -7 -74 -215q0 -1 -1 -3t-1 -3q-11 -43 -2 -63.5t31 -20.5
q48 -1 99.5 77.5t117.5 233.5q84 185 274 288q166 89 337 82q157 -7 227 -95q41 -51 41 -123q0 -91 -76.5 -160.5t-212.5 -62.5q-103 6 -185 -6t-135.5 -36.5t-94 -56t-68 -68t-49 -69t-46.5 -63t-51 -45.5q-16 -8 -19 -24t7 -23q30 -24 50 -63t30.5 -75.5t24 -71t41 -55
t71.5 -20.5q63 0 107 34t90 103q75 237 142.5 350t151.5 113q70 0 70 -92q0 -64 -46 -190.5t-46 -180.5q0 -50 25 -76t67 -26q43 0 75 25.5t66 76.5z" />
    <glyph glyph-name="T_h" unicode="Th" horiz-adv-x="2099" 
d="M1212 0q-159 0 -159 211q0 153 69 350q160 462 246 672q-51 -5 -102.5 6t-90.5 27.5t-104 30.5t-137 14q-175 0 -281 -72.5t-106 -175.5q0 -41 22 -68.5t56 -27.5q11 -23 6.5 -51.5t-16 -58t-36.5 -58t-56.5 -50.5t-75 -35.5t-91.5 -13.5q-120 0 -188 83t-68 202
q0 89 32.5 174t101.5 162.5t168 136t242.5 93t313.5 34.5q100 0 225.5 -21.5t176.5 -21.5q69 0 138.5 11.5t80.5 11.5q72 0 101.5 -20.5t29.5 -63.5q0 -56 -28 -125.5t-63.5 -126.5t-74.5 -134t-55 -141q-17 -60 2 -71.5t53 24.5q120 117 248 117q89 0 136.5 -53.5
t47.5 -134.5q0 -55 -32.5 -141t-32.5 -136q0 -53 22.5 -77.5t71.5 -24.5q42 0 74 26t67 78q9 14 24.5 17.5t29 -3t25.5 -16.5t15.5 -24t-2.5 -25q-11 -19 -39 -76t-53.5 -107t-69 -113t-87 -107.5t-105 -75.5t-127.5 -31q-95 0 -137.5 59t-42.5 154q0 67 24 143t48 138.5
t24 95.5q0 35 -21 53.5t-57 18.5q-88 0 -154.5 -107.5t-66.5 -245.5v-92q0 -217 -162 -217zM295 -86q-103 0 -181.5 29.5t-124.5 79.5t-68.5 109.5t-22.5 125.5q0 132 77 233t195 101q12 0 21.5 -7.5t9.5 -17.5q0 -68 53 -109.5t141 -41.5q68 0 139 34t144 116t119 200
q6 15 46.5 124t61.5 161q37 98 133 98q66 0 89.5 -29.5t5.5 -81.5q-124 -384 -207 -581q-115 -274 -275 -408.5t-356 -134.5z" />
    <glyph glyph-name=".notdef" horiz-adv-x="997" 
d="M41 1468h915v-1589h-915v1589zM135 1399l365 -654l362 654h-727zM459 674l-348 626v-1253zM539 674l348 -627v1253zM500 602l-365 -653h727z" />
    <glyph glyph-name=".null" horiz-adv-x="0" 
 />
    <glyph glyph-name="nonmarkingreturn" horiz-adv-x="682" 
 />
    <glyph glyph-name="space" unicode=" " horiz-adv-x="737" 
 />
    <glyph glyph-name="exclam" unicode="!" horiz-adv-x="612" 
d="M369 477q-60 0 -60 92q0 125 30 292t77.5 320t115.5 259t136 106q120 0 120 -133q0 -110 -84 -338.5t-186 -413t-149 -184.5zM238 -20q-70 0 -121 51t-51 121t51 121t121 51t121 -51t51 -121t-51 -121t-121 -51z" />
    <glyph glyph-name="quotedbl" unicode="&#x22;" horiz-adv-x="696" 
d="M260 932q-17 0 -26 30.5t-9 79.5q0 60 13 125t38.5 126.5t70 101t99.5 39.5q78 0 78 -76q0 -65 -54.5 -169t-118 -180.5t-91.5 -76.5zM610 932q-17 0 -26 30.5t-9 79.5q0 60 13.5 125t38.5 126.5t70 101t100 39.5q77 0 77 -76q0 -65 -54.5 -169t-118 -180.5t-91.5 -76.5z
" />
    <glyph glyph-name="numbersign" unicode="#" horiz-adv-x="1181" 
d="M1260 991h-203q-83 -261 -111 -346h174v-61h-194q-107 -334 -168 -460t-123 -126q-68 0 -68 63q0 117 172 523h-200q-118 -331 -184.5 -458.5t-129.5 -127.5q-67 0 -67 63q0 117 190 523h-110v61h139l170 346h-170v62h201l231 471l43 -17l-154 -454h256q19 40 224 471
l43 -17l-146 -454h185v-62zM766 645l158 346h-246q-23 -66 -62.5 -181.5t-56.5 -164.5h207z" />
    <glyph glyph-name="dollar" unicode="$" horiz-adv-x="798" 
d="M811 1335q70 -23 103.5 -76.5t33.5 -119.5q0 -62 -41 -120.5t-94 -94.5q-20 -13 -49 8.5t-12 42.5q16 19 20 51.5t-13 61t-57 28.5q-38 0 -63.5 -25t-28.5 -79q-2 -36 16.5 -79t46 -85t56 -86t48.5 -98.5t20 -106.5q0 -168 -107 -276.5t-272 -108.5q-42 0 -94 10
q-21 -119 -56.5 -182t-72.5 -63q-62 0 -74 55q-5 24 26.5 86t96.5 133q-81 40 -127.5 120t-46.5 193q0 84 24.5 148.5t62.5 99t77 51.5t75 17q28 0 46 -10.5t18 -28.5q0 -10 -8.5 -21t-18.5 -20t-18.5 -29.5t-8.5 -48.5q0 -61 33 -96t92 -35q54 0 88.5 34t34.5 89
q0 38 -23.5 87.5t-52 92t-52 104.5t-23.5 123q0 114 73.5 192.5t215.5 78.5h10q21 115 56.5 176t72.5 61q65 0 74 -53q5 -22 -22 -78.5t-85 -122.5z" />
    <glyph glyph-name="percent" unicode="%" horiz-adv-x="1351" 
d="M389 748q-92 0 -138 71t-46 185q0 85 27 176t73 169t117.5 128.5t152.5 50.5q88 0 132.5 -68.5t44.5 -179.5q0 -113 -46 -235t-132 -209.5t-185 -87.5zM111 0q-43 0 -43 43q0 156 1257 1454l35 -27q-126 -160 -291.5 -371.5t-258.5 -331t-208.5 -264.5t-181.5 -221.5
t-134 -150t-108.5 -102.5t-66.5 -29zM451 993q69 0 119 65.5t44 151.5q-4 51 -30.5 78t-69.5 27q-74 0 -123.5 -69.5t-44.5 -147.5q5 -46 34 -75.5t71 -29.5zM891 -2q-92 0 -138 71t-46 185q0 85 27 176t73 169t117.5 128.5t152.5 50.5q88 0 132 -68.5t44 -179.5
q0 -83 -27.5 -176t-74.5 -172.5t-116 -131.5t-144 -52zM952 244q70 0 120.5 66t43.5 151q-4 51 -30.5 77.5t-69.5 26.5q-75 0 -125.5 -70t-42.5 -147q5 -46 33.5 -75t70.5 -29z" />
    <glyph glyph-name="ampersand" unicode="&#x26;" horiz-adv-x="1433" 
d="M1300 475q45 0 90.5 -57t45.5 -129q0 -52 -14.5 -100t-45.5 -92t-90 -70.5t-139 -26.5q-175 0 -328 137q-157 -164 -358 -164q-185 0 -311.5 130.5t-126.5 330.5q0 123 46.5 234.5t146.5 199.5t239 121v45q0 235 88 372.5t264 137.5q119 0 184.5 -67.5t65.5 -169.5
q0 -62 -28 -122t-83.5 -116t-150.5 -99.5t-217 -64.5q42 -269 190 -440q62 32 122 92t89 121q-48 20 -80 20q-26 0 -45.5 -11.5t-28 -25t-20.5 -25t-25 -11.5q-35 0 -34 58q1 74 51 149q66 98 164 98q48 0 115 -26t126 -52.5t88 -26.5q28 0 65.5 29t57.5 29q37 0 36 -51
q0 -63 -52 -131q-77 -98 -189 -99q-47 0 -118 27q-23 -77 -61.5 -159t-76.5 -136q67 -23 129 -23q59 0 97 17t53 41t23 48t18 41t28 17zM692 1278q-47 0 -85 -56.5t-38 -187.5v-16q131 49 172 137q28 61 0 100q-18 23 -49 23zM313 637q0 -61 21 -112.5t60 -85.5t94.5 -45.5
t125.5 7.5q-121 221 -151 482q-74 -33 -112 -99t-38 -147z" />
    <glyph glyph-name="quotesingle" unicode="'" horiz-adv-x="430" 
d="M281 932q-17 0 -26 30.5t-9 79.5q0 60 13 125t38.5 126.5t70 101t99.5 39.5q78 0 78 -76q0 -65 -54.5 -169t-118 -180.5t-91.5 -76.5z" />
    <glyph glyph-name="parenleft" unicode="(" horiz-adv-x="573" 
d="M387 -229q-190 210 -190 503q0 223 77.5 447.5t228 418t349.5 304.5l33 -37q-242 -190 -386.5 -532.5t-144.5 -686.5q0 -224 70 -401z" />
    <glyph glyph-name="parenright" unicode=")" horiz-adv-x="606" 
d="M317 1440q191 -211 191 -504q0 -223 -77.5 -447.5t-228 -417.5t-349.5 -304l-33 36q161 126 283.5 330.5t184.5 434.5t62 454q0 226 -69 401z" />
    <glyph glyph-name="asterisk" unicode="*" horiz-adv-x="716" 
d="M422 762q-32 4 -44 35t-4.5 76.5t21 89t31.5 84.5q-33 -28 -72 -53t-80.5 -43.5t-74.5 -15.5t-45 32q-12 30 9 55.5t64 42t88 27t88 14.5q-40 14 -81 35t-78.5 49.5t-49.5 56.5t5 56q16 23 41 20.5t51 -17t55 -41.5t52.5 -54.5t43.5 -55.5q-7 43 -9 89t3 91t24.5 72
t51.5 23q42 -6 47 -58.5t-12.5 -112t-44.5 -114.5q34 28 73.5 53t81.5 43.5t75.5 15.5t45.5 -32q12 -30 -9.5 -55.5t-64.5 -41.5t-88 -26.5t-88 -14.5q56 -20 109.5 -50.5t87 -72.5t8.5 -75q-16 -21 -41 -20.5t-51.5 16.5t-55.5 42t-52.5 54.5t-43.5 56.5q7 -44 9 -90.5
t-2.5 -91.5t-23.5 -71.5t-50 -22.5z" />
    <glyph glyph-name="plus" unicode="+" horiz-adv-x="745" 
d="M575 805q167 -3 218 -29.5t26 -95.5q-24 -68 -90 -94t-217 -31q-28 -96 -56 -173t-38 -87q-31 -31 -79 -37t-85.5 12t-44.5 49q-7 37 65 240q-117 8 -162 35t-24 86q16 49 36.5 71t76.5 35.5t170 16.5q121 258 184 258q69 0 20 -256z" />
    <glyph glyph-name="comma" unicode="," horiz-adv-x="487" 
d="M98 -283q-56 0 -93.5 29t-37.5 80q0 40 23 66t59 20q81 -13 141.5 8.5t79.5 52.5t2 47q-11 5 -14.5 1t-20.5 -12.5t-38 -8.5q-50 0 -94 43t-44 109q0 70 50.5 121t121.5 51q73 0 123 -58t50 -157q0 -163 -94 -277.5t-214 -114.5z" />
    <glyph glyph-name="hyphen" unicode="-" horiz-adv-x="825" 
d="M379 516q-42 0 -76.5 0.5t-67.5 2t-59 4t-49.5 6t-40.5 8.5t-31 11.5t-22.5 14.5t-12.5 18.5t-3.5 22.5t6.5 27q19 52 48.5 73t114.5 31t275 10q74 0 125 -2t91.5 -7t61 -13.5t34.5 -21t11.5 -30t-8.5 -40.5q-27 -70 -109.5 -92.5t-287.5 -22.5z" />
    <glyph glyph-name="period" unicode="." horiz-adv-x="487" 
d="M233 -20q-71 0 -121.5 51t-50.5 121t50.5 121t121.5 51t122 -51t51 -121t-51 -121t-122 -51z" />
    <glyph glyph-name="slash" unicode="/" horiz-adv-x="532" 
d="M-111 -229q-43 0 -43 43q0 90 267 577.5t610 1058.5l43 -16q-74 -152 -162 -333t-147.5 -303t-127.5 -261.5t-113.5 -230.5t-94.5 -186.5t-82 -153t-63.5 -105.5t-51.5 -69t-35 -21z" />
    <glyph glyph-name="zero" unicode="0" horiz-adv-x="1085" 
d="M463 6q-121 0 -204 67.5t-120 177t-37 253.5q0 131 32.5 273.5t97 275.5t150 239.5t201.5 171t242 64.5q116 0 194.5 -65.5t113 -171.5t34.5 -247q0 -107 -24.5 -226t-67.5 -234t-108 -220t-141 -184.5t-170.5 -126.5t-192.5 -47zM578 483q113 0 200.5 130t81.5 296
q-3 101 -41.5 153t-109.5 52q-83 0 -152 -66t-104.5 -163t-32.5 -195q3 -94 44.5 -150.5t113.5 -56.5z" />
    <glyph glyph-name="one" unicode="1" horiz-adv-x="645" 
d="M236 0q-105 0 -147.5 61t-16.5 187.5t123 312.5q126 240 172 371q17 51 9 71t-29 28t-43 8.5t-34 13.5t-2 43q15 45 71.5 118t128.5 142.5t153.5 120.5t138.5 51q56 0 67.5 -47.5t-34.5 -147.5q-56 -114 -105 -238t-75.5 -204.5t-61.5 -198.5q-29 -97 -53 -197.5
t-36 -163t-26.5 -124t-28.5 -96t-36.5 -62.5t-54.5 -38.5t-80 -10.5z" />
    <glyph glyph-name="two" unicode="2" horiz-adv-x="1024" 
d="M592 -6q-70 0 -135.5 24.5t-105.5 53.5t-82.5 53.5t-71.5 24.5q-26 0 -41 -16t-15 -40q0 -37 -24 -65.5t-74 -28.5q-44 0 -72 28t-28 91q0 39 10.5 82.5t36 98.5t79.5 110.5t130 99.5q289 168 409.5 278t120.5 220q0 59 -31.5 95t-93.5 36q-61 0 -111 -34.5t-69 -88.5
q-12 -34 -33 -52t-45 -18q-41 0 -64 43t-3 129q43 183 166.5 296.5t299.5 113.5q168 0 269.5 -94t101.5 -258q0 -100 -42.5 -192t-105.5 -158t-149 -130t-161 -106t-153 -88t-114 -74q-26 -21 -17 -48q8 -23 29 -18q10 2 21 13q90 94 207 94q44 0 84 -11t62.5 -21t45 -14
t43 11t45.5 53q11 17 32.5 19t36 -12t7.5 -37q-67 -248 -163 -355.5t-232 -107.5z" />
    <glyph glyph-name="three" unicode="3" horiz-adv-x="1038" 
d="M467 -4q-110 0 -194 30.5t-132 83t-72 114t-24 130.5q0 81 30.5 153.5t84.5 117.5t119 45q59 0 59 -41q0 -6 -7 -34t-7 -54q0 -63 42 -100.5t115 -37.5q81 0 136 51t55 124q0 57 -37.5 90.5t-97.5 33.5q-41 0 -66 20t-25 54q0 33 25.5 55.5t67.5 22.5q103 0 169 49
t66 125q0 61 -37 96t-102 35q-66 0 -114.5 -37t-71.5 -106q-10 -32 -31.5 -51t-46.5 -19q-35 0 -55.5 32t-20.5 87q0 124 64.5 231t174 169.5t236.5 62.5q167 0 269 -90.5t102 -239.5q0 -136 -93.5 -239.5t-246.5 -137.5q-20 -4 -32.5 -14.5t-12.5 -22.5q0 -20 35 -30
q89 -23 138.5 -100.5t49.5 -188.5q0 -210 -143.5 -339.5t-368.5 -129.5z" />
    <glyph glyph-name="four" unicode="4" horiz-adv-x="1110" 
d="M1098 713q21 17 41 20t33.5 -13.5t13.5 -53.5q0 -29 -6 -64.5t-25 -81.5t-47 -82.5t-78.5 -62t-114.5 -25.5q-24 0 -36 2q-36 -146 -68.5 -219.5t-73.5 -103t-108 -29.5q-75 0 -103.5 36t-12.5 127.5t83 254.5q-122 31 -182 31q-40 0 -72 -12t-48.5 -26t-37.5 -26
t-41 -12q-34 0 -62.5 22t-43 55t-5.5 77.5t46 84.5q84 88 133.5 144t103 125.5t78 126t24.5 106.5q0 62 -43 62q-35 0 -51 -29q-42 10 -66 51t-24 96q0 47 16.5 91.5t49 83.5t88 63t125.5 24q122 0 190 -77t68 -193q0 -259 -418 -584q-18 -12 -15.5 -24t25.5 -12
q177 0 273 2q203 444 288 590.5t158 146.5q45 0 35 -56q-7 -43 -76 -212q-65 -160 -104 -269q-33 -93 -54 -190q117 13 144 35z" />
    <glyph glyph-name="five" unicode="5" horiz-adv-x="1028" 
d="M1229 1526q10 4 17.5 -4.5t4.5 -16.5q-8 -22 -24.5 -69.5t-26 -73.5t-28 -67.5t-34 -65.5t-41 -54t-53 -45.5t-65 -26.5t-80.5 -11q-54 0 -134 31t-126 32q-49 -1 -76.5 -26.5t-48.5 -75.5l-51 -133q88 32 188 32q89 0 159.5 -31.5t113.5 -86.5t65.5 -124.5t22.5 -148.5
q0 -101 -36 -200t-102.5 -181t-172 -133t-232.5 -51q-110 0 -194 30.5t-132 83t-72 114t-24 130.5q0 81 30.5 153.5t84.5 117.5t119 45q59 0 59 -41q0 -6 -7 -34t-7 -54q0 -54 42 -85.5t115 -31.5q87 0 146 62.5t59 152.5q0 73 -39 117.5t-102 44.5q-120 0 -197 -68
q-12 -12 -36 -11t-45 14.5t-32.5 37.5t1.5 57l223 609q27 76 166 76q64 1 200.5 -8.5t236.5 -7.5t165 26z" />
    <glyph glyph-name="six" unicode="6" horiz-adv-x="1071" 
d="M508 6q-100 0 -177 37t-124.5 102.5t-71.5 150.5t-24 187q0 134 32.5 279t96.5 281t149.5 244.5t201 174.5t240.5 66q110 0 189 -56t112 -139.5t26 -183t-58 -184.5q-17 -28 -47 -28.5t-39 28.5q-46 165 -213 165q-110 0 -196.5 -61.5t-133.5 -165.5q-10 -23 -1.5 -32.5
t26.5 1.5q105 60 235 60q155 0 235.5 -95.5t80.5 -242.5q0 -100 -37.5 -202.5t-104.5 -189t-171.5 -141.5t-225.5 -55zM582 469q76 0 122 49.5t46 118.5q0 58 -34.5 100.5t-103.5 42.5q-112 0 -155 -78t-3.5 -155.5t128.5 -77.5z" />
    <glyph glyph-name="seven" unicode="7" horiz-adv-x="903" 
d="M350 -4q-124 0 -188 71.5t-64 184.5q0 177 185 399q75 90 160.5 170.5t148.5 129t116.5 87.5t79 62.5t21.5 38.5t-17.5 13t-34.5 -15t-52.5 -24.5t-73 -15.5t-94.5 11q-68 21 -116 16t-69.5 -20t-48 -31t-51.5 -16q-24 0 -38.5 18.5t-0.5 54.5l111 279q50 125 188 125
q126 0 233.5 -14t176 -28.5t98.5 -14.5q26 0 45.5 8.5t29 19t23 19t29.5 8.5q63 0 63 -84q0 -51 -31 -112.5t-90.5 -132t-118 -131.5t-143.5 -147.5t-137 -144.5q-113 -125 -121 -224q-5 -60 31 -71q5 -2 12 -2q24 0 40 16.5t28 16.5q31 0 31 -39t-6.5 -84.5t-21.5 -101.5
t-43 -107t-66 -94t-96 -68.5t-128 -25.5z" />
    <glyph glyph-name="eight" unicode="8" horiz-adv-x="1040" 
d="M512 -25q-192 0 -314 109.5t-122 308.5q0 105 34 200.5t89 163.5t121 114t135 65q14 3 19 12t-5 21q-59 73 -59 196q0 157 100.5 258t290.5 101q78 0 140 -18.5t102.5 -48.5t67.5 -70.5t38.5 -83.5t11.5 -89q0 -116 -67.5 -210.5t-184.5 -151.5q-11 -5 -15.5 -13t1.5 -16
q117 -145 117 -338q0 -223 -141 -366.5t-359 -143.5zM760 963q63 0 98 35.5t35 99.5q0 60 -32.5 93.5t-92.5 33.5q-61 0 -95 -35t-34 -98q0 -62 31.5 -95.5t89.5 -33.5zM580 471q75 0 120 45.5t45 120.5q0 67 -40.5 108t-108.5 41q-75 0 -121.5 -45t-46.5 -120
q0 -68 41.5 -109t110.5 -41z" />
    <glyph glyph-name="nine" unicode="9" horiz-adv-x="1064" 
d="M422 6q-118 0 -202.5 57.5t-119.5 144t-27.5 190t60.5 192.5q17 28 47 28.5t39 -28.5q53 -187 234 -187q112 0 200 64t135 172q11 20 4 29.5t-26 -0.5q-105 -66 -244 -66q-155 0 -235 95.5t-80 242.5q0 79 23 161.5t69.5 159t109.5 136t150.5 95.5t185.5 36
q196 0 297 -133t101 -344q0 -134 -32.5 -279t-97 -281t-149.5 -244.5t-201 -174.5t-241 -66zM649 815q80 0 128 55t48 125q0 55 -35.5 93t-103.5 38q-83 0 -132.5 -49.5t-49.5 -118.5q0 -58 36 -100.5t109 -42.5z" />
    <glyph glyph-name="colon" unicode=":" horiz-adv-x="589" 
d="M442 680q-70 0 -121 51t-51 121t51 121t121 51t121 -51t51 -121t-51 -121t-121 -51zM233 -20q-71 0 -121.5 51t-50.5 121t50.5 121t121.5 51t122 -51t51 -121t-51 -121t-122 -51z" />
    <glyph glyph-name="semicolon" unicode=";" horiz-adv-x="589" 
d="M442 680q-70 0 -121 51t-51 121t51 121t121 51t121 -51t51 -121t-51 -121t-121 -51zM98 -283q-56 0 -93.5 29t-37.5 80q0 40 23 66t59 20q81 -13 141.5 8.5t79.5 52.5t2 47q-11 5 -14.5 1t-20.5 -12.5t-38 -8.5q-50 0 -94 43t-44 109q0 70 50.5 121t121.5 51
q73 0 123 -58t50 -157q0 -163 -94 -277.5t-214 -114.5z" />
    <glyph glyph-name="less" unicode="&#x3c;" horiz-adv-x="933" 
d="M774 295q-34 0 -146.5 42.5t-234 99.5t-216.5 120t-95 98q0 49 125 121t282.5 131.5t295.5 102.5t169 43q29 0 41 -13.5t19 -42.5q5 -20 -0.5 -40t-24 -40t-39.5 -37.5t-59 -38.5t-69 -37t-82.5 -38.5t-88 -38t-96.5 -40t-96 -40.5q58 -24 99 -41.5t88.5 -39.5t78.5 -39
t63 -36.5t49.5 -36.5t29 -34.5t10 -35t-14.5 -34.5q-22 -29 -40 -42t-48 -13z" />
    <glyph glyph-name="equal" unicode="=" horiz-adv-x="903" 
d="M592 741q-211 0 -291.5 25t-54.5 100q12 35 23.5 53t36 34.5t70 23t114 10.5t180.5 4q208 0 270.5 -25t36.5 -100q-27 -76 -107 -100.5t-278 -24.5zM434 334q-211 0 -291.5 25t-54.5 100q12 35 23.5 53t36 34.5t70 23t114 10.5t180.5 4q208 0 270.5 -25t36.5 -100
q-27 -76 -107 -100.5t-278 -24.5z" />
    <glyph glyph-name="greater" unicode="&#x3e;" horiz-adv-x="933" 
d="M143 283q-29 0 -40.5 13t-18.5 42q-5 20 1 40t24.5 40t39.5 37.5t59 38.5t68.5 37t82.5 38.5t87.5 37.5t96 40.5t96.5 40.5q-59 24 -99 41.5t-88 39t-78.5 38.5t-63 36.5t-49.5 36.5t-28.5 35t-10.5 35.5t14 34.5q22 29 40 42t48 13q34 0 146.5 -42.5t234 -99.5
t216.5 -120t95 -98q0 -49 -125.5 -121t-283 -131t-295.5 -102t-169 -43z" />
    <glyph glyph-name="question" unicode="?" horiz-adv-x="841" 
d="M463 502q-2 -30 -41.5 -44t-77 5t-33.5 69q5 66 33.5 121t67.5 90t84 70.5t82.5 64.5t62.5 70.5t25 89.5q0 62 -36.5 102t-103.5 40q-72 0 -126.5 -45.5t-80.5 -118.5q-24 -70 -77 -70q-41 0 -64.5 43t-3.5 129q43 183 168.5 296.5t304.5 113.5q165 0 265 -94t100 -258
q0 -85 -29 -153.5t-76.5 -114t-104.5 -84t-115 -71.5t-106.5 -67t-81 -80.5t-36.5 -103.5zM336 -20q-70 0 -121 51t-51 121t51 121t121 51t121 -51t51 -121t-51 -121t-121 -51z" />
    <glyph glyph-name="at" unicode="@" horiz-adv-x="1310" 
d="M647 0q-138 0 -258 57.5t-201 154.5t-120.5 231t-22.5 280q22 193 130 357t273 259t347 95q112 0 216.5 -40t185 -112t124 -183t33.5 -241q-11 -134 -77 -249t-172 -184t-226 -69q-78 0 -113 62.5t-21 161.5h-6q-49 -101 -116.5 -162.5t-145.5 -61.5q-76 0 -117 63
t-41 169q0 66 15.5 137.5t48.5 142.5t78.5 127.5t111.5 91.5t142 35q42 0 70.5 -9t39 -19.5t22.5 -19.5t25 -9q22 0 58.5 28.5t75.5 28.5q53 0 53 -55q0 -17 -3 -33.5t-11.5 -37.5t-15 -35.5t-21.5 -44t-23 -46.5q-44 -100 -23.5 -156.5t91.5 -56.5q76 0 132.5 63.5
t63.5 160.5q8 94 -31 173t-110.5 129.5t-163 78.5t-190.5 28q-109 0 -214.5 -46t-187.5 -123.5t-137 -185t-68 -224.5q-17 -155 48.5 -285.5t196 -206.5t296.5 -76q122 0 235.5 52t200.5 143q17 17 35 20.5t30 -5t19.5 -22.5t4.5 -33t-17 -36q-106 -122 -249.5 -192
t-299.5 -70zM631 674q57 0 95 46t38 97q0 38 -21.5 60t-58.5 22q-57 0 -94 -44.5t-37 -98.5q0 -38 21 -60t57 -22z" />
    <glyph glyph-name="A" unicode="A" horiz-adv-x="1748" 
d="M1796 561q9 14 24.5 17.5t29 -3t25.5 -16.5t15.5 -24t-2.5 -25q-11 -19 -39 -76t-53.5 -107t-69 -113t-87 -107.5t-105 -75.5t-127.5 -31q-70 0 -115.5 42.5t-64.5 108.5t-19 154q0 65 17 172q-122 6 -250 35q-13 -21 -37.5 -66t-36.5 -67q-55 -96 -118 -176.5
t-135.5 -147t-154 -104t-161.5 -37.5q-101 0 -179 29.5t-123.5 79.5t-68 109.5t-22.5 125.5q0 132 77 233t195 101q12 0 21.5 -7.5t9.5 -17.5q0 -67 57 -109t143 -42q177 0 328 174q-160 81 -251 208t-91 279q0 78 27 142.5t73 105.5t105 63.5t125 22.5q110 0 167.5 -56.5
t57.5 -135.5q2 -24 -10 -38.5t-35 -11.5q-70 7 -121 -35t-51 -145q0 -159 115 -254q4 6 24 40.5t31 53.5q91 164 182 289t171 204t161 129t150.5 69.5t140.5 19.5q103 0 157 -56t54 -145q-2 -99 -47 -169t-109 -70q-13 0 -37 10.5t-39 9.5q-72 0 -143 -233
q-53 -182 -53 -266q0 -144 104 -144q49 0 94.5 21t73.5 63zM1255 616q34 119 75.5 220.5t62 151.5t20.5 85q0 29 -24 29q-22 0 -45.5 -17t-65.5 -67q-84 -109 -229 -369q88 -27 206 -33z" />
    <glyph glyph-name="B" unicode="B" horiz-adv-x="1628" 
d="M252 -86q-86 0 -155 29.5t-111.5 79t-65 110t-22.5 125.5q0 132 77 233t195 101q12 0 21.5 -7.5t9.5 -17.5q0 -65 61.5 -108t143.5 -43q113 0 223 87.5t178 262.5q6 15 46.5 124t61.5 161q37 98 134 98q123 0 90 -111q-58 -164 41 -164q70 0 124 53.5t54 143.5t-83 134
t-214 44q-124 0 -221 -28t-159.5 -92.5t-62.5 -159.5q0 -45 22 -75t56 -30q11 -23 7 -51t-15.5 -58t-37 -58t-56.5 -50t-74.5 -35.5t-91.5 -13.5q-120 0 -188 77.5t-68 188.5q0 133 63.5 253t177 210.5t284.5 143.5t374 53q317 0 485 -114.5t168 -287.5q0 -121 -74 -217
t-190 -117q-22 -5 -25 -21t7 -24q98 -98 98 -256q0 -112 -39 -209t-104 -161t-149 -100.5t-173 -36.5q-133 0 -213 76t-88 204q-233 -346 -522 -346zM1094 424q70 0 112.5 58.5t42.5 135.5q0 47 -34 78.5t-99 30.5q-64 0 -101.5 -48t-37.5 -112q0 -61 29.5 -102t87.5 -41z
" />
    <glyph glyph-name="C" unicode="C" horiz-adv-x="1138" 
d="M575 -25q-111 0 -202 35t-160 105t-107 184t-38 264q0 146 42 288t118.5 258t175.5 205t219.5 138t244.5 49q190 0 289.5 -78.5t99.5 -214.5q0 -86 -35.5 -165.5t-90.5 -132.5t-119 -85t-121 -32q-43 0 -64 25.5t-4 58.5q51 98 57 163.5t-24 94t-90 28.5
q-136 0 -232 -121.5t-96 -277.5q0 -146 104 -241t298 -95q109 0 203.5 31t142.5 102q12 17 31 18t35 -10t24.5 -28t1.5 -31q-133 -267 -303 -401t-400 -134z" />
    <glyph glyph-name="D" unicode="D" horiz-adv-x="1667" 
d="M272 -86q-91 0 -161 29.5t-111 79t-61.5 109.5t-20.5 126q0 132 77 233t195 101q12 0 21.5 -7.5t9.5 -17.5q0 -67 57.5 -109t143.5 -42q104 0 210.5 88.5t174.5 261.5q6 15 46.5 124t61.5 161q37 98 134 98q61 0 81 -28.5t9 -82.5q-11 -50 -96 -260.5t-85 -279.5
q0 -42 24.5 -68.5t74.5 -26.5q85 0 157.5 79.5t111 198.5t38.5 241q0 69 -17.5 125t-57 103t-113 73t-175.5 26q-75 0 -142 -18t-121.5 -53t-87 -94.5t-32.5 -135.5q0 -44 22 -74t56 -30q25 -4 6 -57q-26 -74 -96 -136q-83 -73 -178 -73q-120 0 -188 87.5t-68 211.5
q0 130 59.5 248.5t163.5 206.5t254 140t322 52q152 0 272.5 -35t199 -94.5t130.5 -144t74 -178.5t22 -202q0 -161 -50 -322.5t-132.5 -286.5t-196.5 -203t-233 -78q-126 0 -200.5 75.5t-82.5 204.5q-88 -163 -217.5 -254.5t-284.5 -91.5z" />
    <glyph glyph-name="E" unicode="E" horiz-adv-x="1056" 
d="M463 -25q-122 0 -220 48t-158 145t-60 229q0 180 97 296.5t261 129.5q23 1 27 19t-15 28q-123 70 -123 244q0 188 137 301t365 113q88 0 156 -22.5t106 -56.5t62 -79.5t31.5 -84.5t7.5 -79q0 -100 -47 -165.5t-109 -65.5q-26 0 -39.5 12t-13.5 31q0 77 -36 122.5
t-128 45.5q-99 0 -150 -51.5t-51 -124.5q0 -49 25.5 -88t66.5 -58q61 0 141.5 10.5t102.5 10.5q26 0 36.5 -19.5t10.5 -60.5q0 -164 -246 -164q-96 0 -172 53q-41 -10 -67.5 -49.5t-26.5 -85.5q0 -71 79.5 -111t225.5 -40q122 0 218.5 39t146.5 114q12 17 31 18t35 -10
t24.5 -28t1.5 -31q-128 -257 -318 -396t-415 -139z" />
    <glyph glyph-name="F" unicode="F" horiz-adv-x="1368" 
d="M1604 1612q44 0 61.5 -20.5t17.5 -63.5q0 -126 -86.5 -214.5t-236.5 -88.5q-64 0 -125 16.5t-104 36.5t-112 36.5t-147 16.5q-95 0 -171 -18.5t-125.5 -61.5t-49.5 -106q0 -41 22 -68.5t56 -27.5q19 -46 -7 -108t-97 -110.5t-164 -48.5q-120 0 -188 83t-68 202
q0 110 55.5 207t159 171.5t263.5 117.5t357 43q101 0 227.5 -8.5t190.5 -8.5q85 0 171 11.5t100 11.5zM1270 848q57 0 78.5 -20t21.5 -56q0 -61 -54.5 -114.5t-152.5 -53.5q-88 0 -176 10q-30 -88 -61 -157q-115 -274 -275 -408.5t-356 -134.5q-103 0 -181.5 29.5
t-124.5 79.5t-68.5 109.5t-22.5 125.5q0 132 77 233t195 101q12 0 21.5 -7.5t9.5 -17.5q0 -68 53 -109.5t141 -41.5q87 0 181.5 59.5t166.5 179.5q-40 4 -57 4q-35 0 -52.5 21t-17.5 55q0 47 30.5 76t90.5 29h86q88 235 105 278q37 99 133 99q66 0 89 -29t5 -82
q-47 -148 -86 -262q176 4 201 4z" />
    <glyph glyph-name="G" unicode="G" horiz-adv-x="1132" 
d="M324 -190q-206 0 -331.5 110.5t-125.5 274.5q0 123 63 207.5t164 84.5q12 0 21.5 -7t9.5 -17q0 -117 93.5 -190.5t230.5 -73.5q217 0 311 200q10 23 -5 36q-13 8 -24 -5q-91 -121 -229 -121q-125 0 -204 106t-79 296q0 127 39.5 250t111.5 224t165 179t207 121t231 43
q160 0 245 -79.5t85 -211.5q0 -135 -89.5 -215t-209.5 -80q-34 0 -58.5 17t-13.5 42q14 32 16 63.5t-7.5 57.5t-36 42t-66.5 16q-104 0 -177 -79.5t-73 -180.5q0 -91 54 -148t149 -57q125 0 198 84q28 26 57 26t49.5 -22t14.5 -49q-14 -57 -32 -119t-28.5 -95t-37.5 -113
t-35 -105q-76 -230 -251.5 -371t-401.5 -141z" />
    <glyph glyph-name="H" unicode="H" horiz-adv-x="1773" 
d="M1821 561q9 14 24.5 17.5t29 -3t25.5 -16.5t15.5 -24t-2.5 -25q-9 -16 -33 -63.5t-46.5 -88.5t-56 -96t-72.5 -98t-85.5 -82t-104.5 -60.5t-120 -21.5q-111 0 -175.5 64t-64.5 182q0 166 49 313l2 8q7 22 8.5 38.5t1 27.5t-9 18t-15 11t-23.5 5.5t-27 1.5t-34.5 -0.5
t-37.5 -0.5q-21 0 -31.5 -1.5t-26.5 -14t-30 -38.5q-12 -24 -16 -34q-48 -109 -60 -136q-249 -530 -653 -530q-86 0 -155 29.5t-111.5 79t-65 110t-22.5 125.5q0 132 77 233t195 101q12 0 21.5 -7.5t9.5 -17.5q0 -67 57 -109t143 -42q74 0 147 34.5t143.5 116t115.5 199.5
q28 73 89 222t85 208q-94 26 -178.5 -1.5t-134.5 -94.5t-50 -154q0 -43 22 -72.5t56 -29.5q11 -23 7 -51t-15.5 -58t-37 -58t-56.5 -50t-74.5 -35.5t-91.5 -13.5q-120 0 -188 87.5t-68 213.5q0 130 57 248t155.5 205.5t241 139.5t304.5 52q200 0 266 -88.5t6 -247.5
q-49 -153 -100 -279q0 -2 -2 -4q-36 -92 41 -92q63 0 102 4q9 1 16.5 2.5t14 5t11 6t9.5 10t7.5 11.5t7 15t6.5 16.5t7.5 20.5t8.5 22q44 127 81 217.5t79.5 170.5t85 128t94 75t109.5 27q81 0 127.5 -50.5t46.5 -154.5q0 -111 -53.5 -230.5t-153 -221t-221.5 -150.5
q-60 -23 -60 -106q0 -74 43 -124t115 -50q57 0 110.5 27t86.5 77zM1550 1018q-16 -49 -20 -76.5t0 -35t14 -7.5q45 0 102.5 76.5t57.5 134.5q0 51 -43 51q-39 0 -63.5 -37.5t-47.5 -105.5z" />
    <glyph glyph-name="I" unicode="I" horiz-adv-x="870" 
d="M365 -25q-102 0 -166 54t-64 143q0 38 12.5 71.5t39.5 68t53.5 62t71.5 73t77 81.5q49 54 91.5 116t73 114t69 135t61.5 138t68 165q-138 30 -238 -17t-100 -149q0 -44 22 -74t56 -30q11 -23 6.5 -51.5t-16 -58t-36.5 -58t-56.5 -50.5t-75 -35.5t-91.5 -13.5
q-120 0 -188 78t-68 189q0 121 52.5 230t146.5 190.5t235 129.5t308 48q88 0 147.5 -15t92 -40.5t45 -68.5t8.5 -91t-21 -115q-44 -184 -123 -456.5t-139 -450.5q-49 -151 -141 -231.5t-213 -80.5z" />
    <glyph glyph-name="J" unicode="J" horiz-adv-x="1062" 
d="M326 -86q-206 0 -317 105.5t-111 271.5q0 127 71 224t181 97q12 0 21 -7t9 -17q0 -76 64 -124t159 -48q111 0 224.5 88.5t179.5 261.5q94 249 174 430q-150 30 -256.5 -32.5t-106.5 -194.5q0 -45 22 -75t56 -30q11 -23 7 -51t-15.5 -58t-37 -58t-56.5 -50t-74.5 -35.5
t-91.5 -13.5q-120 0 -188 77.5t-68 188.5q0 133 56 253.5t154 210.5t242.5 143t311.5 53q105 0 172 -24.5t95 -72t26 -111t-33 -147.5q-26 -79 -107.5 -314.5t-107.5 -313.5q-112 -330 -269 -478.5t-386 -148.5z" />
    <glyph glyph-name="K" unicode="K" horiz-adv-x="1681" 
d="M1327 756q-16 -8 -19 -24t7 -23q30 -24 50 -63t30.5 -75.5t24 -71t41 -55t71.5 -20.5q63 0 107 34t90 103q19 22 42 18t40.5 -26.5t9.5 -42.5q-31 -77 -69 -148t-88 -137.5t-104.5 -116t-120 -79t-132.5 -29.5q-66 0 -111 26.5t-66 70.5t-32 99.5t-10 114t2 114t2 99.5
t-9 70.5t-32 26.5t-37 -15.5t-33 -64.5q-112 -330 -269 -478.5t-386 -148.5q-206 0 -317 105.5t-111 271.5q0 127 71 224t181 97q12 0 21 -7t9 -17q0 -76 64 -124t159 -48q111 0 224.5 88.5t179.5 261.5q31 81 96 240t78 190q-87 21 -154.5 6.5t-114 -54t-70.5 -92
t-24 -108.5q0 -44 22 -74t56 -30q11 -23 7 -51t-15.5 -58t-37 -58t-56.5 -50t-74.5 -35.5t-91.5 -13.5q-120 0 -188 77.5t-68 188.5q0 138 54 262t149 216.5t234.5 147t301.5 54.5q113 0 185.5 -25t103 -73t29.5 -112.5t-33 -148.5q-2 -7 -74 -215q0 -1 -1 -3t-1 -3
q-11 -43 -2 -63.5t31 -20.5q48 -1 99.5 77.5t117.5 233.5q70 155 111 215q96 138 239 138q108 0 159.5 -65t51.5 -159q0 -108 -58.5 -192t-129.5 -84q-24 0 -54.5 17.5t-56.5 17.5q-37 0 -70 -24.5t-60 -63t-52.5 -79t-56.5 -79.5t-62 -57z" />
    <glyph glyph-name="L" unicode="L" horiz-adv-x="1236" 
d="M1284 561q12 17 31 18t35 -10t24.5 -28t1.5 -31q-108 -207 -192 -319.5t-151.5 -151.5t-151.5 -39q-70 0 -132.5 20.5t-114.5 59t-91 78t-82 94.5q-83 -137 -179 -207t-219 -70q-107 0 -184.5 48.5t-113 122.5t-35.5 163q0 65 25 126t72.5 111.5t123.5 80.5t170 30
q126 0 254 -57q25 44 43 82q-180 51 -281.5 168t-101.5 278q0 170 98.5 273.5t261.5 103.5q101 0 163.5 -48.5t62.5 -123.5q0 -55 -33 -55q-76 0 -127 -51.5t-51 -139.5q0 -122 94 -196q68 166 127.5 278t128 195t145.5 121.5t170 38.5q141 0 221 -73.5t80 -213.5
q0 -72 -19.5 -142t-56.5 -136t-96.5 -122t-135 -98t-175.5 -66t-215 -24h-23q-53 -126 -73 -166q80 -45 151 -69.5t154 -24.5q116 0 228 43t169 129zM977 1169q-14 0 -27.5 -4.5t-37 -24t-47.5 -52t-57 -94.5t-69 -146q-5 -9 -8 -23q138 7 224.5 93t86.5 174q0 34 -16 55.5
t-49 21.5zM178 412q56 0 111 61q-53 53 -105 53q-34 0 -52.5 -16t-18.5 -41t17 -41t48 -16z" />
    <glyph glyph-name="M" unicode="M" horiz-adv-x="2117" 
d="M2165 561q14 22 32.5 14.5t34 -25.5t25.5 -40q-11 -19 -39 -76t-53.5 -107t-69 -113t-87 -107.5t-105 -75.5t-127.5 -31q-112 0 -171 78.5t-59 220.5q0 79 22.5 171.5t49.5 158.5t49.5 127.5t22.5 87.5q0 45 -39 45t-73 -46.5t-82.5 -185t-113.5 -391.5q-25 -96 -71 -132
t-107 -36q-92 0 -127 31t-35 98q0 62 30 166t59.5 214.5t29.5 189.5q0 98 -49 98q-45 0 -57 -57q-40 -196 -101 -351.5t-135.5 -262t-165 -177t-186.5 -102t-203 -31.5q-86 0 -155 29.5t-111.5 79t-65 110t-22.5 125.5q0 132 77 233t195 101q12 0 21.5 -7.5t9.5 -17.5
q0 -67 58.5 -109t148.5 -42q69 0 136 30t120.5 79.5t99.5 113.5t77 132t48 135t17 122q0 81 -37.5 124.5t-104.5 43.5q-77 0 -132.5 -56t-55.5 -149q0 -54 30 -90.5t74 -36.5q19 -43 -4.5 -100t-88.5 -101.5t-150 -44.5q-123 0 -202 88.5t-79 231.5q0 116 48.5 222
t134.5 187t214.5 129t278.5 48q261 0 411 -148.5t177 -410.5q51 108 122.5 208t152.5 178.5t172 125.5t173 47q111 0 164 -59.5t53 -151.5t-48.5 -175t-102.5 -83q-16 0 -39.5 11t-36.5 11q-47 0 -88.5 -95t-61.5 -203.5t-20 -178.5q0 -143 125 -143q99 0 168 104z" />
    <glyph glyph-name="N" unicode="N" horiz-adv-x="1667" 
d="M252 -86q-86 0 -155 29.5t-111.5 79t-65 110t-22.5 125.5q0 132 77 233t195 101q12 0 21.5 -7.5t9.5 -17.5q0 -67 58.5 -109t148.5 -42q82 0 161 42t138.5 110t105 149t69 162.5t23.5 148.5q0 82 -36 126t-101 44q-63 0 -107.5 -39.5t-44.5 -105.5q0 -54 30.5 -90.5
t74.5 -36.5q9 -26 6.5 -58t-24 -65t-51.5 -60.5t-76.5 -45t-98.5 -17.5q-123 0 -201.5 89.5t-78.5 236.5q0 102 41 195t116.5 165t194 115t262.5 43q123 0 215.5 -41.5t161.5 -131.5t104 -242t35 -364q0 -30 14.5 -39.5t30.5 2.5t19 37q13 120 42 229.5t80 211.5t118 176.5
t161.5 119t206.5 44.5q144 0 216.5 -62.5t72.5 -150.5q0 -97 -55 -152t-162 -55q-36 0 -62 20.5t-51 20.5q-83 0 -157 -67t-134.5 -191t-109.5 -290t-87 -374q-22 -115 -77 -170t-131 -55q-105 0 -150 88t-45 262q0 214 25 461q3 27 -10.5 38t-30 1.5t-21.5 -33.5
q-48 -239 -128 -416.5t-183 -282t-219 -154.5t-248 -50z" />
    <glyph glyph-name="O" unicode="O" horiz-adv-x="1085" 
d="M793 1526q172 0 262 -111.5t90 -312.5q0 -171 -57.5 -365t-152 -358.5t-232 -273.5t-283.5 -109q-60 0 -117 18.5t-109 59.5t-91 100.5t-62 147.5t-23 194q0 161 50 335t122 286q79 123 177 123q33 0 57 -17q40 125 133.5 204t235.5 79zM518 461q96 0 180.5 72.5
t132.5 184.5t48 230q0 122 -44 185t-122 63q-52 0 -81.5 -27t-29.5 -71q0 -40 22.5 -64t59.5 -24q36 0 56 -24t20 -60q0 -57 -41.5 -102.5t-114.5 -45.5q-78 0 -129 60.5t-69 156.5q-20 -48 -31.5 -82t-22 -90t-10.5 -112q0 -250 176 -250z" />
    <glyph glyph-name="P" unicode="P" horiz-adv-x="1556" 
d="M961 1524q348 0 520 -134t172 -389q0 -98 -35 -192.5t-101 -174t-173.5 -128.5t-239.5 -49q-46 0 -82 9t-54 20.5t-37.5 20.5t-35.5 9q-30 0 -49 -29l-10 -20l6 14l-6 -14q-94 -246 -252.5 -399.5t-350.5 -153.5q-87 0 -153.5 29t-105 77.5t-57.5 107t-19 124.5
q0 87 33 164t96.5 126.5t142.5 49.5q12 0 21.5 -7.5t9.5 -17.5q0 -67 49.5 -109t122.5 -42q44 0 91.5 20.5t95.5 61.5t94 110t81 158q96 252 109 285q37 98 133 98q123 0 90 -111q-63 -183 -68 -204l7 14q-23 -62 -4.5 -90.5t85.5 -28.5q93 0 165.5 73.5t72.5 198.5
q0 129 -90.5 188.5t-265.5 59.5q-92 0 -170 -16t-140 -47.5t-97.5 -84t-35.5 -120.5q0 -41 22 -68.5t56 -27.5q19 -46 -7 -108t-97 -110.5t-164 -48.5q-120 0 -188 83t-68 202q0 126 62 239t174 197.5t279.5 134.5t365.5 50z" />
    <glyph glyph-name="Q" unicode="Q" horiz-adv-x="1105" 
d="M1286 -47l19 -8q-17 -93 -62.5 -172t-123 -131t-171.5 -52q-70 0 -124.5 25.5t-88.5 65.5t-58.5 102t-36 123.5t-19.5 140.5q-97 -51 -201 -51q-72 0 -138.5 25t-122 74t-89 132t-33.5 189q0 187 104 309q-20 63 -19.5 146t20.5 172.5t67 175.5t113.5 154.5t167.5 110.5
t221 42q212 0 323 -122.5t111 -342.5q0 -216 -93.5 -459.5t-244.5 -406.5q18 -66 40.5 -114.5t59 -90.5t92 -64t129.5 -22q101 0 158 49zM639 1182q-66 0 -124.5 -31.5t-98.5 -82.5t-65.5 -108.5t-35.5 -115.5q59 18 129 18q120 0 185 -65t98 -183q51 68 81 157t30 177
q0 115 -54 174.5t-145 59.5zM500 481q36 0 82 17q-16 90 -51 138t-97 48q-47 0 -76.5 -28t-29.5 -70q0 -43 43.5 -74t128.5 -31z" />
    <glyph glyph-name="R" unicode="R" horiz-adv-x="1660" 
d="M250 -86q-86 0 -152 29.5t-104 79.5t-57 109.5t-19 125.5q0 132 77 233t195 101q12 0 21.5 -7.5t9.5 -17.5q0 -67 49.5 -109t122.5 -42q204 0 363 350q6 15 46.5 124t61.5 161q37 98 133 98q123 0 90 -111q-53 -151 -61 -217q-3 -34 16.5 -44.5t61.5 -10.5
q97 0 169.5 74.5t72.5 181.5q0 118 -97.5 172.5t-265.5 54.5q-191 0 -303.5 -81t-112.5 -187q0 -41 22 -68.5t56 -27.5q19 -46 -7 -108t-97 -110.5t-164 -48.5q-120 0 -188 83t-68 202q0 110 63.5 220t176.5 199.5t286 145.5t373 56q330 0 494.5 -115.5t164.5 -327.5
q0 -172 -87 -289.5t-238 -142.5q-72 -10 -72 -33q0 -11 10.5 -18t32 -26t39.5 -52q27 -48 58.5 -72t86.5 -24q64 0 108.5 34t90.5 103q19 22 42 18t40.5 -26.5t9.5 -42.5q-40 -96 -95.5 -184.5t-122 -163t-146 -118.5t-156.5 -44q-91 0 -150 64.5t-69 197.5q-2 18 -3.5 53.5
t-3.5 60t-6 57.5t-10.5 55t-17 43t-26 31.5t-36.5 10.5q-22 0 -33.5 -11t-19.5 -36q-102 -274 -273 -443t-382 -169z" />
    <glyph glyph-name="S" unicode="S" horiz-adv-x="1060" 
d="M465 -86q-136 0 -241.5 53.5t-168.5 164t-63 263.5q0 92 22.5 167.5t57 122.5t79 79.5t86 45.5t80.5 13q38 0 61 -14t23 -37q0 -18 -17.5 -36t-35.5 -48.5t-18 -79.5q0 -83 45.5 -131.5t124.5 -48.5q74 0 121 47.5t47 122.5q0 43 -21.5 93.5t-52 100.5t-60.5 104
t-51.5 122t-21.5 137q0 72 24 137t71 117.5t124.5 83.5t175.5 31q87 0 153 -24.5t104 -66.5t56.5 -92.5t18.5 -107.5q0 -92 -49.5 -172t-132.5 -123q-15 -14 -40 -5.5t-42.5 33.5t-3.5 42q15 19 22 51t3.5 64t-27 55.5t-64.5 23.5q-55 0 -91 -35.5t-36 -107.5
q-2 -50 23.5 -108.5t63.5 -116t76 -118t64.5 -134t26.5 -144.5q0 -229 -145 -376.5t-371 -147.5z" />
    <glyph glyph-name="T" unicode="T" horiz-adv-x="1073" 
d="M356 700q-120 0 -188 83t-68 202q0 89 32.5 174t101.5 162.5t168 136t242.5 93t313.5 34.5q119 0 267 -8t209 -8q86 0 171 11t99 11q44 0 62 -20.5t18 -63.5q0 -126 -89 -214.5t-247 -88.5q-64 0 -127 16.5t-108 37t-119.5 37t-159.5 16.5q-175 0 -281 -72.5t-106 -175.5
q0 -41 22 -68.5t56 -27.5q11 -23 6.5 -51.5t-16 -58t-36.5 -58t-56.5 -50.5t-75 -35.5t-91.5 -13.5zM295 -86q-103 0 -181.5 29.5t-124.5 79.5t-68.5 109.5t-22.5 125.5q0 132 77 233t195 101q12 0 21.5 -7.5t9.5 -17.5q0 -68 53 -109.5t141 -41.5q68 0 139 34t144 116
t119 200q6 15 46.5 124t61.5 161q37 98 133 98q66 0 89.5 -29.5t5.5 -81.5q-124 -384 -207 -581q-115 -274 -275 -408.5t-356 -134.5z" />
    <glyph glyph-name="U" unicode="U" horiz-adv-x="1167" 
d="M293 -2q-124 0 -192 95t-68 249q0 153 73 345.5t190.5 353.5t238.5 227q-259 9 -406 -58.5t-147 -199.5q0 -45 22 -75t55 -30q11 -23 7 -51t-15.5 -58t-37 -58t-56.5 -50t-74.5 -35.5t-91.5 -13.5q-120 0 -188 77.5t-68 188.5q0 125 65.5 237.5t183 197t293 134.5
t382.5 50q186 0 275 -62t40 -184q-97 -44 -187 -161.5t-142 -254.5t-52 -246q0 -139 101 -139q165 0 292 334q37 107 62 175.5t55 145.5t52.5 123.5t49.5 93t51.5 70.5t52.5 39t58 15q84 0 84 -76q0 -53 -34 -117q-169 -340 -240 -588q-25 -88 -25 -135q0 -100 97 -100
t165 104q13 19 33 19q28 0 50 -24.5t10 -45.5q-11 -19 -39.5 -76.5t-54 -107t-68.5 -113t-87 -107.5t-105.5 -75t-127.5 -31q-194 0 -194 211q0 22 4 76q-157 -289 -342 -289z" />
    <glyph glyph-name="V" unicode="V" horiz-adv-x="1003" 
d="M430 0q-56 0 -105.5 21t-90.5 63.5t-65 114.5t-24 166q0 322 277 831q-94 24 -170 8.5t-124 -64t-48 -112.5q0 -43 22 -72.5t56 -29.5q11 -23 6.5 -51.5t-16 -58t-36.5 -58t-56.5 -50.5t-75 -35.5t-91.5 -13.5q-120 0 -188 88t-68 214q0 113 55.5 216.5t151.5 179.5
t234.5 121.5t296.5 45.5q100 0 161 -23t84 -66.5t24.5 -106t-17.5 -140.5q-40 -193 -59.5 -300t-34 -220.5t-3.5 -162t45 -48.5q22 0 42.5 12t42 42.5t36.5 55.5t39 80t36.5 86t39.5 101q97 256 138 343q127 273 277 352q70 36 148 36q164 0 240 -103q58 -80 36 -181
q-21 -96 -105 -145q-56 -32 -128 -32q-53 0 -93 20.5t-69 20.5q-50 0 -97 -39t-86.5 -105.5t-78.5 -152.5t-77 -181t-77 -189.5t-83.5 -180.5t-92 -152.5t-106.5 -105.5t-123 -39z" />
    <glyph glyph-name="W" unicode="W" horiz-adv-x="1576" 
d="M383 0q-99 0 -168.5 91.5t-69.5 273.5q0 322 277 831q-94 24 -170 8.5t-124 -64t-48 -112.5q0 -43 22 -72.5t56 -29.5q11 -23 6.5 -51.5t-16 -58t-36.5 -58t-56.5 -50.5t-75 -35.5t-91.5 -13.5q-120 0 -188 88t-68 214q0 113 55.5 216.5t151.5 179.5t234.5 121.5
t296.5 45.5q88 0 147 -15.5t91.5 -42t44.5 -70.5t8.5 -92.5t-19.5 -115.5q-101 -433 -115 -544q-17 -134 23 -159q13 -8 33 -8q56 0 105.5 102.5t117.5 346.5q18 63 36.5 139.5t30 124t26.5 101t30 84t37 58t51 39t67 11.5q72 0 124.5 -41.5t52.5 -112.5q0 -62 -34 -136
t-78 -161.5t-60 -163.5q-16 -79 -22.5 -145.5t-4.5 -111t10 -75.5t20 -45t27 -14q21 0 40.5 16.5t34.5 40.5t31.5 67.5t29 81.5t31.5 99q10 34 16 52q118 381 274 556t360 175q164 0 240 -103q58 -80 36 -181q-21 -96 -105 -145q-56 -32 -128 -32q-56 0 -98.5 20.5
t-73.5 20.5q-64 0 -112.5 -39t-78.5 -105.5t-54 -152.5t-43.5 -181t-41.5 -189.5t-53.5 -180.5t-74 -152.5t-108.5 -105.5t-152 -39q-55 0 -100 20.5t-81.5 69t-46 128t5.5 196.5q7 47 -19 57q-25 9 -48 -24q-9 -14 -15 -33q-34 -114 -83.5 -198t-105 -129.5t-108.5 -66
t-106 -20.5z" />
    <glyph glyph-name="X" unicode="X" horiz-adv-x="1538" 
d="M231 -86q-78 0 -143 29.5t-105.5 79t-62.5 110t-22 125.5q0 138 79.5 246t194.5 108q49 0 49 -24q0 -67 57.5 -109.5t143.5 -42.5q72 0 136 30.5t111 83.5t81.5 115t56.5 134q41 121 19 209t-107 88q-44 0 -79.5 -25.5t-51.5 -62.5t-22 -78t7 -72q15 -44 -7 -71t-74 -27
q-106 0 -153 112q-47 113 -11 272q39 174 153 282q113 106 267 106q76 0 131 -22.5t82 -59.5t43 -84.5t16.5 -96.5t-0.5 -96.5t-4.5 -84.5t1 -59.5t19.5 -22.5q12 0 28 29t36 75.5t45 102.5t60.5 112t77.5 102.5t102 75.5t128 29q108 0 162 -63.5t54 -161.5
q0 -88 -38 -177.5t-104.5 -149.5t-140.5 -60q-26 0 -43 10.5t-25 26l-16 31t-23.5 26t-40.5 10.5q-80 0 -130 -89.5t-50 -197.5q0 -124 68.5 -192t187.5 -68q65 0 124.5 19.5t86.5 64.5q12 20 32.5 23.5t36.5 -7t25 -28t-2 -39.5q-82 -173 -151 -268q-176 -242 -391 -242
q-70 0 -116 29t-64.5 75.5t-25.5 102.5t-4.5 112t4.5 102.5t-4.5 75.5t-25.5 29q-23 0 -43.5 -34t-42 -87.5t-49.5 -119t-73 -131t-103.5 -119t-151 -87.5t-205.5 -34z" />
    <glyph glyph-name="Y" unicode="Y" horiz-adv-x="1556" 
d="M653 -440q-286 0 -427 167q-102 122 -97 290q5 149 91 252q86 104 214 104q42 0 56 -11.5t14 -33.5q-3 -54 14.5 -105t54.5 -94.5t104 -70.5t154 -27q80 0 147.5 21.5t114 56t83 80.5t58 91.5t36 92t19.5 80t5 57.5q0 26 -18.5 25.5t-26.5 -25.5q-48 -164 -153.5 -255
t-233.5 -91q-133 0 -206.5 95t-73.5 249q0 125 65 283t170 290.5t213 186.5q-259 9 -406 -58.5t-147 -199.5q0 -45 22 -75t56 -30q11 -23 7 -51t-15.5 -58t-37 -58t-56.5 -50t-74.5 -35.5t-91.5 -13.5q-120 0 -188 77.5t-68 188.5q0 125 65.5 237.5t182.5 197t292.5 134.5
t382.5 50q186 0 275.5 -64.5t40.5 -191.5q-87 -35 -168 -130.5t-127.5 -206t-46.5 -198.5q0 -139 100 -139q49 0 90.5 22.5t74 61t63.5 103t56 134.5t54 170q29 103 60.5 178.5t57.5 115.5t55.5 63t49 29t43.5 6q64 0 101 -37.5t36 -106.5q1 -47 -23 -108t-55 -115
t-70 -133.5t-60 -149.5q-3 -10 -14 -43.5t-15.5 -48.5t-14 -47t-15.5 -57t-14 -60t-15 -73.5t-13 -81.5q-62 -408 -262.5 -632t-544.5 -224z" />
    <glyph glyph-name="Z" unicode="Z" horiz-adv-x="1236" 
d="M182 -18q-93 0 -140.5 60.5t-47.5 160.5q0 127 37.5 228.5t100.5 168.5t145 118.5t173 84t181.5 58.5t172.5 49t145 48.5t100.5 63.5t37.5 88q0 37 -30 37q-12 0 -29 -16.5t-36 -37t-63 -37t-104 -16.5t-172 29t-174 29q-44 0 -67 -21t-23 -53q0 -26 15.5 -45t15.5 -33
q0 -23 -22.5 -41t-63.5 -18q-87 0 -139 68t-52 167q0 80 32.5 154t90 131t143 91t185.5 34q76 0 172 -27t186 -53.5t152 -26.5q43 0 68 11t34.5 26.5t15.5 31.5t19.5 27t38.5 11q30 0 50 -15t31 -46t15 -68t4 -90q0 -111 -34.5 -203t-93 -155t-134.5 -113.5t-160 -84
t-167.5 -61.5t-159.5 -51t-134.5 -46.5t-93 -54.5t-34.5 -69q0 -19 17.5 -24t31.5 12q43 56 95.5 81t150.5 25q59 0 114.5 -14.5t91.5 -32.5t89 -32.5t108 -14.5q158 0 217 86q9 14 24.5 17.5t29 -3t25.5 -16.5t15.5 -24t-2.5 -25q-9 -16 -34 -64.5t-48 -89t-58.5 -96
t-75 -98.5t-87 -82t-106 -60.5t-121.5 -21.5q-77 0 -137 15.5t-97 40t-65 54t-48 59t-39 54t-44.5 40t-57.5 15.5q-33 0 -47 -17.5t-14 -39.5q0 -21 21.5 -51t21.5 -62q0 -49 -41 -86.5t-117 -37.5z" />
    <glyph glyph-name="bracketleft" unicode="[" horiz-adv-x="573" 
d="M-14 -229l549 1663h364l-41 -113h-213l-467 -1438h209l-41 -112h-360z" />
    <glyph glyph-name="backslash" unicode="\" horiz-adv-x="552" 
d="M412 -223q-15 15 -31.5 55.5t-35.5 113.5t-36.5 145.5t-39.5 189.5t-38.5 204.5t-41 233t-39 232t-40.5 244.5t-38 230l43 19q36 -148 80 -322.5t74 -293.5t64 -255t55.5 -226t43 -185t32 -155t17.5 -112t4.5 -80t-12.5 -38q-33 -33 -61 0z" />
    <glyph glyph-name="bracketright" unicode="]" horiz-adv-x="512" 
d="M756 1434l-549 -1663h-365l41 112h213l467 1438h-209l41 113h361z" />
    <glyph glyph-name="asciicircum" unicode="^" horiz-adv-x="1228" 
d="M827 678q-77 -31 -139 90q-33 64 -98 267q-13 39 -21 65q-129 -238 -204.5 -341t-131.5 -75q-24 14 -33.5 27.5t-6.5 40.5q6 43 92.5 209t191 320.5t148.5 154.5q46 0 90.5 -65.5t76 -160.5t55 -196t34.5 -177t8 -98q-4 -27 -18 -38.5t-44 -22.5z" />
    <glyph glyph-name="underscore" unicode="_" horiz-adv-x="952" 
d="M395 -180q-133 0 -212 3.5t-134 13t-70.5 27t-1.5 46.5q15 32 31 46t69 26t142.5 15t257.5 3q296 0 357 -26q41 -20 20 -64q-27 -55 -119 -72.5t-340 -17.5z" />
    <glyph glyph-name="grave" unicode="`" horiz-adv-x="655" 
d="M586 1159q-46 0 -236 72t-186 100q5 34 56 88t87 54q34 0 114.5 -57t147 -121.5t66.5 -84.5q0 -17 -13.5 -34t-35.5 -17z" />
    <glyph glyph-name="a" unicode="a" 
d="M217 0q-102 0 -156.5 84t-54.5 225q0 88 20.5 184t64.5 191t105 170.5t149.5 122.5t189.5 47q46 0 79 -8t50 -19.5t29.5 -23t24 -19.5t25.5 -8q22 0 43 12t36 27t41.5 27t58.5 12q71 0 71 -76q0 -35 -13.5 -71t-41 -91t-43.5 -98q-51 -112 -38.5 -171.5t81.5 -59.5
q97 0 162 104q11 17 30 18t35 -10t25 -28t2 -31q-15 -28 -38.5 -76t-41 -84.5t-43.5 -84t-49.5 -82.5t-55 -71.5t-62.5 -59.5t-70 -37.5t-80 -14.5q-103 0 -149.5 84t-27.5 215h-8q-66 -134 -156.5 -216.5t-193.5 -82.5zM422 424q75 0 126.5 61t51.5 131q0 51 -28 80t-78 29
q-76 0 -125.5 -59t-49.5 -131q0 -52 27.5 -81.5t75.5 -29.5z" />
    <glyph glyph-name="b" unicode="b" horiz-adv-x="933" 
d="M981 561q15 15 40 13t44 -22t8 -42q-128 -267 -354 -281q-78 -106 -176.5 -167.5t-196.5 -61.5q-127 0 -215 74t-112 198.5t28 288.5q102 298 156 445q92 250 159.5 358.5t151.5 108.5q65 0 79 -46.5t-30 -146.5q-6 -14 -29.5 -67t-32 -73.5t-24.5 -60t-26 -68.5t-17 -57
q-4 -14 4.5 -22t23 -5.5t27.5 15.5q79 82 168 82q224 0 224 -291q0 -134 -43 -268q85 13 143 96zM319 535q0 -49 26 -80t81 -31q73 0 123.5 61.5t50.5 130.5q0 48 -28 78.5t-85 30.5q-72 0 -120 -59t-48 -131z" />
    <glyph glyph-name="c" unicode="c" horiz-adv-x="860" 
d="M360 0q-89 0 -158.5 32t-111.5 88t-63 126.5t-21 152.5q0 87 22.5 175.5t67.5 169t106.5 143t145.5 100t178 37.5q140 0 211.5 -72t71.5 -180q0 -63 -20 -112.5t-52 -77.5t-67 -42t-70 -14q-50 0 -78 17.5t-28 40.5q0 14 12 27.5t23.5 35t11.5 53.5q0 31 -20.5 51.5
t-63.5 20.5q-66 0 -106 -59t-40 -140q0 -79 43 -133t112 -70t147.5 -4.5t158 63t135.5 132.5q9 14 24.5 17.5t29 -3t25.5 -16.5t15.5 -24t-2.5 -25q-135 -251 -297 -380.5t-342 -129.5z" />
    <glyph glyph-name="d" unicode="d" 
d="M240 0q-116 0 -175 80.5t-59 210.5q0 77 15 159.5t43.5 165t74 156t102.5 130t133 89.5t161 33q56 0 94 -15.5t52 -33.5t29.5 -33.5t32.5 -15.5q14 0 24.5 32t35.5 118.5t61 172.5q53 128 106.5 176t108.5 48q56 0 70.5 -52.5t-23.5 -140.5l-231 -592
q-51 -112 -38.5 -171.5t81.5 -59.5q97 0 162 104q11 17 30 18t35 -10t25 -28t2 -31q-15 -28 -38.5 -76t-41 -84.5t-43.5 -84t-49.5 -82.5t-55 -71.5t-62.5 -59.5t-70 -37.5t-80 -14.5q-97 0 -145.5 85t-31.5 214h-8q-68 -134 -153 -216.5t-174 -82.5zM426 424
q73 0 123.5 61.5t50.5 130.5q0 48 -28 78.5t-85 30.5q-72 0 -120 -59t-48 -131q0 -49 26 -80t81 -31z" />
    <glyph glyph-name="e" unicode="e" horiz-adv-x="880" 
d="M385 0q-200 0 -294 154q-81 134 -55.5 330t143.5 344q137 173 338 193q25 3 50 3q135 0 205 -74t70 -184q0 -120 -93.5 -218.5t-236.5 -98.5q-104 0 -160 32q-10 7 -22.5 1t-12.5 -25q0 -52 60.5 -80.5t152.5 -28.5q110 0 221 56t177 157q9 14 24.5 17.5t29 -3
t25.5 -16.5t15.5 -24t-2.5 -25q-135 -251 -296 -380.5t-339 -129.5zM459 602q56 0 91.5 36.5t35.5 78.5q0 36 -24.5 60t-69.5 24q-57 0 -93.5 -35.5t-36.5 -79.5q0 -36 25 -60t72 -24z" />
    <glyph glyph-name="f" unicode="f" horiz-adv-x="530" 
d="M719 1567q92 0 142.5 -44.5t53 -108t-17 -127t-64 -108t-90.5 -44.5q-43 0 -43 30q0 99 -75 99q-119 0 -197 -242h215q27 0 30 -47t-20 -94t-61 -47l-209 18h-2q-40 -185 -66 -420q-3 -28 -7 -75.5t-7 -77.5t-9.5 -71.5t-14.5 -67.5t-22.5 -55.5t-34 -46t-48.5 -27.5
t-66 -11q-36 0 -61.5 8t-41.5 27t-25 42t-9 62t3.5 77.5t16 98t25 113t33.5 133.5q50 183 92 305h-28q-108 0 -116 62q-5 40 30 75q18 18 34 19h138q219 545 522 545z" />
    <glyph glyph-name="g" unicode="g" horiz-adv-x="1034" 
d="M1081 561q15 15 40.5 13t44.5 -22t8 -42q-14 -29 -38.5 -82.5t-39 -83.5t-37.5 -76.5t-40.5 -74t-41.5 -62.5t-46.5 -55t-49.5 -39.5t-57 -28t-62 -8.5q-47 0 -72 45q-97 -312 -218 -446t-298 -134q-162 0 -251 84.5t-89 233.5q0 139 76 226q38 43 63 42q10 -1 11 -10
q8 -78 69 -124.5t162 -47.5q91 1 174.5 59.5t132.5 147.5t49 178q0 25 -19 26q-22 0 -36 -32q-40 -104 -118 -167t-158 -63q-104 0 -169 78t-65 195q0 77 15 159.5t43.5 165t74 156t102.5 130t133 89.5t161 33q46 0 79 -8t50 -19.5t29.5 -23t24 -19.5t25.5 -8q22 0 43 12
t36 27t41.5 27t58.5 12q71 0 71 -76q0 -32 -22 -81t-65.5 -143t-78.5 -196q-15 -54 -8.5 -86t23 -45.5t41.5 -13.5q76 0 198 178zM426 424q73 0 123.5 61.5t50.5 130.5q0 48 -28 78.5t-85 30.5q-72 0 -120 -59t-48 -131q0 -49 26 -80t81 -31z" />
    <glyph glyph-name="h" unicode="h" horiz-adv-x="1026" 
d="M139 0q-159 0 -159 211q0 153 69 350q158 457 195 553q97 246 175 318q46 41 97 41q65 0 78.5 -47.5t-29.5 -145.5q-11 -24 -72.5 -147t-76.5 -179q-17 -60 2 -71.5t53 24.5q120 117 248 117q89 0 136.5 -53.5t47.5 -134.5q0 -55 -32.5 -141t-32.5 -136q0 -53 22.5 -77.5
t71.5 -24.5q42 0 74 26t67 78q9 14 24.5 17.5t29 -3t25.5 -16.5t15.5 -24t-2.5 -25q-11 -19 -39 -76t-53.5 -107t-69 -113t-87 -107.5t-105 -75.5t-127.5 -31q-95 0 -137.5 59t-42.5 154q0 67 24 143t48 138.5t24 95.5q0 35 -21 53.5t-57 18.5q-88 0 -154.5 -107.5
t-66.5 -245.5v-92q0 -217 -162 -217z" />
    <glyph glyph-name="i" unicode="i" horiz-adv-x="503" 
d="M412 1108q-81 0 -131 34t-50 111q0 189 205 189q87 0 136 -38.5t42 -127.5q-16 -168 -202 -168zM184 0q-97 0 -142.5 70t-45.5 186q0 144 51 305q75 237 143 350t152 113q70 0 70 -92q0 -64 -46.5 -190.5t-46.5 -180.5q0 -50 25 -76t68 -26t75 25.5t66 76.5q9 14 24 17.5
t28.5 -2.5t25.5 -16.5t15.5 -23.5t-1.5 -24q-12 -20 -38.5 -75.5t-51.5 -107t-66 -114t-83 -108t-100.5 -76.5t-121.5 -31z" />
    <glyph glyph-name="j" unicode="j" horiz-adv-x="520" 
d="M412 1108q-87 0 -137 39.5t-42 128.5q13 166 203 166q87 0 136 -38.5t42 -127.5q-16 -168 -202 -168zM567 561q14 15 39 13t44.5 -22t8.5 -42q-14 -30 -38.5 -83t-39 -83t-37.5 -76.5t-40.5 -74t-41 -62.5t-46 -55t-49.5 -39.5t-57 -28t-62 -8.5q-47 0 -72 45
q-98 -314 -213.5 -447t-286.5 -133q-161 0 -250.5 74.5t-89.5 204.5q0 140 70 226q33 40 52 37q6 -2 7 -7q6 -60 52 -95.5t121 -35.5q49 0 85.5 9.5t67 37t52.5 61t47 96.5t46 128t54 171q37 120 59 189q73 233 146.5 348t160.5 115q93 0 93 -90q0 -38 -16.5 -87.5t-54 -141
t-63.5 -168.5q-17 -57 -11 -91t22.5 -48.5t42.5 -14.5q47 0 94 46t104 132z" />
    <glyph glyph-name="k" unicode="k" horiz-adv-x="1026" 
d="M139 0q-159 0 -159 211q0 153 69 350q158 457 195 553q97 246 175 318q46 41 97 41q65 0 78.5 -47.5t-29.5 -145.5q-15 -33 -57.5 -124t-65 -143t-50.5 -132.5t-42 -149.5q-6 -32 17.5 -45.5t53.5 -3.5t42 37q67 152 143.5 228.5t181.5 76.5q87 0 134 -46.5t47 -113.5
q0 -209 -254 -209q-50 -1 -74.5 -27t-24.5 -65q0 -50 49.5 -78t135.5 -28q206 0 272 104q13 20 29.5 26t29.5 -1.5t24 -20t13 -28.5t-4 -27q-10 -17 -40 -76.5t-55.5 -108t-71 -112.5t-91 -107.5t-110 -74.5t-133.5 -31q-103 0 -154.5 92t-81.5 311q-8 57 -47 69
q-35 11 -60 -24q-20 -28 -20 -75v-156q0 -217 -162 -217z" />
    <glyph glyph-name="l" unicode="l" horiz-adv-x="516" 
d="M174 0q-194 0 -194 211q0 153 69 350q158 457 195 553q97 246 175 318q46 41 97 41q65 0 79.5 -48t-30.5 -145q-174 -349 -239 -588q-15 -51 -21 -88t-3 -73t27 -55t68 -19q98 0 166 104q9 14 24.5 17.5t29 -3t25.5 -16.5t15.5 -24t-2.5 -25q-11 -19 -39 -76t-53.5 -107
t-69 -113t-87 -107.5t-105 -75.5t-127.5 -31z" />
    <glyph glyph-name="m" unicode="m" horiz-adv-x="1560" 
d="M129 0q-70 0 -109.5 42t-39.5 108q0 214 67 411q74 221 134 342t116 121q63 0 63 -78q0 -56 31 -70.5t80 31.5q120 117 248 117q72 0 117 -35t61 -94q10 -46 51 0q121 133 264 133q113 0 166.5 -52.5t53.5 -135.5q0 -55 -33 -141t-33 -136q0 -54 24 -80t76 -26
q42 0 74.5 26t67.5 78q9 14 24.5 17.5t29 -3t25.5 -16.5t15.5 -24t-2.5 -25q-11 -19 -39 -76t-53.5 -107t-69 -113t-87 -107.5t-105 -75.5t-127.5 -31q-92 0 -134.5 60.5t-42.5 156.5q0 67 21.5 143t43 138.5t21.5 95.5q0 35 -20.5 53.5t-56.5 18.5q-87 0 -154.5 -102.5
t-67.5 -221.5q0 -30 7.5 -70t7.5 -69q0 -37 -7.5 -68t-25.5 -63t-56 -50t-93 -18q-164 0 -164 178q0 66 25.5 144t51 146t25.5 110q0 80 -78 80q-88 0 -154.5 -107.5t-66.5 -245.5v-92q0 -217 -172 -217z" />
    <glyph glyph-name="n" unicode="n" horiz-adv-x="1026" 
d="M129 0q-70 0 -109.5 42t-39.5 108q0 172 67 411q55 192 123.5 327.5t122.5 135.5q67 0 67 -78q0 -62 29 -74.5t78 35.5q120 117 248 117q89 0 136.5 -53.5t47.5 -134.5q0 -55 -32.5 -141t-32.5 -136q0 -53 23.5 -77.5t74.5 -24.5q42 0 74 26t67 78q9 14 24.5 17.5t29 -3
t25.5 -16.5t15.5 -24t-2.5 -25q-11 -19 -39 -76t-53.5 -107t-69 -113t-87 -107.5t-105 -75.5t-127.5 -31q-91 0 -132.5 59t-41.5 154q0 67 21.5 143t43 138.5t21.5 95.5q0 35 -21 53.5t-57 18.5q-88 0 -154.5 -107.5t-66.5 -245.5v-92q0 -217 -168 -217z" />
    <glyph glyph-name="o" unicode="o" horiz-adv-x="974" 
d="M1022 561q15 15 40 13t44 -22t8 -42q-26 -55 -54 -98t-71 -88t-102.5 -70t-130.5 -25h-25q-78 -107 -183 -168t-218 -61q-140 0 -229 93.5t-89 250.5q0 92 27 188.5t78 184t118.5 156.5t156 110t183.5 41q136 0 217.5 -84.5t81.5 -267.5q0 -109 -30 -211h14q96 0 164 100
zM446 424q73 0 124 61.5t51 130.5q0 48 -28 78.5t-85 30.5q-72 0 -120 -59t-48 -131q0 -49 25.5 -80t80.5 -31z" />
    <glyph glyph-name="p" unicode="p" horiz-adv-x="999" 
d="M1047 561q15 15 40 13t44 -22t8 -42q-20 -43 -41 -78t-53.5 -74.5t-69 -66t-87.5 -44.5t-108 -18h-12q-73 -106 -168 -167.5t-192 -61.5q-95 0 -147.5 56.5t-33.5 172.5q5 30 -17 36q-21 6 -34 -19q-4 -8 -6 -17q-58 -286 -79 -362q-66 -244 -155 -273q-14 -4 -28 -4
q-144 0 -144 142q0 36 9.5 81t32 109.5t41.5 113.5t57 144t59 150q41 108 84 231q100 295 130 358q38 81 81 97q19 8 47 8q93 0 82 -70q-3 -15 6.5 -24t26.5 -6.5t33 18.5q84 82 200 82q122 0 195.5 -83.5t73.5 -227.5q0 -127 -39 -252q96 0 164 100zM446 424q73 0 124 61.5
t51 130.5q0 48 -28 78.5t-85 30.5q-72 0 -120 -59t-48 -131q0 -49 25.5 -80t80.5 -31z" />
    <glyph glyph-name="q" unicode="q" horiz-adv-x="944" 
d="M465 -412q-66 0 -102.5 58.5t-10.5 165.5q16 62 51.5 129.5t68 114t58 101t25.5 97.5q0 26 -13 25q-14 -3 -26 -31q-46 -118 -115.5 -183t-160.5 -65q-104 0 -169 83t-65 208q0 77 15 159.5t43.5 165t74 156t102.5 130t133 89.5t161 33q46 0 79 -8t50 -19.5t29.5 -23
t24 -19.5t25.5 -8q22 0 43 12t36 27t41.5 27t58.5 12q71 0 71 -76q0 -31 -22.5 -83.5t-54 -114t-76 -182.5t-78.5 -263q-25 -103 -68 -279t-67 -276q-19 -81 -63.5 -121.5t-98.5 -40.5zM426 424q73 0 123.5 61.5t50.5 130.5q0 48 -28 78.5t-85 30.5q-72 0 -120 -59t-48 -131
q0 -49 26 -80t81 -31z" />
    <glyph glyph-name="r" unicode="r" horiz-adv-x="808" 
d="M856 561q9 14 24.5 17.5t29 -3t25.5 -16.5t15.5 -24t-2.5 -25q-11 -19 -39 -76t-53.5 -107t-69 -113t-87 -107.5t-105 -75.5t-127.5 -31q-116 0 -170.5 63t-54.5 152q0 82 36 181t71.5 180.5t35.5 119.5q0 20 -27 51t-82 52q-43 -95 -137 -289q-16 -23 -41.5 -19
t-44.5 27.5t-6 42.5q53 75 125 268q-34 11 -51 37t-17 78q0 68 52 126t131 58q93 0 184.5 -37t148 -93t56.5 -111q0 -57 -44 -161t-44 -169q0 -46 30.5 -73t96.5 -27q42 0 74 26t67 78z" />
    <glyph glyph-name="s" unicode="s" horiz-adv-x="792" 
d="M842 561q12 17 31 18t34.5 -10t24 -28t2.5 -31q-67 -139 -115 -212q-200 -296 -491 -296q-103 0 -178.5 38.5t-112 99.5t-48 135.5t4.5 149t53 136.5l8 12q30 40 72.5 104.5t74.5 114t74.5 105.5t79 92.5t80.5 61t86 24.5q89 0 139 -42.5t48 -96.5q1 -22 -22 -40.5
t-51 -30.5t-51.5 -34t-23.5 -49q0 -15 27.5 -70t61.5 -130t46 -129q75 2 146 108zM254 424q66 0 103.5 42t37.5 107q0 71 -45 156q-21 41 -49 0q-67 -99 -162 -219q0 -37 32 -61.5t83 -24.5z" />
    <glyph glyph-name="t" unicode="t" horiz-adv-x="581" 
d="M207 0q-83 0 -137 41t-73 111t-11 159.5t43 188.5q12 36 131 364q-69 0 -94 63q-18 45 -2 79q8 16 22 16q82 0 134.5 45.5t78.5 110.5q34 82 67.5 109.5t77.5 27.5q59 0 71.5 -48t-32.5 -145q-12 -26 -18 -43.5t-7 -31t6 -19.5t21 -6h107q27 0 30 -47t-20 -94t-61 -47
q-55 0 -82 -0.5t-56 -6t-40 -12.5t-25.5 -25.5t-21 -39t-17.5 -58.5q-32 -106 8.5 -169.5t132.5 -63.5q123 0 189 102q12 17 31 17.5t35 -10t24.5 -27.5t1.5 -31q-6 -11 -27.5 -55t-37.5 -75t-46.5 -82t-58 -87.5t-68 -79t-80.5 -69t-91.5 -44.5t-104.5 -18z" />
    <glyph glyph-name="u" unicode="u" horiz-adv-x="1024" 
d="M1071 561q9 14 24.5 17.5t29 -3t25.5 -16.5t15.5 -24t-2.5 -25q-11 -19 -39 -76t-53.5 -107t-69 -113t-87 -107.5t-105 -75.5t-127.5 -31q-176 0 -176 223q0 37 6 84q-29 -62 -59 -110t-70.5 -95.5t-92 -73.5t-108.5 -26q-86 0 -133 60.5t-47 183.5q0 169 45 315
q73 232 146 347.5t157 115.5q64 0 64 -82q0 -68 -46 -200t-46 -191q0 -46 19 -69t67 -23q123 0 172 143l2 8q65 208 130.5 311t141.5 103q64 0 64 -82q0 -59 -46.5 -191.5t-46.5 -181.5q0 -55 30 -83.5t75 -28.5q42 0 74 26t67 78z" />
    <glyph glyph-name="v" unicode="v" horiz-adv-x="913" 
d="M961 561q15 15 40 13t44 -22t8 -42q-20 -43 -41 -78t-53.5 -74.5t-69 -66t-87.5 -44.5t-108 -18q-51 0 -96 31q-179 -258 -348 -258q-79 0 -133 51.5t-76.5 133t-22 179.5t24.5 195q27 114 68 216t97 174.5t109 72.5q64 0 64 -82q0 -57 -46 -193.5t-46 -197.5
q0 -127 121 -127q97 0 149 80q-22 99 -22 190q0 145 52 239.5t152 94.5q118 0 118 -139q0 -151 -136 -416q30 -12 74 -12q96 0 164 100z" />
    <glyph glyph-name="w" unicode="w" horiz-adv-x="1384" 
d="M1432 561q15 15 40 13t44 -22t8 -42q-20 -43 -41 -78t-53.5 -74.5t-69 -66t-87.5 -44.5t-108 -18q-31 0 -63 13q-175 -240 -336 -240q-35 0 -63.5 16.5t-52 54t-32.5 111t0 176.5q-39 -99 -86.5 -171.5t-96.5 -111.5t-94.5 -57t-90.5 -18q-79 0 -133 51.5t-76.5 133
t-22 179.5t24.5 195q27 114 68 216t97 174.5t109 72.5q64 0 64 -82q0 -57 -46 -193.5t-46 -197.5q0 -60 28 -93.5t82 -33.5q69 0 112 49.5t60 124.5q10 44 12 130.5t19 143.5q26 89 68 120.5t116 31.5q129 0 129 -139q0 -49 -55 -166t-55 -168q0 -60 28 -93.5t82 -33.5
q98 0 164 86q-20 102 -20 184q0 93 21 166.5t68.5 120.5t115.5 47q105 0 108 -128q3 -159 -139 -437q12 -2 35 -2q96 0 164 100z" />
    <glyph glyph-name="x" unicode="x" horiz-adv-x="1048" 
d="M1192 528h6l-10 -18q-94 -160 -160 -247q-200 -263 -369 -263q-62 0 -101 38t-54.5 98t-18.5 149q-50 -121 -127 -203t-178 -82q-98 0 -130 86q-29 80 12 177q40 98 124 136q39 17 82 17q56 0 94 32t53 75t15 91q0 54 -22 87.5t-64 33.5q-31 0 -60 -18t-55 -54t-43.5 -66
t-40.5 -75l-6 -12l-92 51q26 38 57 105t56.5 124.5t57.5 113t75.5 88t95.5 32.5q83 0 131 -75t51 -185q42 113 122 186.5t179 73.5q73 0 110.5 -42t37.5 -110q0 -70 -32.5 -134t-74.5 -64q-8 0 -16.5 9t-16 19.5t-24 19.5t-37.5 9q-54 0 -88.5 -47t-34.5 -109
q0 -74 53.5 -116.5t127.5 -42.5q73 0 124.5 40t94.5 105q10 14 17 21t9.5 8.5t9 0.5t7.5 -1q21 0 37 -22.5t16 -39.5z" />
    <glyph glyph-name="y" unicode="y" horiz-adv-x="1017" 
d="M1065 561q15 15 40 13t44 -22t8 -42q-14 -29 -38.5 -82.5t-39 -83.5t-37.5 -76.5t-40.5 -74t-41.5 -62.5t-46.5 -55t-49.5 -39.5t-57 -28t-62 -8.5q-46 0 -71 45q-98 -314 -213.5 -447t-286.5 -133q-162 0 -251 84.5t-89 233.5q0 139 76 226q38 43 63 42q10 -1 11 -10
q8 -79 64 -126t149 -46q133 1 235 109.5t119 259.5q2 22 -8 32.5t-25 3t-24 -31.5q-42 -105 -116.5 -163.5t-172.5 -58.5q-89 0 -146 57.5t-57 168.5q0 169 45 315q73 232 146 347.5t157 115.5q64 0 64 -82q0 -68 -46 -200t-46 -191q0 -46 19 -69t67 -23q65 0 106.5 38
t67.5 113q65 208 130.5 311t141.5 103q46 0 69 -21t23 -69q0 -38 -16.5 -87.5t-53.5 -141t-63 -168.5q-17 -57 -11 -91t22.5 -48.5t41.5 -14.5q77 0 199 178z" />
    <glyph glyph-name="z" unicode="z" horiz-adv-x="921" 
d="M57 -4q-39 0 -39 82q0 61 29.5 122t77.5 110.5t105 96t114.5 86t105.5 73t77.5 63t29.5 51.5q0 57 -96 57q-98 0 -175.5 -56t-146.5 -171l-92 51q54 88 90.5 186t67.5 236q9 39 24.5 56.5t42.5 17.5q30 0 45.5 -11.5t19 -25.5t14.5 -25.5t32 -11.5q18 0 70.5 20.5
t111.5 20.5q52 0 118.5 -13t122 -13t124.5 26q17 6 29.5 -5.5t9.5 -29.5q-13 -84 -53 -158t-90.5 -122t-106.5 -90.5t-102 -69.5t-76.5 -53t-30.5 -45q0 -52 145 -52q95 0 180.5 45t133.5 117q22 33 46 41.5t37 -5t18.5 -36t-9.5 -51.5q-80 -161 -141 -248
q-187 -262 -414 -262q-51 0 -87 10.5t-54.5 25.5t-33.5 30t-34.5 25.5t-46.5 10.5q-38 0 -63.5 -11t-38 -26.5t-23.5 -31t-27 -26.5t-41 -11z" />
    <glyph glyph-name="braceleft" unicode="{" horiz-adv-x="675" 
d="M494 1126q0 177 116.5 259.5t307.5 48.5l-33 -144q-33 8 -68 8q-83 0 -127.5 -49t-44.5 -119q0 -22 7 -70t7 -79q0 -136 -78 -239t-206 -140q129 -42 129 -180q0 -53 -18.5 -104t-45.5 -92t-54 -79t-45.5 -79.5t-18.5 -79.5q0 -33 17 -60t53.5 -41t94.5 7l-32 -123
q-135 -29 -216 24.5t-81 145.5q0 52 19.5 97.5t47 81.5t55 73t47 88.5t19.5 111.5q0 123 -184 123l51 176q132 0 213.5 81t81.5 202q0 28 -7 76.5t-7 74.5z" />
    <glyph glyph-name="bar" unicode="|" horiz-adv-x="530" 
d="M86 -229q-31 0 -40.5 26t5.5 66l504 1607q17 56 65 70q41 12 64 -15q17 -21 8 -55l-506 -1613q-27 -86 -100 -86z" />
    <glyph glyph-name="braceright" unicode="}" horiz-adv-x="634" 
d="M463 809q0 -123 184 -123l-51 -176q-132 0 -213.5 -81t-81.5 -202q0 -28 7 -76.5t7 -74.5q0 -177 -116.5 -259t-307.5 -48l33 143q33 -8 68 -8q83 0 127.5 49t44.5 119q0 22 -7 70t-7 79q0 136 78 239t206 140q-129 42 -129 180q0 53 18.5 104t45.5 92t54 79t45.5 79.5
t18.5 79.5q0 54 -43 88.5t-122 6.5l32 123q135 29 216 -24.5t81 -145.5q0 -52 -19.5 -97.5t-47 -81.5t-55 -73.5t-47 -89t-19.5 -111.5z" />
    <glyph glyph-name="asciitilde" unicode="~" horiz-adv-x="962" 
d="M684 512q-62 0 -123 26t-112.5 52t-90.5 26q-33 0 -59 -13.5t-39 -29.5t-28.5 -29.5t-30.5 -13.5q-44 0 -40 63q4 76 64 163q76 110 176 125q14 2 27 2q56 0 135 -29.5t147.5 -59.5t98.5 -30q25 0 46 16t33 35t32 35t43 16q37 0 32 -58q-7 -76 -70 -161
q-88 -119 -210 -133q-16 -2 -31 -2z" />
    <glyph glyph-name="uni00A0" unicode="&#xa0;" horiz-adv-x="737" 
 />
    <glyph glyph-name="exclamdown" unicode="&#xa1;" horiz-adv-x="598" 
d="M539 1159q71 0 121.5 -50.5t50.5 -121.5t-50.5 -121.5t-121.5 -50.5t-121.5 50.5t-50.5 121.5t50.5 121.5t121.5 50.5zM408 662q59 0 59 -93q0 -125 -30 -292t-77.5 -320t-115 -259t-135.5 -106q-60 0 -90.5 34.5t-30.5 99.5q0 110 84 338.5t186.5 413t149.5 184.5z" />
    <glyph glyph-name="cent" unicode="&#xa2;" horiz-adv-x="901" 
d="M821 602q56 17 79.5 -34t-13.5 -117q-128 -224 -363 -224q-70 0 -137 23q-30 -121 -61.5 -185.5t-55.5 -64.5q-43 0 -43 43q0 26 30 90t83 139q-85 51 -127.5 144.5t-42.5 210.5q0 87 22.5 175t67.5 168.5t106.5 143.5t145.5 100t178 37q22 0 58 -4q55 187 100 187
q43 0 43 -43q0 -49 -68 -162q74 -30 112 -91.5t38 -138.5q0 -120 -65.5 -182.5t-143.5 -62.5q-51 0 -79 17.5t-28 39.5q0 13 12 27.5t24 36t12 53.5q0 31 -20.5 51t-63.5 20q-66 0 -106 -58.5t-40 -139.5q0 -65 30 -114t78.5 -72t110.5 -28.5t127 15.5z" />
    <glyph glyph-name="sterling" unicode="&#xa3;" horiz-adv-x="1024" 
d="M891 938q-43 0 -64 25.5t-4 58.5q27 52 32.5 89.5t-8 57t-34 28.5t-47.5 9q-84 0 -132.5 -107t-51.5 -306h413v-103h-422q-20 -89 -79.5 -157t-131.5 -105q-15 -9 -8.5 -24t29.5 -15h156q164 0 243.5 19.5t112.5 70.5q21 32 48 33t41 -24t3 -60q-58 -191 -128.5 -309.5
t-141.5 -118.5q-97 0 -176.5 19t-140 38t-109.5 19q-48 0 -92 -19t-84 -38t-78 -19q-89 0 -132 81q-39 74 -16 160q24 89 103 118q30 12 67 12q66 0 109 52.5t43 139.5q0 65 6 127h-213v103h225q36 210 128 380.5t227 270.5t286 100q145 0 235.5 -84.5t90.5 -222.5
q0 -75 -29.5 -134.5t-76 -94t-98 -52.5t-101.5 -18z" />
    <glyph glyph-name="currency" unicode="&#xa4;" horiz-adv-x="1085" 
d="M1014 354q15 -39 -25 -55q-24 -11 -73 39t-119 156q-96 -93 -228 -93q-120 0 -213 80q-69 -94 -121 -139.5t-73 -36.5q-39 19 -23 55q11 25 57 71.5t117 94.5q-69 88 -69 201q0 125 86 221q-71 49 -117 96.5t-57 73.5q-16 38 22 56q22 11 74 -38t121 -149q89 66 196 66
q120 0 211 -78q68 107 119.5 159t75.5 44q43 -13 26 -54q-11 -27 -59.5 -79t-124.5 -107q78 -91 78 -211q0 -106 -61 -192q75 -53 122 -103.5t58 -77.5zM569 522q92 0 157 60t65 145t-65 145t-157 60t-156.5 -60t-64.5 -145t64.5 -145t156.5 -60z" />
    <glyph glyph-name="yen" unicode="&#xa5;" horiz-adv-x="942" 
d="M977 1477q54 64 133 49q62 -12 92 -62q37 -61 -14 -121q-12 -14 -350 -411q114 -9 147 -35t12 -86q-24 -70 -99 -96t-247 -29l-18 -53q183 -4 237.5 -30.5t30.5 -94.5t-94.5 -94t-228.5 -29q-33 -183 -57 -245q-44 -116 -132 -136q-20 -4 -43 -4q-45 0 -67 25.5t-22 78
t15 119t45 162.5q-140 6 -195 33.5t-34 89.5q17 49 39 71t84.5 35.5t189.5 16.5l19 57q-146 6 -202 32.5t-34 90.5q14 40 29 59.5t51.5 35t102.5 22.5q-6 17 -65 188t-89 264q-13 38 5 72t54.5 51t76.5 21.5t75.5 -14.5t48.5 -58q9 -27 17.5 -56.5t14.5 -53t13 -56.5t11 -52
t11 -57.5t9.5 -53.5t10 -59t9.5 -58q8 -42 31 -43t51 41q27 42 77.5 121.5t80 125t76 109.5t92.5 117z" />
    <glyph glyph-name="brokenbar" unicode="&#xa6;" horiz-adv-x="512" 
d="M365 864l190 606q17 56 65 70q41 12 64 -15q17 -21 8 -55l-190 -606h-137zM86 -229q-31 0 -40.5 26t5.5 66l201 643h137l-203 -649q-27 -86 -100 -86z" />
    <glyph glyph-name="section" unicode="&#xa7;" horiz-adv-x="1064" 
d="M1024 961q-26 -14 -65 13t-21 54q13 18 17.5 49t-0.5 61.5t-29 53t-64 22.5q-52 0 -84 -34t-28 -103q2 -43 30 -92.5t67.5 -97.5t79.5 -99t69.5 -113.5t33.5 -123.5q9 -123 -71.5 -212.5t-192.5 -98.5q57 -90 63 -189q9 -124 -46 -229.5t-165 -168.5t-251 -63
q-201 0 -337 121.5t-153 341.5q-6 88 11 161t47.5 118t71 76.5t79.5 44t76 12.5q38 0 61 -13t23 -36q1 -14 -8.5 -28.5t-22 -26.5t-21.5 -39t-6 -64q6 -80 53.5 -126t123.5 -46q59 0 93.5 36.5t30.5 94.5q-3 41 -30.5 88.5t-65.5 94t-76 97t-67 114.5t-33 128
q-6 87 31.5 152t112 91t182.5 -3q-51 100 -56 190q-5 69 14 131.5t60 113t113.5 80.5t167.5 30q83 0 148.5 -23.5t105 -64t61 -89t25.5 -104.5q6 -87 -37.5 -163.5t-120.5 -118.5zM479 647q2 -69 99 -176q69 2 110 47t35 115q-3 43 -25 88t-65 108q-70 -6 -112.5 -52
t-41.5 -130z" />
    <glyph glyph-name="dieresis" unicode="&#xa8;" horiz-adv-x="923" 
d="M315 1153q-73 0 -115.5 33.5t-35.5 107.5q10 140 172 140q74 0 115 -32t34 -108q-13 -141 -170 -141zM731 1153q-73 0 -114.5 33.5t-34.5 107.5q10 140 172 140q73 0 114 -32t35 -108q-13 -141 -172 -141z" />
    <glyph glyph-name="copyright" unicode="&#xa9;" horiz-adv-x="1341" 
d="M641 0q-130 0 -243.5 57t-189.5 153t-113.5 229t-22.5 278t80 278t162 229t222.5 153t256.5 57q130 0 243 -57t189 -153t113 -228.5t22 -278.5q-15 -145 -80 -278t-161.5 -229t-222 -153t-255.5 -57zM649 70q155 0 296 87t234 236t111 324t-43.5 324t-184.5 236t-278 87
q-156 0 -297.5 -87t-234.5 -236t-111 -324t43.5 -324t185 -236t279.5 -87zM645 266q-81 -1 -144 27.5t-100.5 79.5t-57 115.5t-19.5 138.5q0 99 33 198.5t92 182t150.5 134.5t197.5 52q126 0 191 -65t65 -162q0 -110 -59.5 -166t-131.5 -58q-44 -1 -70 15t-26 37
q0 12 11 24.5t21.5 32.5t10.5 49q0 28 -19 47.5t-57 18.5q-61 -3 -97 -56t-36 -125q0 -60 26.5 -104.5t71 -65t101 -25t116.5 14.5q50 14 72 -33.5t-12 -105.5q-120 -198 -330 -201z" />
    <glyph glyph-name="ordfeminine" unicode="&#xaa;" horiz-adv-x="696" 
d="M147 750q-69 0 -105 55.5t-36 150.5q0 58 13.5 121.5t42.5 127t69.5 114t99.5 82t127 31.5q37 0 62.5 -8t35.5 -18t20.5 -18t21.5 -8q20 0 52 26t66 26q48 0 48 -50q0 -24 -9 -47.5t-27.5 -60.5t-29.5 -66q-33 -75 -24.5 -114t53.5 -39q67 0 108 69q12 14 28 11.5
t28.5 -17.5t5.5 -28q-11 -21 -34 -68t-38.5 -77.5t-42 -71t-50.5 -64.5t-58 -41.5t-70 -17.5q-73 0 -103.5 62t-11.5 157q-44 -98 -107 -158.5t-135 -60.5zM283 1032q51 0 84.5 41t33.5 88q0 34 -18.5 53t-50.5 19q-51 0 -84 -39.5t-33 -87.5q0 -35 18.5 -54.5t49.5 -19.5z
M358 948h70v74h-70v-74z" />
    <glyph glyph-name="guillemotleft" unicode="&#xab;" horiz-adv-x="1310" 
d="M893 987l-471 -508l268 -463q7 -13 -28 -19q-57 -11 -113 0q-19 5 -25 11l-364 412q-29 28 -18 75t61 83l473 409q48 35 142 35q72 1 80 -21q2 -6 -5 -14zM1391 987l-471 -508l268 -463q7 -13 -28 -19q-57 -11 -113 0q-19 5 -25 11l-365 412q-29 28 -18 75t61 83l474 409
q48 35 142 35q72 1 80 -21q2 -6 -5 -14z" />
    <glyph glyph-name="uni00AD" unicode="&#xad;" horiz-adv-x="825" 
d="M379 516q-42 0 -76.5 0.5t-67.5 2t-59 4t-49.5 6t-40.5 8.5t-31 11.5t-22.5 14.5t-12.5 18.5t-3.5 22.5t6.5 27q19 52 48.5 73t114.5 31t275 10q74 0 125 -2t91.5 -7t61 -13.5t34.5 -21t11.5 -30t-8.5 -40.5q-27 -70 -109.5 -92.5t-287.5 -22.5z" />
    <glyph glyph-name="registered" unicode="&#xae;" horiz-adv-x="643" 
d="M356 666q-141 0 -230.5 113t-72.5 272q15 158 128.5 270.5t256.5 112.5q142 0 231 -112.5t72 -270.5q-15 -159 -128.5 -272t-256.5 -113zM365 727q118 0 211.5 95t107.5 229q15 133 -59 228t-193 95q-120 0 -213.5 -94.5t-107.5 -228.5q-15 -134 59.5 -229t194.5 -95z
M238 815q-47 0 -50 44t29 132q11 33 39.5 129t44.5 144q17 51 70 57q112 10 165.5 -28t53.5 -111q0 -56 -29 -96.5t-80 -53.5q-22 -5 -22 -12q0 -3 3.5 -5t10 -8t12.5 -18q18 -33 47 -33q27 0 28 -36q0 -44 -35 -77q-29 -26 -68 -26q-30 0 -49.5 21.5t-22.5 64.5q-1 6 -2 24
t-2.5 28t-4.5 23t-9 20t-15 8l-26 -95q-26 -96 -88 -96zM393 1069q31 0 55.5 25.5t24.5 60.5q0 34 -13.5 53t-49.5 15q-10 -30 -18.5 -60t-14.5 -54l-8 -32q5 -8 24 -8z" />
    <glyph glyph-name="macron" unicode="&#xaf;" horiz-adv-x="929" 
d="M516 1247q-211 0 -291 18.5t-55 75.5q18 42 46.5 59t111.5 25.5t266 8.5q54 0 94 -1t74.5 -3t58 -5.5t42 -8.5t28 -12t14 -16.5t3.5 -20.5t-7 -26q-24 -58 -104.5 -76t-280.5 -18z" />
    <glyph glyph-name="degree" unicode="&#xb0;" horiz-adv-x="757" 
d="M512 905q-132 0 -225.5 94t-93.5 226t93.5 225.5t225.5 93.5t225.5 -93.5t93.5 -225.5t-93.5 -226t-225.5 -94zM512 1038q77 0 132.5 55.5t55.5 131.5t-55.5 131t-132.5 55t-132.5 -55t-55.5 -131t55.5 -131.5t132.5 -55.5z" />
    <glyph glyph-name="plusminus" unicode="&#xb1;" horiz-adv-x="899" 
d="M700 924q208 -4 246 -33q24 -18 6 -57q-23 -49 -85.5 -67.5t-209.5 -21.5q-42 -140 -63 -161q-31 -31 -79 -37t-85.5 12t-44.5 49q-7 29 31 137q-212 5 -238 48q-9 17 2 41q17 36 39 51.5t84 25.5t189 13q95 186 165 186q73 0 43 -186zM512 475q77 0 130 -1.5t95 -6
t63.5 -11.5t36 -18t12 -26t-8.5 -35q-27 -60 -110 -79t-296 -19q-227 0 -309.5 19t-56.5 79q15 34 30 49.5t62 28.5t126 16.5t226 3.5z" />
    <glyph glyph-name="uni00B2" unicode="&#xb2;" horiz-adv-x="632" 
d="M377 510q-46 0 -90 16t-71.5 36t-55.5 36t-47 16q-17 0 -27 -10.5t-10 -25.5q0 -25 -17 -44.5t-49 -19.5q-67 0 -67 80q0 26 7.5 55t24.5 65t53 73t87 67q191 111 271.5 185t80.5 147q0 39 -20.5 63.5t-61.5 24.5t-75 -23t-46 -59q-14 -47 -51 -47q-29 0 -44 28.5
t-1 86.5q29 122 111 197t200 75q112 0 179 -62.5t67 -171.5q0 -67 -28 -128.5t-70 -105.5t-99.5 -86.5t-107 -70.5t-102 -58.5t-76.5 -49.5q-18 -14 -11 -33q8 -18 25 -8l8 6q63 63 137 63q41 0 82 -16.5t61 -13.5t46 43q11 18 33.5 10.5t15.5 -31.5q-44 -166 -108 -237.5
t-154 -71.5z" />
    <glyph glyph-name="uni00B3" unicode="&#xb3;" horiz-adv-x="671" 
d="M326 508q-142 0 -211.5 69.5t-69.5 167.5q0 84 45 147.5t111 63.5q39 0 39 -26q0 -4 -5.5 -23t-5.5 -37q0 -42 29 -67t78 -25q53 0 90 34.5t37 82.5q0 38 -25 61t-65 23q-28 0 -45 13t-17 36q0 22 17.5 36.5t44.5 14.5q69 0 113 32.5t44 84.5q0 40 -24.5 63t-67.5 23
q-45 0 -77.5 -24.5t-47.5 -69.5q-7 -21 -21.5 -34t-29.5 -13q-24 0 -37.5 21.5t-13.5 58.5q0 126 94 216.5t223 90.5q111 0 178.5 -60t67.5 -159q0 -91 -62 -160t-163 -92q-31 -7 -31 -25q0 -12 23 -20q59 -15 93 -67t34 -126q0 -140 -95.5 -225.5t-246.5 -85.5z" />
    <glyph glyph-name="acute" unicode="&#xb4;" horiz-adv-x="653" 
d="M211 1147q-24 0 -35.5 17t-11.5 36q0 20 66 84t146 121t113 57q37 0 89 -55t55 -88q3 -28 -186.5 -100t-235.5 -72z" />
    <glyph glyph-name="paragraph" unicode="&#xb6;" horiz-adv-x="921" 
d="M1130 1544q24 0 36 -15t12 -38q0 -30 -19 -54t-49 -24h-88l-487 -1556q-27 -86 -101 -86q-43 0 -43 47q0 13 8 45l486 1550h-150l-487 -1556q-27 -86 -101 -86q-45 0 -45 47q0 1 11 45l239 764q-171 0 -233 137q-56 125 -6 307q52 183 180 315q155 158 348 158h489z" />
    <glyph glyph-name="periodcentered" unicode="&#xb7;" horiz-adv-x="589" 
d="M356 604q-70 0 -121 51t-51 121t51 121t121 51t121 -51t51 -121t-51 -121t-121 -51z" />
    <glyph glyph-name="cedilla" unicode="&#xb8;" horiz-adv-x="681" 
d="M352 -471q-69 0 -114 29.5t-59.5 71.5t-14.5 82t12 67q13 30 39 28q16 -1 16 -12q0 -33 31 -52t72 -19q43 0 75.5 21t32.5 58q0 20 -11.5 32.5t-33.5 12.5q-47 0 -80 -26q-26 -20 -44 1q-21 23 -1 60q5 7 11 15l209 245l90 -10l-154 -184l4 -10q36 14 75 15t74 -11
t58 -44.5t23 -82.5q0 -112 -85 -199.5t-225 -87.5z" />
    <glyph glyph-name="uni00B9" unicode="&#xb9;" horiz-adv-x="389" 
d="M178 510q-70 0 -98.5 41t-11.5 125.5t82 208.5q89 170 114 245q14 39 3.5 54.5t-30 15.5t-33 8.5t-5.5 32.5q14 40 71 107.5t132 123.5t124 56q37 0 45 -31.5t-22 -97.5q-85 -172 -162 -428q-21 -73 -38.5 -150.5t-26 -120.5t-20 -85t-25.5 -61.5t-38 -31.5t-61 -12z" />
    <glyph glyph-name="ordmasculine" unicode="&#xba;" horiz-adv-x="481" 
d="M219 754q-93 0 -152 62.5t-59 166.5t47.5 207.5t135.5 174.5t192 71q92 0 146.5 -56t54.5 -178q0 -117 -50.5 -220.5t-135 -165.5t-179.5 -62zM297 1036q50 0 83.5 41.5t33.5 87.5q0 31 -19 51.5t-57 20.5q-47 0 -79 -40t-32 -87q0 -32 17 -53t53 -21z" />
    <glyph glyph-name="guillemotright" unicode="&#xbb;" horiz-adv-x="1310" 
d="M-18 29l471 508l-269 462q-7 13 28 20q57 11 113 -1q19 -4 25 -10l365 -412q29 -28 18 -75t-61 -83l-473 -409q-48 -35 -142 -35q-72 -1 -80 21q-2 6 5 14zM479 29l471 508l-268 462q-7 13 28 20q57 11 113 -1q19 -4 25 -10l364 -412q29 -28 18 -75t-61 -83l-473 -409
q-48 -35 -142 -35q-72 -1 -80 21q-2 6 5 14z" />
    <glyph glyph-name="onequarter" unicode="&#xbc;" horiz-adv-x="1576" 
d="M287 510q-70 0 -98.5 41t-12 125.5t81.5 208.5q92 176 115 245q14 39 3.5 54.5t-30.5 15.5t-33.5 8.5t-5.5 32.5q14 40 71.5 107.5t132.5 123.5t124 56q37 0 44.5 -31.5t-22.5 -97.5q-83 -167 -161 -428q-21 -73 -38.5 -150.5t-26 -120.5t-20 -85t-25.5 -61.5t-38 -31.5
t-61 -12zM1212 1520l39 -27q-526 -870 -712 -1157q-300 -461 -367 -461q-29 0 -45 26.5t-8 57.5q24 93 374.5 590.5t718.5 970.5zM1477 475q22 19 40.5 12t18.5 -43q0 -26 -7.5 -57t-25.5 -68t-56.5 -61.5t-90.5 -24.5h-25q-37 -141 -69.5 -187t-96.5 -46q-76 0 -82.5 58
t58.5 221q-68 20 -119 20q-34 0 -58 -12.5t-41 -25.5t-34 -13q-30 0 -53 24t-23 62.5t33 73.5q59 63 89.5 97t67 82t52.5 85t16 71q0 41 -29 41q-22 0 -32 -20q-29 7 -45.5 34.5t-16.5 63.5q0 68 48.5 122t138.5 54q81 0 126.5 -51.5t45.5 -128.5q0 -48 -20.5 -97t-62 -99
t-86 -93.5t-110.5 -99.5q-7 -6 -9 -11.5t1.5 -9.5t13.5 -4h183q138 301 192.5 396.5t103.5 95.5q14 0 20.5 -7t4.5 -22.5t-8.5 -35t-19.5 -51.5t-27 -65t-32.5 -81t-33.5 -94q-26 -78 -35 -127q79 11 95 22z" />
    <glyph glyph-name="onehalf" unicode="&#xbd;" horiz-adv-x="1556" 
d="M307 510q-70 0 -98.5 41t-11.5 125.5t82 208.5q89 170 114 245q14 39 3.5 54.5t-30 15.5t-33 8.5t-5.5 32.5q14 40 71 107.5t132 123.5t124 56q37 0 45 -31.5t-22 -97.5q-85 -172 -162 -428q-21 -73 -38.5 -150.5t-26 -120.5t-20 -85t-25.5 -61.5t-38 -31.5t-61 -12z
M213 -125q-29 0 -45.5 26.5t-7.5 57.5q21 92 369 585t724 976l39 -27q-526 -870 -712 -1157q-300 -461 -367 -461zM1161 -4q-46 0 -90 16t-71.5 36t-55.5 36t-47 16q-17 0 -27 -10.5t-10 -26.5q0 -25 -16.5 -44t-48.5 -19q-68 0 -68 80q0 26 7.5 55t24.5 65t53 73t87 67
q191 111 271.5 185t80.5 147q0 39 -20.5 63.5t-61.5 24.5t-75 -23.5t-45 -58.5q-14 -47 -52 -47q-29 0 -44 28t-1 86q30 123 112 198t200 75q112 0 178.5 -62.5t66.5 -171.5q0 -67 -28 -128.5t-70 -105.5t-99.5 -86.5t-107 -70.5t-102 -58.5t-76.5 -49.5q-18 -14 -10 -33
q8 -18 25 -8q4 2 8 6q63 63 137 63q41 0 81.5 -16.5t60.5 -13.5t46 43q11 18 33 10.5t16 -31.5q-41 -165 -106 -237t-156 -72z" />
    <glyph glyph-name="threequarters" unicode="&#xbe;" horiz-adv-x="1728" 
d="M668 819q0 -140 -95.5 -225.5t-246.5 -85.5q-142 0 -211.5 69.5t-69.5 167.5q0 84 45 147.5t111 63.5q39 0 39 -26q0 -4 -5.5 -23t-5.5 -37q0 -42 29 -67t78 -25q53 0 90 34.5t37 82.5q0 38 -25 61t-65 23q-28 0 -45 13t-17 36q0 22 17.5 36.5t44.5 14.5q69 0 113 32.5
t44 84.5q0 40 -24.5 63t-67.5 23q-45 0 -77.5 -24.5t-47.5 -69.5q-7 -21 -21.5 -34t-29.5 -13q-24 0 -37.5 21.5t-13.5 58.5q0 126 94 216.5t223 90.5q111 0 178.5 -60t67.5 -159q0 -91 -62 -160t-163 -92q-31 -7 -31 -25q0 -12 23 -20q59 -15 93 -67t34 -126zM1364 1520
l39 -27q-526 -870 -712 -1157q-300 -461 -367 -461q-29 0 -45.5 26.5t-8.5 57.5q24 93 374.5 590t719.5 971zM1628 475q22 19 41 12t19 -43q0 -26 -8 -57t-26 -68t-56.5 -61.5t-90.5 -24.5h-24q-37 -141 -69.5 -187t-96.5 -46q-76 0 -83 58t58 221q-68 20 -118 20
q-34 0 -58.5 -12.5t-41.5 -25.5t-34 -13q-30 0 -53 24t-23 62.5t33 73.5q48 51 72 77.5t59.5 68.5t52 69.5t29.5 60t13 59.5q0 41 -29 41q-23 0 -33 -20q-29 7 -45 34.5t-16 63.5q0 68 48 122t138 54q81 0 126.5 -51.5t45.5 -128.5q0 -91 -71 -182t-207 -207q-7 -6 -9 -11.5
t1.5 -9.5t13.5 -4h182q137 299 192.5 395.5t104.5 96.5q14 0 20.5 -7t4.5 -22.5t-8.5 -35t-19.5 -51.5t-27 -65t-32.5 -81t-33.5 -94q-26 -78 -35 -127q78 10 94 22z" />
    <glyph glyph-name="questiondown" unicode="&#xbf;" horiz-adv-x="841" 
d="M592 1141q70 0 121 -50.5t51 -121.5t-51 -121.5t-121 -50.5t-121 50.5t-51 121.5t51 121.5t121 50.5zM465 618q2 30 41.5 44t76.5 -5t33 -69q-4 -57 -26 -105.5t-53 -82.5t-68.5 -64t-73.5 -57t-66 -55t-48.5 -64t-18.5 -78q0 -62 36 -101.5t103 -39.5q73 0 127 45
t80 118q12 34 33 52t45 18q41 0 64.5 -43t3.5 -129q-43 -183 -168.5 -296.5t-304.5 -113.5q-165 0 -265 94.5t-100 258.5q0 85 29 153.5t76.5 114t104.5 83.5t115 71t106.5 67t81 80.5t36.5 103.5z" />
    <glyph glyph-name="Agrave" unicode="&#xc0;" horiz-adv-x="1748" 
d="M1903 1569q-46 0 -236 72t-186 100q5 34 56 87.5t87 53.5q34 0 114.5 -57t147 -121t66.5 -84q0 -17 -13.5 -34t-35.5 -17zM1720 1120q-72 0 -143 -233q-53 -182 -53 -266q0 -144 104 -144q49 0 94.5 21t73.5 63q9 14 24.5 17.5t29 -3t25.5 -16.5t15.5 -24t-2.5 -25
q-11 -19 -39 -76t-53.5 -107t-69 -113t-87 -107.5t-105 -75.5t-127.5 -31q-70 0 -115.5 42.5t-64.5 108.5t-19 154q0 65 17 172q-122 6 -250 35q-13 -21 -37.5 -66t-36.5 -67q-55 -96 -118 -176.5t-135.5 -147t-154 -104t-161.5 -37.5q-101 0 -179 29.5t-123.5 79.5
t-68 109.5t-22.5 125.5q0 132 77 233t195 101q12 0 21.5 -7.5t9.5 -17.5q0 -67 57 -109t143 -42q177 0 328 174q-160 81 -251 208t-91 279q0 78 27 142.5t73 105.5t105 63.5t125 22.5q110 0 167.5 -56.5t57.5 -135.5q2 -24 -10 -38.5t-35 -11.5q-70 7 -121 -35t-51 -145
q0 -159 115 -254q4 6 24 40.5t31 53.5q91 164 182 289t171 204t161 129t150.5 69.5t140.5 19.5q103 0 157 -56t54 -145q-2 -99 -47 -169t-109 -70q-13 0 -37 10.5t-39 9.5zM1255 616q34 119 75.5 220.5t62 151.5t20.5 85q0 29 -24 29q-22 0 -45.5 -17t-65.5 -67
q-84 -109 -229 -369q88 -27 206 -33z" />
    <glyph glyph-name="Aacute" unicode="&#xc1;" horiz-adv-x="1748" 
d="M1528 1556q-24 0 -35.5 17.5t-11.5 36.5q0 20 66 84t146 121t113 57q37 0 89 -55t55 -88q3 -28 -186.5 -100.5t-235.5 -72.5zM1796 561q9 14 24.5 17.5t29 -3t25.5 -16.5t15.5 -24t-2.5 -25q-11 -19 -39 -76t-53.5 -107t-69 -113t-87 -107.5t-105 -75.5t-127.5 -31
q-70 0 -115.5 42.5t-64.5 108.5t-19 154q0 65 17 172q-122 6 -250 35q-13 -21 -37.5 -66t-36.5 -67q-55 -96 -118 -176.5t-135.5 -147t-154 -104t-161.5 -37.5q-101 0 -179 29.5t-123.5 79.5t-68 109.5t-22.5 125.5q0 132 77 233t195 101q12 0 21.5 -7.5t9.5 -17.5
q0 -67 57 -109t143 -42q177 0 328 174q-160 81 -251 208t-91 279q0 78 27 142.5t73 105.5t105 63.5t125 22.5q110 0 167.5 -56.5t57.5 -135.5q2 -24 -10 -38.5t-35 -11.5q-70 7 -121 -35t-51 -145q0 -159 115 -254q4 6 24 40.5t31 53.5q91 164 182 289t171 204t161 129
t150.5 69.5t140.5 19.5q103 0 157 -56t54 -145q-2 -99 -47 -169t-109 -70q-13 0 -37 10.5t-39 9.5q-72 0 -143 -233q-53 -182 -53 -266q0 -144 104 -144q49 0 94.5 21t73.5 63zM1255 616q34 119 75.5 220.5t62 151.5t20.5 85q0 29 -24 29q-22 0 -45.5 -17t-65.5 -67
q-84 -109 -229 -369q88 -27 206 -33z" />
    <glyph glyph-name="Acircumflex" unicode="&#xc2;" horiz-adv-x="1748" 
d="M1749 1849q30 0 88 -37.5t104 -81.5t46 -63t-11 -40t-30 -21q-22 0 -106 30t-122 56q-7 -3 -34 -15.5t-38.5 -17.5t-35.5 -15t-37 -15.5t-30 -11.5t-28.5 -8.5t-19.5 -2.5q-24 0 -37.5 21.5t-11.5 39.5q0 20 59.5 64t133.5 81t110 37zM1720 1120q-72 0 -143 -233
q-53 -182 -53 -266q0 -144 104 -144q49 0 94.5 21t73.5 63q9 14 24.5 17.5t29 -3t25.5 -16.5t15.5 -24t-2.5 -25q-11 -19 -39 -76t-53.5 -107t-69 -113t-87 -107.5t-105 -75.5t-127.5 -31q-70 0 -115.5 42.5t-64.5 108.5t-19 154q0 65 17 172q-122 6 -250 35
q-13 -21 -37.5 -66t-36.5 -67q-55 -96 -118 -176.5t-135.5 -147t-154 -104t-161.5 -37.5q-101 0 -179 29.5t-123.5 79.5t-68 109.5t-22.5 125.5q0 132 77 233t195 101q12 0 21.5 -7.5t9.5 -17.5q0 -67 57 -109t143 -42q177 0 328 174q-160 81 -251 208t-91 279
q0 78 27 142.5t73 105.5t105 63.5t125 22.5q110 0 167.5 -56.5t57.5 -135.5q2 -24 -10 -38.5t-35 -11.5q-70 7 -121 -35t-51 -145q0 -159 115 -254q4 6 24 40.5t31 53.5q91 164 182 289t171 204t161 129t150.5 69.5t140.5 19.5q103 0 157 -56t54 -145q-2 -99 -47 -169
t-109 -70q-13 0 -37 10.5t-39 9.5zM1255 616q34 119 75.5 220.5t62 151.5t20.5 85q0 29 -24 29q-22 0 -45.5 -17t-65.5 -67q-84 -109 -229 -369q88 -27 206 -33z" />
    <glyph glyph-name="Atilde" unicode="&#xc3;" horiz-adv-x="1748" 
d="M1456 1616q-34 0 -28 52q8 65 60 125q57 67 126 67q50 0 146 -41t118 -41q26 0 53.5 35.5t50.5 35.5q29 0 22 -49q-10 -64 -65 -124q-64 -72 -147 -72q-56 0 -126 36.5t-99 36.5q-30 0 -50.5 -15.5t-34 -30.5t-26.5 -15zM1720 1120q-72 0 -143 -233q-53 -182 -53 -266
q0 -144 104 -144q49 0 94.5 21t73.5 63q9 14 24.5 17.5t29 -3t25.5 -16.5t15.5 -24t-2.5 -25q-11 -19 -39 -76t-53.5 -107t-69 -113t-87 -107.5t-105 -75.5t-127.5 -31q-70 0 -115.5 42.5t-64.5 108.5t-19 154q0 65 17 172q-122 6 -250 35q-13 -21 -37.5 -66t-36.5 -67
q-55 -96 -118 -176.5t-135.5 -147t-154 -104t-161.5 -37.5q-101 0 -179 29.5t-123.5 79.5t-68 109.5t-22.5 125.5q0 132 77 233t195 101q12 0 21.5 -7.5t9.5 -17.5q0 -67 57 -109t143 -42q177 0 328 174q-160 81 -251 208t-91 279q0 78 27 142.5t73 105.5t105 63.5t125 22.5
q110 0 167.5 -56.5t57.5 -135.5q2 -24 -10 -38.5t-35 -11.5q-70 7 -121 -35t-51 -145q0 -159 115 -254q4 6 24 40.5t31 53.5q91 164 182 289t171 204t161 129t150.5 69.5t140.5 19.5q103 0 157 -56t54 -145q-2 -99 -47 -169t-109 -70q-13 0 -37 10.5t-39 9.5zM1255 616
q34 119 75.5 220.5t62 151.5t20.5 85q0 29 -24 29q-22 0 -45.5 -17t-65.5 -67q-84 -109 -229 -369q88 -27 206 -33z" />
    <glyph glyph-name="Adieresis" unicode="&#xc4;" horiz-adv-x="1748" 
d="M1499 1563q-73 0 -115.5 33.5t-35.5 107.5q10 139 172 139q74 0 115 -31.5t34 -107.5q-13 -141 -170 -141zM1937 1843q74 0 115 -31.5t35 -107.5q-13 -141 -172 -141q-73 0 -115 33.5t-35 107.5q10 139 172 139zM1720 1120q-72 0 -143 -233q-53 -182 -53 -266
q0 -144 104 -144q49 0 94.5 21t73.5 63q9 14 24.5 17.5t29 -3t25.5 -16.5t15.5 -24t-2.5 -25q-11 -19 -39 -76t-53.5 -107t-69 -113t-87 -107.5t-105 -75.5t-127.5 -31q-70 0 -115.5 42.5t-64.5 108.5t-19 154q0 65 17 172q-122 6 -250 35q-13 -21 -37.5 -66t-36.5 -67
q-55 -96 -118 -176.5t-135.5 -147t-154 -104t-161.5 -37.5q-101 0 -179 29.5t-123.5 79.5t-68 109.5t-22.5 125.5q0 132 77 233t195 101q12 0 21.5 -7.5t9.5 -17.5q0 -67 57 -109t143 -42q177 0 328 174q-160 81 -251 208t-91 279q0 78 27 142.5t73 105.5t105 63.5t125 22.5
q110 0 167.5 -56.5t57.5 -135.5q2 -24 -10 -38.5t-35 -11.5q-70 7 -121 -35t-51 -145q0 -159 115 -254q4 6 24 40.5t31 53.5q91 164 182 289t171 204t161 129t150.5 69.5t140.5 19.5q103 0 157 -56t54 -145q-2 -99 -47 -169t-109 -70q-13 0 -37 10.5t-39 9.5zM1255 616
q34 119 75.5 220.5t62 151.5t20.5 85q0 29 -24 29q-22 0 -45.5 -17t-65.5 -67q-84 -109 -229 -369q88 -27 206 -33z" />
    <glyph glyph-name="Aring" unicode="&#xc5;" horiz-adv-x="1748" 
d="M1712 1573q-215 0 -215 149q0 148 215 148q66 0 113 -13t70 -36t32.5 -47t9.5 -52q0 -149 -225 -149zM1712 1780q-135 0 -135 -58q0 -59 135 -59q143 0 143 59q0 17 -14.5 29.5t-38 18t-45.5 8t-45 2.5zM1796 561q9 14 24.5 17.5t29 -3t25.5 -16.5t15.5 -24t-2.5 -25
q-11 -19 -39 -76t-53.5 -107t-69 -113t-87 -107.5t-105 -75.5t-127.5 -31q-70 0 -115.5 42.5t-64.5 108.5t-19 154q0 65 17 172q-122 6 -250 35q-13 -21 -37.5 -66t-36.5 -67q-55 -96 -118 -176.5t-135.5 -147t-154 -104t-161.5 -37.5q-101 0 -179 29.5t-123.5 79.5
t-68 109.5t-22.5 125.5q0 132 77 233t195 101q12 0 21.5 -7.5t9.5 -17.5q0 -67 57 -109t143 -42q177 0 328 174q-160 81 -251 208t-91 279q0 78 27 142.5t73 105.5t105 63.5t125 22.5q110 0 167.5 -56.5t57.5 -135.5q2 -24 -10 -38.5t-35 -11.5q-70 7 -121 -35t-51 -145
q0 -159 115 -254q4 6 24 40.5t31 53.5q91 164 182 289t171 204t161 129t150.5 69.5t140.5 19.5q103 0 157 -56t54 -145q-2 -99 -47 -169t-109 -70q-13 0 -37 10.5t-39 9.5q-72 0 -143 -233q-53 -182 -53 -266q0 -144 104 -144q49 0 94.5 21t73.5 63zM1255 616
q34 119 75.5 220.5t62 151.5t20.5 85q0 29 -24 29q-22 0 -45.5 -17t-65.5 -67q-84 -109 -229 -369q88 -27 206 -33z" />
    <glyph glyph-name="AE" unicode="&#xc6;" horiz-adv-x="2115" 
d="M2163 561q12 17 31 18t35 -10t24.5 -28t1.5 -31q-280 -535 -672 -535q-122 0 -220 48t-158 145t-60 229q0 39 12 80q-120 6 -244 35q-12 -21 -36 -66t-37 -67q-101 -175 -235 -289.5t-273 -114.5q-101 0 -179 29.5t-123.5 79.5t-68 109.5t-22.5 125.5q0 132 77 233
t195 101q12 0 21.5 -7t9.5 -17q0 -67 57 -109.5t143 -42.5q134 0 258 117q-156 81 -244.5 207t-88.5 276q0 155 96 244.5t233 89.5q110 0 168 -56.5t58 -135.5q2 -24 -10 -38.5t-35 -11.5q-70 7 -121 -35t-51 -145q0 -157 112 -252q33 47 57 92q81 146 161.5 256.5t162 187
t161 127t170 78.5t175.5 39t190 11q88 0 156 -22.5t106 -56.5t62 -79.5t31.5 -84.5t7.5 -79q0 -100 -47 -165.5t-109 -65.5q-26 0 -39.5 12t-13.5 31q0 77 -36 122.5t-128 45.5q-99 0 -150 -51.5t-51 -124.5q0 -49 26 -87.5t67 -58.5q61 0 141 10.5t102 10.5
q26 0 36.5 -19.5t10.5 -60.5q0 -164 -245 -164q-96 0 -172 53q-42 -10 -68.5 -51t-26.5 -94q0 -83 64 -132.5t180 -49.5t210 51.5t155 142.5zM1217 1018q-88 -114 -230 -369q88 -27 207 -33q34 119 75.5 220.5t62 151.5t20.5 85q0 29 -25 29q-21 0 -44.5 -17t-65.5 -67z" />
    <glyph glyph-name="Ccedilla" unicode="&#xc7;" horiz-adv-x="1138" 
d="M1186 561q12 17 31 18t35 -10t24.5 -28t1.5 -31q-110 -223 -246 -353t-311 -167l-35 -41l4 -10q36 14 75 15t74 -11t58 -44.5t23 -82.5q0 -112 -85 -199.5t-225 -87.5q-69 0 -114 29.5t-59.5 71.5t-14.5 82t12 67q13 30 39 28q16 -1 16 -12q0 -33 31 -52t72 -19
q43 0 75.5 21t32.5 58q0 20 -11.5 32.5t-33.5 12.5q-47 0 -80 -26q-26 -20 -44 1q-21 23 -1 60q5 7 11 15l67 77h-33q-111 0 -202 35t-160 105t-107 184t-38 264q0 146 42 288t118.5 258t175.5 205t219.5 138t244.5 49q190 0 289.5 -78.5t99.5 -214.5q0 -86 -35.5 -165.5
t-90.5 -132.5t-119 -85t-121 -32q-43 0 -64 25.5t-4 58.5q51 98 57 163.5t-24 94t-90 28.5q-136 0 -232 -121.5t-96 -277.5q0 -146 104 -241t298 -95q109 0 203.5 31t142.5 102z" />
    <glyph glyph-name="Egrave" unicode="&#xc8;" horiz-adv-x="1056" 
d="M981 1569q-46 0 -236 72t-186 100q5 34 56 87.5t87 53.5q34 0 114.5 -57t147 -121t66.5 -84q0 -17 -13.5 -34t-35.5 -17zM463 -25q-122 0 -220 48t-158 145t-60 229q0 180 97 296.5t261 129.5q23 1 27 19t-15 28q-123 70 -123 244q0 188 137 301t365 113q88 0 156 -22.5
t106 -56.5t62 -79.5t31.5 -84.5t7.5 -79q0 -100 -47 -165.5t-109 -65.5q-26 0 -39.5 12t-13.5 31q0 77 -36 122.5t-128 45.5q-99 0 -150 -51.5t-51 -124.5q0 -49 25.5 -88t66.5 -58q61 0 141.5 10.5t102.5 10.5q26 0 36.5 -19.5t10.5 -60.5q0 -164 -246 -164q-96 0 -172 53
q-41 -10 -67.5 -49.5t-26.5 -85.5q0 -71 79.5 -111t225.5 -40q122 0 218.5 39t146.5 114q12 17 31 18t35 -10t24.5 -28t1.5 -31q-128 -257 -318 -396t-415 -139z" />
    <glyph glyph-name="Eacute" unicode="&#xc9;" horiz-adv-x="1056" 
d="M606 1556q-24 0 -35.5 17.5t-11.5 36.5q0 20 66.5 84t146.5 121t113 57q37 0 88.5 -54.5t54.5 -88.5q3 -28 -186.5 -100.5t-235.5 -72.5zM463 -25q-122 0 -220 48t-158 145t-60 229q0 180 97 296.5t261 129.5q23 1 27 19t-15 28q-123 70 -123 244q0 188 137 301t365 113
q88 0 156 -22.5t106 -56.5t62 -79.5t31.5 -84.5t7.5 -79q0 -100 -47 -165.5t-109 -65.5q-26 0 -39.5 12t-13.5 31q0 77 -36 122.5t-128 45.5q-99 0 -150 -51.5t-51 -124.5q0 -49 25.5 -88t66.5 -58q61 0 141.5 10.5t102.5 10.5q26 0 36.5 -19.5t10.5 -60.5q0 -164 -246 -164
q-96 0 -172 53q-41 -10 -67.5 -49.5t-26.5 -85.5q0 -71 79.5 -111t225.5 -40q122 0 218.5 39t146.5 114q12 17 31 18t35 -10t24.5 -28t1.5 -31q-128 -257 -318 -396t-415 -139z" />
    <glyph glyph-name="Ecircumflex" unicode="&#xca;" horiz-adv-x="1056" 
d="M573 1606q-24 0 -37.5 21.5t-11.5 39.5q0 20 59.5 64t133.5 81t110 37q30 0 88 -37.5t104 -81.5t46 -63t-11 -40t-30 -21q-22 0 -105.5 30t-121.5 56q-192 -86 -224 -86zM463 -25q-122 0 -220 48t-158 145t-60 229q0 180 97 296.5t261 129.5q23 1 27 19t-15 28
q-123 70 -123 244q0 188 137 301t365 113q88 0 156 -22.5t106 -56.5t62 -79.5t31.5 -84.5t7.5 -79q0 -100 -47 -165.5t-109 -65.5q-26 0 -39.5 12t-13.5 31q0 77 -36 122.5t-128 45.5q-99 0 -150 -51.5t-51 -124.5q0 -49 25.5 -88t66.5 -58q61 0 141.5 10.5t102.5 10.5
q26 0 36.5 -19.5t10.5 -60.5q0 -164 -246 -164q-96 0 -172 53q-41 -10 -67.5 -49.5t-26.5 -85.5q0 -71 79.5 -111t225.5 -40q122 0 218.5 39t146.5 114q12 17 31 18t35 -10t24.5 -28t1.5 -31q-128 -257 -318 -396t-415 -139z" />
    <glyph glyph-name="Edieresis" unicode="&#xcb;" horiz-adv-x="1056" 
d="M578 1563q-73 0 -116 33.5t-36 107.5q10 139 172 139q74 0 115.5 -31.5t34.5 -107.5q-13 -141 -170 -141zM993 1563q-73 0 -114.5 33.5t-34.5 107.5q10 139 172 139q74 0 114.5 -31.5t34.5 -107.5q-13 -141 -172 -141zM463 -25q-122 0 -220 48t-158 145t-60 229
q0 180 97 296.5t261 129.5q23 1 27 19t-15 28q-123 70 -123 244q0 188 137 301t365 113q88 0 156 -22.5t106 -56.5t62 -79.5t31.5 -84.5t7.5 -79q0 -100 -47 -165.5t-109 -65.5q-26 0 -39.5 12t-13.5 31q0 77 -36 122.5t-128 45.5q-99 0 -150 -51.5t-51 -124.5
q0 -49 25.5 -88t66.5 -58q61 0 141.5 10.5t102.5 10.5q26 0 36.5 -19.5t10.5 -60.5q0 -164 -246 -164q-96 0 -172 53q-41 -10 -67.5 -49.5t-26.5 -85.5q0 -71 79.5 -111t225.5 -40q122 0 218.5 39t146.5 114q12 17 31 18t35 -10t24.5 -28t1.5 -31q-128 -257 -318 -396
t-415 -139z" />
    <glyph glyph-name="Igrave" unicode="&#xcc;" horiz-adv-x="870" 
d="M868 1569q-46 0 -236 72t-186 100q5 33 56.5 87t87.5 54q34 0 114.5 -57t147 -121t66.5 -84q0 -16 -14 -33.5t-36 -17.5zM365 -25q-102 0 -166 54t-64 143q0 38 12.5 71.5t39.5 68t53.5 62t71.5 73t77 81.5q49 54 91.5 116t73 114t69 135t61.5 138t68 165
q-138 30 -238 -17t-100 -149q0 -44 22 -74t56 -30q11 -23 6.5 -51.5t-16 -58t-36.5 -58t-56.5 -50.5t-75 -35.5t-91.5 -13.5q-120 0 -188 78t-68 189q0 121 52.5 230t146.5 190.5t235 129.5t308 48q88 0 147.5 -15t92 -40.5t45 -68.5t8.5 -91t-21 -115q-44 -184 -123 -456.5
t-139 -450.5q-49 -151 -141 -231.5t-213 -80.5z" />
    <glyph glyph-name="Iacute" unicode="&#xcd;" horiz-adv-x="870" 
d="M494 1556q-24 0 -36 17.5t-12 36.5q0 20 66.5 84t146.5 121t113 57q37 0 88.5 -54.5t54.5 -88.5q3 -28 -186 -100.5t-235 -72.5zM365 -25q-102 0 -166 54t-64 143q0 38 12.5 71.5t39.5 68t53.5 62t71.5 73t77 81.5q49 54 91.5 116t73 114t69 135t61.5 138t68 165
q-138 30 -238 -17t-100 -149q0 -44 22 -74t56 -30q11 -23 6.5 -51.5t-16 -58t-36.5 -58t-56.5 -50.5t-75 -35.5t-91.5 -13.5q-120 0 -188 78t-68 189q0 121 52.5 230t146.5 190.5t235 129.5t308 48q88 0 147.5 -15t92 -40.5t45 -68.5t8.5 -91t-21 -115q-44 -184 -123 -456.5
t-139 -450.5q-49 -151 -141 -231.5t-213 -80.5z" />
    <glyph glyph-name="Icircumflex" unicode="&#xce;" horiz-adv-x="870" 
d="M461 1606q-24 0 -37.5 21.5t-11.5 39.5q0 20 59.5 64t133.5 81t110 37q30 0 88 -37.5t103.5 -81.5t45.5 -63t-11 -40t-30 -21q-22 0 -105.5 30t-121.5 56q-7 -3 -34 -15.5t-38.5 -17.5t-35.5 -15t-37 -15.5t-30 -11.5t-28.5 -8.5t-19.5 -2.5zM365 -25q-102 0 -166 54
t-64 143q0 38 12.5 71.5t39.5 68t53.5 62t71.5 73t77 81.5q49 54 91.5 116t73 114t69 135t61.5 138t68 165q-138 30 -238 -17t-100 -149q0 -44 22 -74t56 -30q11 -23 6.5 -51.5t-16 -58t-36.5 -58t-56.5 -50.5t-75 -35.5t-91.5 -13.5q-120 0 -188 78t-68 189q0 121 52.5 230
t146.5 190.5t235 129.5t308 48q88 0 147.5 -15t92 -40.5t45 -68.5t8.5 -91t-21 -115q-44 -184 -123 -456.5t-139 -450.5q-49 -151 -141 -231.5t-213 -80.5z" />
    <glyph glyph-name="Idieresis" unicode="&#xcf;" horiz-adv-x="870" 
d="M465 1563q-73 0 -116 33.5t-36 107.5q10 139 172 139q74 0 115.5 -31.5t34.5 -107.5q-13 -141 -170 -141zM881 1563q-73 0 -115 33.5t-35 107.5q10 139 172 139q74 0 115 -31.5t35 -107.5q-13 -141 -172 -141zM365 -25q-102 0 -166 54t-64 143q0 38 12.5 71.5t39.5 68
t53.5 62t71.5 73t77 81.5q49 54 91.5 116t73 114t69 135t61.5 138t68 165q-138 30 -238 -17t-100 -149q0 -44 22 -74t56 -30q11 -23 6.5 -51.5t-16 -58t-36.5 -58t-56.5 -50.5t-75 -35.5t-91.5 -13.5q-120 0 -188 78t-68 189q0 121 52.5 230t146.5 190.5t235 129.5t308 48
q88 0 147.5 -15t92 -40.5t45 -68.5t8.5 -91t-21 -115q-44 -184 -123 -456.5t-139 -450.5q-49 -151 -141 -231.5t-213 -80.5z" />
    <glyph glyph-name="Eth" unicode="&#xd0;" horiz-adv-x="1667" 
d="M971 1524q152 0 272.5 -35t199 -94.5t130.5 -144t74 -178.5t22 -202q0 -161 -50 -322.5t-132.5 -286.5t-196.5 -203t-233 -78q-126 0 -200.5 75.5t-82.5 204.5q-88 -163 -217.5 -254.5t-284.5 -91.5q-91 0 -161 29.5t-111 79t-61.5 109.5t-20.5 126q0 132 77 233t195 101
q12 0 21.5 -7.5t9.5 -17.5q0 -67 57.5 -109t143.5 -42q84 0 172.5 59t155.5 174q-97 4 -134 10q-88 -81 -188 -81q-120 0 -188 87.5t-68 211.5q0 130 59.5 248.5t163.5 206.5t254 140t322 52zM1057 403q85 0 157.5 79.5t111 198.5t38.5 241q0 69 -17.5 125t-57 103t-113 73
t-175.5 26q-75 0 -142 -18t-121.5 -53t-87 -94.5t-32.5 -135.5q0 -55 31 -86q68 12 199 15q55 142 67 174q37 98 134 98q61 0 81 -28.5t9 -82.5q-8 -43 -56 -164q133 -6 173 -29.5t18 -82.5q-23 -60 -84.5 -84t-196.5 -29q-35 -103 -35 -151q0 -42 24.5 -68.5t74.5 -26.5z
" />
    <glyph glyph-name="Ntilde" unicode="&#xd1;" horiz-adv-x="1667" 
d="M1503 1604q-44 0 -86 18t-77.5 36.5t-61.5 18.5q-30 0 -50.5 -15.5t-34 -30.5t-26.5 -15q-34 0 -28 52q8 65 60 125q57 67 126 67q50 0 146 -41t118 -41q26 0 54 35.5t51 35.5q29 0 22 -49q-10 -64 -65 -124q-65 -72 -148 -72zM252 -86q-86 0 -155 29.5t-111.5 79
t-65 110t-22.5 125.5q0 132 77 233t195 101q12 0 21.5 -7.5t9.5 -17.5q0 -67 58.5 -109t148.5 -42q82 0 161 42t138.5 110t105 149t69 162.5t23.5 148.5q0 82 -36 126t-101 44q-63 0 -107.5 -39.5t-44.5 -105.5q0 -54 30.5 -90.5t74.5 -36.5q9 -26 6.5 -58t-24 -65
t-51.5 -60.5t-76.5 -45t-98.5 -17.5q-123 0 -201.5 89.5t-78.5 236.5q0 102 41 195t116.5 165t194 115t262.5 43q123 0 215.5 -41.5t161.5 -131.5t104 -242t35 -364q0 -30 14.5 -39.5t30.5 2.5t19 37q13 120 42 229.5t80 211.5t118 176.5t161.5 119t206.5 44.5
q144 0 216.5 -62.5t72.5 -150.5q0 -97 -55 -152t-162 -55q-36 0 -62 20.5t-51 20.5q-83 0 -157 -67t-134.5 -191t-109.5 -290t-87 -374q-22 -115 -77 -170t-131 -55q-105 0 -150 88t-45 262q0 214 25 461q3 27 -10.5 38t-30 1.5t-21.5 -33.5q-48 -239 -128 -416.5t-183 -282
t-219 -154.5t-248 -50z" />
    <glyph glyph-name="Ograve" unicode="&#xd2;" horiz-adv-x="1085" 
d="M1036 1569q-46 0 -236 72t-186 100q5 33 56.5 87t87.5 54q34 0 114.5 -57t146.5 -121t66 -84q0 -17 -13.5 -34t-35.5 -17zM793 1526q172 0 262 -111.5t90 -312.5q0 -171 -57.5 -365t-152 -358.5t-232 -273.5t-283.5 -109q-60 0 -117 18.5t-109 59.5t-91 100.5t-62 147.5
t-23 194q0 161 50 335t122 286q79 123 177 123q33 0 57 -17q40 125 133.5 204t235.5 79zM518 461q96 0 180.5 72.5t132.5 184.5t48 230q0 122 -44 185t-122 63q-52 0 -81.5 -27t-29.5 -71q0 -40 22.5 -64t59.5 -24q36 0 56 -24t20 -60q0 -57 -41.5 -102.5t-114.5 -45.5
q-78 0 -129 60.5t-69 156.5q-20 -48 -31.5 -82t-22 -90t-10.5 -112q0 -250 176 -250z" />
    <glyph glyph-name="Oacute" unicode="&#xd3;" horiz-adv-x="1085" 
d="M662 1556q-24 0 -36 17.5t-12 36.5q0 20 66.5 84t146.5 121t113 57q37 0 88.5 -54.5t54.5 -88.5q3 -28 -186 -100.5t-235 -72.5zM793 1526q172 0 262 -111.5t90 -312.5q0 -171 -57.5 -365t-152 -358.5t-232 -273.5t-283.5 -109q-60 0 -117 18.5t-109 59.5t-91 100.5
t-62 147.5t-23 194q0 161 50 335t122 286q79 123 177 123q33 0 57 -17q40 125 133.5 204t235.5 79zM518 461q96 0 180.5 72.5t132.5 184.5t48 230q0 122 -44 185t-122 63q-52 0 -81.5 -27t-29.5 -71q0 -40 22.5 -64t59.5 -24q36 0 56 -24t20 -60q0 -57 -41.5 -102.5
t-114.5 -45.5q-78 0 -129 60.5t-69 156.5q-20 -48 -31.5 -82t-22 -90t-10.5 -112q0 -250 176 -250z" />
    <glyph glyph-name="Ocircumflex" unicode="&#xd4;" horiz-adv-x="1085" 
d="M629 1606q-24 0 -37.5 21.5t-11.5 39.5q0 20 59.5 64t133.5 81t110 37q30 0 88 -37.5t103.5 -81.5t45.5 -63t-11 -40t-30 -21q-22 0 -105.5 30t-121.5 56q-7 -3 -34 -15.5t-38.5 -17.5t-35.5 -15t-37 -15.5t-30 -11.5t-28.5 -8.5t-19.5 -2.5zM793 1526q172 0 262 -111.5
t90 -312.5q0 -171 -57.5 -365t-152 -358.5t-232 -273.5t-283.5 -109q-60 0 -117 18.5t-109 59.5t-91 100.5t-62 147.5t-23 194q0 161 50 335t122 286q79 123 177 123q33 0 57 -17q40 125 133.5 204t235.5 79zM518 461q96 0 180.5 72.5t132.5 184.5t48 230q0 122 -44 185
t-122 63q-52 0 -81.5 -27t-29.5 -71q0 -40 22.5 -64t59.5 -24q36 0 56 -24t20 -60q0 -57 -41.5 -102.5t-114.5 -45.5q-78 0 -129 60.5t-69 156.5q-20 -48 -31.5 -82t-22 -90t-10.5 -112q0 -250 176 -250z" />
    <glyph glyph-name="Otilde" unicode="&#xd5;" horiz-adv-x="1085" 
d="M590 1616q-34 0 -28 52q8 65 60 125q57 67 126 67q50 0 146 -41t118 -41q26 0 53.5 35.5t50.5 35.5q29 0 22 -49q-10 -64 -65 -124q-64 -72 -147 -72q-44 0 -86 18t-77.5 36.5t-62.5 18.5q-30 0 -50.5 -15.5t-33.5 -30.5t-26 -15zM793 1526q172 0 262 -111.5t90 -312.5
q0 -171 -57.5 -365t-152 -358.5t-232 -273.5t-283.5 -109q-60 0 -117 18.5t-109 59.5t-91 100.5t-62 147.5t-23 194q0 161 50 335t122 286q79 123 177 123q33 0 57 -17q40 125 133.5 204t235.5 79zM518 461q96 0 180.5 72.5t132.5 184.5t48 230q0 122 -44 185t-122 63
q-52 0 -81.5 -27t-29.5 -71q0 -40 22.5 -64t59.5 -24q36 0 56 -24t20 -60q0 -57 -41.5 -102.5t-114.5 -45.5q-78 0 -129 60.5t-69 156.5q-20 -48 -31.5 -82t-22 -90t-10.5 -112q0 -250 176 -250z" />
    <glyph glyph-name="Odieresis" unicode="&#xd6;" horiz-adv-x="1085" 
d="M633 1563q-73 0 -116 33.5t-36 107.5q10 139 172 139q74 0 115.5 -31.5t34.5 -107.5q-13 -141 -170 -141zM1071 1843q74 0 115 -31.5t35 -107.5q-13 -141 -172 -141q-73 0 -115 33.5t-35 107.5q10 139 172 139zM793 1526q172 0 262 -111.5t90 -312.5q0 -171 -57.5 -365
t-152 -358.5t-232 -273.5t-283.5 -109q-60 0 -117 18.5t-109 59.5t-91 100.5t-62 147.5t-23 194q0 161 50 335t122 286q79 123 177 123q33 0 57 -17q40 125 133.5 204t235.5 79zM518 461q96 0 180.5 72.5t132.5 184.5t48 230q0 122 -44 185t-122 63q-52 0 -81.5 -27
t-29.5 -71q0 -40 22.5 -64t59.5 -24q36 0 56 -24t20 -60q0 -57 -41.5 -102.5t-114.5 -45.5q-78 0 -129 60.5t-69 156.5q-20 -48 -31.5 -82t-22 -90t-10.5 -112q0 -250 176 -250z" />
    <glyph glyph-name="multiply" unicode="&#xd7;" horiz-adv-x="718" 
d="M793 979q49 -71 -166 -279q85 -120 93 -179t-54 -105q-32 -24 -59.5 -30t-57.5 7t-61.5 42t-73.5 81q-83 -65 -148.5 -109.5t-77.5 -46.5q-58 -10 -91 53.5t-3 116.5q25 41 178 175q-45 66 -62 107.5t-8 78t50 67.5q36 27 55 36.5t47 5t59 -33.5t79 -89q248 173 301 102z
" />
    <glyph glyph-name="Oslash" unicode="&#xd8;" horiz-adv-x="1085" 
d="M793 1526q172 0 262 -111.5t90 -312.5q0 -171 -57.5 -365t-152 -358.5t-232 -273.5t-283.5 -109q-60 0 -117 18.5t-109 59.5t-91 100.5t-62 147.5t-23 194q0 161 50 335t122 286q79 123 177 123q33 0 57 -17q40 125 133.5 204t235.5 79zM713 1196q-52 0 -81.5 -27
t-29.5 -71q0 -40 22.5 -64t59.5 -24q27 0 47 -17q17 25 49.5 74.5t48.5 73.5q-43 55 -116 55zM545 463q136 15 235 163.5t99 321.5q0 59 -13 109q-213 -420 -321 -594zM406 995q-20 -48 -31.5 -82t-22 -90t-10.5 -112q0 -137 53 -199q27 41 91.5 131t97.5 137q-70 7 -116 66
t-62 149z" />
    <glyph glyph-name="Ugrave" unicode="&#xd9;" horiz-adv-x="1167" 
d="M1159 1569q-46 0 -236 72t-186 100q5 33 56.5 87t87.5 54q34 0 114.5 -57t146.5 -121t66 -84q0 -17 -13.5 -34t-35.5 -17zM293 -2q-124 0 -192 95t-68 249q0 153 73 345.5t190.5 353.5t238.5 227q-259 9 -406 -58.5t-147 -199.5q0 -45 22 -75t55 -30q11 -23 7 -51
t-15.5 -58t-37 -58t-56.5 -50t-74.5 -35.5t-91.5 -13.5q-120 0 -188 77.5t-68 188.5q0 125 65.5 237.5t183 197t293 134.5t382.5 50q186 0 275 -62t40 -184q-97 -44 -187 -161.5t-142 -254.5t-52 -246q0 -139 101 -139q165 0 292 334q37 107 62 175.5t55 145.5t52.5 123.5
t49.5 93t51.5 70.5t52.5 39t58 15q84 0 84 -76q0 -53 -34 -117q-169 -340 -240 -588q-25 -88 -25 -135q0 -100 97 -100t165 104q13 19 33 19q28 0 50 -24.5t10 -45.5q-11 -19 -39.5 -76.5t-54 -107t-68.5 -113t-87 -107.5t-105.5 -75t-127.5 -31q-194 0 -194 211q0 22 4 76
q-157 -289 -342 -289z" />
    <glyph glyph-name="Uacute" unicode="&#xda;" horiz-adv-x="1167" 
d="M784 1556q-24 0 -35.5 17.5t-11.5 36.5q0 20 66.5 84t146.5 121t113 57q37 0 88.5 -54.5t54.5 -88.5q3 -28 -186.5 -100.5t-235.5 -72.5zM293 -2q-124 0 -192 95t-68 249q0 153 73 345.5t190.5 353.5t238.5 227q-259 9 -406 -58.5t-147 -199.5q0 -45 22 -75t55 -30
q11 -23 7 -51t-15.5 -58t-37 -58t-56.5 -50t-74.5 -35.5t-91.5 -13.5q-120 0 -188 77.5t-68 188.5q0 125 65.5 237.5t183 197t293 134.5t382.5 50q186 0 275 -62t40 -184q-97 -44 -187 -161.5t-142 -254.5t-52 -246q0 -139 101 -139q165 0 292 334q37 107 62 175.5t55 145.5
t52.5 123.5t49.5 93t51.5 70.5t52.5 39t58 15q84 0 84 -76q0 -53 -34 -117q-169 -340 -240 -588q-25 -88 -25 -135q0 -100 97 -100t165 104q13 19 33 19q28 0 50 -24.5t10 -45.5q-11 -19 -39.5 -76.5t-54 -107t-68.5 -113t-87 -107.5t-105.5 -75t-127.5 -31q-194 0 -194 211
q0 22 4 76q-157 -289 -342 -289z" />
    <glyph glyph-name="Ucircumflex" unicode="&#xdb;" horiz-adv-x="1167" 
d="M752 1606q-24 0 -38 21.5t-12 39.5q0 20 59.5 64t134 81t110.5 37q30 0 88 -37.5t103.5 -81.5t45.5 -63t-11 -40t-30 -21q-22 0 -105.5 30t-121.5 56q-7 -3 -34 -15.5t-38.5 -17.5t-35.5 -15t-37 -15.5t-30 -11.5t-28.5 -8.5t-19.5 -2.5zM293 -2q-124 0 -192 95t-68 249
q0 153 73 345.5t190.5 353.5t238.5 227q-259 9 -406 -58.5t-147 -199.5q0 -45 22 -75t55 -30q11 -23 7 -51t-15.5 -58t-37 -58t-56.5 -50t-74.5 -35.5t-91.5 -13.5q-120 0 -188 77.5t-68 188.5q0 125 65.5 237.5t183 197t293 134.5t382.5 50q186 0 275 -62t40 -184
q-97 -44 -187 -161.5t-142 -254.5t-52 -246q0 -139 101 -139q165 0 292 334q37 107 62 175.5t55 145.5t52.5 123.5t49.5 93t51.5 70.5t52.5 39t58 15q84 0 84 -76q0 -53 -34 -117q-169 -340 -240 -588q-25 -88 -25 -135q0 -100 97 -100t165 104q13 19 33 19q28 0 50 -24.5
t10 -45.5q-11 -19 -39.5 -76.5t-54 -107t-68.5 -113t-87 -107.5t-105.5 -75t-127.5 -31q-194 0 -194 211q0 22 4 76q-157 -289 -342 -289z" />
    <glyph glyph-name="Udieresis" unicode="&#xdc;" horiz-adv-x="1167" 
d="M756 1563q-73 0 -116 33.5t-36 107.5q10 139 172 139q74 0 115.5 -31.5t34.5 -107.5q-13 -141 -170 -141zM1171 1563q-73 0 -114.5 33.5t-34.5 107.5q10 139 172 139q74 0 114.5 -31.5t34.5 -107.5q-13 -141 -172 -141zM293 -2q-124 0 -192 95t-68 249q0 153 73 345.5
t190.5 353.5t238.5 227q-259 9 -406 -58.5t-147 -199.5q0 -45 22 -75t55 -30q11 -23 7 -51t-15.5 -58t-37 -58t-56.5 -50t-74.5 -35.5t-91.5 -13.5q-120 0 -188 77.5t-68 188.5q0 125 65.5 237.5t183 197t293 134.5t382.5 50q186 0 275 -62t40 -184q-97 -44 -187 -161.5
t-142 -254.5t-52 -246q0 -139 101 -139q165 0 292 334q37 107 62 175.5t55 145.5t52.5 123.5t49.5 93t51.5 70.5t52.5 39t58 15q84 0 84 -76q0 -53 -34 -117q-169 -340 -240 -588q-25 -88 -25 -135q0 -100 97 -100t165 104q13 19 33 19q28 0 50 -24.5t10 -45.5
q-11 -19 -39.5 -76.5t-54 -107t-68.5 -113t-87 -107.5t-105.5 -75t-127.5 -31q-194 0 -194 211q0 22 4 76q-157 -289 -342 -289z" />
    <glyph glyph-name="Yacute" unicode="&#xdd;" horiz-adv-x="1556" 
d="M1184 1556q-24 0 -35.5 17.5t-11.5 36.5q0 20 66 84t146 121t113 57q37 0 89 -55t55 -88q3 -28 -186.5 -100.5t-235.5 -72.5zM653 -440q-286 0 -427 167q-102 122 -97 290q5 149 91 252q86 104 214 104q42 0 56 -11.5t14 -33.5q-3 -54 14.5 -105t54.5 -94.5t104 -70.5
t154 -27q80 0 147.5 21.5t114 56t83 80.5t58 91.5t36 92t19.5 80t5 57.5q0 26 -18.5 25.5t-26.5 -25.5q-48 -164 -153.5 -255t-233.5 -91q-133 0 -206.5 95t-73.5 249q0 125 65 283t170 290.5t213 186.5q-259 9 -406 -58.5t-147 -199.5q0 -45 22 -75t56 -30q11 -23 7 -51
t-15.5 -58t-37 -58t-56.5 -50t-74.5 -35.5t-91.5 -13.5q-120 0 -188 77.5t-68 188.5q0 125 65.5 237.5t182.5 197t292.5 134.5t382.5 50q186 0 275.5 -64.5t40.5 -191.5q-87 -35 -168 -130.5t-127.5 -206t-46.5 -198.5q0 -139 100 -139q49 0 90.5 22.5t74 61t63.5 103
t56 134.5t54 170q29 103 60.5 178.5t57.5 115.5t55.5 63t49 29t43.5 6q64 0 101 -37.5t36 -106.5q1 -47 -23 -108t-55 -115t-70 -133.5t-60 -149.5q-3 -10 -14 -43.5t-15.5 -48.5t-14 -47t-15.5 -57t-14 -60t-15 -73.5t-13 -81.5q-62 -408 -262.5 -632t-544.5 -224z" />
    <glyph glyph-name="Thorn" unicode="&#xde;" horiz-adv-x="1228" 
d="M233 -86q-87 0 -153.5 29t-105 77.5t-57.5 107t-19 124.5q0 87 33 164t96.5 126.5t142.5 49.5q12 0 21.5 -7.5t9.5 -17.5q0 -67 49.5 -109t122.5 -42q44 0 91.5 20.5t95.5 61.5t94 110t81 158q20 51 115 299q-128 0 -209.5 -35t-81.5 -106q0 -40 22.5 -68.5t55.5 -28.5
q11 -22 7 -50.5t-15.5 -58t-37 -57.5t-56.5 -50t-74.5 -36t-91.5 -14q-120 1 -188 84.5t-68 200.5q0 184 203.5 311t535.5 127q55 0 82 -2l61 162q37 98 133 98q64 0 87 -29t4 -81l-68 -181q393 -100 393 -489q0 -78 -21.5 -154.5t-66.5 -147t-108.5 -124.5t-155 -86.5
t-197.5 -32.5q-46 0 -82 11.5t-54 25.5t-37.5 25.5t-35.5 11.5q-13 0 -28 -9t-21 -20q-96 -162 -225.5 -255t-278.5 -93zM979 489q93 0 165.5 74t72.5 199q0 201 -150 268q-39 -98 -101 -247.5t-75 -182.5q-47 -111 88 -111z" />
    <glyph glyph-name="germandbls" unicode="&#xdf;" horiz-adv-x="1146" 
d="M106 0q-36 0 -61.5 8t-41.5 27t-25 42t-9 62t3.5 77.5t16 98t25 113t33.5 133.5q48 180 97.5 323t114 274.5t135 218.5t159.5 138.5t190 51.5q129 0 196 -81.5t67 -203.5q0 -74 -22.5 -132.5t-55.5 -91t-72.5 -59t-72.5 -41t-55.5 -32t-22.5 -35.5q0 -24 38 -45
q40 -23 88 -61t107.5 -97t99 -135.5t39.5 -151.5q0 -173 -103.5 -286t-271.5 -113q-87 0 -155 27.5t-107.5 73t-62 104.5t-22.5 121t17 122.5t50 110.5q28 36 60 10.5t32 -61.5q0 -37 32 -61.5t83 -24.5q66 0 103.5 42t37.5 107q0 36 -22.5 66t-54 53.5t-63.5 48t-54.5 63
t-22.5 87.5q0 82 61.5 144t143.5 75q-21 154 -133 154q-37 0 -70.5 -24t-60 -70t-49 -99t-41 -125.5t-32 -134t-25 -140t-18.5 -127.5t-14 -112q-3 -28 -7 -75.5t-7 -77.5t-9.5 -71.5t-14.5 -67.5t-22.5 -55.5t-34 -46t-48.5 -27.5t-66 -11z" />
    <glyph glyph-name="agrave" unicode="&#xe0;" 
d="M815 1159q-46 0 -236 72t-186 100q5 34 56.5 88t87.5 54q34 0 114.5 -57t146.5 -121.5t66 -84.5q0 -17 -13.5 -34t-35.5 -17zM217 0q-102 0 -156.5 84t-54.5 225q0 88 20.5 184t64.5 191t105 170.5t149.5 122.5t189.5 47q46 0 79 -8t50 -19.5t29.5 -23t24 -19.5t25.5 -8
q22 0 43 12t36 27t41.5 27t58.5 12q71 0 71 -76q0 -35 -13.5 -71t-41 -91t-43.5 -98q-51 -112 -38.5 -171.5t81.5 -59.5q97 0 162 104q11 17 30 18t35 -10t25 -28t2 -31q-15 -28 -38.5 -76t-41 -84.5t-43.5 -84t-49.5 -82.5t-55 -71.5t-62.5 -59.5t-70 -37.5t-80 -14.5
q-103 0 -149.5 84t-27.5 215h-8q-66 -134 -156.5 -216.5t-193.5 -82.5zM422 424q75 0 126.5 61t51.5 131q0 51 -28 80t-78 29q-76 0 -125.5 -59t-49.5 -131q0 -52 27.5 -81.5t75.5 -29.5z" />
    <glyph glyph-name="aacute" unicode="&#xe1;" 
d="M440 1147q-24 0 -35.5 17t-11.5 36q0 20 66.5 84t146.5 121t113 57q37 0 88.5 -54.5t54.5 -88.5q3 -28 -186.5 -100t-235.5 -72zM217 0q-102 0 -156.5 84t-54.5 225q0 88 20.5 184t64.5 191t105 170.5t149.5 122.5t189.5 47q46 0 79 -8t50 -19.5t29.5 -23t24 -19.5
t25.5 -8q22 0 43 12t36 27t41.5 27t58.5 12q71 0 71 -76q0 -35 -13.5 -71t-41 -91t-43.5 -98q-51 -112 -38.5 -171.5t81.5 -59.5q97 0 162 104q11 17 30 18t35 -10t25 -28t2 -31q-15 -28 -38.5 -76t-41 -84.5t-43.5 -84t-49.5 -82.5t-55 -71.5t-62.5 -59.5t-70 -37.5
t-80 -14.5q-103 0 -149.5 84t-27.5 215h-8q-66 -134 -156.5 -216.5t-193.5 -82.5zM422 424q75 0 126.5 61t51.5 131q0 51 -28 80t-78 29q-76 0 -125.5 -59t-49.5 -131q0 -52 27.5 -81.5t75.5 -29.5z" />
    <glyph glyph-name="acircumflex" unicode="&#xe2;" 
d="M408 1196q-24 0 -38 21.5t-12 39.5q0 20 59.5 64.5t134 81.5t110.5 37q30 0 88 -37.5t103.5 -82t45.5 -63.5t-11 -40t-30 -21q-22 0 -105.5 30t-121.5 56q-7 -3 -34 -15.5t-38.5 -17.5t-35.5 -15t-37 -15.5t-30 -11.5t-28.5 -8.5t-19.5 -2.5zM217 0q-102 0 -156.5 84
t-54.5 225q0 88 20.5 184t64.5 191t105 170.5t149.5 122.5t189.5 47q46 0 79 -8t50 -19.5t29.5 -23t24 -19.5t25.5 -8q22 0 43 12t36 27t41.5 27t58.5 12q71 0 71 -76q0 -35 -13.5 -71t-41 -91t-43.5 -98q-51 -112 -38.5 -171.5t81.5 -59.5q97 0 162 104q11 17 30 18t35 -10
t25 -28t2 -31q-15 -28 -38.5 -76t-41 -84.5t-43.5 -84t-49.5 -82.5t-55 -71.5t-62.5 -59.5t-70 -37.5t-80 -14.5q-103 0 -149.5 84t-27.5 215h-8q-66 -134 -156.5 -216.5t-193.5 -82.5zM422 424q75 0 126.5 61t51.5 131q0 51 -28 80t-78 29q-76 0 -125.5 -59t-49.5 -131
q0 -52 27.5 -81.5t75.5 -29.5z" />
    <glyph glyph-name="atilde" unicode="&#xe3;" 
d="M705 1194q-43 0 -86 18.5t-78.5 37t-61.5 18.5q-30 0 -50.5 -15.5t-33.5 -31t-26 -15.5q-34 0 -28 52q8 65 60 125q56 67 125 67q50 0 146.5 -41t118.5 -41q26 0 53.5 36t50.5 36q29 0 22 -50q-11 -65 -65 -125q-65 -70 -147 -71zM217 0q-102 0 -156.5 84t-54.5 225
q0 88 20.5 184t64.5 191t105 170.5t149.5 122.5t189.5 47q46 0 79 -8t50 -19.5t29.5 -23t24 -19.5t25.5 -8q22 0 43 12t36 27t41.5 27t58.5 12q71 0 71 -76q0 -35 -13.5 -71t-41 -91t-43.5 -98q-51 -112 -38.5 -171.5t81.5 -59.5q97 0 162 104q11 17 30 18t35 -10t25 -28
t2 -31q-15 -28 -38.5 -76t-41 -84.5t-43.5 -84t-49.5 -82.5t-55 -71.5t-62.5 -59.5t-70 -37.5t-80 -14.5q-103 0 -149.5 84t-27.5 215h-8q-66 -134 -156.5 -216.5t-193.5 -82.5zM422 424q75 0 126.5 61t51.5 131q0 51 -28 80t-78 29q-76 0 -125.5 -59t-49.5 -131
q0 -52 27.5 -81.5t75.5 -29.5z" />
    <glyph glyph-name="adieresis" unicode="&#xe4;" 
d="M412 1153q-73 0 -116 33.5t-36 107.5q10 140 172 140q74 0 115.5 -32t34.5 -108q-13 -141 -170 -141zM827 1153q-73 0 -114.5 33.5t-34.5 107.5q10 140 172 140q73 0 114 -32t35 -108q-13 -141 -172 -141zM217 0q-102 0 -156.5 84t-54.5 225q0 88 20.5 184t64.5 191
t105 170.5t149.5 122.5t189.5 47q46 0 79 -8t50 -19.5t29.5 -23t24 -19.5t25.5 -8q22 0 43 12t36 27t41.5 27t58.5 12q71 0 71 -76q0 -35 -13.5 -71t-41 -91t-43.5 -98q-51 -112 -38.5 -171.5t81.5 -59.5q97 0 162 104q11 17 30 18t35 -10t25 -28t2 -31q-15 -28 -38.5 -76
t-41 -84.5t-43.5 -84t-49.5 -82.5t-55 -71.5t-62.5 -59.5t-70 -37.5t-80 -14.5q-103 0 -149.5 84t-27.5 215h-8q-66 -134 -156.5 -216.5t-193.5 -82.5zM422 424q75 0 126.5 61t51.5 131q0 51 -28 80t-78 29q-76 0 -125.5 -59t-49.5 -131q0 -52 27.5 -81.5t75.5 -29.5z" />
    <glyph glyph-name="aring" unicode="&#xe5;" 
d="M625 1163q-215 0 -215 150q0 147 215 147q225 0 225 -147q0 -150 -225 -150zM625 1253q23 0 45 2.5t45.5 8.5t38 18.5t14.5 30.5q0 57 -143 57q-136 0 -136 -57q0 -60 136 -60zM217 0q-102 0 -156.5 84t-54.5 225q0 88 20.5 184t64.5 191t105 170.5t149.5 122.5t189.5 47
q46 0 79 -8t50 -19.5t29.5 -23t24 -19.5t25.5 -8q22 0 43 12t36 27t41.5 27t58.5 12q71 0 71 -76q0 -35 -13.5 -71t-41 -91t-43.5 -98q-51 -112 -38.5 -171.5t81.5 -59.5q97 0 162 104q11 17 30 18t35 -10t25 -28t2 -31q-15 -28 -38.5 -76t-41 -84.5t-43.5 -84t-49.5 -82.5
t-55 -71.5t-62.5 -59.5t-70 -37.5t-80 -14.5q-103 0 -149.5 84t-27.5 215h-8q-66 -134 -156.5 -216.5t-193.5 -82.5zM422 424q75 0 126.5 61t51.5 131q0 51 -28 80t-78 29q-76 0 -125.5 -59t-49.5 -131q0 -52 27.5 -81.5t75.5 -29.5z" />
    <glyph glyph-name="ae" unicode="&#xe6;" horiz-adv-x="1433" 
d="M1481 561q12 17 31 18t35 -10t24.5 -28t1.5 -31q-131 -251 -293.5 -380.5t-341.5 -129.5q-158 0 -247 93.5t-105 242.5l-6 -8q-67 -146 -160.5 -237t-202.5 -91q-102 0 -156.5 84t-54.5 225q0 88 20.5 184t64.5 191t105 170.5t149.5 122.5t189.5 47q46 0 79 -11.5t50 -28
t29.5 -32.5t24 -27.5t25.5 -11.5q17 0 32.5 2.5t33 9.5t27.5 12t31.5 16.5t29.5 15.5q104 55 223 55q135 0 205 -74t70 -184q0 -120 -93.5 -218.5t-236.5 -98.5q-104 0 -160 32q-11 7 -23 1t-12 -25q0 -52 60.5 -80.5t152.5 -28.5q110 0 220 56t178 157zM1139 717
q0 36 -25 60t-70 24q-57 0 -93 -35.5t-36 -79.5q0 -36 25 -60t72 -24q56 0 91.5 36.5t35.5 78.5zM422 424q75 0 126.5 61t51.5 131q0 51 -28 80t-78 29q-76 0 -125.5 -59t-49.5 -131q0 -52 27.5 -81.5t75.5 -29.5z" />
    <glyph glyph-name="ccedilla" unicode="&#xe7;" horiz-adv-x="860" 
d="M999 510q-142 -262 -311 -391l-141 -170l4 -10q36 14 75 15t74 -11t57.5 -44.5t22.5 -82.5q0 -112 -84.5 -199.5t-224.5 -87.5q-69 0 -114 29.5t-59.5 71.5t-14.5 82t12 67q13 30 39 28q16 -1 16 -12q0 -33 31 -52t72 -19q43 0 75.5 21t32.5 58q0 20 -11.5 32.5
t-33.5 12.5q-47 0 -80 -26q-26 -20 -45 1q-21 23 -1 60q5 7 11 15l107 125q-77 -23 -148 -23q-89 0 -158.5 32t-111.5 88t-63 126.5t-21 152.5q0 87 22.5 175.5t67.5 169t106.5 143t145.5 100t178 37.5q140 0 211.5 -72t71.5 -180q0 -63 -20 -112.5t-52 -77.5t-67 -42
t-70 -14q-50 0 -78 17.5t-28 40.5q0 14 12 27.5t23.5 35t11.5 53.5q0 31 -20.5 51.5t-63.5 20.5q-66 0 -106 -59t-40 -140q0 -79 43 -133t112 -70t147.5 -4.5t158 63t135.5 132.5q9 14 24.5 17.5t29 -3t25.5 -16.5t15.5 -24t-2.5 -25z" />
    <glyph glyph-name="egrave" unicode="&#xe8;" horiz-adv-x="880" 
d="M729 1159q-46 0 -236 72t-186 100q5 34 56.5 88t87.5 54q34 0 114.5 -57t146.5 -121.5t66 -84.5q0 -17 -13.5 -34t-35.5 -17zM385 0q-200 0 -294 154q-81 134 -55.5 330t143.5 344q137 173 338 193q25 3 50 3q135 0 205 -74t70 -184q0 -120 -93.5 -218.5t-236.5 -98.5
q-104 0 -160 32q-10 7 -22.5 1t-12.5 -25q0 -52 60.5 -80.5t152.5 -28.5q110 0 221 56t177 157q9 14 24.5 17.5t29 -3t25.5 -16.5t15.5 -24t-2.5 -25q-135 -251 -296 -380.5t-339 -129.5zM459 602q56 0 91.5 36.5t35.5 78.5q0 36 -24.5 60t-69.5 24q-57 0 -93.5 -35.5
t-36.5 -79.5q0 -36 25 -60t72 -24z" />
    <glyph glyph-name="eacute" unicode="&#xe9;" horiz-adv-x="880" 
d="M354 1147q-24 0 -35.5 17t-11.5 36q0 20 66.5 84t146.5 121t113 57q37 0 88.5 -54.5t54.5 -88.5q3 -28 -186.5 -100t-235.5 -72zM385 0q-200 0 -294 154q-81 134 -55.5 330t143.5 344q137 173 338 193q25 3 50 3q135 0 205 -74t70 -184q0 -120 -93.5 -218.5t-236.5 -98.5
q-104 0 -160 32q-10 7 -22.5 1t-12.5 -25q0 -52 60.5 -80.5t152.5 -28.5q110 0 221 56t177 157q9 14 24.5 17.5t29 -3t25.5 -16.5t15.5 -24t-2.5 -25q-135 -251 -296 -380.5t-339 -129.5zM459 602q56 0 91.5 36.5t35.5 78.5q0 36 -24.5 60t-69.5 24q-57 0 -93.5 -35.5
t-36.5 -79.5q0 -36 25 -60t72 -24z" />
    <glyph glyph-name="ecircumflex" unicode="&#xea;" horiz-adv-x="880" 
d="M322 1196q-24 0 -38 21.5t-12 39.5q0 20 59.5 64.5t133.5 81.5t110 37q30 0 88 -37.5t104 -82t46 -63.5t-11 -40t-30 -21q-22 0 -105.5 30t-121.5 56q-7 -3 -34 -15.5t-38.5 -17.5t-35.5 -15t-37 -15.5t-30 -11.5t-28.5 -8.5t-19.5 -2.5zM385 0q-200 0 -294 154
q-81 134 -55.5 330t143.5 344q137 173 338 193q25 3 50 3q135 0 205 -74t70 -184q0 -120 -93.5 -218.5t-236.5 -98.5q-104 0 -160 32q-10 7 -22.5 1t-12.5 -25q0 -52 60.5 -80.5t152.5 -28.5q110 0 221 56t177 157q9 14 24.5 17.5t29 -3t25.5 -16.5t15.5 -24t-2.5 -25
q-135 -251 -296 -380.5t-339 -129.5zM459 602q56 0 91.5 36.5t35.5 78.5q0 36 -24.5 60t-69.5 24q-57 0 -93.5 -35.5t-36.5 -79.5q0 -36 25 -60t72 -24z" />
    <glyph glyph-name="edieresis" unicode="&#xeb;" horiz-adv-x="880" 
d="M326 1153q-73 0 -116 33.5t-36 107.5q10 140 172 140q74 0 115.5 -32t34.5 -108q-13 -141 -170 -141zM741 1153q-73 0 -114.5 33.5t-34.5 107.5q10 140 172 140q73 0 114 -32t35 -108q-13 -141 -172 -141zM385 0q-200 0 -294 154q-81 134 -55.5 330t143.5 344
q137 173 338 193q25 3 50 3q135 0 205 -74t70 -184q0 -120 -93.5 -218.5t-236.5 -98.5q-104 0 -160 32q-10 7 -22.5 1t-12.5 -25q0 -52 60.5 -80.5t152.5 -28.5q110 0 221 56t177 157q9 14 24.5 17.5t29 -3t25.5 -16.5t15.5 -24t-2.5 -25q-135 -251 -296 -380.5t-339 -129.5
zM459 602q56 0 91.5 36.5t35.5 78.5q0 36 -24.5 60t-69.5 24q-57 0 -93.5 -35.5t-36.5 -79.5q0 -36 25 -60t72 -24z" />
    <glyph glyph-name="igrave" unicode="&#xec;" horiz-adv-x="503" 
d="M623 1159q-46 0 -236 72t-186 100q5 34 56 88t87 54q34 0 114.5 -57t147 -121.5t66.5 -84.5q0 -17 -13.5 -34t-35.5 -17zM184 0q-97 0 -142.5 70t-45.5 186q0 144 51 305q75 237 143 350t152 113q70 0 70 -92q0 -64 -46.5 -190.5t-46.5 -180.5q0 -50 25 -76t68 -26
t75 25.5t66 76.5q9 14 24 17.5t28.5 -2.5t25.5 -16.5t15.5 -23.5t-1.5 -24q-12 -20 -38.5 -75.5t-51.5 -107t-66 -114t-83 -108t-100.5 -76.5t-121.5 -31z" />
    <glyph glyph-name="iacute" unicode="&#xed;" horiz-adv-x="503" 
d="M248 1147q-24 0 -35.5 17t-11.5 36q0 20 66 84t146 121t113 57q37 0 89 -55t55 -88q3 -28 -186.5 -100t-235.5 -72zM184 0q-97 0 -142.5 70t-45.5 186q0 144 51 305q75 237 143 350t152 113q70 0 70 -92q0 -64 -46.5 -190.5t-46.5 -180.5q0 -50 25 -76t68 -26t75 25.5
t66 76.5q9 14 24 17.5t28.5 -2.5t25.5 -16.5t15.5 -23.5t-1.5 -24q-12 -20 -38.5 -75.5t-51.5 -107t-66 -114t-83 -108t-100.5 -76.5t-121.5 -31z" />
    <glyph glyph-name="icircumflex" unicode="&#xee;" horiz-adv-x="503" 
d="M215 1196q-24 0 -37.5 21.5t-11.5 39.5q0 20 59.5 64.5t133.5 81.5t110 37q30 0 88 -37.5t104 -82t46 -63.5t-11 -40t-30 -21q-22 0 -106 30t-122 56q-7 -3 -34 -15.5t-38.5 -17.5t-35.5 -15t-37 -15.5t-30 -11.5t-28.5 -8.5t-19.5 -2.5zM184 0q-97 0 -142.5 70
t-45.5 186q0 144 51 305q75 237 143 350t152 113q70 0 70 -92q0 -64 -46.5 -190.5t-46.5 -180.5q0 -50 25 -76t68 -26t75 25.5t66 76.5q9 14 24 17.5t28.5 -2.5t25.5 -16.5t15.5 -23.5t-1.5 -24q-12 -20 -38.5 -75.5t-51.5 -107t-66 -114t-83 -108t-100.5 -76.5t-121.5 -31z
" />
    <glyph glyph-name="idieresis" unicode="&#xef;" horiz-adv-x="503" 
d="M219 1153q-73 0 -115.5 33.5t-35.5 107.5q10 140 172 140q74 0 115 -32t34 -108q-13 -141 -170 -141zM635 1153q-73 0 -115 33.5t-35 107.5q10 140 172 140q74 0 115 -32t35 -108q-13 -141 -172 -141zM184 0q-97 0 -142.5 70t-45.5 186q0 144 51 305q75 237 143 350
t152 113q70 0 70 -92q0 -64 -46.5 -190.5t-46.5 -180.5q0 -50 25 -76t68 -26t75 25.5t66 76.5q9 14 24 17.5t28.5 -2.5t25.5 -16.5t15.5 -23.5t-1.5 -24q-12 -20 -38.5 -75.5t-51.5 -107t-66 -114t-83 -108t-100.5 -76.5t-121.5 -31z" />
    <glyph glyph-name="eth" unicode="&#xf0;" 
d="M1118 1257q71 -7 94 -25t11 -52q-12 -37 -51 -55.5t-117 -26.5l-160 -410q-51 -112 -38.5 -171.5t81.5 -59.5q97 0 162 104q11 17 30 18t35 -10t25 -28t2 -31q-15 -28 -38.5 -76t-41 -84.5t-43.5 -84t-49.5 -82.5t-55 -71.5t-62.5 -59.5t-70 -37.5t-80 -14.5
q-97 0 -145.5 85t-31.5 214h-8q-68 -134 -153 -216.5t-174 -82.5q-116 0 -175 80.5t-59 210.5q0 77 15 159.5t43.5 165t74 156t102.5 130t133 89.5t161 33q56 0 94 -15.5t52 -33.5t29.5 -33.5t32.5 -15.5q7 0 12 6t11 22t10.5 31.5t13.5 48t17 58.5q-102 1 -163.5 4.5
t-108 12.5t-61.5 26.5t-5 44.5q14 38 39 53.5t105.5 24t256.5 8.5q90 207 209 207q56 0 70.5 -52.5t-23.5 -140.5zM426 424q73 0 123.5 61.5t50.5 130.5q0 48 -28 78.5t-85 30.5q-72 0 -120 -59t-48 -131q0 -49 26 -80t81 -31z" />
    <glyph glyph-name="ntilde" unicode="&#xf1;" horiz-adv-x="1026" 
d="M692 1194q-56 0 -126 37t-99 37q-30 0 -50.5 -15.5t-34 -31t-26.5 -15.5q-34 0 -28 52q8 65 60 125q57 67 126 67q50 0 146 -41t118 -41q26 0 54 36t51 36q29 0 21 -50q-10 -65 -65 -125q-65 -71 -147 -71zM129 0q-70 0 -109.5 42t-39.5 108q0 172 67 411
q55 192 123.5 327.5t122.5 135.5q67 0 67 -78q0 -62 29 -74.5t78 35.5q120 117 248 117q89 0 136.5 -53.5t47.5 -134.5q0 -55 -32.5 -141t-32.5 -136q0 -53 23.5 -77.5t74.5 -24.5q42 0 74 26t67 78q9 14 24.5 17.5t29 -3t25.5 -16.5t15.5 -24t-2.5 -25q-11 -19 -39 -76
t-53.5 -107t-69 -113t-87 -107.5t-105 -75.5t-127.5 -31q-91 0 -132.5 59t-41.5 154q0 67 21.5 143t43 138.5t21.5 95.5q0 35 -21 53.5t-57 18.5q-88 0 -154.5 -107.5t-66.5 -245.5v-92q0 -217 -168 -217z" />
    <glyph glyph-name="ograve" unicode="&#xf2;" horiz-adv-x="974" 
d="M776 1159q-46 0 -236 72t-186 100q5 34 56.5 88t87.5 54q34 0 114.5 -57t146.5 -121.5t66 -84.5q0 -17 -13.5 -34t-35.5 -17zM1022 561q15 15 40 13t44 -22t8 -42q-26 -55 -54 -98t-71 -88t-102.5 -70t-130.5 -25h-25q-78 -107 -183 -168t-218 -61q-140 0 -229 93.5
t-89 250.5q0 92 27 188.5t78 184t118.5 156.5t156 110t183.5 41q136 0 217.5 -84.5t81.5 -267.5q0 -109 -30 -211h14q96 0 164 100zM446 424q73 0 124 61.5t51 130.5q0 48 -28 78.5t-85 30.5q-72 0 -120 -59t-48 -131q0 -49 25.5 -80t80.5 -31z" />
    <glyph glyph-name="oacute" unicode="&#xf3;" horiz-adv-x="974" 
d="M401 1147q-24 0 -35.5 17t-11.5 36q0 20 66.5 84t146.5 121t113 57q37 0 88.5 -54.5t54.5 -88.5q3 -28 -186.5 -100t-235.5 -72zM1022 561q15 15 40 13t44 -22t8 -42q-26 -55 -54 -98t-71 -88t-102.5 -70t-130.5 -25h-25q-78 -107 -183 -168t-218 -61q-140 0 -229 93.5
t-89 250.5q0 92 27 188.5t78 184t118.5 156.5t156 110t183.5 41q136 0 217.5 -84.5t81.5 -267.5q0 -109 -30 -211h14q96 0 164 100zM446 424q73 0 124 61.5t51 130.5q0 48 -28 78.5t-85 30.5q-72 0 -120 -59t-48 -131q0 -49 25.5 -80t80.5 -31z" />
    <glyph glyph-name="ocircumflex" unicode="&#xf4;" horiz-adv-x="974" 
d="M369 1196q-24 0 -38 21.5t-12 39.5q0 20 59.5 64.5t134 81.5t110.5 37q30 0 88 -37.5t103.5 -82t45.5 -63.5t-11 -40t-30 -21q-22 0 -105.5 30t-121.5 56q-7 -3 -34 -15.5t-38.5 -17.5t-35.5 -15t-37 -15.5t-30 -11.5t-28.5 -8.5t-19.5 -2.5zM1022 561q15 15 40 13
t44 -22t8 -42q-26 -55 -54 -98t-71 -88t-102.5 -70t-130.5 -25h-25q-78 -107 -183 -168t-218 -61q-140 0 -229 93.5t-89 250.5q0 92 27 188.5t78 184t118.5 156.5t156 110t183.5 41q136 0 217.5 -84.5t81.5 -267.5q0 -109 -30 -211h14q96 0 164 100zM446 424q73 0 124 61.5
t51 130.5q0 48 -28 78.5t-85 30.5q-72 0 -120 -59t-48 -131q0 -49 25.5 -80t80.5 -31z" />
    <glyph glyph-name="otilde" unicode="&#xf5;" horiz-adv-x="974" 
d="M330 1206q-34 0 -28 52q8 65 60 125q56 67 125 67q50 0 146.5 -41t118.5 -41q26 0 53.5 36t50.5 36q29 0 22 -50q-11 -65 -65 -125q-65 -70 -147 -71q-43 0 -85.5 18.5t-78.5 37t-62 18.5q-30 0 -50.5 -15.5t-33.5 -31t-26 -15.5zM1022 561q15 15 40 13t44 -22t8 -42
q-26 -55 -54 -98t-71 -88t-102.5 -70t-130.5 -25h-25q-78 -107 -183 -168t-218 -61q-140 0 -229 93.5t-89 250.5q0 92 27 188.5t78 184t118.5 156.5t156 110t183.5 41q136 0 217.5 -84.5t81.5 -267.5q0 -109 -30 -211h14q96 0 164 100zM446 424q73 0 124 61.5t51 130.5
q0 48 -28 78.5t-85 30.5q-72 0 -120 -59t-48 -131q0 -49 25.5 -80t80.5 -31z" />
    <glyph glyph-name="odieresis" unicode="&#xf6;" horiz-adv-x="974" 
d="M373 1153q-73 0 -116 33.5t-36 107.5q10 140 172 140q74 0 115.5 -32t34.5 -108q-13 -141 -170 -141zM788 1153q-73 0 -114.5 33.5t-34.5 107.5q10 140 172 140q74 0 115 -32t35 -108q-13 -141 -173 -141zM1022 561q15 15 40 13t44 -22t8 -42q-26 -55 -54 -98t-71 -88
t-102.5 -70t-130.5 -25h-25q-78 -107 -183 -168t-218 -61q-140 0 -229 93.5t-89 250.5q0 92 27 188.5t78 184t118.5 156.5t156 110t183.5 41q136 0 217.5 -84.5t81.5 -267.5q0 -109 -30 -211h14q96 0 164 100zM446 424q73 0 124 61.5t51 130.5q0 48 -28 78.5t-85 30.5
q-72 0 -120 -59t-48 -131q0 -49 25.5 -80t80.5 -31z" />
    <glyph glyph-name="divide" unicode="&#xf7;" horiz-adv-x="745" 
d="M532 889q-46 0 -79 33t-33 79t33 79.5t79 33.5t79.5 -33.5t33.5 -79.5t-33.5 -79t-79.5 -33zM434 535q-212 0 -292 24.5t-54 99.5q12 35 23.5 53t36 34.5t70 23t114 10.5t180.5 4q208 0 270.5 -25t36.5 -100q-27 -76 -107 -100t-278 -24zM348 188q-46 0 -79 33.5
t-33 79.5t33 79.5t79 33.5t79.5 -33.5t33.5 -79.5t-33.5 -79.5t-79.5 -33.5z" />
    <glyph glyph-name="oslash" unicode="&#xf8;" horiz-adv-x="974" 
d="M1022 561q15 15 40 13t44 -22t8 -42q-26 -55 -54 -98t-71 -88t-102.5 -70t-130.5 -25h-25q-78 -107 -183 -168t-218 -61q-140 0 -229 93.5t-89 250.5q0 92 27 188.5t78 184t118.5 156.5t156 110t183.5 41q136 0 217.5 -84.5t81.5 -267.5q0 -109 -30 -211h14q96 0 164 100
zM508 725q-72 0 -120 -59t-48 -131q0 -33 12 -60l213 240q-27 10 -57 10zM446 424q73 0 124 61.5t51 130.5q0 38 -15 62l-221 -238q22 -16 61 -16z" />
    <glyph glyph-name="ugrave" unicode="&#xf9;" horiz-adv-x="1024" 
d="M801 1159q-46 0 -236 72t-186 100q5 34 56 88t87 54q34 0 114.5 -57t147 -121.5t66.5 -84.5q0 -17 -13.5 -34t-35.5 -17zM1071 561q9 14 24.5 17.5t29 -3t25.5 -16.5t15.5 -24t-2.5 -25q-11 -19 -39 -76t-53.5 -107t-69 -113t-87 -107.5t-105 -75.5t-127.5 -31
q-176 0 -176 223q0 37 6 84q-29 -62 -59 -110t-70.5 -95.5t-92 -73.5t-108.5 -26q-86 0 -133 60.5t-47 183.5q0 169 45 315q73 232 146 347.5t157 115.5q64 0 64 -82q0 -68 -46 -200t-46 -191q0 -46 19 -69t67 -23q123 0 172 143l2 8q65 208 130.5 311t141.5 103
q64 0 64 -82q0 -59 -46.5 -191.5t-46.5 -181.5q0 -55 30 -83.5t75 -28.5q42 0 74 26t67 78z" />
    <glyph glyph-name="uacute" unicode="&#xfa;" horiz-adv-x="1024" 
d="M426 1147q-24 0 -35.5 17t-11.5 36q0 20 66.5 84t146.5 121t113 57q37 0 88.5 -54.5t54.5 -88.5q3 -28 -186.5 -100t-235.5 -72zM1071 561q9 14 24.5 17.5t29 -3t25.5 -16.5t15.5 -24t-2.5 -25q-11 -19 -39 -76t-53.5 -107t-69 -113t-87 -107.5t-105 -75.5t-127.5 -31
q-176 0 -176 223q0 37 6 84q-29 -62 -59 -110t-70.5 -95.5t-92 -73.5t-108.5 -26q-86 0 -133 60.5t-47 183.5q0 169 45 315q73 232 146 347.5t157 115.5q64 0 64 -82q0 -68 -46 -200t-46 -191q0 -46 19 -69t67 -23q123 0 172 143l2 8q65 208 130.5 311t141.5 103
q64 0 64 -82q0 -59 -46.5 -191.5t-46.5 -181.5q0 -55 30 -83.5t75 -28.5q42 0 74 26t67 78z" />
    <glyph glyph-name="ucircumflex" unicode="&#xfb;" horiz-adv-x="1024" 
d="M393 1196q-24 0 -37.5 21.5t-11.5 39.5q0 20 59.5 64.5t133.5 81.5t110 37q30 0 88 -37.5t104 -82t46 -63.5t-11 -40t-30 -21q-22 0 -106 30t-122 56q-7 -3 -34 -15.5t-38.5 -17.5t-35.5 -15t-37 -15.5t-30 -11.5t-28.5 -8.5t-19.5 -2.5zM1071 561q9 14 24.5 17.5t29 -3
t25.5 -16.5t15.5 -24t-2.5 -25q-11 -19 -39 -76t-53.5 -107t-69 -113t-87 -107.5t-105 -75.5t-127.5 -31q-176 0 -176 223q0 37 6 84q-29 -62 -59 -110t-70.5 -95.5t-92 -73.5t-108.5 -26q-86 0 -133 60.5t-47 183.5q0 169 45 315q73 232 146 347.5t157 115.5q64 0 64 -82
q0 -68 -46 -200t-46 -191q0 -46 19 -69t67 -23q123 0 172 143l2 8q65 208 130.5 311t141.5 103q64 0 64 -82q0 -59 -46.5 -191.5t-46.5 -181.5q0 -55 30 -83.5t75 -28.5q42 0 74 26t67 78z" />
    <glyph glyph-name="udieresis" unicode="&#xfc;" horiz-adv-x="1024" 
d="M397 1153q-73 0 -115.5 33.5t-35.5 107.5q10 140 172 140q74 0 115 -32t34 -108q-13 -141 -170 -141zM813 1153q-73 0 -114.5 33.5t-34.5 107.5q10 140 172 140q73 0 114 -32t35 -108q-13 -141 -172 -141zM1071 561q9 14 24.5 17.5t29 -3t25.5 -16.5t15.5 -24t-2.5 -25
q-11 -19 -39 -76t-53.5 -107t-69 -113t-87 -107.5t-105 -75.5t-127.5 -31q-176 0 -176 223q0 37 6 84q-29 -62 -59 -110t-70.5 -95.5t-92 -73.5t-108.5 -26q-86 0 -133 60.5t-47 183.5q0 169 45 315q73 232 146 347.5t157 115.5q64 0 64 -82q0 -68 -46 -200t-46 -191
q0 -46 19 -69t67 -23q123 0 172 143l2 8q65 208 130.5 311t141.5 103q64 0 64 -82q0 -59 -46.5 -191.5t-46.5 -181.5q0 -55 30 -83.5t75 -28.5q42 0 74 26t67 78z" />
    <glyph glyph-name="yacute" unicode="&#xfd;" horiz-adv-x="1017" 
d="M424 1147q-24 0 -35.5 17t-11.5 36q0 20 66 84t146 121t113 57q37 0 89 -55t55 -88q3 -28 -186.5 -100t-235.5 -72zM1065 561q15 15 40 13t44 -22t8 -42q-14 -29 -38.5 -82.5t-39 -83.5t-37.5 -76.5t-40.5 -74t-41.5 -62.5t-46.5 -55t-49.5 -39.5t-57 -28t-62 -8.5
q-46 0 -71 45q-98 -314 -213.5 -447t-286.5 -133q-162 0 -251 84.5t-89 233.5q0 139 76 226q38 43 63 42q10 -1 11 -10q8 -79 64 -126t149 -46q133 1 235 109.5t119 259.5q2 22 -8 32.5t-25 3t-24 -31.5q-42 -105 -116.5 -163.5t-172.5 -58.5q-89 0 -146 57.5t-57 168.5
q0 169 45 315q73 232 146 347.5t157 115.5q64 0 64 -82q0 -68 -46 -200t-46 -191q0 -46 19 -69t67 -23q65 0 106.5 38t67.5 113q65 208 130.5 311t141.5 103q46 0 69 -21t23 -69q0 -38 -16.5 -87.5t-53.5 -141t-63 -168.5q-17 -57 -11 -91t22.5 -48.5t41.5 -14.5
q77 0 199 178z" />
    <glyph glyph-name="thorn" unicode="&#xfe;" horiz-adv-x="999" 
d="M1047 561q15 15 40 13t44 -22t8 -42q-20 -43 -41 -78t-53.5 -74.5t-69 -66t-87.5 -44.5t-108 -18h-12q-73 -106 -168 -167.5t-192 -61.5q-95 0 -147.5 56.5t-33.5 172.5q5 30 -17 36q-21 6 -34 -19q-4 -8 -6 -17q-58 -286 -79 -362q-66 -244 -155 -273q-14 -4 -28 -4
q-144 0 -144 142q0 36 9.5 81t32 109.5t41.5 113.5t57 144t59 150q41 108 84 231q17 51 43.5 126.5t34.5 98.5q129 352 168 441q81 184 156 228q31 18 65 18q65 0 79 -46.5t-30 -146.5q-26 -60 -92 -168.5t-84 -157.5q-3 -15 6.5 -24t26.5 -6.5t33 18.5q84 82 200 82
q122 0 195.5 -83.5t73.5 -227.5q0 -127 -39 -252q96 0 164 100zM446 424q73 0 124 61.5t51 130.5q0 48 -28 78.5t-85 30.5q-72 0 -120 -59t-48 -131q0 -49 25.5 -80t80.5 -31z" />
    <glyph glyph-name="ydieresis" unicode="&#xff;" horiz-adv-x="1017" 
d="M395 1153q-73 0 -115.5 33.5t-35.5 107.5q10 140 172 140q74 0 115 -32t34 -108q-13 -141 -170 -141zM811 1153q-73 0 -114.5 33.5t-34.5 107.5q10 140 172 140q73 0 114 -32t35 -108q-13 -141 -172 -141zM1065 561q15 15 40 13t44 -22t8 -42q-14 -29 -38.5 -82.5
t-39 -83.5t-37.5 -76.5t-40.5 -74t-41.5 -62.5t-46.5 -55t-49.5 -39.5t-57 -28t-62 -8.5q-46 0 -71 45q-98 -314 -213.5 -447t-286.5 -133q-162 0 -251 84.5t-89 233.5q0 139 76 226q38 43 63 42q10 -1 11 -10q8 -79 64 -126t149 -46q133 1 235 109.5t119 259.5
q2 22 -8 32.5t-25 3t-24 -31.5q-42 -105 -116.5 -163.5t-172.5 -58.5q-89 0 -146 57.5t-57 168.5q0 169 45 315q73 232 146 347.5t157 115.5q64 0 64 -82q0 -68 -46 -200t-46 -191q0 -46 19 -69t67 -23q65 0 106.5 38t67.5 113q65 208 130.5 311t141.5 103q46 0 69 -21
t23 -69q0 -38 -16.5 -87.5t-53.5 -141t-63 -168.5q-17 -57 -11 -91t22.5 -48.5t41.5 -14.5q77 0 199 178z" />
    <glyph glyph-name="dotlessi" unicode="&#x131;" horiz-adv-x="503" 
d="M184 0q-97 0 -142.5 70t-45.5 186q0 144 51 305q75 237 143 350t152 113q70 0 70 -92q0 -64 -46.5 -190.5t-46.5 -180.5q0 -50 25 -76t68 -26t75 25.5t66 76.5q9 14 24 17.5t28.5 -2.5t25.5 -16.5t15.5 -23.5t-1.5 -24q-12 -20 -38.5 -75.5t-51.5 -107t-66 -114t-83 -108
t-100.5 -76.5t-121.5 -31z" />
    <glyph glyph-name="Lslash" unicode="&#x141;" horiz-adv-x="1236" 
d="M1284 561q12 17 31 18t35 -10t24.5 -28t1.5 -31q-108 -207 -192 -319.5t-151.5 -151.5t-151.5 -39q-70 0 -132.5 20.5t-114.5 59t-91 78t-82 94.5q-83 -137 -179 -207t-219 -70q-107 0 -184.5 48.5t-113 122.5t-35.5 163q0 65 25 126t72.5 111.5t123.5 80.5t170 30
q126 0 254 -57q25 44 43 82q-180 51 -281.5 168t-101.5 278q0 170 98.5 273.5t261.5 103.5q101 0 163.5 -48.5t62.5 -123.5q0 -55 -33 -55q-76 0 -127 -51.5t-51 -139.5q0 -122 94 -196l31 74q-47 5 -65 15.5t-9 31.5q11 25 32 35t85 14q111 239 226.5 351t270.5 112
q141 0 221 -73.5t80 -213.5q0 -72 -19.5 -142t-56.5 -136t-96.5 -122t-135 -98t-175.5 -66t-215 -24h-23q-53 -126 -73 -166q80 -45 151 -69.5t154 -24.5q116 0 228 43t169 129zM977 1169q-60 0 -131 -110q48 -3 62 -14t3 -33q-10 -23 -36.5 -33.5t-81.5 -15.5
q-46 -94 -54 -115q-5 -9 -8 -23q138 7 224.5 93t86.5 174q0 34 -16 55.5t-49 21.5zM178 412q56 0 111 61q-53 53 -105 53q-34 0 -52.5 -16t-18.5 -41t17 -41t48 -16z" />
    <glyph glyph-name="lslash" unicode="&#x142;" horiz-adv-x="516" 
d="M563 561q9 14 24.5 17.5t29 -3t25.5 -16.5t15.5 -24t-2.5 -25q-11 -19 -39 -76t-53.5 -107t-69 -113t-87 -107.5t-105 -75.5t-127.5 -31q-194 0 -194 211q0 153 69 350q10 27 32.5 94t35.5 101q-90 -9 -90 37q0 26 7 39.5t37.5 30t94.5 36.5q36 103 63 174.5t57 141
t56 113.5t54.5 79t58 50.5t61.5 15.5q65 0 79.5 -48t-30.5 -145q-83 -171 -143 -311q57 14 93.5 19.5t58.5 3t30.5 -12.5t7.5 -29q0 -43 -52.5 -71t-197.5 -68q-22 -65 -36 -119q-15 -51 -21 -88t-3 -73t27 -55t68 -19q98 0 166 104z" />
    <glyph glyph-name="OE" unicode="&#x152;" horiz-adv-x="1691" 
d="M1739 582q12 17 31 17.5t35 -10.5t24.5 -28t1.5 -31q-280 -534 -672 -534q-46 0 -95 18.5t-93 51.5t-74.5 86.5t-34.5 117.5q-206 -274 -442 -274q-60 0 -117 18.5t-109 59.5t-91 100.5t-62 147.5t-23 194q0 161 50 335t122 286q79 123 177 123q33 0 57 -17
q40 125 133.5 204t235.5 79q215 0 301 -170q54 82 151 127t225 45q88 0 156 -21.5t106 -53t62 -74t31.5 -79t7.5 -73.5q0 -100 -47 -166t-109 -66q-26 0 -39.5 12t-13.5 31q0 77 -36 122.5t-128 45.5q-99 0 -149.5 -51.5t-50.5 -124.5q0 -49 25.5 -87t66.5 -58q61 0 141 10
t102 10q26 0 36.5 -19.5t10.5 -60.5q0 -163 -245 -163q-96 0 -172 53q-42 -10 -68.5 -51.5t-26.5 -94.5q0 -83 64 -132.5t180 -49.5t209.5 51.5t155.5 143.5zM518 461q96 0 180.5 72.5t132.5 184.5t48 230q0 122 -44 185t-122 63q-52 0 -81.5 -27t-29.5 -71q0 -40 22.5 -64
t59.5 -24q36 0 56 -24t20 -60q0 -57 -41.5 -102.5t-114.5 -45.5q-78 0 -129 60.5t-69 156.5q-20 -48 -31.5 -82t-22 -90t-10.5 -112q0 -250 176 -250z" />
    <glyph glyph-name="oe" unicode="&#x153;" horiz-adv-x="1454" 
d="M1501 561q12 17 31 18t35 -10t24.5 -28t1.5 -31q-131 -251 -293.5 -380.5t-341.5 -129.5q-197 0 -292 154q-151 -154 -336 -154q-140 0 -229 93.5t-89 250.5q0 92 27 188.5t78 184t118.5 156.5t156 110t183.5 41q172 0 246 -123q136 123 320 123q135 0 204.5 -74
t69.5 -184q0 -120 -93.5 -218.5t-236.5 -98.5q-103 0 -159 32q-10 7 -22.5 1t-12.5 -25q0 -52 60.5 -80.5t152.5 -28.5q110 0 219.5 56t177.5 157zM1065 801q-57 0 -93 -35.5t-36 -79.5q0 -36 24.5 -60t71.5 -24q56 0 91.5 36.5t35.5 78.5q0 36 -24.5 60t-69.5 24zM446 424
q73 0 124 61.5t51 130.5q0 48 -28 78.5t-85 30.5q-72 0 -120 -59t-48 -131q0 -49 25.5 -80t80.5 -31z" />
    <glyph glyph-name="Scaron" unicode="&#x160;" horiz-adv-x="1060" 
d="M938 1606q-45 0 -141.5 76.5t-96.5 105.5q0 19 11 40t30 21q22 0 106 -30t122 -56q7 3 34 15.5t38.5 17.5t35.5 15t37 15.5t30 11.5t28.5 8.5t19.5 2.5q23 0 36 -20.5t13 -40.5t-59.5 -64t-133.5 -81t-110 -37zM465 -86q-136 0 -241.5 53.5t-168.5 164t-63 263.5
q0 92 22.5 167.5t57 122.5t79 79.5t86 45.5t80.5 13q38 0 61 -14t23 -37q0 -18 -17.5 -36t-35.5 -48.5t-18 -79.5q0 -83 45.5 -131.5t124.5 -48.5q74 0 121 47.5t47 122.5q0 43 -21.5 93.5t-52 100.5t-60.5 104t-51.5 122t-21.5 137q0 72 24 137t71 117.5t124.5 83.5
t175.5 31q87 0 153 -24.5t104 -66.5t56.5 -92.5t18.5 -107.5q0 -92 -49.5 -172t-132.5 -123q-15 -14 -40 -5.5t-42.5 33.5t-3.5 42q15 19 22 51t3.5 64t-27 55.5t-64.5 23.5q-55 0 -91 -35.5t-36 -107.5q-2 -50 23.5 -108.5t63.5 -116t76 -118t64.5 -134t26.5 -144.5
q0 -229 -145 -376.5t-371 -147.5z" />
    <glyph glyph-name="scaron" unicode="&#x161;" horiz-adv-x="792" 
d="M467 1196q-45 0 -141.5 76.5t-96.5 105.5q0 20 11 41t30 21q22 0 106 -30t122 -56q7 3 34 15.5t38.5 17.5t35.5 15t37 15.5t30 11.5t28.5 8.5t19.5 2.5q23 0 36 -21t13 -41t-59.5 -64t-133.5 -81t-110 -37zM842 561q12 17 31 18t34.5 -10t24 -28t2.5 -31
q-67 -139 -115 -212q-200 -296 -491 -296q-103 0 -178.5 38.5t-112 99.5t-48 135.5t4.5 149t53 136.5l8 12q30 40 72.5 104.5t74.5 114t74.5 105.5t79 92.5t80.5 61t86 24.5q89 0 139 -42.5t48 -96.5q1 -22 -22 -40.5t-51 -30.5t-51.5 -34t-23.5 -49q0 -15 27.5 -70
t61.5 -130t46 -129q75 2 146 108zM254 424q66 0 103.5 42t37.5 107q0 71 -45 156q-21 41 -49 0q-67 -99 -162 -219q0 -37 32 -61.5t83 -24.5z" />
    <glyph glyph-name="Ydieresis" unicode="&#x178;" horiz-adv-x="1556" 
d="M1155 1563q-73 0 -115.5 33.5t-35.5 107.5q10 139 172 139q74 0 115 -31.5t34 -107.5q-13 -141 -170 -141zM1571 1563q-73 0 -115 33.5t-35 107.5q10 139 172 139q74 0 115 -31.5t35 -107.5q-13 -141 -172 -141zM653 -440q-286 0 -427 167q-102 122 -97 290q5 149 91 252
q86 104 214 104q42 0 56 -11.5t14 -33.5q-3 -54 14.5 -105t54.5 -94.5t104 -70.5t154 -27q80 0 147.5 21.5t114 56t83 80.5t58 91.5t36 92t19.5 80t5 57.5q0 26 -18.5 25.5t-26.5 -25.5q-48 -164 -153.5 -255t-233.5 -91q-133 0 -206.5 95t-73.5 249q0 125 65 283t170 290.5
t213 186.5q-259 9 -406 -58.5t-147 -199.5q0 -45 22 -75t56 -30q11 -23 7 -51t-15.5 -58t-37 -58t-56.5 -50t-74.5 -35.5t-91.5 -13.5q-120 0 -188 77.5t-68 188.5q0 125 65.5 237.5t182.5 197t292.5 134.5t382.5 50q186 0 275.5 -64.5t40.5 -191.5q-87 -35 -168 -130.5
t-127.5 -206t-46.5 -198.5q0 -139 100 -139q49 0 90.5 22.5t74 61t63.5 103t56 134.5t54 170q29 103 60.5 178.5t57.5 115.5t55.5 63t49 29t43.5 6q64 0 101 -37.5t36 -106.5q1 -47 -23 -108t-55 -115t-70 -133.5t-60 -149.5q-3 -10 -14 -43.5t-15.5 -48.5t-14 -47
t-15.5 -57t-14 -60t-15 -73.5t-13 -81.5q-62 -408 -262.5 -632t-544.5 -224z" />
    <glyph glyph-name="Zcaron" unicode="&#x17d;" horiz-adv-x="1236" 
d="M872 1606q-45 0 -141 76.5t-96 105.5q0 19 11 40t30 21q22 0 105.5 -30t121.5 -56q7 3 34 15.5t38.5 17.5t35.5 15t37 15.5t30 11.5t28.5 8.5t19.5 2.5q23 0 36.5 -21t13.5 -40q0 -20 -59.5 -64t-134 -81t-110.5 -37zM182 -18q-93 0 -140.5 60.5t-47.5 160.5
q0 127 37.5 228.5t100.5 168.5t145 118.5t173 84t181.5 58.5t172.5 49t145 48.5t100.5 63.5t37.5 88q0 37 -30 37q-12 0 -29 -16.5t-36 -37t-63 -37t-104 -16.5t-172 29t-174 29q-44 0 -67 -21t-23 -53q0 -26 15.5 -45t15.5 -33q0 -23 -22.5 -41t-63.5 -18q-87 0 -139 68
t-52 167q0 80 32.5 154t90 131t143 91t185.5 34q76 0 172 -27t186 -53.5t152 -26.5q43 0 68 11t34.5 26.5t15.5 31.5t19.5 27t38.5 11q30 0 50 -15t31 -46t15 -68t4 -90q0 -111 -34.5 -203t-93 -155t-134.5 -113.5t-160 -84t-167.5 -61.5t-159.5 -51t-134.5 -46.5t-93 -54.5
t-34.5 -69q0 -19 17.5 -24t31.5 12q43 56 95.5 81t150.5 25q59 0 114.5 -14.5t91.5 -32.5t89 -32.5t108 -14.5q158 0 217 86q9 14 24.5 17.5t29 -3t25.5 -16.5t15.5 -24t-2.5 -25q-9 -16 -34 -64.5t-48 -89t-58.5 -96t-75 -98.5t-87 -82t-106 -60.5t-121.5 -21.5
q-77 0 -137 15.5t-97 40t-65 54t-48 59t-39 54t-44.5 40t-57.5 15.5q-33 0 -47 -17.5t-14 -39.5q0 -21 21.5 -51t21.5 -62q0 -49 -41 -86.5t-117 -37.5z" />
    <glyph glyph-name="zcaron" unicode="&#x17e;" horiz-adv-x="921" 
d="M530 1196q-45 0 -141 76.5t-96 105.5q0 20 11 41t30 21q22 0 105.5 -30t121.5 -56q7 3 34 15.5t38.5 17.5t35.5 15t37 15.5t30 11.5t28.5 8.5t19.5 2.5q23 0 36.5 -21t13.5 -41t-59.5 -64t-134 -81t-110.5 -37zM57 -4q-39 0 -39 82q0 61 29.5 122t77.5 110.5t105 96
t114.5 86t105.5 73t77.5 63t29.5 51.5q0 57 -96 57q-98 0 -175.5 -56t-146.5 -171l-92 51q54 88 90.5 186t67.5 236q9 39 24.5 56.5t42.5 17.5q30 0 45.5 -11.5t19 -25.5t14.5 -25.5t32 -11.5q18 0 70.5 20.5t111.5 20.5q52 0 118.5 -13t122 -13t124.5 26q17 6 29.5 -5.5
t9.5 -29.5q-13 -84 -53 -158t-90.5 -122t-106.5 -90.5t-102 -69.5t-76.5 -53t-30.5 -45q0 -52 145 -52q95 0 180.5 45t133.5 117q22 33 46 41.5t37 -5t18.5 -36t-9.5 -51.5q-80 -161 -141 -248q-187 -262 -414 -262q-51 0 -87 10.5t-54.5 25.5t-33.5 30t-34.5 25.5
t-46.5 10.5q-38 0 -63.5 -11t-38 -26.5t-23.5 -31t-27 -26.5t-41 -11z" />
    <glyph glyph-name="florin" unicode="&#x192;" horiz-adv-x="600" 
d="M-324 -535q-161 0 -250.5 74.5t-89.5 204.5q0 140 70 226q33 40 52 37q6 -2 7 -7q6 -60 52 -95.5t121 -35.5q160 0 227.5 123t181.5 543q57 207 92 331h-28q-108 0 -116 62q-5 40 30 75q18 18 34 19h138q97 286 223.5 415.5t298.5 129.5q92 0 142.5 -44.5t53 -108
t-17 -127t-64 -108t-90.5 -44.5q-43 0 -43 30q0 99 -75 99q-116 0 -191 -242h209q27 0 30 -47t-20 -94t-61 -47l-203 18q-42 -194 -61 -356q-64 -514 -228.5 -772.5t-423.5 -258.5z" />
    <glyph glyph-name="circumflex" unicode="&#x2c6;" horiz-adv-x="724" 
d="M213 1196q-24 0 -37.5 21.5t-11.5 39.5q0 20 59.5 64.5t133.5 81.5t110 37q30 0 88 -37.5t104 -82t46 -63.5t-11 -40t-30 -21q-22 0 -106 30t-122 56q-7 -3 -34 -15.5t-38.5 -17.5t-35.5 -15t-37 -15.5t-30 -11.5t-28.5 -8.5t-19.5 -2.5z" />
    <glyph glyph-name="caron" unicode="&#x2c7;" horiz-adv-x="724" 
d="M401 1196q-45 0 -141 76.5t-96 105.5q0 20 11 41t30 21q22 0 105.5 -30t121.5 -56q7 3 34 15.5t38.5 17.5t35.5 15t37 15.5t30 11.5t28.5 8.5t19.5 2.5q23 0 36.5 -21t13.5 -41t-59.5 -64t-134 -81t-110.5 -37z" />
    <glyph glyph-name="breve" unicode="&#x2d8;" horiz-adv-x="743" 
d="M410 1186q-152 0 -217 91q-40 58 -26 115q16 45 54 48q21 0 34 -11t21.5 -27t20.5 -31.5t39.5 -26.5t69.5 -11q67 0 108 11t57 26.5t26 31.5t27 27t48 11q41 0 50 -41q11 -52 -35 -109q-77 -93 -242 -103q-17 -1 -35 -1z" />
    <glyph glyph-name="dotaccent" unicode="&#x2d9;" horiz-adv-x="505" 
d="M315 1153q-73 0 -115.5 33.5t-35.5 107.5q10 140 172 140q74 0 115 -32t34 -108q-13 -141 -170 -141z" />
    <glyph glyph-name="ring" unicode="&#x2da;" horiz-adv-x="624" 
d="M379 1163q-215 0 -215 150q0 147 215 147q225 0 225 -147q0 -150 -225 -150zM379 1253q23 0 45 2.5t45.5 8.5t38 18.5t14.5 30.5q0 57 -143 57q-135 0 -135 -57q0 -60 135 -60z" />
    <glyph glyph-name="ogonek" unicode="&#x2db;" horiz-adv-x="575" 
d="M451 -387q-76 -8 -133.5 8t-89.5 50t-48 74t-16 85q0 84 56.5 160t158.5 110l31 -49q-64 -47 -64 -102q0 -49 37 -79t125 -22q22 1 34.5 -20t12.5 -55q0 -57 -27.5 -105.5t-76.5 -54.5z" />
    <glyph glyph-name="tilde" unicode="&#x2dc;" horiz-adv-x="761" 
d="M528 1194q-56 0 -126 37t-99 37q-30 0 -50.5 -15.5t-33.5 -31t-26 -15.5q-34 0 -28 52q8 65 60 125q56 67 125 67q50 0 146 -41t118 -41q26 0 54 36t51 36q29 0 21 -50q-10 -65 -65 -125q-65 -71 -147 -71z" />
    <glyph glyph-name="hungarumlaut" unicode="&#x2dd;" horiz-adv-x="929" 
d="M211 1126q-22 0 -34.5 18t-12.5 36q0 21 50 84.5t114 120.5t96 57q34 0 77 -43.5t46 -75.5q4 -22 -71.5 -70.5t-159 -87.5t-105.5 -39zM573 1126q-24 0 -35.5 17.5t-11.5 36.5q0 21 50 84.5t114 120.5t96 57q33 0 76.5 -43.5t46.5 -75.5t-148 -114.5t-188 -82.5z" />
    <glyph glyph-name="gravecomb" unicode="&#x300;" horiz-adv-x="0" 
d="M-70 1159q-46 0 -236 72t-186 100q5 34 56.5 88t87.5 54q34 0 114.5 -57t147 -121.5t66.5 -84.5q0 -16 -14 -33.5t-36 -17.5z" />
    <glyph glyph-name="acutecomb" unicode="&#x301;" horiz-adv-x="0" 
d="M-442 1147q-24 0 -35.5 17t-11.5 36q0 20 66 84t146 121t113 57q37 0 89 -55t55 -88q3 -28 -186.5 -100t-235.5 -72z" />
    <glyph glyph-name="uni0302" unicode="&#x302;" horiz-adv-x="0" 
d="M-512 1196q-24 0 -37.5 21.5t-11.5 39.5q0 20 59.5 64.5t133.5 81.5t110 37q30 0 88 -37.5t104 -82t46 -63.5t-11 -40t-30 -21q-22 0 -106 30t-122 56q-7 -3 -34 -15.5t-38.5 -17.5t-35.5 -15t-37 -15.5t-30 -11.5t-28.5 -8.5t-19.5 -2.5z" />
    <glyph glyph-name="tildecomb" unicode="&#x303;" horiz-adv-x="0" 
d="M-233 1194q-55 0 -126 37t-100 37q-30 0 -50.5 -15.5t-33.5 -31t-26 -15.5q-34 0 -28 52q8 65 60 125q56 67 125 67q50 0 146.5 -41t118.5 -41q26 0 53.5 36t50.5 36q29 0 22 -50q-11 -65 -65 -125q-65 -70 -147 -71z" />
    <glyph glyph-name="uni0304" unicode="&#x304;" horiz-adv-x="0" 
d="M-414 1247q-211 0 -291 18.5t-55 75.5q18 42 46.5 59t111.5 25.5t266 8.5q54 0 94 -1t74.5 -3t58 -5.5t42 -8.5t28 -12t14 -16.5t3.5 -20.5t-7 -26q-24 -58 -104.5 -76t-280.5 -18z" />
    <glyph glyph-name="uni0306" unicode="&#x306;" horiz-adv-x="0" 
d="M-334 1186q-152 0 -216 91q-41 58 -26 115q16 45 54 48q21 0 34 -11t21.5 -27t20 -31.5t39 -26.5t69.5 -11q67 0 108 11t57 26.5t26 31.5t27 27t48 11q41 0 50 -41q11 -52 -35 -109q-77 -93 -242 -103q-17 -1 -35 -1z" />
    <glyph glyph-name="uni0307" unicode="&#x307;" horiz-adv-x="0" 
d="M-190 1153q-73 0 -116 33.5t-36 107.5q10 140 172 140q74 0 115.5 -32t34.5 -108q-13 -141 -170 -141z" />
    <glyph glyph-name="uni0308" unicode="&#x308;" horiz-adv-x="0" 
d="M-608 1153q-73 0 -116 33.5t-36 107.5q10 140 172 140q74 0 115.5 -32t34.5 -108q-13 -141 -170 -141zM-193 1153q-73 0 -114.5 33.5t-34.5 107.5q10 140 172 140q74 0 115 -32t35 -108q-13 -141 -173 -141z" />
    <glyph glyph-name="uni030A" unicode="&#x30a;" horiz-adv-x="0" 
d="M-246 1163q-215 0 -215 150q0 147 215 147q126 0 176 -42.5t50 -104.5q0 -150 -226 -150zM-246 1253q33 0 62 4t55.5 18t26.5 38q0 57 -144 57q-135 0 -135 -57q0 -60 135 -60z" />
    <glyph glyph-name="uni030B" unicode="&#x30b;" horiz-adv-x="0" 
d="M-719 1126q-22 0 -34.5 18t-12.5 36q0 21 50 84.5t114 120.5t96 57q34 0 77 -43.5t46 -75.5q4 -22 -71.5 -70.5t-159 -87.5t-105.5 -39zM-356 1126q-24 0 -35.5 17.5t-11.5 36.5q0 21 50 84.5t114 120.5t96 57q33 0 76.5 -43.5t46.5 -75.5t-148 -114.5t-188 -82.5z" />
    <glyph glyph-name="uni030C" unicode="&#x30c;" horiz-adv-x="0" 
d="M-324 1196q-45 0 -141 76.5t-96 105.5q0 20 11 41t30 21q22 0 105.5 -30t121.5 -56q7 3 34 15.5t38.5 17.5t35.5 15t37 15.5t30 11.5t28.5 8.5t19.5 2.5q23 0 36.5 -21t13.5 -41t-59.5 -64t-134 -81t-110.5 -37z" />
    <glyph glyph-name="uni0327" unicode="&#x327;" horiz-adv-x="0" 
d="M-330 -471q-69 0 -114 29.5t-59.5 71.5t-14.5 82t12 67q13 30 39 28q16 -1 16 -12q0 -33 31 -52t72 -19q43 0 75.5 21t32.5 58q0 20 -11.5 32.5t-33.5 12.5q-47 0 -80 -26q-26 -20 -44 1q-21 23 -1 60q5 7 11 15l209 245l90 -10l-154 -184l4 -10q36 14 75 15t74 -11
t58 -44.5t23 -82.5q0 -112 -85 -199.5t-225 -87.5z" />
    <glyph glyph-name="uni0328" unicode="&#x328;" horiz-adv-x="0" 
d="M-125 -387q-76 -8 -133.5 8t-89.5 50t-48 74t-16 85q0 84 56.5 160t158.5 110l31 -49q-63 -46 -63 -102q0 -49 36.5 -79t124.5 -22q22 1 35 -20t13 -55q0 -57 -28 -105.5t-77 -54.5z" />
    <glyph glyph-name="uni03BC" unicode="&#x3bc;" horiz-adv-x="1024" 
d="M1071 561q9 14 24.5 17.5t29 -3t25.5 -16.5t15.5 -24t-2.5 -25q-11 -19 -39 -76t-53.5 -107t-69 -113t-87 -107.5t-105 -75.5t-127.5 -31q-176 0 -176 223q0 37 6 84q-29 -62 -59 -110t-70.5 -95.5t-92 -73.5t-108.5 -26q-34 0 -67 10q10 -69 28 -157q22 -104 -44 -185.5
t-154 -81.5q-67 0 -104 55t-13 171q9 40 86 286.5t111 376.5q5 22 22 84q73 232 146 347.5t157 115.5q64 0 64 -82q0 -68 -46 -200t-46 -191q0 -46 19 -69t67 -23q123 0 172 143l2 8q65 208 130.5 311t141.5 103q64 0 64 -82q0 -59 -46.5 -191.5t-46.5 -181.5
q0 -55 30 -83.5t75 -28.5q42 0 74 26t67 78z" />
    <glyph glyph-name="endash" unicode="&#x2013;" horiz-adv-x="1091" 
d="M522 516q-306 0 -406 22t-73 93q15 40 32 58t75.5 33.5t160 19t293.5 3.5q79 0 137.5 -1t107.5 -4t82 -7t57.5 -10.5t38 -15t19 -20t4.5 -25t-8 -31.5q-14 -37 -41 -58.5t-88.5 -34.5t-150 -17.5t-240.5 -4.5z" />
    <glyph glyph-name="emdash" unicode="&#x2014;" horiz-adv-x="1423" 
d="M690 516q-237 0 -366.5 4t-211.5 17t-101 34.5t-5 59.5q10 28 19.5 41.5t39 29t74 22t131.5 12.5t203.5 7.5t298.5 1.5q471 0 581 -26q68 -16 70 -53q0 -14 -8 -35q-15 -38 -44.5 -58.5t-111.5 -34.5t-210 -18t-359 -4z" />
    <glyph glyph-name="quoteleft" unicode="&#x2018;" horiz-adv-x="651" 
d="M500 1536q56 0 93.5 -29t37.5 -80q0 -40 -23 -66t-59 -20q-81 13 -141.5 -8.5t-79.5 -52.5t-2 -47q11 -5 14.5 -1t20.5 12.5t38 8.5q50 0 94 -42.5t44 -108.5q0 -70 -50.5 -121t-121.5 -51q-73 0 -122.5 58t-49.5 157q0 163 93.5 277t213.5 114z" />
    <glyph glyph-name="quoteright" unicode="&#x2019;" horiz-adv-x="651" 
d="M324 930q-56 0 -93.5 28.5t-37.5 79.5q0 40 22.5 66t58.5 20q81 -13 141.5 8.5t80 53t2.5 47.5q-11 5 -15 0.5t-21 -13t-38 -8.5q-50 0 -93.5 43t-43.5 109q0 70 50.5 121t121.5 51q73 0 122.5 -58t49.5 -157q0 -163 -93.5 -277t-213.5 -114z" />
    <glyph glyph-name="quotesinglbase" unicode="&#x201a;" horiz-adv-x="487" 
d="M98 -283q-56 0 -93.5 29t-37.5 80q0 40 23 66t59 20q81 -13 141.5 8.5t79.5 52.5t2 47q-11 5 -14.5 1t-20.5 -12.5t-38 -8.5q-50 0 -94 43t-44 109q0 70 50.5 121t121.5 51q73 0 123 -58t50 -157q0 -163 -94 -277.5t-214 -114.5z" />
    <glyph glyph-name="quotedblleft" unicode="&#x201c;" horiz-adv-x="1116" 
d="M500 1536q56 0 93.5 -29t37.5 -80q0 -40 -23 -66t-59 -20q-81 13 -141.5 -8.5t-79.5 -52.5t-2 -47q11 -5 14.5 -1t20.5 12.5t38 8.5q50 0 94 -42.5t44 -108.5q0 -70 -50.5 -121t-121.5 -51q-73 0 -122.5 58t-49.5 157q0 163 93.5 277t213.5 114zM965 1536q56 0 93.5 -29
t37.5 -80q0 -40 -23 -66t-59 -20q-81 13 -141.5 -8.5t-79.5 -52.5t-2 -47q11 -5 14.5 -1t20.5 12.5t38 8.5q50 0 93.5 -42.5t43.5 -108.5q0 -70 -50.5 -121t-121.5 -51q-73 0 -122.5 58t-49.5 157q0 163 94 277t214 114z" />
    <glyph glyph-name="quotedblright" unicode="&#x201d;" horiz-adv-x="1116" 
d="M324 930q-56 0 -93.5 28.5t-37.5 79.5q0 40 22.5 66t58.5 20q81 -13 141.5 8.5t80 53t2.5 47.5q-11 5 -15 0.5t-21 -13t-38 -8.5q-50 0 -93.5 43t-43.5 109q0 70 50.5 121t121.5 51q73 0 122.5 -58t49.5 -157q0 -163 -93.5 -277t-213.5 -114zM788 930q-56 0 -93.5 28.5
t-37.5 79.5q0 40 23 66t59 20q81 -13 141.5 8.5t80 53t2.5 47.5q-11 5 -15 0.5t-21 -13t-38 -8.5q-50 0 -93.5 43t-43.5 109q0 70 51 121t121 51q73 0 122.5 -58t49.5 -157q0 -163 -94 -277t-214 -114z" />
    <glyph glyph-name="quotedblbase" unicode="&#x201e;" horiz-adv-x="952" 
d="M98 -283q-56 0 -93.5 29t-37.5 80q0 40 23 66t59 20q81 -13 141.5 8.5t79.5 52.5t2 47q-11 5 -14.5 1t-20.5 -12.5t-38 -8.5q-50 0 -94 43t-44 109q0 70 50.5 121t121.5 51q73 0 123 -58t50 -157q0 -163 -94 -277.5t-214 -114.5zM563 -283q-56 0 -93.5 29t-37.5 80
q0 40 23 66t59 20q81 -13 141.5 8.5t79.5 52.5t2 47q-11 5 -14.5 1t-20.5 -12.5t-38 -8.5q-50 0 -94 43t-44 109q0 70 51 121t121 51q73 0 122.5 -58t49.5 -157q0 -163 -93.5 -277.5t-213.5 -114.5z" />
    <glyph glyph-name="dagger" unicode="&#x2020;" horiz-adv-x="983" 
d="M1026 1024q45 0 47 -56q1 -58 -37 -111q-31 -44 -69 -44q-78 0 -121 1t-109 8.5t-121 21.5l-366 -1168q-27 -86 -100 -86q-30 0 -39 26t4 67l370 1179q-57 -23 -127.5 -34.5t-116 -13t-128.5 -1.5q-30 0 -33.5 52.5t18 105.5t52.5 53q83 0 129 -1.5t116.5 -10.5
t128.5 -27l117 369q18 56 66 70q43 12 65 -15q17 -21 6 -55l-114 -367q56 17 124 26t112.5 10t125.5 1z" />
    <glyph glyph-name="daggerdbl" unicode="&#x2021;" horiz-adv-x="1167" 
d="M1169 1024q45 0 47 -56q1 -58 -37 -111q-31 -44 -69 -44q-78 0 -120.5 1t-108 8.5t-119.5 21.5l-213 -682q61 23 135.5 34.5t123 13t136.5 1.5q45 0 47 -56q1 -58 -37 -111q-31 -44 -69 -44q-83 0 -129 1t-117.5 10t-130.5 26l-113 -361q-27 -86 -100 -86q-30 0 -39 26
t4 67l111 354q-53 -17 -117 -26t-106 -10t-117 -1q-30 0 -33.5 53t18 105.5t52.5 52.5q78 0 120 -1t107.5 -8.5t120.5 -21.5l215 682q-58 -23 -129 -34.5t-117 -13t-129 -1.5q-30 0 -33.5 52.5t18 105.5t52.5 53q83 0 129 -1.5t117.5 -10.5t130.5 -27l114 369q18 55 66 70
q42 12 65 -15q18 -21 7 -55l-115 -367q56 17 124 26t112.5 10t125.5 1z" />
    <glyph glyph-name="bullet" unicode="&#x2022;" horiz-adv-x="761" 
d="M442 518q-106 0 -182 76t-76 182t76 182t182 76t182 -76t76 -182t-76 -182t-182 -76z" />
    <glyph glyph-name="ellipsis" unicode="&#x2026;" horiz-adv-x="1409" 
d="M233 -20q-71 0 -121.5 51t-50.5 121t50.5 121t121.5 51t122 -51t51 -121t-51 -121t-122 -51zM696 -20q-70 0 -121 51t-51 121t51 121t121 51t121 -51t51 -121t-51 -121t-121 -51zM1155 -20q-71 0 -121.5 51t-50.5 121t50.5 121t121.5 51t121.5 -51t50.5 -121t-50.5 -121
t-121.5 -51z" />
    <glyph glyph-name="perthousand" unicode="&#x2030;" horiz-adv-x="1900" 
d="M389 748q-92 0 -138 71t-46 185q0 85 27 176t73 169t117.5 128.5t152.5 50.5q88 0 132.5 -68.5t44.5 -179.5q0 -113 -46 -235t-132 -209.5t-185 -87.5zM111 0q-43 0 -43 43q0 156 1257 1454l35 -27q-126 -160 -291.5 -371.5t-258.5 -331t-208.5 -264.5t-181.5 -221.5
t-134 -150t-108.5 -102.5t-66.5 -29zM451 993q69 0 119 65.5t44 151.5q-4 51 -30.5 78t-69.5 27q-74 0 -123.5 -69.5t-44.5 -147.5q5 -46 34 -75.5t71 -29.5zM891 -2q-92 0 -138 71t-46 185q0 85 27 176t73 169t117.5 128.5t152.5 50.5q88 0 132 -68.5t44 -179.5
q0 -83 -27.5 -176t-74.5 -172.5t-116 -131.5t-144 -52zM1464 -2q-92 0 -138 71t-46 185q0 85 27 176.5t73.5 169t118 128t152.5 50.5q88 0 132 -68.5t44 -179.5q0 -113 -46 -235t-132 -209.5t-185 -87.5zM952 244q70 0 120.5 66t43.5 151q-4 51 -30.5 77.5t-69.5 26.5
q-75 0 -125.5 -70t-42.5 -147q5 -46 33.5 -75t70.5 -29zM1526 244q70 0 120.5 66t43.5 151q-4 50 -31 77t-70 27q-75 0 -125.5 -70t-42.5 -147q5 -46 34 -75t71 -29z" />
    <glyph glyph-name="guilsinglleft" unicode="&#x2039;" horiz-adv-x="921" 
d="M934 987l-471 -508l268 -463q7 -13 -28 -19q-57 -11 -113 0q-19 5 -25 11l-364 412q-29 28 -18 75t61 83l473 409q48 35 142 35q72 1 80 -21q2 -6 -5 -14z" />
    <glyph glyph-name="guilsinglright" unicode="&#x203a;" horiz-adv-x="901" 
d="M43 29l471 508l-268 462q-7 13 28 20q57 11 113 -1q19 -4 25 -10l364 -412q29 -28 18 -75t-61 -83l-473 -409q-48 -35 -142 -35q-72 -1 -80 21q-2 6 5 14z" />
    <glyph glyph-name="fraction" unicode="&#x2044;" horiz-adv-x="716" 
d="M6 -125q-43 10 -31 51q20 93 377.5 608t716.5 986l39 -27q-86 -134 -194.5 -304t-182 -286t-161.5 -253t-147.5 -228.5t-124.5 -189t-108.5 -157.5t-83 -110t-64 -71.5t-36.5 -18.5z" />
    <glyph glyph-name="Euro" unicode="&#x20ac;" horiz-adv-x="1064" 
d="M934 938q-58 0 -80.5 26.5t-1.5 65.5q13 31 10 60.5t-29.5 51t-66.5 21.5q-109 0 -193 -87t-118 -220h589v-65h-602q-4 -46 -4 -68q0 -25 2 -37h461v-65h-452q26 -116 109 -185t218 -69q59 0 139 34q44 20 79 -17.5t35 -94.5t-36 -109q-171 -205 -418 -205
q-111 0 -202 35t-160 105t-107 184t-38 264q0 40 2 58h-113v65h119q6 52 18 105h-137v65h156q41 136 117.5 254.5t175 205t218.5 136t244 49.5q163 0 248.5 -78.5t85.5 -214.5q0 -74 -44 -138t-105.5 -98t-118.5 -34z" />
    <glyph glyph-name="trademark" unicode="&#x2122;" horiz-adv-x="1454" 
d="M207 862q-101 0 -86 129q1 13 21.5 65t61 147.5t56.5 135.5h-145q-21 0 -30 51.5t5 102.5t47 51h543q17 0 23.5 -51t-14.5 -102.5t-71 -51.5h-143q-108 -272 -131 -323q-5 -11 -15.5 -40.5t-17.5 -44t-21 -33.5t-34.5 -27.5t-48.5 -8.5zM666 862q-14 0 -26 3t-20 7
t-14 11.5t-9.5 13.5t-5.5 16.5t-3 17t-0.5 17.5t1 16t2 15.5t1.5 11.5q1 9 14.5 46.5t37 96.5t46 115t51.5 127t43 107q10 27 35 44t55 17h125q36 0 53.5 -27.5t18.5 -67t-2 -79t-2 -67t12 -27.5q15 0 33.5 27.5t38 67t43 79t58.5 67t75 27.5h113q51 0 78 -41q28 -39 12 -86
q-112 -335 -141 -401q-19 -45 -33.5 -72.5t-42.5 -54.5t-60 -27q-23 0 -39.5 6.5t-24 20t-12 25t-3 30t2.5 26t3 21.5q5 31 45 130q30 75 13 85q-3 2 -9 2q-19 0 -54.5 -48t-69.5 -105.5t-76.5 -105.5t-74.5 -48q-36 0 -49.5 32t-7.5 76t12 91t9.5 76.5t-15.5 31.5
q-13 0 -22 -6.5t-17.5 -24.5t-15 -36t-20 -56t-25.5 -69q-61 -154 -137 -154z" />
    <glyph glyph-name="minus" unicode="&#x2212;" horiz-adv-x="745" 
d="M434 535q-212 0 -292 24.5t-54 99.5q12 35 23.5 53t36 34.5t70 23t114 10.5t180.5 4q208 0 270.5 -25t36.5 -100q-27 -76 -107 -100t-278 -24z" />
    <glyph glyph-name="approxequal" unicode="&#x2248;" horiz-adv-x="860" 
d="M719 684q-62 0 -123 26t-112.5 52t-90.5 26q-33 0 -59 -13.5t-39 -29.5t-28.5 -29.5t-30.5 -13.5q-44 0 -40 63q4 76 64 163q76 110 176 125q14 2 27 2q56 0 135 -30t147.5 -59.5t98.5 -29.5q25 0 46 16t33 35t31.5 35t42.5 16q37 0 32 -58q-7 -76 -69 -160
q-87 -119 -209 -134q-16 -2 -32 -2zM555 256q-62 0 -123 26t-112.5 52t-90.5 26q-33 0 -59 -13.5t-39 -29.5t-28.5 -29.5t-30.5 -13.5q-44 0 -40 63q4 76 64 163q76 110 176 125q14 2 27 2q56 0 135 -29.5t147.5 -59.5t98.5 -30q25 0 46 16t33 35t32 35t43 16q37 0 32 -58
q-7 -76 -70 -161q-88 -119 -210 -133z" />
    <glyph glyph-name="notequal" unicode="&#x2260;" horiz-adv-x="903" 
d="M848 985q93 -9 120.5 -35.5t8.5 -83.5q-24 -68 -89 -94t-212 -31l-113 -157q175 -3 228 -29t28 -96q-27 -76 -107 -100.5t-278 -24.5h-51q-112 -152 -179 -225t-98 -72q-22 -1 -32.5 9.5t-10.5 33.5q0 49 162 262q-88 9 -121.5 36.5t-15.5 80.5q13 39 26.5 58.5
t48.5 36.5t94.5 22.5t162.5 7.5l133 157q-188 2 -260 27.5t-47 97.5q12 35 23.5 53t36 34.5t70 23t114 10.5t180.5 4q69 0 98 -2q40 47 152 172l43 -16q-47 -66 -115 -160z" />
    <glyph glyph-name="lessequal" unicode="&#x2264;" horiz-adv-x="1064" 
d="M893 399q-48 0 -216 68.5t-322 157.5t-154 135q0 49 125 121t282.5 131t295.5 102t169 43q30 0 41.5 -13t18.5 -42q5 -20 -0.5 -40t-24 -40t-39.5 -37.5t-59 -38.5t-69 -37t-82.5 -38.5t-88 -38t-96.5 -40t-96 -40.5q58 -24 99 -41.5t88.5 -39.5t78.5 -39t63 -36.5
t49.5 -36.5t29 -34.5t10 -35t-14.5 -34.5q-22 -29 -40.5 -42.5t-47.5 -13.5zM455 59q-239 0 -325.5 24.5t-59.5 100.5q10 29 18.5 45t28 32.5t47 23.5t78.5 13.5t119 8.5t171 2q67 0 117.5 -1t92.5 -4.5t71 -8t50.5 -11.5t33 -16t17 -22t4 -28t-8.5 -34q-27 -77 -116.5 -101
t-337.5 -24z" />
    <glyph glyph-name="greaterequal" unicode="&#x2265;" horiz-adv-x="1024" 
d="M195 399q-29 0 -41 13.5t-19 42.5q-5 20 0.5 40t24 40t39.5 37.5t59 38.5t69 37t82.5 38.5t88 38t96.5 40t96 40.5q-58 24 -99 41.5t-88.5 39.5t-78.5 39t-63 36.5t-49.5 36.5t-29 34.5t-10 35t14.5 34.5q22 29 40 42t48 13q34 0 146.5 -42.5t234 -99.5t216.5 -120
t95 -98q0 -49 -125 -121t-282.5 -131.5t-295.5 -102.5t-169 -43zM455 59q-239 0 -325.5 24.5t-59.5 100.5q10 29 18.5 45t28 32.5t47 23.5t78.5 13.5t119 8.5t171 2q67 0 117.5 -1t92.5 -4.5t71 -8t50.5 -11.5t33 -16t17 -22t4 -28t-8.5 -34q-27 -77 -116.5 -101t-337.5 -24
z" />
    <glyph glyph-name="t.ss02.swsh.ss01" unicode="&#xe001;" horiz-adv-x="438" 
d="M1020 1436q50 0 92.5 -38.5t42.5 -105.5q0 -31 -9.5 -58.5t-36 -56t-69 -48t-114 -30.5t-164.5 -9q-117 2 -268 24q-137 -371 -175 -553q-26 -126 -30 -235.5t16 -202.5t79.5 -147t154.5 -54q25 0 41 5.5t20.5 12t10.5 12t14 5.5q27 0 38 -52q16 -79 -24 -163
q-60 -127 -209 -152q-34 -6 -70 -6q-122 0 -208 55.5t-128.5 147t-55 211t4 247t56.5 255.5q12 36 131 364q36 100 119 293q-21 4 -92 20t-98.5 21.5t-89 17t-100.5 16t-93 9t-103 4.5q-83 0 -127.5 -28t-42.5 -66q2 -29 -23.5 -50.5t-84.5 -21.5q-78 0 -133.5 57t-55.5 158
q0 126 103.5 208.5t298.5 82.5q101 0 210 -23.5t175.5 -48t184 -74t163.5 -67.5q3 7 7.5 18.5t6.5 14.5q34 82 67.5 109.5t77.5 27.5q86 0 99.5 -42.5t-39.5 -149.5l-19 -41q101 -19 168 -19q95 0 158.5 25t63.5 74q0 47 59 47z" />
    <glyph glyph-name="t.ss03.swsh.ss01" unicode="&#xe002;" horiz-adv-x="417" 
d="M688 -39q211 0 326.5 -86.5t115.5 -218.5q0 -66 -31.5 -126t-91 -108.5t-158 -77t-222.5 -28.5q-135 0 -271.5 61t-234.5 181q-80 -51 -143 -86t-145 -71.5t-167.5 -55.5t-171.5 -19q-213 0 -337 97t-124 249q0 129 87 207t208 78q73 0 124.5 -25t51.5 -47
q0 -7 -10 -15.5t-19.5 -23.5t-9.5 -36q0 -101 224 -101q147 0 311 68q-45 130 -45 289q0 84 7 152.5t30 152.5t38 130.5t61 172t69 190.5q36 100 119 293q-21 4 -92 20t-98.5 21.5t-89 17t-100.5 16t-93 9t-103 4.5q-83 0 -127.5 -28t-42.5 -66q2 -29 -23.5 -50.5
t-84.5 -21.5q-78 0 -133.5 57t-55.5 158q0 126 103.5 208.5t298.5 82.5q101 0 210 -23.5t175.5 -48t184 -74t163.5 -67.5q3 7 7.5 18.5t6.5 14.5q34 82 67.5 109.5t77.5 27.5q86 0 99.5 -42.5t-39.5 -149.5l-19 -41q104 -19 168 -19q95 0 158.5 25t63.5 74q0 47 59 47
q50 0 92.5 -38.5t42.5 -105.5q0 -31 -9.5 -58.5t-36 -56t-69 -48t-114 -30.5t-164.5 -9q-115 2 -270 24q-104 -264 -152 -422q-77 -249 -92.5 -458t28.5 -343q199 70 412 70zM567 -348q44 0 67 17t23 44q0 22 -21.5 39t-72.5 17q-72 0 -178 -52q74 -65 182 -65z" />
    <glyph glyph-name="t.ss04.swsh.ss01" unicode="&#xe003;" horiz-adv-x="765" 
d="M1020 1436q50 0 92.5 -38.5t42.5 -105.5q0 -31 -9.5 -58.5t-36 -56t-69 -48t-114 -30.5t-164.5 -9q-115 2 -270 24q-104 -264 -152 -422q-34 -110 -36 -198t27 -136.5t83 -48.5q51 0 88 16.5t57 40.5t36 48t35 40.5t44 16.5q49 0 77.5 -60t28.5 -151q0 -62 -14 -123.5
t-46.5 -122t-79.5 -106.5t-119.5 -74.5t-160.5 -28.5q-152 0 -252 91t-122 245.5t43 358.5q12 36 131 364q36 100 119 293q-21 4 -92 20t-98.5 21.5t-89 17t-100.5 16t-93 9t-103 4.5q-83 0 -127.5 -28t-42.5 -66q2 -29 -23.5 -50.5t-84.5 -21.5q-78 0 -133.5 57t-55.5 158
q0 126 103.5 208.5t298.5 82.5q101 0 210 -23.5t175.5 -48t184 -74t163.5 -67.5q3 7 7.5 18.5t6.5 14.5q34 82 67.5 109.5t77.5 27.5q86 0 99.5 -42.5t-39.5 -149.5l-19 -41q104 -19 168 -19q95 0 158.5 25t63.5 74q0 47 59 47z" />
    <glyph glyph-name="t.ss05.swsh.ss01" unicode="&#xe004;" horiz-adv-x="581" 
d="M748 276q247 0 359 -127q85 -98 60 -231q-25 -132 -143 -227q-150 -121 -377 -121q-146 0 -289.5 55t-240.5 160q-258 -183 -353 -244q-370 -236 -672 -283q-85 -14 -169 -14q-115 0 -210.5 23.5t-159.5 62.5t-108.5 92.5t-64.5 112.5t-20 123q0 75 27.5 141t84.5 109
t133 43q16 0 26 -6t12.5 -11.5t6.5 -19.5q6 -21 24 -40.5t54 -40t104.5 -32.5t161.5 -12q87 0 173 9.5t179.5 33.5t158 42t170 59.5t149 59t158.5 66.5q-37 197 47 441q12 36 131 364q36 100 119 293q-21 4 -92 20t-98.5 21.5t-89 17t-100.5 16t-93 9t-103 4.5
q-83 0 -127.5 -28t-42.5 -66q2 -29 -23.5 -50.5t-84.5 -21.5q-78 0 -133.5 57t-55.5 158q0 126 103.5 208.5t298.5 82.5q101 0 210 -23.5t175.5 -48t184 -74t163.5 -67.5q3 7 7.5 18.5t6.5 14.5q34 82 67.5 109.5t77.5 27.5q86 0 99.5 -42.5t-39.5 -149.5l-19 -41
q104 -19 168 -19q95 0 158.5 25t63.5 74q0 47 59 47q50 0 92.5 -38.5t42.5 -105.5q0 -31 -9.5 -58.5t-36 -56t-69 -48t-114 -30.5t-164.5 -9q-115 2 -270 24q-104 -264 -152 -422q-99 -317 -55 -510q267 94 463 94zM627 -74q43 0 66.5 18.5t23.5 43.5q0 23 -20.5 39
t-69.5 16q-86 0 -209 -63q83 -54 209 -54z" />
    <glyph glyph-name="t.swsh.ss01" unicode="&#xe005;" horiz-adv-x="540" 
d="M1020 1436q50 0 92.5 -38.5t42.5 -105.5q0 -31 -9.5 -58.5t-36 -56t-69 -48t-114 -30.5t-164.5 -9q-148 3 -289 28q-113 -293 -154 -426q-31 -103 0 -168t101 -65q102 0 168 102q12 17 31 17.5t35 -10t24.5 -27.5t1.5 -31t-29.5 -63.5t-43 -89t-52 -95.5t-67 -98.5
t-78.5 -81.5t-95 -60.5t-108 -21.5q-83 0 -137 41t-73 111t-11 159.5t43 188.5q16 46 60.5 166.5t70.5 197.5q36 100 119 293q-21 4 -92 20t-98.5 21.5t-89 17t-100.5 16t-93 9t-103 4.5q-83 0 -127.5 -28t-42.5 -66q2 -29 -23.5 -50.5t-84.5 -21.5q-78 0 -133.5 57
t-55.5 158q0 126 103.5 208.5t298.5 82.5q101 0 210 -23.5t175.5 -48t184 -74t163.5 -67.5q3 7 7.5 18.5t6.5 14.5q34 82 67.5 109.5t77.5 27.5q59 0 71.5 -47.5t-32.5 -144.5q-9 -17 -16 -37q97 -23 186 -23q95 0 158.5 25t63.5 74q0 47 59 47z" />
    <glyph glyph-name="a.ss02" unicode="&#xe006;" horiz-adv-x="976" 
d="M897 -416q-102 0 -175 34.5t-113.5 97.5t-58.5 138t-18 169q0 127 39 276h-4q-68 -135 -157.5 -217t-192.5 -82q-102 0 -156.5 84t-54.5 225q0 88 20.5 184t64.5 191t105 170.5t149.5 122.5t189.5 47q46 0 79 -8t50 -19.5t29.5 -23t24 -19.5t25.5 -8q22 0 43 12t36 27
t41.5 27t58.5 12q71 0 71 -76q0 -19 -25.5 -79.5t-55.5 -133t-55.5 -192.5t-25.5 -244q0 -193 53 -292t150 -99q34 0 59 12t40.5 24.5t27.5 12.5q27 0 38 -52q16 -79 -23 -163q-60 -127 -209 -152q-33 -6 -70 -6zM422 424q75 0 126.5 61t51.5 131q0 51 -28 80t-78 29
q-76 0 -125.5 -59t-49.5 -131q0 -52 27.5 -81.5t75.5 -29.5z" />
    <glyph glyph-name="d.ss02" unicode="&#xe007;" horiz-adv-x="997" 
d="M897 -416q-102 0 -175 34.5t-113.5 97.5t-58.5 138t-18 169q0 128 41 278h-6q-65 -134 -151 -217.5t-176 -83.5q-116 0 -175 80.5t-59 210.5q0 77 15 159.5t43.5 165t74 156t102.5 130t133 89.5t161 33q56 0 94 -15.5t52 -33.5t29.5 -33.5t32.5 -15.5q14 0 24.5 32
t35.5 118.5t61 172.5q53 128 106.5 176t108.5 48q56 0 70.5 -52.5t-23.5 -140.5l-231 -592q-51 -131 -60.5 -271t16.5 -248t85.5 -177.5t138.5 -69.5q25 0 41 5.5t20.5 12t10.5 12t14 5.5q27 0 38 -52q16 -79 -23 -163q-60 -127 -209 -152q-33 -6 -70 -6zM426 424
q73 0 123.5 61.5t50.5 130.5q0 48 -28 78.5t-85 30.5q-72 0 -120 -59t-48 -131q0 -49 26 -80t81 -31z" />
    <glyph glyph-name="f.ss02" unicode="&#xe008;" horiz-adv-x="530" 
d="M719 1567q92 0 142.5 -44.5t53 -108t-17 -127t-64 -108t-90.5 -44.5q-43 0 -43 30q0 99 -75 99q-119 0 -197 -242h215q27 0 30 -47t-20 -94t-61 -47l-209 18h-2q-40 -185 -66 -420q-25 -246 -83.5 -437.5t-139.5 -316.5t-187.5 -206.5t-221 -115.5t-246.5 -34
q-100 0 -178.5 27.5t-125.5 74t-71.5 104t-24.5 120.5q0 80 37.5 150t114.5 115.5t178 45.5q73 0 121 -22t63 -62q-26 -26 -29.5 -56t19 -50.5t66.5 -20.5t83.5 17t72 50.5t60.5 73t52 97t43 108t38.5 119.5t32.5 119t30 120t28 109q50 183 92 305h-28q-108 0 -116 62
q-5 40 30 75q18 18 34 19h138q219 545 522 545z" />
    <glyph glyph-name="h.ss02" unicode="&#xe009;" horiz-adv-x="940" 
d="M840 -416q-102 0 -175 34.5t-113.5 97.5t-58.5 138t-18 169q0 93 19.5 186t43 153t43 123.5t19.5 104.5q0 35 -21 53.5t-57 18.5q-88 0 -154.5 -107.5t-66.5 -245.5v-92q0 -217 -162 -217q-159 0 -159 211q0 153 69 350q158 457 195 553q97 246 175 318q46 41 97 41
q65 0 78.5 -47.5t-29.5 -145.5q-11 -24 -72.5 -147t-76.5 -179q-17 -60 2 -71.5t53 24.5q120 117 248 117q89 0 136.5 -53.5t47.5 -134.5q0 -53 -40.5 -249t-47.5 -282q-14 -181 34.5 -282t168.5 -101q25 0 41 5.5t20.5 12t10.5 12t14 5.5q27 0 38 -52q16 -79 -23 -163
q-60 -127 -209 -152q-33 -6 -70 -6z" />
    <glyph glyph-name="i.ss02" unicode="&#xe00a;" horiz-adv-x="442" 
d="M412 1108q-87 0 -137 39.5t-42 128.5q13 166 203 166q87 0 136 -38.5t42 -127.5q-16 -168 -202 -168zM360 -416q-115 0 -197.5 59.5t-124 158.5t-54.5 226t4 263.5t59 269.5q75 237 143 350t152 113q70 0 70 -92q0 -72 -43.5 -205.5t-49.5 -165.5q-24 -128 -27.5 -235.5
t16 -202t78 -148t153.5 -53.5q25 0 41 5.5t20.5 12t10.5 12t14 5.5q27 0 38 -52q16 -79 -24 -163q-60 -127 -209 -152q-34 -6 -70 -6z" />
    <glyph glyph-name="k.ss02" unicode="&#xe00b;" horiz-adv-x="944" 
d="M877 -416q-80 0 -142 31t-108.5 91t-83 162t-63.5 229t-52 306q-8 57 -47 69q-35 11 -60 -24q-20 -28 -20 -75v-156q0 -217 -162 -217q-159 0 -159 211q0 153 69 350q158 457 195 553q97 246 175 318q46 41 97 41q65 0 78.5 -47.5t-29.5 -145.5q-15 -33 -57.5 -124
t-65 -143t-50.5 -132.5t-42 -149.5q-6 -32 17.5 -45.5t53.5 -3.5t42 37q67 152 143.5 228.5t181.5 76.5q87 0 134 -46.5t47 -113.5q0 -209 -254 -209q-99 -3 -99 -59q0 -22 17.5 -35t40 -21.5t47.5 -42.5t37 -91q7 -34 16 -83t15 -81t15.5 -74t19 -69t24.5 -58t33.5 -50.5
t43.5 -36.5t57.5 -24.5t72.5 -7.5q25 0 41 5.5t20.5 12t10.5 12t14 5.5q27 0 38 -52q16 -79 -23 -163q-60 -127 -209 -152q-33 -6 -70 -6z" />
    <glyph glyph-name="l.ss02" unicode="&#xe00c;" horiz-adv-x="395" 
d="M279 -416q-93 0 -160.5 34.5t-104.5 97.5t-54 138.5t-17 168.5q0 64 23 194.5t61.5 292.5t94.5 332t117.5 310.5t135 230.5t141.5 90q65 0 79.5 -48t-30.5 -145q-167 -340 -229.5 -539t-81.5 -436q-14 -181 34.5 -282t168.5 -101q25 0 41 5.5t20.5 12t10.5 12t14 5.5
q27 0 38 -52q16 -79 -23 -163q-60 -127 -209 -152q-33 -6 -70 -6z" />
    <glyph glyph-name="m.ss02" unicode="&#xe00d;" horiz-adv-x="1470" 
d="M1370 -416q-82 0 -145.5 23.5t-104 63t-67 96.5t-37 119.5t-10.5 136.5q0 94 19 187.5t42 154.5t42 124.5t19 104.5q0 35 -20.5 53.5t-56.5 18.5q-87 0 -154.5 -102.5t-67.5 -221.5q0 -30 7.5 -70t7.5 -69q0 -37 -7.5 -68t-25.5 -63t-56 -50t-93 -18q-164 0 -164 178
q0 66 25.5 144t51 146t25.5 110q0 80 -78 80q-88 0 -154.5 -107.5t-66.5 -245.5v-92q0 -217 -172 -217q-70 0 -109.5 42t-39.5 108q0 214 67 411q74 221 134 342t116 121q63 0 63 -78q0 -56 31 -70.5t80 31.5q120 117 248 117q72 0 117 -35t61 -94q10 -46 51 0
q121 133 277 133q104 0 155.5 -53t51.5 -137q0 -55 -39 -252.5t-47 -280.5q-16 -181 33 -282t169 -101q25 0 41 5.5t20.5 12t10.5 12t14 5.5q27 0 38 -50q16 -75 -24 -158q-61 -127 -217 -157q-29 -6 -61 -8z" />
    <glyph glyph-name="n.ss02" unicode="&#xe00e;" horiz-adv-x="937" 
d="M838 -416q-102 0 -175 34.5t-113.5 97.5t-58.5 138t-18 169t19 187.5t42.5 154.5t42.5 124.5t19 104.5q0 33 -21 50.5t-57 17.5q-88 0 -154.5 -107.5t-66.5 -245.5v-92q0 -217 -168 -217q-70 0 -109.5 42t-39.5 108q0 172 67 411q55 192 123.5 327.5t122.5 135.5
q67 0 67 -78q0 -62 29 -74.5t78 35.5q120 117 248 117q89 0 136.5 -53t47.5 -133q0 -53 -39.5 -250.5t-46.5 -282.5q-14 -181 34.5 -282t168.5 -101q25 0 41 5.5t20.5 12t10.5 12t14 5.5q27 0 38 -52q16 -79 -23 -163q-60 -127 -209 -152q-33 -6 -70 -6z" />
    <glyph glyph-name="p.ss02" unicode="&#xe00f;" horiz-adv-x="999" 
d="M1047 561q15 15 40 13t44 -22t8 -42q-20 -43 -41 -78t-53.5 -74.5t-69 -66t-87.5 -44.5t-108 -18h-12q-73 -106 -168 -167.5t-192 -61.5q-95 0 -147.5 56.5t-33.5 172.5q5 30 -16 36t-35 -20l-6 -16q-20 -201 -69 -357.5t-116.5 -258.5t-157 -168.5t-185 -94.5
t-205.5 -28q-100 0 -178.5 27.5t-125.5 74t-71.5 104t-24.5 120.5q0 80 37.5 150t114.5 115.5t178 45.5q73 0 121 -22t63 -62q-26 -26 -29.5 -56t19 -50.5t66.5 -20.5q53 0 98 29t74.5 71.5t58.5 109.5t46 122.5t40.5 131.5t38.5 118q41 108 84 231q100 295 130 358
q38 81 81 97q19 8 47 8q93 0 82 -70q-3 -15 6.5 -24t26.5 -6.5t33 18.5q84 82 200 82q122 0 195.5 -83.5t73.5 -227.5q0 -127 -39 -252q96 0 164 100zM446 424q73 0 124 61.5t51 130.5q0 48 -28 78.5t-85 30.5q-72 0 -120 -59t-48 -131q0 -49 25.5 -80t80.5 -31z" />
    <glyph glyph-name="r.ss02" unicode="&#xe010;" horiz-adv-x="768" 
d="M856 -43q27 0 38 -52q16 -79 -23 -163q-60 -127 -209 -152q-33 -6 -70 -6q-114 0 -196 37.5t-127.5 105t-66 149.5t-20.5 183q0 86 21 170t51 148.5t59.5 121t50.5 108t21 89.5q0 24 -25.5 57t-78.5 52q-51 -113 -142 -295q-16 -23 -41.5 -19t-44.5 27.5t-6 42.5
q53 75 127 273q-36 13 -53 37t-17 73q0 69 49 126.5t130 57.5q97 0 191 -38t155.5 -100t66.5 -128q4 -55 -7.5 -120t-23 -102t-34.5 -103q-60 -162 -66 -287q-4 -69 4.5 -126t31.5 -103.5t66 -72.5t103 -26q25 0 41 5.5t20.5 12t10.5 12t14 5.5z" />
    <glyph glyph-name="t.ss02" unicode="&#xe011;" horiz-adv-x="520" 
d="M360 -416q-122 0 -208 55.5t-128.5 147t-55 211t4 247t56.5 255.5q12 36 131 364q-69 0 -94 63q-18 45 -2 79q8 16 22 16q82 0 134.5 45.5t78.5 110.5q34 82 67.5 109.5t77.5 27.5q59 0 71.5 -48t-32.5 -145q-12 -26 -18 -43.5t-7 -31t6 -19.5t21 -6h107q27 0 30 -47
t-20 -94t-61 -47q-127 0 -156 -35.5t-64 -224.5q-1 -8 -2 -13q-24 -128 -27.5 -235.5t16 -202t78 -148t153.5 -53.5q25 0 41 5.5t20.5 12t10.5 12t14 5.5q27 0 38 -52q16 -79 -24 -163q-60 -127 -209 -152q-34 -6 -70 -6z" />
    <glyph glyph-name="u.ss02" unicode="&#xe012;" horiz-adv-x="915" 
d="M1079 -43q28 0 38 -57q14 -83 -26 -169q-57 -125 -191 -144q-21 -3 -44 -3q-105 0 -180 36t-116.5 98t-59.5 154.5t-15 196t23 232.5q-138 -299 -326 -299q-86 0 -133 60.5t-47 183.5q0 169 45 315q73 232 146 347.5t157 115.5q64 0 64 -82q0 -68 -46 -200t-46 -191
q0 -46 19 -69t67 -23q128 0 174 149v2q65 208 130.5 311t141.5 103q64 0 64 -82q0 -68 -62 -235q-63 -168 -78.5 -318.5t10 -250.5t79.5 -158t126 -58q25 0 41 5.5t20.5 12t10.5 12t14 5.5z" />
    <glyph glyph-name="a.ss03" unicode="&#xe013;" horiz-adv-x="931" 
d="M1266 -39q209 0 325.5 -83t116.5 -200q0 -156 -130 -259t-374 -103q-86 0 -173.5 21.5t-181.5 76t-161 135.5q-79 -49 -141 -83t-142.5 -69t-164.5 -53t-168 -18q-213 0 -337 97t-124 249q0 129 87 207t208 78q73 0 124.5 -25t51.5 -47q0 -7 -10 -15.5t-19.5 -23.5
t-9.5 -36q0 -101 223 -101q137 0 305 66q-67 221 2 524h-6q-68 -135 -157.5 -217t-192.5 -82q-102 0 -156.5 84t-54.5 225q0 88 20.5 184t64.5 191t105 170.5t149.5 122.5t189.5 47q46 0 79 -8t50 -19.5t29.5 -23t24 -19.5t25.5 -8q22 0 43 12t36 27t41.5 27t58.5 12
q71 0 71 -76q0 -35 -13.5 -71t-41 -91t-43.5 -98q-69 -182 -96.5 -339t-18.5 -268t47 -198q212 78 439 78zM422 424q75 0 126.5 61t51.5 131q0 51 -28 80t-78 29q-76 0 -125.5 -59t-49.5 -131q0 -52 27.5 -81.5t75.5 -29.5zM1145 -348q43 0 66.5 18t23.5 43q0 23 -20.5 39.5
t-69.5 16.5q-75 0 -187 -56q85 -61 187 -61z" />
    <glyph glyph-name="d.ss03" unicode="&#xe014;" horiz-adv-x="970" 
d="M1266 -39q209 0 325.5 -83t116.5 -200q0 -156 -130 -259t-374 -103q-135 0 -276.5 57.5t-239.5 175.5q-166 -104 -312.5 -163.5t-303.5 -59.5q-213 0 -337 97t-124 249q0 129 87 207t208 78q73 0 124.5 -25t51.5 -47q0 -7 -10 -15.5t-19.5 -23.5t-9.5 -36
q0 -101 223 -101q137 0 305 66q-67 222 2 526h-6q-65 -134 -151 -217.5t-176 -83.5q-116 0 -175 80.5t-59 210.5q0 77 15 159.5t43.5 165t74 156t102.5 130t133 89.5t161 33q56 0 94 -15.5t52 -33.5t29.5 -33.5t32.5 -15.5q14 0 24.5 32t35.5 118.5t61 172.5
q53 128 106.5 176t108.5 48q56 0 70.5 -52.5t-23.5 -140.5l-231 -592q-69 -182 -96.5 -339t-18.5 -268t47 -198q212 78 439 78zM426 424q73 0 123.5 61.5t50.5 130.5q0 48 -28 78.5t-85 30.5q-72 0 -120 -59t-48 -131q0 -49 26 -80t81 -31zM1145 -348q44 0 67 17t23 44
q0 22 -21.5 39t-72.5 17q-79 0 -185 -56q88 -61 189 -61z" />
    <glyph glyph-name="f.ss03" unicode="&#xe015;" horiz-adv-x="530" 
d="M719 -43q121 0 208 -78t87 -207q0 -152 -124 -249t-337 -97q-86 0 -172.5 19t-170.5 57t-147 73t-145 87q-208 -246 -498 -246q-124 0 -222.5 28.5t-158 77t-91 108.5t-31.5 126q0 132 115.5 218.5t326.5 86.5q227 0 444 -82q34 64 70.5 160.5t61.5 174t73 235.5t76 245
q29 95 57 172h-30q-108 0 -116 62q-5 40 30 75q18 18 34 19h142q107 262 233 403.5t285 141.5q92 0 142.5 -44.5t53 -108t-17 -127t-64 -108t-90.5 -44.5q-43 0 -43 30q0 99 -75 99q-117 0 -195 -242h213q27 0 30 -47t-20 -94t-61 -47l-209 18l-31 -156q-110 -592 -293 -925
q163 -62 299 -62q224 0 224 101q0 21 -10 36t-19.5 23.5t-9.5 15.5q0 22 51.5 47t124.5 25zM-520 -348q111 0 190 61q-112 56 -186 56q-51 0 -72.5 -17t-21.5 -39q0 -27 23 -44t67 -17z" />
    <glyph glyph-name="g.ss03" unicode="&#xe016;" horiz-adv-x="993" 
d="M1231 -43q121 0 208 -78t87 -207q0 -152 -124 -249t-337 -97q-155 0 -299 58t-305 159q-213 -227 -529 -227q-124 0 -222.5 28.5t-158 77t-91 108.5t-31.5 126q0 132 115.5 218.5t326.5 86.5q154 0 273.5 -28.5t240.5 -79.5q91 128 186 401q8 23 -11 25q-23 3 -39 -22
q-3 -4 -5 -9q-40 -104 -118 -167t-158 -63q-104 0 -169 78t-65 195q0 77 15 159.5t43.5 165t74 156t102.5 130t133 89.5t161 33q46 0 79 -8t50 -19.5t29.5 -23t24 -19.5t25.5 -8q22 0 43 12t36 27t41.5 27t58.5 12q71 0 71 -76q0 -39 -27 -107.5t-78.5 -213.5t-94.5 -322
q-58 -321 -181 -549q126 -47 258 -47q224 0 224 101q0 21 -10 36t-19.5 23.5t-9.5 15.5q0 22 51.5 47t124.5 25zM426 424q73 0 123.5 61.5t50.5 130.5q0 48 -28 78.5t-85 30.5q-72 0 -120 -59t-48 -131q0 -49 26 -80t81 -31zM-8 -348q130 0 219 45q-131 72 -215 72
q-51 0 -72.5 -17t-21.5 -39q0 -27 23 -44t67 -17z" />
    <glyph glyph-name="h.ss03" unicode="&#xe017;" horiz-adv-x="985" 
d="M1245 -39q209 0 326 -83t117 -200q0 -156 -130 -259t-374 -103q-122 0 -268.5 58t-256.5 171q-162 -102 -306.5 -160.5t-301.5 -58.5q-213 0 -337 97t-124 249q0 129 87 207t208 78q73 0 124.5 -25t51.5 -47q0 -7 -9.5 -15.5t-19 -23.5t-9.5 -36q0 -101 223 -101
q132 0 272 53q-116 292 45 697q37 94 37 131q0 35 -21 53.5t-57 18.5q-88 0 -154.5 -107.5t-66.5 -245.5v-92q0 -84 -4.5 -126t-26 -63.5t-43 -24.5t-78.5 -3h-10q-159 0 -159 211q0 153 69 350q158 457 195 553q97 246 175 318q46 41 97 41q65 0 78.5 -47.5t-29.5 -145.5
q-11 -24 -72.5 -147t-76.5 -179q-17 -60 2 -71.5t53 24.5q120 117 248 117q81 0 133.5 -42t71.5 -112.5t10 -161t-45 -190.5q-150 -394 -72 -631q208 74 428 74zM1124 -348q44 0 67 17t23 44q0 22 -21.5 39t-72.5 17q-78 0 -184 -56q85 -61 188 -61z" />
    <glyph glyph-name="i.ss03" unicode="&#xe018;" horiz-adv-x="421" 
d="M412 1108q-87 0 -137 39.5t-42 128.5q13 166 203 166q87 0 136 -38.5t42 -127.5q-16 -168 -202 -168zM692 -39q211 0 327 -86.5t116 -218.5q0 -66 -31.5 -126t-91.5 -108.5t-158.5 -77t-222.5 -28.5q-148 0 -287.5 57t-237.5 172q-162 -102 -306.5 -160.5t-301.5 -58.5
q-213 0 -337 97t-124 249q0 129 87 207t208 78q73 0 124.5 -25t51.5 -47q0 -7 -9.5 -15.5t-19 -23.5t-9.5 -36q0 -101 223 -101q140 0 291 60q-98 321 63 792q75 237 143 350t152 113q70 0 70 -92q0 -45 -11.5 -93t-37 -118t-29.5 -84q-147 -476 -64 -750q204 74 422 74z
M571 -348q44 0 67.5 17t23.5 44q0 22 -22 39t-73 17q-71 0 -186 -56q76 -61 190 -61z" />
    <glyph glyph-name="j.ss03" unicode="&#xe019;" horiz-adv-x="458" 
d="M412 1108q-87 0 -137 39.5t-42 128.5q13 166 203 166q87 0 136 -38.5t42 -127.5q-16 -168 -202 -168zM719 -43q121 0 208 -78t87 -207q0 -152 -124 -249t-337 -97q-160 0 -305 60t-311 165q-99 -123 -223.5 -179t-293.5 -56q-124 0 -222.5 28.5t-158 77t-91 108.5
t-31.5 126q0 132 115.5 218.5t326.5 86.5q229 0 446 -82q18 33 34.5 69t35.5 86t31.5 83.5t35 104t32.5 101t38 119.5t37 119q73 233 146.5 348t160.5 115q93 0 93 -90q0 -50 -19.5 -117.5t-69 -214.5t-90.5 -287q-105 -354 -200 -546q151 -60 288 -60q224 0 224 101
q0 21 -10 36t-19.5 23.5t-9.5 15.5q0 22 51.5 47t124.5 25zM-520 -348q112 0 192 59q-113 58 -188 58q-51 0 -72.5 -17t-21.5 -39q0 -27 23 -44t67 -17z" />
    <glyph glyph-name="k.ss03" unicode="&#xe01a;" horiz-adv-x="944" 
d="M1266 -39q209 0 325.5 -83t116.5 -200q0 -156 -130 -259t-374 -103q-167 0 -280.5 62.5t-198.5 195.5q-87 -55 -149 -90.5t-149.5 -76.5t-176 -61t-178.5 -20q-213 0 -337 97t-124 249q0 129 87 207t208 78q73 0 124.5 -25t51.5 -47q0 -7 -10 -15.5t-19.5 -23.5t-9.5 -36
q0 -101 223 -101q93 0 172.5 21.5t179.5 62.5q-74 190 -190 610q-14 50 -45 66.5t-56.5 -10.5t-25.5 -86v-156q0 -217 -162 -217q-159 0 -159 211q0 153 69 350q158 457 195 553q97 246 175 318q46 41 97 41q65 0 78.5 -47.5t-29.5 -145.5q-15 -33 -57.5 -124t-65 -143
t-50.5 -132.5t-42 -149.5q-6 -32 17.5 -45.5t53.5 -3.5t42 37q67 152 143.5 228.5t181.5 76.5q87 0 134 -46.5t47 -113.5q0 -209 -254 -209q-55 -2 -91 -32t-8 -60q63 -66 109 -174t92 -265.5t70 -219.5q180 57 379 57zM1145 -348q43 0 66.5 18t23.5 43q0 23 -20.5 39.5
t-69.5 16.5q-69 0 -160 -43q71 -74 160 -74z" />
    <glyph glyph-name="l.ss03" unicode="&#xe01b;" horiz-adv-x="413" 
d="M694 -39q211 0 327 -86.5t116 -218.5q0 -66 -31.5 -126t-91.5 -108.5t-158.5 -77t-222.5 -28.5q-148 0 -287 56.5t-237 172.5q-161 -102 -306.5 -160.5t-302.5 -58.5q-213 0 -337 97t-124 249q0 129 87 207t208 78q73 0 125 -25t52 -47q0 -7 -9.5 -15.5t-19.5 -23.5
t-10 -36q0 -101 223 -101q140 0 291 60q-98 321 63 792q158 457 195 553q97 246 175 318q46 41 97 41q65 0 79.5 -48t-30.5 -145q-144 -288 -229 -643q-147 -476 -64 -750q204 74 422 74zM573 -348q44 0 67.5 17t23.5 44q0 22 -22 39t-73 17q-71 0 -186 -56q76 -61 190 -61z
" />
    <glyph glyph-name="m.ss03" unicode="&#xe01c;" horiz-adv-x="1499" 
d="M1780 -39q209 0 325.5 -83t116.5 -200q0 -156 -130 -259t-374 -103q-116 0 -258 61.5t-250 178.5q-81 -51 -143 -85t-144.5 -71t-167 -55.5t-169.5 -18.5q-213 0 -337 97t-124 249q0 129 87 207t208 78q73 0 124.5 -25t51.5 -47q0 -7 -10 -15.5t-19.5 -23.5t-9.5 -36
q0 -101 223 -101q136 0 295 62q-123 314 39 747q14 51 14 76q0 35 -20.5 53.5t-56.5 18.5q-87 0 -154.5 -102.5t-67.5 -221.5q0 -30 7.5 -70t7.5 -69q0 -37 -7.5 -68t-25.5 -63t-56 -50t-93 -18q-164 0 -164 178q0 66 25.5 144t51 146t25.5 110q0 80 -78 80
q-88 0 -154.5 -107.5t-66.5 -245.5v-92q0 -217 -172 -217q-70 0 -109.5 42t-39.5 108q0 214 67 411q74 221 134 342t116 121q63 0 63 -78q0 -56 31 -70.5t80 31.5q120 117 248 117q72 0 117 -35t61 -94q10 -46 51 0q121 133 264 133q91 0 151.5 -40.5t84 -110t17.5 -162
t-42 -197.5q-149 -391 -71 -631q208 74 428 74zM1659 -348q44 0 67 17t23 44q0 22 -21.5 39t-72.5 17q-79 0 -185 -56q85 -61 189 -61z" />
    <glyph glyph-name="n.ss03" unicode="&#xe01d;" horiz-adv-x="1005" 
d="M1249 -39q209 0 326 -83t117 -200q0 -156 -130 -259t-374 -103q-116 0 -258 61.5t-250 178.5q-81 -51 -143 -85t-144.5 -71t-167.5 -55.5t-170 -18.5q-213 0 -337 97t-124 249q0 129 87 207t208 78q73 0 125 -25t52 -47q0 -7 -10 -15.5t-19.5 -23.5t-9.5 -36
q0 -101 223 -101q136 0 295 62q-123 314 39 747q12 38 12 72q0 35 -21 53.5t-57 18.5q-88 0 -154.5 -107.5t-66.5 -245.5v-92q0 -217 -168 -217q-70 0 -109.5 42t-39.5 108q0 172 67 411q55 192 123.5 327.5t122.5 135.5q67 0 67 -78q0 -62 29 -74.5t78 35.5
q120 117 256 117q115 0 173 -69.5t55 -183t-58 -253.5q-149 -393 -72 -631q208 74 428 74zM1128 -348q44 0 67.5 17t23.5 44q0 22 -22 39t-73 17q-78 0 -184 -56q85 -61 188 -61z" />
    <glyph glyph-name="p.ss03" unicode="&#xe01e;" horiz-adv-x="999" 
d="M1047 561q15 15 40 13t44 -22t8 -42q-20 -43 -41 -78t-53.5 -74.5t-69 -66t-87.5 -44.5t-108 -18h-12q-73 -106 -168 -167.5t-192 -61.5q-95 0 -147.5 56.5t-33.5 172.5q5 30 -17 36q-21 6 -34 -19q-4 -8 -6 -17q-48 -260 -133 -448q172 -72 321 -72q224 0 224 101
q0 21 -10 36t-19.5 23.5t-9.5 15.5q0 22 51.5 47t124.5 25q121 0 208 -78t87 -207q0 -152 -124 -249t-337 -97q-88 0 -175 19.5t-172 58t-147.5 74t-146.5 88.5q-193 -250 -492 -250q-124 0 -222.5 28.5t-158 77t-91 108.5t-31.5 126q0 132 115.5 218.5t326.5 86.5
q229 0 446 -82q20 38 41.5 88t37 90.5t40.5 115.5t37 113t43 137t43 138q100 295 130 358q38 81 81 97q19 8 47 8q93 0 82 -70q-3 -15 6.5 -24t26.5 -6.5t33 18.5q84 82 200 82q122 0 195.5 -83.5t73.5 -227.5q0 -127 -39 -252q96 0 164 100zM446 424q73 0 124 61.5
t51 130.5q0 48 -28 78.5t-85 30.5q-72 0 -120 -59t-48 -131q0 -49 25.5 -80t80.5 -31zM-520 -348q111 0 190 61q-112 56 -186 56q-51 0 -72.5 -17t-21.5 -39q0 -27 23 -44t67 -17z" />
    <glyph glyph-name="r.ss03" unicode="&#xe01f;" horiz-adv-x="747" 
d="M1004 -39q211 0 326.5 -86.5t115.5 -218.5q0 -66 -31.5 -126t-91.5 -108.5t-158.5 -77t-222.5 -28.5q-348 0 -551 213q-155 -95 -293.5 -149t-287.5 -54q-213 0 -337 97t-124 249q0 129 87 207t208 78q73 0 124.5 -25t51.5 -47q0 -7 -10 -15.5t-19.5 -23.5t-9.5 -36
q0 -101 223 -101q128 0 246 43q-73 181 -53 402t131 424l22.5 40.5t17.5 34t13 30.5t7 25t2 22t-6 18t-13 17t-21.5 13.5t-29.5 13.5t-39 13q-68 -147 -142 -295q-16 -23 -41.5 -19t-44.5 27.5t-6 42.5q52 73 127 275q-35 12 -52.5 35.5t-17.5 72.5q0 68 46 126t116 58
q189 0 313.5 -64.5t154 -180.5t-61.5 -277q-81 -140 -117 -277.5t-30.5 -246t44.5 -199.5q212 78 435 78zM883 -348q44 0 67 17t23 44q0 22 -21.5 39t-72.5 17q-78 0 -181 -54q81 -63 185 -63z" />
    <glyph glyph-name="t.ss03" unicode="&#xe020;" horiz-adv-x="499" 
d="M688 -39q211 0 326.5 -86.5t115.5 -218.5q0 -66 -31.5 -126t-91 -108.5t-158 -77t-222.5 -28.5q-133 0 -270 61t-236 181q-80 -51 -143 -86t-145 -71.5t-167.5 -55.5t-171.5 -19q-213 0 -337 97t-124 249q0 129 87 207t208 78q73 0 124.5 -25t51.5 -47q0 -7 -10 -15.5
t-19.5 -23.5t-9.5 -36q0 -101 224 -101q147 0 311 68q-119 359 82 880q43 107 78 207q-69 0 -94 63q-18 45 -2 79q8 16 22 16q82 0 134.5 45.5t78.5 110.5q34 82 67.5 109.5t77.5 27.5q59 0 71.5 -48t-32.5 -145q-12 -26 -18 -43.5t-7 -31t6 -19.5t21 -6h107q27 0 30 -47
t-20 -94t-61 -47h-52.5t-40 -3.5t-30.5 -5.5t-22 -11.5t-17 -16.5t-13 -26t-12.5 -33.5t-13.5 -45.5q-77 -249 -92.5 -458t28.5 -343q199 70 412 70zM567 -348q44 0 67 17t23 44q0 22 -21.5 39t-72.5 17q-72 0 -178 -52q74 -65 182 -65z" />
    <glyph glyph-name="u.ss03" unicode="&#xe021;" horiz-adv-x="962" 
d="M1208 -39q211 0 327 -86.5t116 -218.5q0 -66 -31.5 -126t-91.5 -108.5t-158.5 -77t-222.5 -28.5q-149 0 -287.5 57t-234.5 174q-162 -102 -308 -161.5t-303 -59.5q-213 0 -336.5 97t-123.5 249q0 129 86.5 207t207.5 78q73 0 125 -25t52 -47q0 -7 -9.5 -15.5t-19.5 -23.5
t-10 -36q0 -101 223 -101q143 0 299 64q-63 210 -16 491q-136 -262 -310 -262q-86 0 -133 60.5t-47 183.5q0 169 45 315q73 232 146 347.5t157 115.5q64 0 64 -82q0 -68 -46 -200t-46 -191q0 -46 19 -69t67 -23q105 0 157 106q73 234 141 346.5t152 112.5q70 0 70 -92
q0 -45 -11.5 -93t-37 -118t-29.5 -84q-147 -476 -64 -750q204 74 422 74zM1087 -348q44 0 67.5 17t23.5 44q0 22 -22 39t-73 17q-71 0 -186 -56q76 -61 190 -61z" />
    <glyph glyph-name="a.ss04" unicode="&#xe022;" horiz-adv-x="1269" 
d="M928 -195q-100 0 -173 37.5t-114.5 104.5t-57 156t-5.5 196h-13q-66 -134 -155.5 -216.5t-192.5 -82.5q-102 0 -156.5 84t-54.5 225q0 88 20.5 184t64.5 191t105 170.5t149.5 122.5t189.5 47q46 0 79 -8t50 -19.5t29.5 -23t24 -19.5t25.5 -8q22 0 43 12t36 27t41.5 27
t58.5 12q71 0 71 -76q0 -35 -13.5 -71t-41 -91t-43.5 -98q-57 -120 -57 -213q0 -81 41 -123.5t114 -42.5q46 0 79.5 16.5t51.5 40.5t32.5 48t31.5 40.5t39 16.5q45 0 72.5 -60.5t27.5 -150.5q0 -62 -13 -123.5t-44 -122t-75.5 -106.5t-113.5 -74.5t-153 -28.5zM422 424
q75 0 126.5 61t51.5 131q0 51 -28 80t-78 29q-76 0 -125.5 -59t-49.5 -131q0 -52 27.5 -81.5t75.5 -29.5z" />
    <glyph glyph-name="b.ss04" unicode="&#xe023;" horiz-adv-x="919" 
d="M346 0q-127 0 -215 74t-112 198.5t28 288.5q102 298 156 445q92 250 159.5 358.5t151.5 108.5q65 0 79 -46.5t-30 -146.5q-6 -14 -29.5 -67t-32 -73.5t-24.5 -60t-26 -68.5t-17 -57q-4 -14 4.5 -22t23 -5.5t27.5 15.5q79 82 168 82q224 0 224 -291q0 -144 -47.5 -280.5
t-123 -235t-172.5 -158t-192 -59.5zM426 424q73 0 123.5 61.5t50.5 130.5q0 48 -28 78.5t-85 30.5q-72 0 -120 -59t-48 -131q0 -49 26 -80t81 -31z" />
    <glyph glyph-name="c.ss04" unicode="&#xe024;" horiz-adv-x="1064" 
d="M573 -221q-121 0 -222 37t-179 110.5t-122 194t-44 278.5q0 87 22.5 175.5t67.5 169t106.5 143t145.5 100t178 37.5q140 0 211.5 -72t71.5 -180q0 -63 -20 -112.5t-52 -77.5t-67 -42t-70 -14q-50 0 -78 17.5t-28 40.5q0 14 12 27.5t23.5 35t11.5 53.5q0 31 -20.5 51.5
t-63.5 20.5q-66 0 -106 -59t-40 -140q0 -73 17 -130t44 -92t65.5 -57.5t77 -31t81.5 -8.5q82 0 145.5 22t99 54t62.5 63.5t51.5 53.5t49.5 22q45 0 72.5 -58.5t27.5 -144.5q0 -90 -36 -176t-101.5 -156t-168 -112.5t-225.5 -42.5z" />
    <glyph glyph-name="d.ss04" unicode="&#xe025;" horiz-adv-x="1298" 
d="M928 -195q-100 0 -173 37.5t-114.5 105t-57 156.5t-5.5 197h-11q-65 -134 -151 -217.5t-176 -83.5q-116 0 -175 80.5t-59 210.5q0 77 15 159.5t43.5 165t74 156t102.5 130t133 89.5t161 33q56 0 94 -15.5t52 -33.5t29.5 -33.5t32.5 -15.5q14 0 24.5 32t35.5 118.5
t61 172.5q53 128 106.5 176t108.5 48q56 0 70.5 -52.5t-23.5 -140.5l-231 -592q-33 -81 -46 -147.5t-5.5 -119.5t45 -82.5t104.5 -29.5q46 0 79.5 16.5t51.5 40.5t32.5 48t31.5 40.5t39 16.5q45 0 72.5 -60.5t27.5 -150.5q0 -62 -13 -123.5t-44 -122t-75.5 -106.5
t-113.5 -74.5t-153 -28.5zM426 424q73 0 123.5 61.5t50.5 130.5q0 48 -28 78.5t-85 30.5q-72 0 -120 -59t-48 -131q0 -49 26 -80t81 -31z" />
    <glyph glyph-name="e.ss04" unicode="&#xe026;" horiz-adv-x="1064" 
d="M573 -221q-115 0 -212 37t-171.5 110.5t-116.5 194t-42 278.5q0 87 23 175t69 169t109 143.5t150 100t185 37.5q135 0 205 -74t70 -184q0 -129 -95 -223t-251 -94q-88 0 -144 32q-10 7 -22 1t-13 -25q-3 -58 20.5 -99.5t66.5 -63t90 -31t102 -9.5q82 0 145.5 22t99 54
t62.5 63.5t51.5 53.5t49.5 22q45 0 72.5 -58.5t27.5 -144.5q0 -90 -36 -176t-101.5 -156t-168 -112.5t-225.5 -42.5zM459 602q56 0 91.5 36.5t35.5 78.5q0 36 -24.5 60t-69.5 24q-57 0 -93.5 -35.5t-36.5 -79.5q0 -36 25 -60t72 -24z" />
    <glyph glyph-name="g.ss04" unicode="&#xe027;" horiz-adv-x="1218" 
d="M1552 772q0 -76 -26 -148.5t-87.5 -148.5t-157 -142.5t-242.5 -129.5t-334 -111q-100 -338 -224 -482.5t-307 -144.5q-159 0 -249.5 80t-90.5 209q0 125 77.5 209.5t158.5 87.5q35 -61 149 -74q-36 0 -57 -17t-21 -40q0 -21 21.5 -36t64.5 -15q85 0 166 58.5t129.5 148
t48.5 178.5q0 25 -19 26q-22 0 -36 -32q-40 -104 -118 -167t-158 -63q-104 0 -169 78t-65 195q0 77 15 159.5t43.5 165t74 156t102.5 130t133 89.5t161 33q46 0 79 -8t50 -19.5t29.5 -23t24 -19.5t25.5 -8q22 0 43 12t36 27t41.5 27t58.5 12q71 0 71 -76q0 -31 -21.5 -82
t-52.5 -110.5t-74 -175.5t-77 -252q96 34 167 82t108 100.5t54 101t17 95.5q0 37 -6.5 62.5t-16 37.5t-19.5 20.5t-16.5 19.5t-6.5 27q0 81 64 129t165 48q122 0 198 -73t76 -206zM426 424q73 0 123.5 61.5t50.5 130.5q0 48 -28 78.5t-85 30.5q-72 0 -120 -59t-48 -131
q0 -49 26 -80t81 -31z" />
    <glyph glyph-name="h.ss04" unicode="&#xe028;" horiz-adv-x="1271" 
d="M881 -195q-149 0 -247.5 81.5t-120 220.5t39.5 323q3 9 13 35.5t14 37.5t10 30t8 32t2 25q0 35 -21 53.5t-57 18.5q-88 0 -154.5 -107.5t-66.5 -245.5v-92q0 -217 -162 -217q-159 0 -159 211q0 153 69 350q158 457 195 553q97 246 175 318q46 41 97 41q65 0 78.5 -47.5
t-29.5 -145.5q-11 -24 -72.5 -147t-76.5 -179q-17 -60 2 -71.5t53 24.5q120 117 248 117q89 0 136.5 -53.5t47.5 -134.5q0 -57 -31 -136q-45 -110 -54 -196t27.5 -140.5t121.5 -54.5q39 0 69 12t47 30t32 39t25 39t25.5 30t34.5 12q45 0 72.5 -60.5t27.5 -150.5
q0 -62 -14 -123.5t-46 -122t-79 -106.5t-119.5 -74.5t-160.5 -28.5z" />
    <glyph glyph-name="i.ss04" unicode="&#xe029;" horiz-adv-x="729" 
d="M412 1108q-87 0 -137 39.5t-42 128.5q13 166 203 166q87 0 136 -38.5t42 -127.5q-16 -168 -202 -168zM360 -195q-143 0 -236.5 98.5t-114 266.5t37.5 391q75 237 143 350t152 113q70 0 70 -92q0 -33 -10 -74t-18.5 -65t-27.5 -74q-43 -114 -52 -204.5t26 -148t116 -57.5
q46 0 79.5 16.5t51.5 40.5t32.5 48t31.5 40.5t39 16.5q45 0 72.5 -60.5t27.5 -150.5q0 -62 -14 -123.5t-46.5 -122t-79.5 -106.5t-119.5 -74.5t-160.5 -28.5z" />
    <glyph glyph-name="j.ss04" unicode="&#xe02a;" horiz-adv-x="581" 
d="M412 1108q-87 0 -137 39.5t-42 128.5q13 166 203 166q87 0 136 -38.5t42 -127.5q-16 -168 -202 -168zM999 772q0 -95 -41.5 -184t-132 -177.5t-252.5 -168.5t-383 -140q-106 -343 -242.5 -490t-328.5 -147q-166 0 -264 90.5t-98 227.5q0 73 33.5 134t90.5 107.5t147 87.5
t188 72t229 62q43 118 104 315q73 233 146.5 348t160.5 115q93 0 93 -90q0 -46 -28 -118t-78 -203t-87 -275q96 34 167 81.5t108 98t54 97.5t17 92q0 37 -11 62.5t-26.5 37.5t-31 20.5t-26.5 19.5t-11 27q0 81 64 129t165 48q122 0 198 -73t76 -206zM-332 -131
q58 0 102.5 38t88.5 128q-62 -13 -114.5 -29.5t-96 -43.5t-43.5 -54q0 -39 63 -39z" />
    <glyph glyph-name="k.ss04" unicode="&#xe02b;" horiz-adv-x="1353" 
d="M909 -195q-192 0 -316 145.5t-165 452.5q-8 57 -47 69q-35 11 -60 -24q-20 -28 -20 -75v-156q0 -217 -162 -217q-159 0 -159 211q0 153 69 350q158 457 195 553q97 246 175 318q46 41 97 41q65 0 78.5 -47.5t-29.5 -145.5q-15 -33 -57.5 -124t-65 -143t-50.5 -132.5
t-42 -149.5q-6 -32 17.5 -45.5t53.5 -3.5t42 37q67 152 143.5 228.5t181.5 76.5q88 0 134.5 -47.5t46.5 -118.5q0 -85 -67 -144t-187 -59q-50 -1 -74.5 -27t-24.5 -65q0 -117 86.5 -185.5t210.5 -68.5q53 0 93 15t61 37.5t38 49t27.5 49t26.5 37.5t37 15q55 0 94 -74
t39 -178q0 -62 -14 -123.5t-46.5 -122t-79.5 -106.5t-119.5 -74.5t-160.5 -28.5z" />
    <glyph glyph-name="l.ss04" unicode="&#xe02c;" horiz-adv-x="761" 
d="M360 -195q-143 0 -241.5 100.5t-119.5 268.5t50 387q158 457 195 553q97 246 175 318q46 41 97 41q65 0 79.5 -48t-30.5 -145q-174 -349 -239 -588q-54 -189 -26.5 -286t146.5 -97q46 0 79.5 16.5t51.5 40.5t32.5 48t31.5 40.5t39 16.5q45 0 72.5 -60.5t27.5 -150.5
q0 -62 -14 -123.5t-46.5 -122t-79.5 -106.5t-119.5 -74.5t-160.5 -28.5z" />
    <glyph glyph-name="m.ss04" unicode="&#xe02d;" horiz-adv-x="1703" 
d="M1407 -195q-115 0 -198 46.5t-122.5 129.5t-43 196t39.5 247q45 133 45 170q0 35 -20.5 53.5t-56.5 18.5q-87 0 -154.5 -102.5t-67.5 -221.5q0 -30 7.5 -70t7.5 -69q0 -37 -7.5 -68t-25.5 -63t-56 -50t-93 -18q-164 0 -164 178q0 66 25.5 144t51 146t25.5 110
q0 80 -78 80q-88 0 -154.5 -107.5t-66.5 -245.5v-92q0 -217 -172 -217q-70 0 -109.5 42t-39.5 108q0 214 67 411q74 221 134 342t116 121q63 0 63 -78q0 -56 31 -70.5t80 31.5q120 117 248 117q72 0 117 -35t61 -94q10 -46 51 0q121 133 264 133q113 0 166.5 -52.5
t53.5 -135.5q0 -60 -30.5 -147t-35.5 -130q-9 -75 1 -127.5t35.5 -78.5t54 -37t63.5 -11q48 0 82.5 16.5t53 40.5t32.5 48t30.5 40.5t38.5 16.5q45 0 73 -59.5t28 -147.5q0 -61 -14.5 -122.5t-48.5 -123t-84.5 -108.5t-129 -76t-174.5 -29z" />
    <glyph glyph-name="n.ss04" unicode="&#xe02e;" horiz-adv-x="1312" 
d="M874 -195q-80 0 -148 30t-115 85t-73.5 127t-26 161t29.5 183q7 21 19 56.5t18.5 56t12 45t5.5 41.5q0 35 -21 53.5t-57 18.5q-88 0 -154.5 -107.5t-66.5 -245.5v-92q0 -217 -168 -217q-70 0 -109.5 42t-39.5 108q0 172 67 411q55 192 123.5 327.5t122.5 135.5
q67 0 67 -78q0 -62 29 -74.5t78 35.5q120 117 248 117q89 0 136.5 -53.5t47.5 -134.5q0 -59 -30.5 -150.5t-37.5 -144.5q-10 -69 0 -117t36 -72t55 -33.5t65 -9.5q48 0 82.5 16.5t53 40.5t33 48t31 40.5t38.5 16.5q45 0 72.5 -59.5t27.5 -147.5q0 -61 -14.5 -122.5
t-48.5 -123t-84.5 -108.5t-129 -76t-174.5 -29z" />
    <glyph glyph-name="o.ss04" unicode="&#xe02f;" horiz-adv-x="913" 
d="M330 0q-140 0 -229 93.5t-89 250.5q0 92 27 188.5t78 184t118.5 156.5t156 110t183.5 41q136 0 217.5 -84.5t81.5 -267.5q0 -175 -75.5 -330.5t-201.5 -248.5t-267 -93zM446 424q73 0 124 61.5t51 130.5q0 48 -28 78.5t-85 30.5q-72 0 -120 -59t-48 -131q0 -49 25.5 -80
t80.5 -31z" />
    <glyph glyph-name="p.ss04" unicode="&#xe030;" horiz-adv-x="817" 
d="M-92 -410q-144 0 -144 142q0 36 9.5 81t32 109.5t41.5 113.5t57 144t59 150q41 108 84 231q100 295 130 358q38 81 81 97q19 8 47 8q93 0 82 -70q-3 -15 6.5 -24t26.5 -6.5t33 18.5q84 82 200 82q122 0 195.5 -83.5t73.5 -227.5q0 -182 -75.5 -348.5t-195 -265.5
t-243.5 -99q-95 0 -147.5 56.5t-33.5 172.5q5 30 -17 36q-21 6 -34 -19q-4 -8 -6 -17q-58 -286 -79 -362q-66 -244 -155 -273q-14 -4 -28 -4zM446 424q73 0 124 61.5t51 130.5q0 48 -28 78.5t-85 30.5q-72 0 -120 -59t-48 -131q0 -49 25.5 -80t80.5 -31z" />
    <glyph glyph-name="r.ss04" unicode="&#xe031;" horiz-adv-x="1116" 
d="M1001 471q45 0 73 -59.5t28 -147.5q0 -61 -14 -123t-47 -123t-80 -108t-119.5 -76t-159.5 -29q-93 0 -172.5 31.5t-133.5 89.5t-84.5 133.5t-29 168.5t36.5 190q72 202 72 260q0 29 -22 68t-68 59q-21 -47 -76.5 -160.5t-65.5 -134.5q-16 -23 -41.5 -19t-44.5 27.5
t-6 42.5q53 75 127 273q-36 13 -53 37t-17 73q0 68 46 126t116 58q103 0 204 -37t163.5 -93t62.5 -111q0 -64 -39 -167.5t-49 -162.5q-13 -62 -5.5 -105.5t20.5 -71t38.5 -43.5t50 -22t52.5 -6q48 0 82.5 16.5t53 40.5t32.5 48t30.5 40.5t38.5 16.5z" />
    <glyph glyph-name="s.ss04" unicode="&#xe032;" horiz-adv-x="772" 
d="M307 -59q-98 0 -170.5 43t-107.5 112t-46 151t6.5 165t57.5 149q36 48 91 132.5t94.5 142t89.5 117.5t100 91t100 31q89 0 139 -42.5t48 -96.5q1 -22 -22 -40.5t-51 -30.5t-51.5 -34t-23.5 -49q0 -14 22 -60.5t48.5 -98t48.5 -115t22 -107.5q0 -200 -109 -330t-286 -130z
M393 545q2 10 2 28q0 71 -45 156q-21 41 -49 0q-15 -21 -92 -129q94 -3 184 -55zM233 362q65 0 111 56q-65 62 -130 73q-63 2 -67 -51q0 -34 26 -56t60 -22z" />
    <glyph glyph-name="t.ss04" unicode="&#xe033;" horiz-adv-x="765" 
d="M360 -195q-152 0 -252 91t-122 245.5t43 358.5q12 36 131 364q-69 0 -94 63q-18 45 -2 79q8 16 22 16q82 0 134.5 45.5t78.5 110.5q34 82 67.5 109.5t77.5 27.5q59 0 71.5 -48t-32.5 -145q-12 -26 -18 -43.5t-7 -31t6 -19.5t21 -6h107q27 0 30 -47t-20 -94t-61 -47
q-55 0 -82 -0.5t-56 -6t-40 -12.5t-25.5 -25.5t-21 -39t-17.5 -58.5q-26 -90 -33.5 -158t3.5 -119.5t47 -78.5t98 -27q51 0 88 16.5t57 40.5t36 48t35 40.5t44 16.5q49 0 77.5 -60t28.5 -151q0 -62 -14 -123.5t-46.5 -122t-79.5 -106.5t-119.5 -74.5t-160.5 -28.5z" />
    <glyph glyph-name="u.ss04" unicode="&#xe034;" horiz-adv-x="1290" 
d="M1186 471q45 0 72.5 -60.5t27.5 -150.5q0 -62 -14 -123.5t-46.5 -122t-79.5 -106.5t-119.5 -74.5t-160.5 -28.5q-162 0 -254.5 158t-72.5 408q-147 -369 -357 -369q-86 0 -133 60.5t-47 183.5q0 169 45 315q73 232 146 347.5t157 115.5q64 0 64 -82q0 -68 -46 -200
t-46 -191q0 -46 19 -69t67 -23q128 0 174 151q65 208 130.5 311t141.5 103q64 0 64 -82q0 -63 -50 -199q-45 -117 -53 -215t27 -158.5t110 -60.5q46 0 79.5 16.5t51.5 40.5t32.5 48t31.5 40.5t39 16.5z" />
    <glyph glyph-name="v.ss04" unicode="&#xe035;" horiz-adv-x="708" 
d="M250 2q-79 0 -133 51.5t-76.5 133t-22 179.5t24.5 195q27 114 68 216t97 174.5t109 72.5q64 0 64 -82q0 -57 -46 -193.5t-46 -197.5q0 -127 121 -127q97 0 149 80q-22 99 -22 190q0 145 52 239.5t152 94.5q116 0 118 -135q2 -170 -166 -475q-1 -3 -3 -6
q-98 -180 -212 -295t-228 -115z" />
    <glyph glyph-name="w.ss04" unicode="&#xe036;" horiz-adv-x="1366" 
d="M250 2q-79 0 -133 51.5t-76.5 133t-22 179.5t24.5 195q27 114 68 216t97 174.5t109 72.5q64 0 64 -82q0 -57 -46 -193.5t-46 -197.5q0 -60 28 -93.5t82 -33.5q69 0 112 49.5t60 124.5q10 44 12 130.5t19 143.5q26 89 68 120.5t116 31.5q129 0 129 -139q0 -49 -55 -166
t-55 -168q0 -60 28 -93.5t82 -33.5q98 0 164 86q-20 102 -20 184q0 93 21 166.5t68.5 120.5t115.5 47q104 0 108 -126q6 -164 -149 -458q-8 -16 -17 -32q-98 -180 -212 -295t-228 -115q-35 0 -63.5 16.5t-52 54t-32.5 111t0 176.5q-39 -99 -86.5 -171.5t-96.5 -111.5
t-94.5 -57t-90.5 -18z" />
    <glyph glyph-name="x.ss04" unicode="&#xe037;" horiz-adv-x="1396" 
d="M1290 469q45 0 73 -59t28 -144q0 -90 -31.5 -176t-89.5 -156t-148.5 -112.5t-199.5 -42.5q-196 0 -311.5 131.5t-125.5 374.5q-23 -56 -51.5 -103t-66.5 -90t-86 -67.5t-101 -24.5q-98 0 -130 86q-29 80 12 177q40 98 124 136q39 17 82 17q56 0 94 32t53 75t15 91
q0 54 -22 87.5t-64 33.5q-31 0 -60 -18t-55 -54t-43.5 -66t-40.5 -75l-6 -12l-92 51q26 38 57 105t56.5 124.5t57.5 113t75.5 88t95.5 32.5q83 0 131 -75t51 -185q42 113 122 186.5t179 73.5q73 0 110.5 -42t37.5 -110q0 -70 -32.5 -134t-74.5 -64q-8 0 -16.5 9t-16 19.5
t-24 19.5t-37.5 9q-54 0 -88.5 -47t-34.5 -109q-3 -74 10.5 -131.5t38.5 -92.5t61.5 -57.5t74 -31t80.5 -8.5q51 0 93 16t67.5 40t49 51.5t40 51.5t37 40t42.5 16z" />
    <glyph glyph-name="y.ss04" unicode="&#xe038;" horiz-adv-x="1167" 
d="M1511 772q0 -76 -25 -147.5t-85.5 -146t-153 -140.5t-235 -128.5t-324.5 -111.5q-103 -344 -229.5 -488.5t-315.5 -144.5q-159 0 -249.5 80t-90.5 209q0 120 70.5 201t144.5 84q34 -54 125 -70v-8q-14 -4 -23 -16t-9 -25q0 -21 21.5 -36t64.5 -15q133 1 235 109.5
t119 259.5q2 22 -8 32.5t-25 3t-24 -31.5q-42 -105 -116.5 -163.5t-172.5 -58.5q-89 0 -146 57.5t-57 168.5q0 169 45 315q73 232 146 347.5t157 115.5q64 0 64 -82q0 -68 -46 -200t-46 -191q0 -46 19 -69t67 -23q65 0 106.5 38t67.5 113q65 208 130.5 311t141.5 103
q46 0 69 -21t23 -69q0 -46 -28 -118t-77.5 -203t-86.5 -275q89 34 154.5 81.5t99.5 98.5t49.5 97.5t15.5 91.5q0 37 -6.5 62.5t-16.5 37.5t-19.5 20.5t-16 19.5t-6.5 27q0 81 64 129t165 48q122 0 198 -73t76 -206z" />
    <glyph glyph-name="z.ss04" unicode="&#xe039;" horiz-adv-x="1290" 
d="M758 -221q-75 0 -133 18t-94 46.5t-64 62.5t-49.5 68.5t-43.5 63t-53 46.5t-71 18q-38 0 -63.5 -11t-38 -26.5t-23.5 -31t-27 -26.5t-41 -11q-39 0 -39 82q0 61 29.5 122t77.5 110.5t105 96t114.5 86t105.5 73t77.5 63t29.5 51.5q0 57 -96 57q-98 0 -175.5 -56
t-146.5 -171l-92 51q54 88 90.5 186t67.5 236q9 39 24.5 56.5t42.5 17.5q30 0 45.5 -11.5t19 -25.5t14.5 -25.5t32 -11.5q18 0 70.5 20.5t111.5 20.5q52 0 118.5 -13t122 -13t124.5 26q17 6 29.5 -5.5t9.5 -29.5q-13 -83 -49.5 -156.5t-84.5 -126.5t-103.5 -98t-108 -78
t-95.5 -60t-69.5 -50.5t-26.5 -42.5q0 -58 76 -90.5t233 -32.5q69 0 121.5 12t83 31t52 42t35 45.5t26 41.5t30 31t41.5 12q56 0 86.5 -57.5t30.5 -145.5q0 -90 -33 -176t-93.5 -156t-155 -112.5t-207.5 -42.5z" />
    <glyph glyph-name="a.ss05" unicode="&#xe03a;" 
d="M1307 276q250 0 361 -131q84 -99 58 -235q-25 -132 -139 -226q-139 -114 -340 -114q-144 0 -276 68.5t-228 195.5q-37 -26 -115 -82t-125 -89t-126 -86.5t-137.5 -87t-138 -76.5t-149.5 -69.5t-149.5 -51.5t-160 -36.5t-160.5 -11.5q-115 0 -210.5 23.5t-159.5 62.5
t-108.5 92.5t-64.5 112.5t-20 123q0 75 27.5 141t84.5 109t133 43q16 0 26 -6t12.5 -11.5t6.5 -19.5q6 -21 24 -40.5t54.5 -40t105 -32.5t161.5 -12q81 0 160.5 8t167.5 29.5t147 37t158.5 53.5t139 53.5t152 63.5t137.5 58q-28 98 -34 207h-17q-66 -134 -155.5 -216.5
t-192.5 -82.5q-102 0 -156.5 84t-54.5 225q0 88 20.5 184t64.5 191t105 170.5t149.5 122.5t189.5 47q46 0 79 -8t50 -19.5t29.5 -23t24 -19.5t25.5 -8q22 0 43 12t36 27t41.5 27t58.5 12q71 0 71 -76q0 -35 -13.5 -71t-41 -91t-43.5 -98q-121 -316 -70 -512q275 100 482 100
zM422 424q75 0 126.5 61t51.5 131q0 51 -28 80t-78 29q-76 0 -125.5 -59t-49.5 -131q0 -52 27.5 -81.5t75.5 -29.5zM1186 -74q43 0 66.5 18.5t23.5 43.5q0 23 -20.5 39t-69.5 16q-87 0 -213 -66q89 -51 213 -51z" />
    <glyph glyph-name="c.ss05" unicode="&#xe03b;" horiz-adv-x="860" 
d="M911 385q247 0 359 -127q85 -97 61 -231q-24 -132 -143 -228q-150 -121 -377 -121q-292 0 -514 154q-182 -195 -249 -260q-239 -230 -443 -289q-82 -24 -164 -24q-143 0 -254.5 35t-177 94.5t-98.5 131.5t-33 152q0 75 27.5 141t84.5 109t133 43q13 0 21 -2.5t13 -9
t7 -11t5 -14.5q6 -21 24 -40.5t54 -40t104.5 -32.5t161.5 -12q164 0 307.5 56.5t296.5 158.5q-111 168 -111 381q0 87 22.5 175.5t67.5 169t106.5 143t145.5 100t178 37.5q140 0 211.5 -72t71.5 -180q0 -63 -20 -112.5t-52 -77.5t-67 -42t-70 -14q-50 0 -78 17.5t-28 40.5
q0 14 12 27.5t23.5 35t11.5 53.5q0 31 -20.5 51.5t-63.5 20.5q-66 0 -106 -70t-40 -167q0 -68 24.5 -155.5t80.5 -160.5q129 80 246.5 123t248.5 43zM760 66q64 0 92.5 17.5t28.5 43.5q0 23 -20.5 39t-69.5 16q-94 0 -213 -84q78 -32 182 -32z" />
    <glyph glyph-name="d.ss05" unicode="&#xe03c;" 
d="M1307 276q250 0 361 -131q84 -99 58 -235q-25 -132 -139 -226q-139 -114 -340 -114q-144 0 -276 68.5t-228 195.5q-37 -26 -115 -82t-125 -89t-126 -86.5t-137.5 -87t-138 -76.5t-149.5 -69.5t-149.5 -51.5t-160 -36.5t-160.5 -11.5q-115 0 -210.5 23.5t-159.5 62.5
t-108.5 92.5t-64.5 112.5t-20 123q0 75 27.5 141t84.5 109t133 43q16 0 26 -6t12.5 -11.5t6.5 -19.5q6 -21 24 -40.5t54.5 -40t105 -32.5t161.5 -12q81 0 161 8t167 29.5t147.5 37t158 53t140 54t152 63t138.5 58.5q-30 99 -36 209h-17q-66 -134 -151 -217.5t-174 -83.5
q-116 0 -175 80.5t-59 210.5q0 77 15 159.5t43.5 165t74 156t102.5 130t133 89.5t161 33q56 0 94 -15.5t52 -33.5t29.5 -33.5t32.5 -15.5q14 0 24.5 32t35.5 118.5t61 172.5q53 128 106.5 176t108.5 48t68.5 -52t-21.5 -141l-231 -592q-123 -317 -72 -512q278 100 484 100z
M426 424q73 0 123.5 61.5t50.5 130.5q0 48 -28 78.5t-85 30.5q-72 0 -120 -59t-48 -131q0 -49 26 -80t81 -31zM1186 -74q43 0 66.5 18.5t23.5 43.5q0 23 -20.5 39t-69.5 16q-87 0 -213 -66q89 -51 213 -51z" />
    <glyph glyph-name="e.ss05" unicode="&#xe03d;" horiz-adv-x="880" 
d="M911 385q245 0 357 -129q87 -100 63 -237q-23 -135 -141 -235q-150 -126 -379 -126q-280 0 -492 154q-48 -60 -72.5 -89.5t-74 -87t-81 -88.5t-83 -79t-92 -74.5t-96 -59.5t-107 -49.5t-113 -28.5t-124.5 -12q-115 0 -210.5 23.5t-159.5 62.5t-108.5 92.5t-64.5 112.5
t-20 123q0 75 27.5 141t84.5 109t133 43q16 0 26 -6t12.5 -11.5t6.5 -19.5q14 -48 81 -86.5t202 -38.5q173 0 321 62.5t318 177.5q-94 166 -94 370q0 87 23 175t69 169t109 143.5t150 100t185 37.5q135 0 205 -74t70 -184q0 -120 -93.5 -218.5t-236.5 -98.5q-104 0 -160 32
q-10 7 -22.5 1t-12.5 -25q0 -50 20 -117t64 -125q130 81 252 125.5t258 44.5zM492 801q-57 0 -93.5 -35.5t-36.5 -79.5q0 -36 25 -60t72 -24q56 0 91.5 36.5t35.5 78.5q0 36 -24.5 60t-69.5 24zM739 66q142 0 142 61q0 23 -20.5 39t-69.5 16q-106 0 -216 -92q77 -24 164 -24
z" />
    <glyph glyph-name="f.ss05" unicode="&#xe03e;" horiz-adv-x="530" 
d="M719 1567q92 0 142.5 -44.5t53 -108t-17 -127t-64 -108t-90.5 -44.5q-43 0 -43 30q0 99 -75 99q-119 0 -197 -242h215q27 0 30 -47t-20 -94t-61 -47l-209 18h-2q-40 -185 -66 -420q-26 -263 -91.5 -468t-156.5 -339t-211.5 -221t-249.5 -123.5t-278 -36.5
q-100 0 -183 25.5t-137 67.5t-91.5 97t-53.5 111t-16 113q0 75 28 141t85 109t133 43q16 0 26 -6t12.5 -11.5t6.5 -19.5q36 -125 241 -125q86 0 163 27.5t136 71.5t111.5 109t89.5 130.5t71 147t55 146.5t42 140q50 183 92 305h-28q-108 0 -116 62q-5 40 30 75q18 18 34 19
h138q219 545 522 545z" />
    <glyph glyph-name="g.ss05" unicode="&#xe03f;" horiz-adv-x="972" 
d="M-387 -756q-165 0 -289 35t-195 95t-105 131.5t-34 152.5q0 75 28 141t85 109t133 43q16 0 26 -6t12.5 -11.5t6.5 -19.5q6 -21 31.5 -41.5t74 -40t135 -31.5t197.5 -12q144 1 278 28.5t236 74t179.5 105.5t118 125.5t40.5 131.5q0 25 -19 26q-22 0 -36 -32
q-40 -104 -118 -167t-158 -63q-104 0 -169 78t-65 195q0 77 15 159.5t43.5 165t74 156t102.5 130t133 89.5t161 33q46 0 79 -8t50 -19.5t29.5 -23t24 -19.5t25.5 -8q22 0 43 12t36 27t41.5 27t58.5 12q71 0 71 -76q0 -39 -24.5 -107t-74 -214t-91.5 -322
q-257 -1061 -1190 -1061zM426 424q73 0 123.5 61.5t50.5 130.5q0 48 -28 78.5t-85 30.5q-72 0 -120 -59t-48 -131q0 -49 26 -80t81 -31z" />
    <glyph glyph-name="h.ss05" unicode="&#xe040;" horiz-adv-x="1026" 
d="M1311 276q245 0 352 -125q82 -96 53 -228q-28 -131 -152 -228q-159 -125 -395 -125q-158 0 -292 49.5t-224 147.5q-264 -188 -387 -263q-384 -235 -705 -257q-38 -3 -75 -3q-115 0 -210.5 23.5t-159.5 62.5t-108.5 92.5t-64.5 112.5t-20 123q0 75 28 141t85 109t133 43
q16 0 26 -6t12.5 -11.5t6.5 -19.5q6 -21 24 -40.5t54 -40t104.5 -32.5t161.5 -12q102 0 210 16.5t192 37t197.5 61.5t179 68t183.5 77q-8 47 -8 111q0 86 22 177.5t44 158.5t22 94q0 35 -21 53.5t-57 18.5q-88 0 -154.5 -107.5t-66.5 -245.5v-92q0 -217 -162 -217
q-159 0 -159 211q0 153 69 350q158 457 195 553q97 246 175 318q46 41 97 41q65 0 78.5 -47.5t-29.5 -145.5q-11 -24 -72.5 -147t-76.5 -179q-17 -60 2 -71.5t53 24.5q120 117 248 117q70 0 118.5 -28.5t69 -76t19 -107.5t-26.5 -124q-121 -316 -70 -512q275 100 482 100z
M1190 -74q43 0 66.5 18.5t23.5 43.5q0 23 -20.5 39t-69.5 16q-87 0 -213 -66q89 -51 213 -51z" />
    <glyph glyph-name="i.ss05" unicode="&#xe041;" horiz-adv-x="503" 
d="M412 1108q-87 0 -137 39.5t-42 128.5q13 166 203 166q87 0 136 -38.5t42 -127.5q-16 -168 -202 -168zM748 276q247 0 359 -127q85 -98 60 -231q-25 -132 -143 -227q-150 -121 -377 -121q-141 0 -280 57t-236 168q-257 -182 -309 -216q-349 -231 -625 -300
q-140 -35 -274 -35q-115 0 -210.5 23.5t-159.5 62.5t-108.5 92.5t-64.5 112.5t-20 123q0 75 27.5 141t84.5 109t133 43q16 0 26 -6t12.5 -11.5t6.5 -19.5q6 -21 24 -40.5t54 -40t104.5 -32.5t161.5 -12q77 0 159 10t144 20.5t153 39t136 42.5t146 55t129.5 53t136.5 59
q-44 219 49 493q75 237 143 350t152 113q70 0 70 -92q0 -111 -60 -260q-118 -302 -71 -492q263 96 467 96zM627 -74q43 0 66.5 18.5t23.5 43.5q0 23 -20.5 39t-69.5 16q-86 0 -209 -63q89 -54 209 -54z" />
    <glyph glyph-name="j.ss05" unicode="&#xe042;" horiz-adv-x="458" 
d="M412 1108q-87 0 -137 39.5t-42 128.5q13 166 203 166q87 0 136 -38.5t42 -127.5q-16 -168 -202 -168zM-670 -756q-143 0 -251 35t-169 95t-90.5 131.5t-29.5 152.5q0 75 27.5 141t84.5 109t133 43q16 0 26 -6t12.5 -11.5t6.5 -19.5q12 -43 101.5 -84t218.5 -41
q104 0 186.5 35t163 121t153.5 237.5t146 378.5q73 233 146.5 348t160.5 115q93 0 93 -90q0 -47 -29 -121.5t-80.5 -210.5t-89.5 -287q-74 -298 -166 -505t-207 -331.5t-247.5 -179.5t-299.5 -55z" />
    <glyph glyph-name="m.ss05" unicode="&#xe043;" horiz-adv-x="1540" 
d="M1837 276q244 0 349 -124q82 -96 52 -228q-31 -131 -156 -227q-164 -127 -407 -127q-151 0 -280.5 49t-216.5 145l-1 -1h-1l-1 -1l-1 -1l-1 -1h-1l-1 -1l-1 -1h-1l-1 -1l-1 -1l-1 -1h-1l-1 -1l-1 -1h-1l-1 -1l-1 -1l-1 -1h-1l-1 -1l-1 -1h-1l-1 -1l-1 -1
q-274 -195 -426 -282q-385 -220 -715 -220q-115 0 -210.5 23.5t-159.5 62.5t-108.5 92.5t-64.5 112.5t-20 123q0 75 28 141t85 109t133 43q16 0 26 -6t12.5 -11.5t6.5 -19.5q6 -21 24 -40.5t54 -40t104.5 -32.5t161.5 -12q102 0 210 16.5t192.5 37t197.5 61.5t179.5 68
t183.5 77q-9 53 -9 111q0 86 22 177.5t44 158.5t22 94q0 35 -20.5 53.5t-56.5 18.5q-57 0 -109 -48t-81.5 -122t-29.5 -150q0 -30 7.5 -70t7.5 -69q0 -37 -7.5 -68t-25.5 -63t-56 -50t-93 -18q-164 0 -164 178q0 66 25.5 144t51 146t25.5 110q0 80 -78 80
q-88 0 -154.5 -107.5t-66.5 -245.5v-92q0 -217 -172 -217q-70 0 -109.5 42t-39.5 108q0 214 67 411q74 221 134 342t116 121q63 0 63 -78q0 -56 31 -70.5t80 31.5q120 117 248 117q72 0 117 -35t61 -94q10 -46 51 0q115 129 297 129q70 0 118.5 -28.5t69 -76t19 -107.5
t-26.5 -124q-120 -315 -69 -512q275 100 481 100zM1716 -74q43 0 66.5 18.5t23.5 43.5q0 23 -20.5 39t-69.5 16q-87 0 -213 -66q89 -51 213 -51z" />
    <glyph glyph-name="n.ss05" unicode="&#xe044;" horiz-adv-x="1026" 
d="M1307 276q245 0 352 -125q82 -96 53 -228q-28 -131 -152 -228q-159 -125 -395 -125q-158 0 -292 49.5t-224 147.5q-264 -188 -387 -263q-384 -235 -705 -257q-38 -3 -75 -3q-115 0 -210.5 23.5t-159.5 62.5t-108.5 92.5t-64.5 112.5t-20 123q0 75 27.5 141t84.5 109
t133 43q16 0 26 -6t12.5 -11.5t6.5 -19.5q6 -21 24 -40.5t54.5 -40t105 -32.5t161.5 -12q102 0 210 16.5t192 37t197.5 61.5t179 68t183.5 77q-8 47 -8 111q0 86 22 177.5t44 158.5t22 94q0 35 -21 53.5t-57 18.5q-88 0 -154.5 -107.5t-66.5 -245.5v-92q0 -217 -168 -217
q-70 0 -109.5 42t-39.5 108q0 172 67 411q55 192 123.5 327.5t122.5 135.5q67 0 67 -78q0 -62 29 -74.5t78 35.5q120 117 248 117q70 0 118.5 -28.5t69 -76t19 -107.5t-26.5 -124q-121 -316 -70 -512q275 100 482 100zM1186 -74q43 0 66.5 18.5t23.5 43.5q0 23 -20.5 39
t-69.5 16q-87 0 -213 -66q89 -51 213 -51z" />
    <glyph glyph-name="p.ss05" unicode="&#xe045;" horiz-adv-x="999" 
d="M1047 561q15 15 40 13t44 -22t8 -42q-20 -43 -41 -78t-53.5 -74.5t-69 -66t-87.5 -44.5t-108 -18h-12q-73 -106 -168 -167.5t-192 -61.5q-95 0 -147.5 56.5t-33.5 172.5q5 30 -17 36q-21 6 -34 -19q-4 -8 -6 -17q-12 -61 -31 -131t-56.5 -168.5t-83 -189.5t-114.5 -183.5
t-147.5 -160t-185 -110t-224.5 -42.5q-100 0 -183 25.5t-137 67.5t-91.5 97t-53.5 111t-16 113q0 75 28 141t85 109t133 43q16 0 26 -6t12.5 -11.5t6.5 -19.5q36 -125 241 -125q95 0 175 29.5t138 76.5t110 121t87 145.5t74 168.5q41 108 84 231q100 295 130 358
q38 81 81 97q19 8 47 8q93 0 82 -70q-3 -15 6.5 -24t26.5 -6.5t33 18.5q84 82 200 82q122 0 195.5 -83.5t73.5 -227.5q0 -127 -39 -252q96 0 164 100zM446 424q73 0 124 61.5t51 130.5q0 48 -28 78.5t-85 30.5q-72 0 -120 -59t-48 -131q0 -49 25.5 -80t80.5 -31z" />
    <glyph glyph-name="r.ss05" unicode="&#xe046;" horiz-adv-x="829" 
d="M1055 276q247 0 359 -127q85 -98 60 -231q-25 -132 -143 -227q-150 -121 -377 -121q-136 0 -290 50t-265 147q-260 -184 -369 -251q-374 -231 -683 -266q-59 -6 -117 -6q-115 0 -210.5 23.5t-159.5 62.5t-108.5 92.5t-64.5 112.5t-20 123q0 75 28 141t85 109t133 43
q16 0 26 -6t12.5 -11.5t6.5 -19.5q6 -21 24 -40.5t54 -40t104.5 -32.5t161.5 -12q121 0 242 19.5t246.5 59.5t215 75t223.5 92q-61 248 123 575q23 42 30.5 73.5t3.5 51t-21 34.5t-35.5 22.5t-48.5 15.5q-60 -133 -142 -297q-16 -23 -41.5 -19t-44.5 27.5t-6 42.5
q53 75 127 273q-36 13 -53 37t-17 73q0 68 46 126t116 58q108 0 214 -38t171.5 -96t65.5 -115q0 -22 -3 -42.5t-10 -44t-12 -38t-17 -43t-16 -39.5q-118 -302 -71 -492q263 96 467 96zM934 -74q43 0 66.5 18.5t23.5 43.5q0 23 -20.5 39t-69.5 16q-86 0 -209 -63
q89 -54 209 -54z" />
    <glyph glyph-name="t.ss05" unicode="&#xe047;" horiz-adv-x="581" 
d="M748 276q247 0 359 -127q85 -98 60 -231q-25 -132 -143 -227q-150 -121 -377 -121q-146 0 -289.5 55t-240.5 160q-258 -183 -353 -244q-370 -236 -672 -283q-85 -14 -169 -14q-115 0 -210.5 23.5t-159.5 62.5t-108.5 92.5t-64.5 112.5t-20 123q0 75 27.5 141t84.5 109
t133 43q16 0 26 -6t12.5 -11.5t6.5 -19.5q6 -21 24 -40.5t54 -40t104.5 -32.5t161.5 -12q87 0 173 9.5t179.5 33.5t158 42t170 59.5t149 59t158.5 66.5q-37 197 47 441q12 36 131 364q-69 0 -94 63q-18 45 -2 79q8 16 22 16q82 0 134.5 45.5t78.5 110.5q34 82 67.5 109.5
t77.5 27.5q59 0 71.5 -48t-32.5 -145q-12 -26 -18 -43.5t-7 -31t6 -19.5t21 -6h107q27 0 30 -47t-20 -94t-61 -47q-109 0 -135 -16.5t-58 -99.5q-8 -19 -12 -30q-123 -317 -72 -512q278 100 484 100zM627 -74q43 0 66.5 18.5t23.5 43.5q0 23 -20.5 39t-69.5 16
q-87 0 -213 -66q89 -51 213 -51z" />
    <glyph glyph-name="u.ss05" unicode="&#xe048;" horiz-adv-x="1024" 
d="M1260 276q247 0 359 -127q85 -98 60 -231q-25 -132 -143 -227q-150 -121 -377 -121q-142 0 -280.5 57.5t-233.5 169.5q-20 -14 -60 -43q-93 -67 -143 -102t-145.5 -98t-161 -98.5t-161.5 -81.5t-176 -70.5t-175.5 -42t-187.5 -17.5q-115 0 -210.5 23.5t-159.5 62.5
t-108.5 92.5t-64.5 112.5t-20 123q0 75 27.5 141t84.5 109t133 43q16 0 26 -6t12.5 -11.5t6.5 -19.5q6 -21 24 -40.5t54 -40t104.5 -32.5t161.5 -12q126 0 253.5 21.5t257 64t225.5 80.5t233 97q27 12 41 18q-21 101 -12 223q-136 -291 -322 -291q-86 0 -133 60.5t-47 183.5
q0 169 45 315q73 232 146 347.5t157 115.5q64 0 64 -82q0 -68 -46 -200t-46 -191q0 -46 19 -69t67 -23q94 0 147 88q0 6 4 14q75 237 143 350t152 113q70 0 70 -92q0 -111 -60 -260q-120 -301 -73 -492q266 96 469 96zM1139 -74q43 0 66.5 18.5t23.5 43.5q0 23 -20.5 39
t-69.5 16q-86 0 -209 -63q89 -54 209 -54z" />
    <glyph glyph-name="y.ss05" unicode="&#xe049;" horiz-adv-x="921" 
d="M-387 -756q-165 0 -289 35t-195 95t-105 131.5t-34 152.5q0 75 28 141t85 109t133 43q16 0 26 -6t12.5 -11.5t6.5 -19.5q6 -21 31.5 -41.5t74 -40t135 -31.5t197.5 -12q209 2 395.5 62.5t304.5 163.5t132 223q2 22 -8 32.5t-25 3t-24 -31.5q-42 -105 -116.5 -163.5
t-172.5 -58.5q-89 0 -146 57.5t-57 168.5q0 169 45 315q73 232 146 347.5t157 115.5q64 0 64 -82q0 -68 -46 -200t-46 -191q0 -46 19 -69t67 -23q65 0 106.5 38t67.5 113q65 208 130.5 311t141.5 103q46 0 69 -21t23 -69q0 -47 -29 -121.5t-80 -210.5t-89 -287
q-60 -241 -145 -424t-187.5 -305.5t-231 -199t-267 -109.5t-304.5 -33z" />
    <glyph glyph-name="b.ss06" unicode="&#xe04a;" horiz-adv-x="933" 
d="M1042 1135q-158 0 -194 84q42 40 26.5 83.5t-81.5 43.5q-63 0 -124.5 -39t-107 -99t-79 -126.5t-48.5 -127.5q-4 -14 4.5 -22t23 -5.5t27.5 15.5q79 82 168 82q224 0 224 -291q0 -134 -43 -268q85 13 143 96q15 15 40 13t44 -22t8 -42q-128 -267 -354 -281
q-78 -106 -176.5 -167.5t-196.5 -61.5q-127 0 -215 74t-112 198.5t28 288.5q102 298 156 445q135 389 335 567t466 178q90 0 160 -25.5t112.5 -69.5t64 -97.5t21.5 -112.5q0 -125 -87 -218t-233 -93zM487 725q-72 0 -120 -59t-48 -131q0 -49 26 -80t81 -31q73 0 123.5 61.5
t50.5 130.5q0 48 -28 78.5t-85 30.5z" />
    </font>
</defs>
</svg>
