<svg width="1920" height="603" viewBox="0 0 1920 603" fill="none" xmlns="http://www.w3.org/2000/svg">
<path d="M942.608 430.201L847.155 372.63C845.755 371.786 844.046 371.786 842.646 372.63L747.193 430.201C745.775 431.055 744.902 432.648 744.902 434.366V539.913C744.902 541.63 745.775 543.223 747.193 544.077L842.646 601.648C843.347 602.07 844.119 602.281 844.901 602.281C845.683 602.281 846.456 602.07 847.156 601.648L942.609 544.077C944.027 543.223 944.9 541.63 944.9 539.913V434.366C944.899 432.648 944.027 431.055 942.608 430.201ZM935.808 537.13L844.901 591.956L753.993 537.13V437.148L844.901 382.322L935.808 437.148V537.13V537.13Z" fill="#FFF4FF" fill-opacity="0.03"/>
<path d="M1162.62 430.134L1067.16 372.563C1065.76 371.719 1064.05 371.719 1062.65 372.563L967.201 430.134C965.782 430.988 964.91 432.581 964.91 434.298V539.845C964.91 541.563 965.782 543.156 967.201 544.01L1062.65 601.581C1063.35 602.003 1064.13 602.214 1064.91 602.214C1065.69 602.214 1066.46 602.003 1067.16 601.581L1162.62 544.01C1164.03 543.156 1164.91 541.563 1164.91 539.845V434.298C1164.91 432.581 1164.03 430.988 1162.62 430.134ZM1155.82 537.063L1064.91 591.889L974 537.063V437.081L1064.91 382.254L1155.82 437.081V537.063V537.063Z" fill="#FFF4FF" fill-opacity="0.03"/>
<path d="M1056.93 241.052L961.473 183.481C960.073 182.637 958.364 182.637 956.964 183.481L861.511 241.052C860.093 241.906 859.22 243.499 859.22 245.216V350.763C859.22 352.481 860.093 354.074 861.511 354.928L956.964 412.499C957.664 412.921 958.437 413.132 959.219 413.132C960.001 413.132 960.773 412.921 961.474 412.499L1056.93 354.928C1058.34 354.074 1059.22 352.481 1059.22 350.763V245.216C1059.22 243.499 1058.34 241.906 1056.93 241.052ZM1050.13 347.981L959.219 402.807L868.311 347.981V247.999L959.219 193.172L1050.13 247.999V347.981V347.981Z" fill="#FFF4FF" fill-opacity="0.03"/>
<path d="M1379.57 430.201L1284.11 372.63C1282.71 371.786 1281 371.786 1279.6 372.63L1184.15 430.201C1182.73 431.055 1181.86 432.648 1181.86 434.366V539.913C1181.86 541.63 1182.73 543.223 1184.15 544.077L1279.6 601.648C1280.3 602.07 1281.08 602.281 1281.86 602.281C1282.64 602.281 1283.41 602.07 1284.11 601.648L1379.57 544.077C1380.98 543.223 1381.86 541.63 1381.86 539.913V434.366C1381.86 432.648 1380.98 431.055 1379.57 430.201ZM1372.77 537.13L1281.86 591.956L1190.95 537.13V437.148L1281.86 382.322L1372.77 437.148V537.13V537.13Z" fill="#FFF4FF" fill-opacity="0.03"/>
<path d="M1269.88 240.407L1174.42 182.836C1173.02 181.992 1171.31 181.992 1169.91 182.836L1074.46 240.407C1073.04 241.261 1072.17 242.854 1072.17 244.571V350.118C1072.17 351.836 1073.04 353.428 1074.46 354.283L1169.91 411.854C1170.62 412.276 1171.39 412.487 1172.17 412.487C1172.95 412.487 1173.72 412.276 1174.42 411.854L1269.88 354.283C1271.3 353.428 1272.17 351.836 1272.17 350.118V244.571C1272.17 242.854 1271.3 241.261 1269.88 240.407ZM1263.08 347.335L1172.17 402.162L1081.26 347.335V247.354L1172.17 192.527L1263.08 247.354V347.335V347.335Z" fill="#FFF4FF" fill-opacity="0.03"/>
<path d="M724.43 58.2041L628.977 0.633168C627.577 -0.211056 625.868 -0.211056 624.468 0.633168L529.015 58.2041C527.597 59.0582 526.724 60.6509 526.724 62.3686V167.915C526.724 169.633 527.597 171.226 529.015 172.08L624.468 229.651C625.168 230.073 625.941 230.284 626.723 230.284C627.505 230.284 628.277 230.073 628.977 229.651L724.431 172.08C725.849 171.226 726.721 169.633 726.721 167.915V62.3686C726.721 60.6509 725.848 59.0582 724.43 58.2041ZM717.63 165.133L626.722 219.959L535.815 165.133V65.1509L626.722 10.3244L717.63 65.1513V165.133V165.133Z" fill="#FFF4FF" fill-opacity="0.03"/>
<path d="M615.34 240.407L519.887 182.836C518.487 181.992 516.778 181.992 515.378 182.836L419.925 240.407C418.507 241.261 417.634 242.854 417.634 244.571V350.118C417.634 351.836 418.507 353.428 419.925 354.283L515.378 411.854C516.078 412.276 516.851 412.487 517.633 412.487C518.415 412.487 519.187 412.276 519.888 411.854L615.341 354.283C616.759 353.428 617.632 351.836 617.632 350.118V244.571C617.631 242.854 616.759 241.261 615.34 240.407ZM608.54 347.335L517.633 402.162L426.725 347.335V247.354L517.633 192.527L608.54 247.354V347.335V347.335Z" fill="#FFF4FF" fill-opacity="0.03"/>
<path d="M1709.23 237.243L1613.78 179.672C1612.38 178.828 1610.67 178.828 1609.27 179.672L1513.82 237.243C1512.4 238.097 1511.52 239.69 1511.52 241.408V346.955C1511.52 348.672 1512.4 350.265 1513.82 351.119L1609.27 408.69C1609.97 409.112 1610.74 409.323 1611.52 409.323C1612.31 409.323 1613.08 409.112 1613.78 408.69L1709.23 351.119C1710.65 350.265 1711.52 348.672 1711.52 346.955V241.408C1711.52 239.69 1710.65 238.097 1709.23 237.243ZM1702.43 344.172L1611.52 398.998L1520.62 344.172V244.19L1611.52 189.363L1702.43 244.19V344.172V344.172Z" fill="#FFF4FF" fill-opacity="0.03"/>
<path d="M1597.74 430.201L1502.29 372.63C1500.89 371.786 1499.18 371.786 1497.78 372.63L1402.33 430.201C1400.91 431.055 1400.04 432.648 1400.04 434.366V539.913C1400.04 541.63 1400.91 543.223 1402.33 544.077L1497.78 601.648C1498.48 602.07 1499.25 602.281 1500.04 602.281C1500.82 602.281 1501.59 602.07 1502.29 601.648L1597.74 544.077C1599.16 543.223 1600.04 541.63 1600.04 539.913V434.366C1600.03 432.648 1599.16 431.055 1597.74 430.201ZM1590.94 537.13L1500.04 591.956L1409.13 537.13V437.148L1500.04 382.322L1590.94 437.148V537.13V537.13Z" fill="#FFF4FF" fill-opacity="0.03"/>
<path d="M1162.62 60.0408L1067.16 2.46984C1065.76 1.62561 1064.05 1.62561 1062.65 2.46984L967.201 60.0408C965.782 60.8949 964.91 62.4875 964.91 64.2052V169.752C964.91 171.47 965.782 173.062 967.201 173.917L1062.65 231.487C1063.35 231.91 1064.13 232.121 1064.91 232.121C1065.69 232.121 1066.46 231.91 1067.16 231.487L1162.62 173.917C1164.03 173.062 1164.91 171.47 1164.91 169.752V64.2052C1164.91 62.4875 1164.03 60.8949 1162.62 60.0408ZM1155.82 166.969L1064.91 221.796L974 166.969V66.9875L1064.91 12.1611L1155.82 66.988V166.969V166.969Z" fill="#FFF4FF" fill-opacity="0.03"/>
<path d="M1379.26 60.0408L1283.81 2.46984C1282.41 1.62561 1280.7 1.62561 1279.3 2.46984L1183.85 60.0408C1182.43 60.8949 1181.56 62.4875 1181.56 64.2052V169.752C1181.56 171.47 1182.43 173.062 1183.85 173.917L1279.3 231.487C1280 231.91 1280.77 232.121 1281.56 232.121C1282.34 232.121 1283.11 231.91 1283.81 231.487L1379.26 173.917C1380.68 173.062 1381.56 171.47 1381.56 169.752V64.2052C1381.55 62.4875 1380.68 60.8949 1379.26 60.0408ZM1372.46 166.969L1281.56 221.796L1190.65 166.969V66.9875L1281.56 12.1611L1372.46 66.988V166.969V166.969Z" fill="#FFF4FF" fill-opacity="0.03"/>
<path d="M1597.65 60.0408L1502.2 2.46984C1500.8 1.62561 1499.09 1.62561 1497.69 2.46984L1402.24 60.0408C1400.82 60.8949 1399.95 62.4875 1399.95 64.2052V169.752C1399.95 171.47 1400.82 173.062 1402.24 173.917L1497.69 231.487C1498.39 231.91 1499.16 232.121 1499.95 232.121C1500.73 232.121 1501.5 231.91 1502.2 231.487L1597.65 173.917C1599.07 173.062 1599.94 171.47 1599.94 169.752V64.2052C1599.94 62.4875 1599.07 60.8949 1597.65 60.0408ZM1590.85 166.969L1499.94 221.796L1409.04 166.969V66.9875L1499.94 12.1611L1590.85 66.988V166.969V166.969Z" fill="#FFF4FF" fill-opacity="0.03"/>
<path d="M1809.08 58.2041L1713.63 0.633168C1712.23 -0.211056 1710.52 -0.211056 1709.12 0.633168L1613.66 58.2041C1612.25 59.0582 1611.37 60.6509 1611.37 62.3686V167.915C1611.37 169.633 1612.25 171.226 1613.66 172.08L1709.12 229.651C1709.82 230.073 1710.59 230.284 1711.37 230.284C1712.15 230.284 1712.93 230.073 1713.63 229.651L1809.08 172.08C1810.5 171.226 1811.37 169.633 1811.37 167.915V62.3686C1811.37 60.6509 1810.5 59.0582 1809.08 58.2041ZM1802.28 165.133L1711.37 219.959L1620.46 165.133V65.1509L1711.37 10.3244L1802.28 65.1513V165.133V165.133Z" fill="#FFF4FF" fill-opacity="0.03"/>
<path d="M405.653 240.955L310.2 183.384C308.8 182.54 307.091 182.54 305.691 183.384L210.238 240.955C208.819 241.809 207.947 243.402 207.947 245.119V350.666C207.947 352.384 208.819 353.976 210.238 354.831L305.691 412.402C306.391 412.824 307.164 413.035 307.945 413.035C308.727 413.035 309.5 412.824 310.2 412.402L405.653 354.831C407.071 353.976 407.944 352.384 407.944 350.666V245.119C407.944 243.402 407.071 241.809 405.653 240.955ZM398.853 347.883L307.945 402.71L217.037 347.883V247.902L307.945 193.075L398.853 247.902V347.883V347.883Z" fill="#FFF4FF" fill-opacity="0.03"/>
<path d="M506.582 58.2041L411.128 0.633168C409.729 -0.211056 408.019 -0.211056 406.62 0.633168L311.166 58.2041C309.748 59.0582 308.875 60.6509 308.875 62.3686V167.915C308.875 169.633 309.748 171.226 311.166 172.08L406.62 229.651C407.32 230.073 408.092 230.284 408.874 230.284C409.656 230.284 410.429 230.073 411.129 229.651L506.582 172.08C508 171.226 508.873 169.633 508.873 167.915V62.3686C508.872 60.6509 508 59.0582 506.582 58.2041ZM499.781 165.133L408.874 219.959L317.966 165.133V65.1509L408.874 10.3244L499.781 65.1513V165.133V165.133Z" fill="#FFF4FF" fill-opacity="0.03"/>
<path d="M506.582 426.461L411.128 368.89C409.729 368.046 408.019 368.046 406.62 368.89L311.166 426.461C309.748 427.315 308.875 428.908 308.875 430.625V536.172C308.875 537.89 309.748 539.483 311.166 540.337L406.62 597.908C407.32 598.33 408.092 598.541 408.874 598.541C409.656 598.541 410.429 598.33 411.129 597.908L506.582 540.337C508 539.483 508.873 537.89 508.873 536.172V430.625C508.872 428.908 508 427.315 506.582 426.461ZM499.781 533.39L408.874 588.216L317.966 533.39V433.408L408.874 378.581L499.781 433.408V533.39V533.39Z" fill="#FFF4FF" fill-opacity="0.03"/>
<path d="M506.582 426.461L411.128 368.89C409.729 368.046 408.019 368.046 406.62 368.89L311.166 426.461C309.748 427.315 308.875 428.908 308.875 430.625V536.172C308.875 537.89 309.748 539.483 311.166 540.337L406.62 597.908C407.32 598.33 408.092 598.541 408.874 598.541C409.656 598.541 410.429 598.33 411.129 597.908L506.582 540.337C508 539.483 508.873 537.89 508.873 536.172V430.625C508.872 428.908 508 427.315 506.582 426.461ZM499.781 533.39L408.874 588.216L317.966 533.39V433.408L408.874 378.581L499.781 433.408V533.39V533.39Z" fill="#FFF4FF" fill-opacity="0.03"/>
<path d="M1809.08 430.134L1713.63 372.563C1712.23 371.719 1710.52 371.719 1709.12 372.563L1613.66 430.134C1612.25 430.988 1611.37 432.581 1611.37 434.298V539.845C1611.37 541.563 1612.25 543.156 1613.66 544.01L1709.12 601.581C1709.82 602.003 1710.59 602.214 1711.37 602.214C1712.15 602.214 1712.93 602.003 1713.63 601.581L1809.08 544.01C1810.5 543.156 1811.37 541.563 1811.37 539.845V434.298C1811.37 432.581 1810.5 430.988 1809.08 430.134ZM1802.28 537.063L1711.37 591.889L1620.46 537.063V437.081L1711.37 382.254L1802.28 437.081V537.063V537.063Z" fill="#FFF4FF" fill-opacity="0.03"/>
<path d="M833.729 240.955L738.276 183.384C736.876 182.54 735.167 182.54 733.767 183.384L638.314 240.955C636.896 241.809 636.023 243.402 636.023 245.119V350.666C636.023 352.384 636.896 353.976 638.314 354.831L733.767 412.402C734.467 412.824 735.24 413.035 736.022 413.035C736.804 413.035 737.576 412.824 738.276 412.402L833.729 354.831C835.148 353.976 836.02 352.384 836.02 350.666V245.119C836.02 243.402 835.147 241.809 833.729 240.955ZM826.929 347.883L736.021 402.71L645.114 347.883V247.902L736.021 193.075L826.929 247.902V347.883V347.883Z" fill="#FFF4FF" fill-opacity="0.03"/>
<path d="M1918.71 237.282L1823.26 179.711C1821.86 178.867 1820.15 178.867 1818.75 179.711L1723.29 237.282C1721.88 238.136 1721 239.729 1721 241.446V346.993C1721 348.711 1721.88 350.304 1723.29 351.158L1818.75 408.729C1819.45 409.151 1820.22 409.362 1821 409.362C1821.78 409.362 1822.56 409.151 1823.26 408.729L1918.71 351.158C1920.13 350.304 1921 348.711 1921 346.993V241.446C1921 239.729 1920.13 238.136 1918.71 237.282ZM1911.91 344.211L1821 399.037L1730.09 344.211V244.229L1821 189.402L1911.91 244.229V344.211V344.211Z" fill="#FFF4FF" fill-opacity="0.03"/>
<path d="M942.488 60.0408L847.035 2.46984C845.635 1.62561 843.926 1.62561 842.526 2.46984L747.073 60.0408C745.654 60.8949 744.782 62.4875 744.782 64.2052V169.752C744.782 171.47 745.654 173.062 747.073 173.917L842.526 231.487C843.226 231.91 843.998 232.121 844.78 232.121C845.562 232.121 846.335 231.91 847.035 231.487L942.488 173.917C943.906 173.062 944.779 171.47 944.779 169.752V64.2052C944.779 62.4875 943.906 60.8949 942.488 60.0408ZM935.688 166.969L844.78 221.796L753.872 166.969V66.9875L844.78 12.1611L935.688 66.988V166.969V166.969Z" fill="#FFF4FF" fill-opacity="0.03"/>
<path d="M1490.02 241.052L1394.56 183.481C1393.16 182.637 1391.45 182.637 1390.05 183.481L1294.6 241.052C1293.18 241.906 1292.31 243.499 1292.31 245.216V350.763C1292.31 352.481 1293.18 354.074 1294.6 354.928L1390.05 412.499C1390.75 412.921 1391.53 413.132 1392.31 413.132C1393.09 413.132 1393.86 412.921 1394.56 412.499L1490.02 354.928C1491.44 354.074 1492.31 352.481 1492.31 350.763V245.216C1492.31 243.499 1491.43 241.906 1490.02 241.052ZM1483.22 347.981L1392.31 402.807L1301.4 347.981V247.999L1392.31 193.172L1483.22 247.999V347.981V347.981Z" fill="#FFF4FF" fill-opacity="0.03"/>
<path d="M724.1 430.134L628.646 372.563C627.247 371.719 625.537 371.719 624.138 372.563L528.684 430.134C527.266 430.988 526.394 432.581 526.394 434.298V539.845C526.394 541.563 527.266 543.156 528.684 544.01L624.138 601.581C624.838 602.003 625.61 602.214 626.392 602.214C627.174 602.214 627.947 602.003 628.647 601.581L724.1 544.01C725.518 543.156 726.391 541.563 726.391 539.845V434.298C726.391 432.581 725.518 430.988 724.1 430.134ZM717.299 537.063L626.392 591.889L535.484 537.063V437.081L626.392 382.254L717.299 437.081V537.063V537.063Z" fill="#FFF4FF" fill-opacity="0.03"/>
<path d="M297.764 426.461L202.311 368.89C200.911 368.046 199.202 368.046 197.802 368.89L102.349 426.461C100.931 427.315 100.058 428.908 100.058 430.625V536.172C100.058 537.89 100.931 539.483 102.349 540.337L197.802 597.908C198.502 598.33 199.275 598.541 200.057 598.541C200.839 598.541 201.611 598.33 202.311 597.908L297.765 540.337C299.183 539.483 300.055 537.89 300.055 536.172V430.625C300.055 428.908 299.182 427.315 297.764 426.461ZM290.964 533.39L200.056 588.216L109.149 533.39V433.408L200.056 378.581L290.964 433.408V533.39V533.39Z" fill="#FFF4FF" fill-opacity="0.03"/>
<path d="M197.706 240.955L102.253 183.384C100.853 182.54 99.1439 182.54 97.744 183.384L2.29088 240.955C0.872714 241.809 0 243.402 0 245.119V350.666C0 352.384 0.872714 353.977 2.29088 354.831L97.744 412.402C98.4442 412.824 99.2168 413.035 99.9987 413.035C100.781 413.035 101.553 412.824 102.253 412.402L197.707 354.831C199.125 353.977 199.997 352.384 199.997 350.666V245.119C199.997 243.402 199.124 241.809 197.706 240.955ZM190.906 347.883L99.9983 402.71L9.09064 347.883V247.902L99.9983 193.075L190.906 247.902V347.883V347.883Z" fill="#FFF4FF" fill-opacity="0.03"/>
<path d="M297.764 60.0408L202.311 2.46984C200.911 1.62561 199.202 1.62561 197.802 2.46984L102.349 60.0408C100.931 60.8949 100.058 62.4875 100.058 64.2052V169.752C100.058 171.47 100.931 173.062 102.349 173.917L197.802 231.487C198.502 231.91 199.275 232.121 200.057 232.121C200.839 232.121 201.611 231.91 202.311 231.487L297.765 173.917C299.183 173.062 300.055 171.47 300.055 169.752V64.2052C300.055 62.4875 299.182 60.8949 297.764 60.0408ZM290.964 166.969L200.056 221.796L109.149 166.969V66.9875L200.056 12.1611L290.964 66.988V166.969V166.969Z" fill="#FFF4FF" fill-opacity="0.03"/>
</svg>
