<?xml version="1.0" encoding="utf-8"?>
<!-- Generator: Adobe Illustrator 25.4.1, SVG Export Plug-In . SVG Version: 6.00 Build 0)  -->
<svg version="1.1" id="Layer_1" xmlns="http://www.w3.org/2000/svg" xmlns:xlink="http://www.w3.org/1999/xlink" x="0px" y="0px"
	 viewBox="0 0 1889 1103" style="enable-background:new 0 0 1889 1103;" xml:space="preserve">
<style type="text/css">
	.st0{clip-path:url(#SVGID_00000106837555480356698100000006083439828281613453_);}
	.st1{fill:#FFF4FF;fill-opacity:0.1;}
	.st2{clip-path:url(#SVGID_00000010297602126582596900000012700976553439039105_);}
	.st3{clip-path:url(#SVGID_00000041273520189041931690000001702250649035741060_);}
	.st4{clip-path:url(#SVGID_00000018200350602755519290000000171417194671189159_);}
	.st5{clip-path:url(#SVGID_00000128445148846203074930000007485910663006433971_);}
	.st6{clip-path:url(#SVGID_00000101784505208798758280000006189401757121756060_);}
	.st7{clip-path:url(#SVGID_00000151501291559026884860000000837858208802592394_);}
	.st8{clip-path:url(#SVGID_00000113348337292647783360000003042378248761819028_);}
	.st9{clip-path:url(#SVGID_00000055678869182988907910000011048957617416456348_);}
	.st10{fill:url(#SVGID_00000179632397204004697680000009663356117373279666_);}
	.st11{fill:none;stroke:#FFFFFF;stroke-width:2;}
	.st12{fill:url(#SVGID_00000101824517301445097000000004757579130971010211_);}
	.st13{fill:url(#SVGID_00000146474804859097786710000006426920268258946437_);}
	.st14{fill:none;stroke:#FFFFFF;stroke-width:15;stroke-linecap:round;}
	.st15{fill:#FFFFFF;}
	.st16{font-family:'GentySans-Regular';}
	.st17{font-size:114.4326px;}
	.st18{font-size:27.6547px;}
</style>
<g>
	<defs>
		<path id="SVGID_1_" d="M579.4,516.3H699c55.2,0,100,44.8,100,100v119.6c0,55.2-44.8,100-100,100H579.4c-55.2,0-100-44.8-100-100
			V616.3C479.4,561.1,524.2,516.3,579.4,516.3z"/>
	</defs>
	<clipPath id="SVGID_00000072968925946335865230000001382524524212476083_">
		<use xlink:href="#SVGID_1_"  style="overflow:visible;"/>
	</clipPath>
	<g style="clip-path:url(#SVGID_00000072968925946335865230000001382524524212476083_);">
		<path class="st1" d="M782.3,597.1l-139.8-79.9c-2.1-1.2-4.6-1.2-6.6,0l-139.8,79.9c-2.1,1.2-3.4,3.4-3.4,5.8v146.5
			c0,2.4,1.3,4.6,3.4,5.8L635.9,835c1,0.6,2.2,0.9,3.3,0.9c1.1,0,2.3-0.3,3.3-0.9l139.8-79.9c2.1-1.2,3.4-3.4,3.4-5.8V602.8
			C785.7,600.5,784.4,598.2,782.3,597.1z M772.4,745.5l-133.2,76.1L506,745.5V606.7l133.2-76.1l133.2,76.1V745.5z"/>
	</g>
</g>
<g>
	<defs>
		<path id="SVGID_00000029010356733200573350000012440278827918968985_" d="M739.2,252.9h119.6c55.2,0,100,44.8,100,100v119.6
			c0,55.2-44.8,100-100,100H739.2c-55.2,0-100-44.8-100-100V352.9C639.2,297.6,684,252.9,739.2,252.9z"/>
	</defs>
	<clipPath id="SVGID_00000015341075079666362890000016481323083394463104_">
		<use xlink:href="#SVGID_00000029010356733200573350000012440278827918968985_"  style="overflow:visible;"/>
	</clipPath>
	<g style="clip-path:url(#SVGID_00000015341075079666362890000016481323083394463104_);">
		<path class="st1" d="M942.1,333.7l-139.8-79.9c-2.1-1.2-4.6-1.2-6.6,0l-139.8,79.9c-2.1,1.2-3.4,3.4-3.4,5.8v146.5
			c0,2.4,1.3,4.6,3.4,5.8l139.8,79.9c1,0.6,2.2,0.9,3.3,0.9c1.1,0,2.3-0.3,3.3-0.9l139.8-79.9c2.1-1.2,3.4-3.4,3.4-5.8V339.4
			C945.5,337,944.2,334.8,942.1,333.7z M932.2,482.1L799,558.1l-133.2-76.1V343.3L799,267.2l133.2,76.1V482.1z"/>
	</g>
</g>
<g>
	<defs>
		<path id="SVGID_00000031184321844554139820000001382246192280561547_" d="M1058.8,252.9h119.6c55.2,0,100,44.8,100,100v119.6
			c0,55.2-44.8,100-100,100h-119.6c-55.2,0-100-44.8-100-100V352.9C958.8,297.6,1003.6,252.9,1058.8,252.9z"/>
	</defs>
	<clipPath id="SVGID_00000172426712883407443150000002002683698596223406_">
		<use xlink:href="#SVGID_00000031184321844554139820000001382246192280561547_"  style="overflow:visible;"/>
	</clipPath>
	<g style="clip-path:url(#SVGID_00000172426712883407443150000002002683698596223406_);">
		<path class="st1" d="M1261.7,333.7l-139.8-79.9c-2.1-1.2-4.6-1.2-6.6,0l-139.8,79.9c-2.1,1.2-3.4,3.4-3.4,5.8v146.5
			c0,2.4,1.3,4.6,3.4,5.8l139.8,79.9c1,0.6,2.2,0.9,3.3,0.9c1.2,0,2.3-0.3,3.3-0.9l139.8-79.9c2.1-1.2,3.4-3.4,3.4-5.8V339.4
			C1265.1,337,1263.8,334.8,1261.7,333.7z M1251.8,482.1l-133.2,76.1l-133.2-76.1V343.3l133.2-76.1l133.2,76.1V482.1z"/>
	</g>
</g>
<g>
	<defs>
		<path id="SVGID_00000112627709881595742190000011662436614080468638_" d="M1219.5,516.3h119.6c55.2,0,100,44.8,100,100v119.6
			c0,55.2-44.8,100-100,100h-119.6c-55.2,0-100-44.8-100-100V616.3C1119.5,561.1,1164.3,516.3,1219.5,516.3z"/>
	</defs>
	<clipPath id="SVGID_00000094596111354221556410000008062994445361389482_">
		<use xlink:href="#SVGID_00000112627709881595742190000011662436614080468638_"  style="overflow:visible;"/>
	</clipPath>
	<g style="clip-path:url(#SVGID_00000094596111354221556410000008062994445361389482_);">
		<path class="st1" d="M1422.4,597.1l-139.8-79.9c-2-1.2-4.6-1.2-6.6,0l-139.8,79.9c-2.1,1.2-3.3,3.4-3.3,5.8v146.5
			c0,2.4,1.3,4.6,3.3,5.8L1276,835c1,0.6,2.2,0.9,3.3,0.9c1.1,0,2.3-0.3,3.3-0.9l139.8-79.9c2.1-1.2,3.4-3.4,3.4-5.8V602.8
			C1425.8,600.5,1424.5,598.2,1422.4,597.1z M1412.5,745.5l-133.2,76.1l-133.2-76.1V606.7l133.2-76.1l133.2,76.1V745.5z"/>
	</g>
</g>
<g>
	<defs>
		<path id="SVGID_00000052818881950272740590000009328620422479525812_" d="M259.8,0h119.6c55.2,0,100,44.8,100,100v119.6
			c0,55.2-44.8,100-100,100H259.8c-55.2,0-100-44.8-100-100V100C159.8,44.8,204.6,0,259.8,0z"/>
	</defs>
	<clipPath id="SVGID_00000042014971624359815190000017566024484520110742_">
		<use xlink:href="#SVGID_00000052818881950272740590000009328620422479525812_"  style="overflow:visible;"/>
	</clipPath>
	<g style="clip-path:url(#SVGID_00000042014971624359815190000017566024484520110742_);">
		<path class="st1" d="M462.7,80.8L322.9,0.9c-2.1-1.2-4.6-1.2-6.6,0L176.5,80.8c-2.1,1.2-3.4,3.4-3.4,5.8V233
			c0,2.4,1.3,4.6,3.4,5.8l139.8,79.9c1,0.6,2.2,0.9,3.3,0.9c1.1,0,2.3-0.3,3.3-0.9l139.8-79.9c2.1-1.2,3.4-3.4,3.4-5.8V86.6
			C466.1,84.2,464.8,82,462.7,80.8z M452.8,229.2l-133.2,76.1l-133.2-76.1V90.4l133.2-76.1l133.2,76.1V229.2z"/>
	</g>
</g>
<g>
	<defs>
		<path id="SVGID_00000096749639524313056850000014339573830848638609_" d="M100,252.9h119.6c55.2,0,100,44.8,100,100v119.6
			c0,55.2-44.8,100-100,100H100c-55.2,0-100-44.8-100-100V352.9C0,297.6,44.8,252.9,100,252.9z"/>
	</defs>
	<clipPath id="SVGID_00000110432050201169790840000002358212055695225763_">
		<use xlink:href="#SVGID_00000096749639524313056850000014339573830848638609_"  style="overflow:visible;"/>
	</clipPath>
	<g style="clip-path:url(#SVGID_00000110432050201169790840000002358212055695225763_);">
		<path class="st1" d="M302.9,333.7l-139.8-79.9c-2.1-1.2-4.6-1.2-6.6,0L16.7,333.7c-2.1,1.2-3.4,3.4-3.4,5.8v146.5
			c0,2.4,1.3,4.6,3.4,5.8l139.8,79.9c1,0.6,2.2,0.9,3.3,0.9c1.1,0,2.3-0.3,3.3-0.9l139.8-79.9c2.1-1.2,3.4-3.4,3.4-5.8V339.4
			C306.3,337,305,334.8,302.9,333.7z M293,482.1l-133.2,76.1L26.6,482.1V343.3l133.2-76.1L293,343.3V482.1z"/>
	</g>
</g>
<g>
	<defs>
		<path id="SVGID_00000141444631657936155420000007372049012875738768_" d="M1702.4,248.5H1822c55.2,0,100,44.8,100,100v119.6
			c0,55.2-44.8,100-100,100h-119.6c-55.2,0-100-44.8-100-100V348.5C1602.4,293.3,1647.2,248.5,1702.4,248.5z"/>
	</defs>
	<clipPath id="SVGID_00000169542346257254427020000008510389109769260678_">
		<use xlink:href="#SVGID_00000141444631657936155420000007372049012875738768_"  style="overflow:visible;"/>
	</clipPath>
	<g style="clip-path:url(#SVGID_00000169542346257254427020000008510389109769260678_);">
		<path class="st1" d="M1905.3,329.3l-139.8-79.9c-2.1-1.2-4.6-1.2-6.6,0l-139.8,79.9c-2.1,1.2-3.3,3.4-3.3,5.8v146.5
			c0,2.4,1.3,4.6,3.3,5.8l139.8,79.9c1,0.6,2.2,0.9,3.3,0.9c1.2,0,2.3-0.3,3.3-0.9l139.8-79.9c2.1-1.2,3.4-3.4,3.4-5.8V335
			C1908.7,332.7,1907.4,330.4,1905.3,329.3z M1895.4,477.7l-133.2,76.1L1629,477.7V338.9l133.2-76.1l133.2,76.1V477.7z"/>
	</g>
</g>
<g>
	<defs>
		<path id="SVGID_00000057848111047328704590000015945966330594403249_" d="M1539.1,516.3h119.6c55.2,0,100,44.8,100,100v119.6
			c0,55.2-44.8,100-100,100h-119.6c-55.2,0-100-44.8-100-100V616.3C1439.1,561.1,1483.9,516.3,1539.1,516.3z"/>
	</defs>
	<clipPath id="SVGID_00000119799551888514574880000013012683611518772362_">
		<use xlink:href="#SVGID_00000057848111047328704590000015945966330594403249_"  style="overflow:visible;"/>
	</clipPath>
	<g style="clip-path:url(#SVGID_00000119799551888514574880000013012683611518772362_);">
		<path class="st1" d="M1742,597.1l-139.8-79.9c-2-1.2-4.6-1.2-6.6,0l-139.8,79.9c-2.1,1.2-3.4,3.4-3.4,5.8v146.5
			c0,2.4,1.3,4.6,3.4,5.8l139.8,79.9c1,0.6,2.2,0.9,3.3,0.9c1.1,0,2.3-0.3,3.3-0.9l139.8-79.9c2.1-1.2,3.3-3.4,3.3-5.8V602.8
			C1745.4,600.5,1744.1,598.2,1742,597.1z M1732.1,745.5l-133.2,76.1l-133.2-76.1V606.7l133.2-76.1l133.2,76.1V745.5z"/>
	</g>
</g>
<g>
	<defs>
		<path id="SVGID_00000130639924815550226840000008525254649002550407_" d="M1702,783h119.6c55.2,0,100,44.8,100,100v119.6
			c0,55.2-44.8,100-100,100H1702c-55.2,0-100-44.8-100-100V883C1602,827.8,1646.8,783,1702,783z"/>
	</defs>
	<clipPath id="SVGID_00000137824665603808316720000009364598648556979076_">
		<use xlink:href="#SVGID_00000130639924815550226840000008525254649002550407_"  style="overflow:visible;"/>
	</clipPath>
	<g style="clip-path:url(#SVGID_00000137824665603808316720000009364598648556979076_);">
		<path class="st1" d="M1904.9,863.8l-139.8-79.9c-2-1.2-4.5-1.2-6.6,0l-139.8,79.9c-2.1,1.2-3.4,3.4-3.4,5.8V1016
			c0,2.4,1.3,4.6,3.4,5.8l139.8,79.9c1,0.6,2.2,0.9,3.3,0.9c1.1,0,2.3-0.3,3.3-0.9l139.8-79.9c2.1-1.2,3.4-3.4,3.4-5.8V869.6
			C1908.3,867.2,1907,865,1904.9,863.8z M1895,1012.2l-133.2,76.1l-133.2-76.1V873.4l133.2-76.1l133.2,76.1V1012.2z"/>
	</g>
</g>
<g>
	
		<linearGradient id="SVGID_00000123431480237438543880000017183292887263306686_" gradientUnits="userSpaceOnUse" x1="958.813" y1="587.717" x2="958.813" y2="268.113" gradientTransform="matrix(1 0 0 -1 0 1104)">
		<stop  offset="0" style="stop-color:#FDDDFF"/>
		<stop  offset="1" style="stop-color:#D38BF2"/>
	</linearGradient>
	<path style="fill:url(#SVGID_00000123431480237438543880000017183292887263306686_);" d="M1101.9,597.1l-139.8-79.9
		c-2.1-1.2-4.6-1.2-6.6,0l-139.8,79.9c-2.1,1.2-3.4,3.4-3.4,5.8v146.5c0,2.4,1.3,4.6,3.4,5.8L955.5,835c1,0.6,2.2,0.9,3.3,0.9
		c1.1,0,2.3-0.3,3.3-0.9l139.8-79.9c2.1-1.2,3.4-3.4,3.4-5.8V602.8C1105.3,600.5,1104,598.2,1101.9,597.1z M1092,745.5l-133.2,76.1
		l-133.2-76.1V606.7l133.2-76.1l133.2,76.1V745.5z"/>
	<path class="st11" d="M962.6,516.3L962.6,516.3c-2.4-1.3-5.2-1.3-7.6,0l0,0l-139.8,79.9v0c-2.4,1.4-3.9,3.9-3.9,6.6v146.5
		c0,2.7,1.5,5.3,3.9,6.6L955,835.9c1.2,0.7,2.5,1,3.8,1c1.3,0,2.6-0.3,3.8-1l139.8-79.9c2.4-1.4,3.9-3.9,3.9-6.6V602.8
		c0-2.7-1.5-5.3-3.9-6.6L962.6,516.3z M1091,607.3v137.6l-132.2,75.5l-132.2-75.5V607.3l132.2-75.5L1091,607.3z"/>
</g>
<g>
	
		<linearGradient id="SVGID_00000072965751437746843350000007398873766299060136_" gradientUnits="userSpaceOnUse" x1="1439.095" y1="851.127" x2="1439.095" y2="531.523" gradientTransform="matrix(1 0 0 -1 0 1104)">
		<stop  offset="0" style="stop-color:#D38BF2"/>
		<stop  offset="1" style="stop-color:#FDDDFF"/>
	</linearGradient>
	<path style="fill:url(#SVGID_00000072965751437746843350000007398873766299060136_);" d="M1582.2,333.7l-139.8-79.9
		c-2.1-1.2-4.6-1.2-6.6,0L1296,333.7c-2.1,1.2-3.4,3.4-3.4,5.8v146.5c0,2.4,1.3,4.6,3.4,5.8l139.8,79.9c1,0.6,2.2,0.9,3.3,0.9
		c1.1,0,2.3-0.3,3.3-0.9l139.8-79.9c2.1-1.2,3.4-3.4,3.4-5.8V339.4C1585.6,337,1584.3,334.8,1582.2,333.7z M1572.3,482.1
		l-133.2,76.1l-133.2-76.1V343.3l133.2-76.1l133.2,76.1V482.1z"/>
	<path class="st11" d="M1442.9,252.9L1442.9,252.9c-2.3-1.3-5.2-1.3-7.6,0l0,0l-139.8,79.9l0,0c-2.4,1.4-3.9,3.9-3.9,6.6v146.5
		c0,2.7,1.5,5.3,3.9,6.6l139.8,79.9c1.2,0.7,2.5,1,3.8,1c1.3,0,2.6-0.3,3.8-1l139.8-79.9c2.4-1.4,3.9-3.9,3.9-6.6V339.4
		c0-2.7-1.5-5.3-3.9-6.6L1442.9,252.9z M1571.3,343.9v137.6L1439.1,557l-132.2-75.5V343.9l132.2-75.5L1571.3,343.9z"/>
</g>
<g>
	
		<linearGradient id="SVGID_00000083051953687774627170000017689790059123307446_" gradientUnits="userSpaceOnUse" x1="479.406" y1="851.127" x2="479.406" y2="531.523" gradientTransform="matrix(1 0 0 -1 0 1104)">
		<stop  offset="0" style="stop-color:#D28AF2"/>
		<stop  offset="1" style="stop-color:#FEDFFF"/>
	</linearGradient>
	<path style="fill:url(#SVGID_00000083051953687774627170000017689790059123307446_);" d="M622.5,333.7l-139.8-79.9
		c-2.1-1.2-4.6-1.2-6.6,0l-139.8,79.9c-2.1,1.2-3.4,3.4-3.4,5.8v146.5c0,2.4,1.3,4.6,3.4,5.8l139.8,79.9c1,0.6,2.2,0.9,3.3,0.9
		c1.1,0,2.3-0.3,3.3-0.9l139.8-79.9c2.1-1.2,3.4-3.4,3.4-5.8V339.4C625.9,337,624.6,334.8,622.5,333.7z M612.6,482.1l-133.2,76.1
		l-133.2-76.1V343.3l133.2-76.1l133.2,76.1V482.1z"/>
	<path class="st11" d="M483.2,252.9L483.2,252.9c-2.4-1.3-5.2-1.3-7.6,0l0,0l-139.8,79.9l0,0c-2.4,1.4-3.9,3.9-3.9,6.6v146.5
		c0,2.7,1.5,5.3,3.9,6.6l139.8,79.9c1.2,0.7,2.5,1,3.8,1s2.6-0.3,3.8-1L623,492.6c2.4-1.4,3.9-3.9,3.9-6.6V339.4
		c0-2.7-1.5-5.3-3.9-6.6L483.2,252.9z M611.6,343.9v137.6L479.4,557l-132.2-75.5V343.9l132.2-75.5L611.6,343.9z"/>
</g>
<path class="st14" d="M1119.5,591.2l157.6-92"/>
<path class="st14" d="M640.1,500.5l158.5,90.4"/>
<text transform="matrix(1 0 0 1 1367.4796 450.8774)" class="st15 st16 st17">03</text>
<text transform="matrix(1 0 0 1 888.2585 715.6031)" class="st15 st16 st17">02</text>
<text transform="matrix(1 0 0 1 415.397 448.532)" class="st15 st16 st17">01</text>
<text transform="matrix(0.866 0.5 -0.5 0.866 303.5331 528.7511)"><tspan x="0" y="0" class="st15 st16 st18">Step 1 - Connect Wallet</tspan><tspan x="0" y="33.2" class="st15 st16 st18">&amp; register as a member</tspan><tspan x="0" y="66.4" class="st15 st16 st18">of Gachyiland</tspan></text>
<text transform="matrix(0.866 0.5 -0.5 0.866 797.3958 798.6223)"><tspan x="0" y="0" class="st15 st16 st18">Step 2 - Explore the NFT</tspan><tspan x="0" y="33.2" class="st15 st16 st18">collections and pick</tspan><tspan x="0" y="66.4" class="st15 st16 st18">your favourite</tspan></text>
<text transform="matrix(0.866 0.5 -0.5 0.866 1273.05 535.5479)"><tspan x="0" y="0" class="st15 st16 st18">Step 3 - Insert coins</tspan><tspan x="0" y="33.2" class="st15 st16 st18">and open your Gacha!</tspan></text>
</svg>
