<?xml version="1.0" encoding="utf-8"?>
<!-- Generator: Adobe Illustrator 25.4.1, SVG Export Plug-In . SVG Version: 6.00 Build 0)  -->
<svg version="1.1" id="Layer_1" xmlns="http://www.w3.org/2000/svg" xmlns:xlink="http://www.w3.org/1999/xlink" x="0px" y="0px"
	 viewBox="0 0 1889 1103" style="enable-background:new 0 0 1889 1103;" xml:space="preserve">
<style type="text/css">
	.st0{clip-path:url(#SVGID_00000140720165766026500530000004299903694969157283_);}
	.st1{fill:#FFF4FF;fill-opacity:0.1;}
	.st2{clip-path:url(#SVGID_00000017515892203281370330000014665536097157579429_);}
	.st3{clip-path:url(#SVGID_00000049943590493750028820000005339878843470320521_);}
	.st4{clip-path:url(#SVGID_00000036253397757143575640000007173780016639168149_);}
	.st5{clip-path:url(#SVGID_00000111193011169068546150000006397652465444003713_);}
	.st6{clip-path:url(#SVGID_00000057138052852115551220000008810385126376145840_);}
	.st7{clip-path:url(#SVGID_00000173149050708989159940000004908933159532907437_);}
	.st8{clip-path:url(#SVGID_00000073708655010287707430000016484021392046026174_);}
	.st9{clip-path:url(#SVGID_00000131361034368957572400000005877728902332404098_);}
	.st10{fill:url(#SVGID_00000159461203613019136550000013212931481136084874_);}
	.st11{fill:none;stroke:#FFFFFF;stroke-width:2;}
	.st12{fill:url(#SVGID_00000176004762854865171840000003846345746235325330_);}
	.st13{fill:url(#SVGID_00000118397204081402135000000016512630762028460420_);}
	.st14{fill:none;stroke:#FFFFFF;stroke-width:15;stroke-linecap:round;}
	.st15{enable-background:new    ;}
	.st16{fill:#FFFFFF;}
</style>
<g>
	<g>
		<defs>
			<path id="SVGID_1_" d="M579.4,516.3H699c55.2,0,100,44.8,100,100v119.6c0,55.2-44.8,100-100,100H579.4c-55.2,0-100-44.8-100-100
				V616.3C479.4,561.1,524.2,516.3,579.4,516.3z"/>
		</defs>
		<clipPath id="SVGID_00000052097530805267164190000007153641606804040066_">
			<use xlink:href="#SVGID_1_"  style="overflow:visible;"/>
		</clipPath>
		<g style="clip-path:url(#SVGID_00000052097530805267164190000007153641606804040066_);">
			<path class="st1" d="M782.3,597.1l-139.8-79.9c-2.1-1.2-4.6-1.2-6.6,0l-139.8,79.9c-2.1,1.2-3.4,3.4-3.4,5.8v146.5
				c0,2.4,1.3,4.6,3.4,5.8L635.9,835c1,0.6,2.2,0.9,3.3,0.9s2.3-0.3,3.3-0.9l139.8-79.9c2.1-1.2,3.4-3.4,3.4-5.8V602.8
				C785.7,600.5,784.4,598.2,782.3,597.1z M772.4,745.5l-133.2,76.1L506,745.5V606.7l133.2-76.1l133.2,76.1V745.5z"/>
		</g>
	</g>
</g>
<g>
	<g>
		<defs>
			<path id="SVGID_00000065766263179466714450000016839457238352004261_" d="M739.2,252.9h119.6c55.2,0,100,44.8,100,100v119.6
				c0,55.2-44.8,100-100,100H739.2c-55.2,0-100-44.8-100-100V352.9C639.2,297.6,684,252.9,739.2,252.9z"/>
		</defs>
		<clipPath id="SVGID_00000000196949148152409900000000537747377471777448_">
			<use xlink:href="#SVGID_00000065766263179466714450000016839457238352004261_"  style="overflow:visible;"/>
		</clipPath>
		<g style="clip-path:url(#SVGID_00000000196949148152409900000000537747377471777448_);">
			<path class="st1" d="M942.1,333.7l-139.8-79.9c-2.1-1.2-4.6-1.2-6.6,0l-139.8,79.9c-2.1,1.2-3.4,3.4-3.4,5.8V486
				c0,2.4,1.3,4.6,3.4,5.8l139.8,79.9c1,0.6,2.2,0.9,3.3,0.9s2.3-0.3,3.3-0.9l139.8-79.9c2.1-1.2,3.4-3.4,3.4-5.8V339.4
				C945.5,337,944.2,334.8,942.1,333.7z M932.2,482.1l-133.2,76L665.8,482V343.3L799,267.2l133.2,76.1V482.1z"/>
		</g>
	</g>
</g>
<g>
	<g>
		<defs>
			<path id="SVGID_00000058561536688197621450000005856825999854440850_" d="M1058.8,252.9h119.6c55.2,0,100,44.8,100,100v119.6
				c0,55.2-44.8,100-100,100h-119.6c-55.2,0-100-44.8-100-100V352.9C958.8,297.6,1003.6,252.9,1058.8,252.9z"/>
		</defs>
		<clipPath id="SVGID_00000166677199656952013200000002084826279869715114_">
			<use xlink:href="#SVGID_00000058561536688197621450000005856825999854440850_"  style="overflow:visible;"/>
		</clipPath>
		<g style="clip-path:url(#SVGID_00000166677199656952013200000002084826279869715114_);">
			<path class="st1" d="M1261.7,333.7l-139.8-79.9c-2.1-1.2-4.6-1.2-6.6,0l-139.8,79.9c-2.1,1.2-3.4,3.4-3.4,5.8V486
				c0,2.4,1.3,4.6,3.4,5.8l139.8,79.9c1,0.6,2.2,0.9,3.3,0.9c1.2,0,2.3-0.3,3.3-0.9l139.8-79.9c2.1-1.2,3.4-3.4,3.4-5.8V339.4
				C1265.1,337,1263.8,334.8,1261.7,333.7z M1251.8,482.1l-133.2,76.1l-133.2-76.1V343.3l133.2-76.1l133.2,76.1V482.1z"/>
		</g>
	</g>
</g>
<g>
	<g>
		<defs>
			<path id="SVGID_00000049937254771146991560000014050159560737716638_" d="M1219.5,516.3h119.6c55.2,0,100,44.8,100,100v119.6
				c0,55.2-44.8,100-100,100h-119.6c-55.2,0-100-44.8-100-100V616.3C1119.5,561.1,1164.3,516.3,1219.5,516.3z"/>
		</defs>
		<clipPath id="SVGID_00000044900594788430764380000006193925940908164014_">
			<use xlink:href="#SVGID_00000049937254771146991560000014050159560737716638_"  style="overflow:visible;"/>
		</clipPath>
		<g style="clip-path:url(#SVGID_00000044900594788430764380000006193925940908164014_);">
			<path class="st1" d="M1422.4,597.1l-139.8-79.9c-2-1.2-4.6-1.2-6.6,0l-139.8,79.9c-2.1,1.2-3.3,3.4-3.3,5.8v146.5
				c0,2.4,1.3,4.6,3.3,5.8L1276,835c1,0.6,2.2,0.9,3.3,0.9c1.1,0,2.3-0.3,3.3-0.9l139.8-79.9c2.1-1.2,3.4-3.4,3.4-5.8V602.8
				C1425.8,600.5,1424.5,598.2,1422.4,597.1z M1412.5,745.5l-133.2,76.1l-133.2-76.1V606.7l133.2-76.1l133.2,76.1V745.5z"/>
		</g>
	</g>
</g>
<g>
	<g>
		<defs>
			<path id="SVGID_00000092435511106653582510000000810791348225204611_" d="M259.8,0h119.6c55.2,0,100,44.8,100,100v119.6
				c0,55.2-44.8,100-100,100H259.8c-55.2,0-100-44.8-100-100V100C159.8,44.8,204.6,0,259.8,0z"/>
		</defs>
		<clipPath id="SVGID_00000010279171919571712480000011350157403913472924_">
			<use xlink:href="#SVGID_00000092435511106653582510000000810791348225204611_"  style="overflow:visible;"/>
		</clipPath>
		<g style="clip-path:url(#SVGID_00000010279171919571712480000011350157403913472924_);">
			<path class="st1" d="M462.7,80.8L322.9,0.9c-2.1-1.2-4.6-1.2-6.6,0L176.5,80.8c-2.1,1.2-3.4,3.4-3.4,5.8V233
				c0,2.4,1.3,4.6,3.4,5.8l139.8,79.9c1,0.6,2.2,0.9,3.3,0.9c1.1,0,2.3-0.3,3.3-0.9l139.8-79.9c2.1-1.2,3.4-3.4,3.4-5.8V86.6
				C466.1,84.2,464.8,82,462.7,80.8z M452.8,229.2l-133.2,76.1l-133.2-76.1V90.4l133.2-76.1l133.2,76.1V229.2z"/>
		</g>
	</g>
</g>
<g>
	<g>
		<defs>
			<path id="SVGID_00000111904783994772651570000012717222965663428994_" d="M100,252.9h119.6c55.2,0,100,44.8,100,100v119.6
				c0,55.2-44.8,100-100,100H100c-55.2,0-100-44.8-100-100V352.9C0,297.6,44.8,252.9,100,252.9z"/>
		</defs>
		<clipPath id="SVGID_00000119106644946512461210000000917996888980019363_">
			<use xlink:href="#SVGID_00000111904783994772651570000012717222965663428994_"  style="overflow:visible;"/>
		</clipPath>
		<g style="clip-path:url(#SVGID_00000119106644946512461210000000917996888980019363_);">
			<path class="st1" d="M302.9,333.7l-139.8-79.9c-2.1-1.2-4.6-1.2-6.6,0L16.7,333.7c-2.1,1.2-3.4,3.4-3.4,5.8V486
				c0,2.4,1.3,4.6,3.4,5.8l139.8,79.9c1,0.6,2.2,0.9,3.3,0.9s2.3-0.3,3.3-0.9l139.8-79.9c2.1-1.2,3.4-3.4,3.4-5.8V339.4
				C306.3,337,305,334.8,302.9,333.7z M293,482.1l-133.2,76.1L26.6,482.1V343.3l133.2-76.1L293,343.3V482.1z"/>
		</g>
	</g>
</g>
<g>
	<g>
		<defs>
			<path id="SVGID_00000151506000036292754050000006496822900070777494_" d="M1702.4,248.5H1822c55.2,0,100,44.8,100,100v119.6
				c0,55.2-44.8,100-100,100h-119.6c-55.2,0-100-44.8-100-100V348.5C1602.4,293.3,1647.2,248.5,1702.4,248.5z"/>
		</defs>
		<clipPath id="SVGID_00000155123205306085751640000013689058544529079951_">
			<use xlink:href="#SVGID_00000151506000036292754050000006496822900070777494_"  style="overflow:visible;"/>
		</clipPath>
		<g style="clip-path:url(#SVGID_00000155123205306085751640000013689058544529079951_);">
			<path class="st1" d="M1905.3,329.3l-139.8-79.9c-2.1-1.2-4.6-1.2-6.6,0l-139.8,79.9c-2.1,1.2-3.3,3.4-3.3,5.8v146.5
				c0,2.4,1.3,4.6,3.3,5.8l139.8,79.9c1,0.6,2.2,0.9,3.3,0.9c1.2,0,2.3-0.3,3.3-0.9l139.8-79.9c2.1-1.2,3.4-3.4,3.4-5.8V335
				C1908.7,332.7,1907.4,330.4,1905.3,329.3z M1895.4,477.7l-133.2,76.1L1629,477.7V338.9l133.2-76.1l133.2,76.1L1895.4,477.7
				L1895.4,477.7z"/>
		</g>
	</g>
</g>
<g>
	<g>
		<defs>
			<path id="SVGID_00000100377323668847089940000016302988616833129102_" d="M1539.1,516.3h119.6c55.2,0,100,44.8,100,100v119.6
				c0,55.2-44.8,100-100,100h-119.6c-55.2,0-100-44.8-100-100V616.3C1439.1,561.1,1483.9,516.3,1539.1,516.3z"/>
		</defs>
		<clipPath id="SVGID_00000170989379215695474700000001807334566343937682_">
			<use xlink:href="#SVGID_00000100377323668847089940000016302988616833129102_"  style="overflow:visible;"/>
		</clipPath>
		<g style="clip-path:url(#SVGID_00000170989379215695474700000001807334566343937682_);">
			<path class="st1" d="M1742,597.1l-139.8-79.9c-2-1.2-4.6-1.2-6.6,0l-139.8,79.9c-2.1,1.2-3.4,3.4-3.4,5.8v146.5
				c0,2.4,1.3,4.6,3.4,5.8l139.8,79.9c1,0.6,2.2,0.9,3.3,0.9c1.1,0,2.3-0.3,3.3-0.9l139.8-79.9c2.1-1.2,3.3-3.4,3.3-5.8V602.8
				C1745.4,600.5,1744.1,598.2,1742,597.1z M1732.1,745.5l-133.2,76.1l-133.2-76.1V606.7l133.2-76.1l133.2,76.1V745.5z"/>
		</g>
	</g>
</g>
<g>
	<g>
		<defs>
			<path id="SVGID_00000047052512317635434060000017304823269374215356_" d="M1702,783h119.6c55.2,0,100,44.8,100,100v119.6
				c0,55.2-44.8,100-100,100H1702c-55.2,0-100-44.8-100-100V883C1602,827.8,1646.8,783,1702,783z"/>
		</defs>
		<clipPath id="SVGID_00000081623846431702558260000017297521857979246523_">
			<use xlink:href="#SVGID_00000047052512317635434060000017304823269374215356_"  style="overflow:visible;"/>
		</clipPath>
		<g style="clip-path:url(#SVGID_00000081623846431702558260000017297521857979246523_);">
			<path class="st1" d="M1904.9,863.8l-139.8-79.9c-2-1.2-4.5-1.2-6.6,0l-139.8,79.9c-2.1,1.2-3.4,3.4-3.4,5.8V1016
				c0,2.4,1.3,4.6,3.4,5.8l139.8,79.9c1,0.6,2.2,0.9,3.3,0.9c1.1,0,2.3-0.3,3.3-0.9l139.8-79.9c2.1-1.2,3.4-3.4,3.4-5.8V869.6
				C1908.3,867.2,1907,865,1904.9,863.8z M1895,1012.2l-133.2,76.1l-133.2-76.1V873.4l133.2-76.1l133.2,76.1V1012.2z"/>
		</g>
	</g>
</g>
<g>
	
		<linearGradient id="SVGID_00000025442129493506095780000015118314042954138778_" gradientUnits="userSpaceOnUse" x1="958.8" y1="-87.7001" x2="958.8" y2="231.9" gradientTransform="matrix(1 0 0 1 0 604)">
		<stop  offset="0" style="stop-color:#FDDDFF"/>
		<stop  offset="1" style="stop-color:#D38BF2"/>
	</linearGradient>
	<path style="fill:url(#SVGID_00000025442129493506095780000015118314042954138778_);" d="M1101.9,597.1l-139.8-79.9
		c-2.1-1.2-4.6-1.2-6.6,0l-139.8,79.9c-2.1,1.2-3.4,3.4-3.4,5.8v146.5c0,2.4,1.3,4.6,3.4,5.8L955.5,835c1,0.6,2.2,0.9,3.3,0.9
		s2.3-0.3,3.3-0.9l139.8-79.9c2.1-1.2,3.4-3.4,3.4-5.8V602.8C1105.3,600.5,1104,598.2,1101.9,597.1z M1092,745.5l-133.2,76.1
		l-133.2-76.1V606.7l133.2-76.1l133.2,76.1V745.5z"/>
	<path class="st11" d="M962.6,516.3L962.6,516.3c-2.4-1.3-5.2-1.3-7.6,0l0,0l-139.8,79.9l0,0c-2.4,1.4-3.9,3.9-3.9,6.6v146.5
		c0,2.7,1.5,5.3,3.9,6.6l139.8,80c1.2,0.7,2.5,1,3.8,1s2.6-0.3,3.8-1l139.8-79.9c2.4-1.4,3.9-3.9,3.9-6.6V602.8
		c0-2.7-1.5-5.3-3.9-6.6L962.6,516.3z M1091,607.3v137.6l-132.2,75.5l-132.2-75.5V607.3l132.2-75.5L1091,607.3z"/>
</g>
<g>
	
		<linearGradient id="SVGID_00000161596501607973963610000014170800597029418634_" gradientUnits="userSpaceOnUse" x1="1439.1001" y1="-351.1" x2="1439.1001" y2="-31.4" gradientTransform="matrix(1 0 0 1 0 604)">
		<stop  offset="0" style="stop-color:#D38BF2"/>
		<stop  offset="1" style="stop-color:#FDDDFF"/>
	</linearGradient>
	<path style="fill:url(#SVGID_00000161596501607973963610000014170800597029418634_);" d="M1582.2,333.7l-139.8-79.9
		c-2.1-1.2-4.6-1.2-6.6,0L1296,333.7c-2.1,1.2-3.4,3.4-3.4,5.8V486c0,2.4,1.3,4.6,3.4,5.8l139.8,79.9c1,0.6,2.2,0.9,3.3,0.9
		c1.1,0,2.3-0.3,3.3-0.9l139.8-79.9c2.1-1.2,3.4-3.4,3.4-5.8V339.4C1585.6,337,1584.3,334.8,1582.2,333.7z M1572.3,482.1
		l-133.2,76.1l-133.2-76.1V343.3l133.2-76.1l133.2,76.1V482.1z"/>
	<path class="st11" d="M1442.9,252.9L1442.9,252.9c-2.3-1.3-5.2-1.3-7.6,0l0,0l-139.8,79.9l0,0c-2.4,1.4-3.9,3.9-3.9,6.6v146.5
		c0,2.7,1.5,5.3,3.9,6.6l139.8,79.9c1.2,0.7,2.5,1,3.8,1s2.6-0.3,3.8-1l139.8-79.9c2.4-1.4,3.9-3.9,3.9-6.6V339.4
		c0-2.7-1.5-5.3-3.9-6.6L1442.9,252.9z M1571.3,343.9v137.6L1439.1,557l-132.2-75.5V343.9l132.2-75.5L1571.3,343.9z"/>
</g>
<g>
	
		<linearGradient id="SVGID_00000131348004372307804400000012705719912198900112_" gradientUnits="userSpaceOnUse" x1="479.4" y1="-351.1" x2="479.4" y2="-31.4" gradientTransform="matrix(1 0 0 1 0 604)">
		<stop  offset="0" style="stop-color:#D28AF2"/>
		<stop  offset="1" style="stop-color:#FEDFFF"/>
	</linearGradient>
	<path style="fill:url(#SVGID_00000131348004372307804400000012705719912198900112_);" d="M622.5,333.7l-139.8-79.9
		c-2.1-1.2-4.6-1.2-6.6,0l-139.8,79.9c-2.1,1.2-3.4,3.4-3.4,5.8V486c0,2.4,1.3,4.6,3.4,5.8l139.8,79.9c1,0.6,2.2,0.9,3.3,0.9
		c1.1,0,2.3-0.3,3.3-0.9l139.8-79.9c2.1-1.2,3.4-3.4,3.4-5.8V339.4C625.9,337,624.6,334.8,622.5,333.7z M612.6,482.1l-133.2,76.1
		l-133.2-76.1V343.3l133.2-76.1l133.2,76.1V482.1z"/>
	<path class="st11" d="M483.2,252.9L483.2,252.9c-2.4-1.3-5.2-1.3-7.6,0l0,0l-139.8,79.9l0,0c-2.4,1.4-3.9,3.9-3.9,6.6v146.5
		c0,2.7,1.5,5.3,3.9,6.6l139.8,79.9c1.2,0.7,2.5,1,3.8,1s2.6-0.3,3.8-1L623,492.6c2.4-1.4,3.9-3.9,3.9-6.6V339.4
		c0-2.7-1.5-5.3-3.9-6.6L483.2,252.9z M611.6,343.9v137.6L479.4,557l-132.2-75.5V343.9l132.2-75.5L611.6,343.9z"/>
</g>
<path class="st14" d="M1119.5,591.2l157.6-92"/>
<path class="st14" d="M640.1,500.5l158.5,90.4"/>
<g class="st15">
	<path class="st16" d="M1370.6,411.2c0-27.9,10.4-41.9,31.4-41.9c20.8,0,31.2,14,31.2,41.9c0,28-10.4,42-31.2,42
		C1381,453.2,1370.6,439.2,1370.6,411.2z M1412.4,411.2c0-20.3-2.4-26.4-10.5-26.4c-8.2,0-10.6,6.2-10.6,26.4
		c0,20.4,2.4,26.5,10.6,26.5C1410,437.7,1412.4,431.5,1412.4,411.2z"/>
	<path class="st16" d="M1501.9,428.6c0,15-9.8,24.6-31.8,24.6c-16.1,0-26.8-7-28.4-22.1c-0.7-6.3,3.5-9.7,9.7-9.7h0.3
		c6.1,0,8.5,3.3,10.2,9.5c1.3,4.8,4.1,6.5,9.2,6.5c5.8,0,10-2.7,10-9.7c0-5.4-1.5-10-8.2-10c-5.1,0-7.9-2.6-7.9-7.3
		c-0.1-4.8,2.9-7.3,8.5-7.3c6.2,0,7.4-6.3,7.4-10c0-5-2.4-8.4-8.7-8.4c-5.6,0-8.5,1.6-9.6,5.4c-1.8,6.2-3.8,9.5-9.8,9.5
		s-10.3-3.5-9.2-9.8c2.2-13.3,12.4-20.5,28.8-20.5c18.5,0,27.8,9,27.8,20.9c0,7.7-4,15.6-11.2,19.6
		C1498.2,412.7,1501.9,419.9,1501.9,428.6z"/>
</g>
<g class="st15">
	<path class="st16" d="M891.3,675.9c0-27.9,10.4-41.9,31.4-41.9c20.8,0,31.2,14,31.2,41.9c0,28-10.4,42-31.2,42
		C901.8,717.9,891.3,703.9,891.3,675.9z M933.2,675.9c0-20.3-2.4-26.4-10.5-26.4c-8.2,0-10.6,6.2-10.6,26.4
		c0,20.4,2.4,26.5,10.6,26.5C930.8,702.4,933.2,696.3,933.2,675.9z"/>
	<path class="st16" d="M964.8,707.4v-0.6c0-5.3,1.9-8.7,6.3-11.7c12-7.9,31.2-22.1,31.2-36.6c0-5.7-2.6-9-9.4-9
		c-6.4,0-9.4,3-10.1,10.5c-0.7,6.5-3.3,10.1-9.4,10.1s-10.1-3.3-9.7-9.6c1-17,11.6-26.4,27.9-26.4c19.5,0,29.2,8.6,29.2,24.6
		c0,21.7-22.7,34-34.8,38.2l25.5-0.1c6.3,0,9.7,3.3,9.7,9.4c0,6.2-3.4,9.5-9.7,9.5h-37.1C968.2,715.6,964.8,712.6,964.8,707.4z"/>
</g>
<g class="st15">
	<path class="st16" d="M418.5,408.8c0-27.9,10.4-41.9,31.4-41.9c20.8,0,31.2,14,31.2,41.9c0,28-10.4,42-31.2,42
		C428.9,450.8,418.5,436.9,418.5,408.8z M460.4,408.8c0-20.3-2.4-26.4-10.5-26.4c-8.2,0-10.6,6.2-10.6,26.4
		c0,20.4,2.4,26.5,10.6,26.5C458,435.4,460.4,429.2,460.4,408.8z"/>
	<path class="st16" d="M492.6,438.8v-57c0-5.7,2.7-9.4,8.4-10.9l2.3-0.6c6.6-1.7,10.9,1.5,10.9,8.4v60.1c0,6.3-3.4,9.7-9.7,9.7h-2.1
		C496.1,448.5,492.6,445.1,492.6,438.8z"/>
</g>
<g class="st15">
	<path class="st16" d="M306.6,526.5c0.4-1.5,1.8-1.8,3-1.1l0.2,0.1c1.1,0.7,1,1.5,1.3,2.8c0.2,0.5,0.6,1,1.4,1.4
		c1.3,0.7,2.2,0.6,2.7-0.4c1.9-3.3-6.8-5.9-3.4-11.7c2.1-3.6,5.1-3.7,8.9-1.5c3.7,2.2,4.7,4.8,3.3,7.8c-0.7,1.4-1.9,1.6-3.1,0.9
		s-1.2-1.6-0.7-3.2c0.4-1.1-0.1-1.9-1.3-2.5c-1.4-0.8-2.3-0.3-2.9,0.9c-2.2,3.9,7.2,6,3.9,11.8c-1.9,3.3-5.1,3.7-9.4,1.3
		C307.2,531.2,306,529,306.6,526.5z"/>
	<path class="st16" d="M329,540.9c-0.5,1.1-1.4,1.6-2.5,1.2c-0.5-0.2-1.1-0.5-1.7-0.8c-3-1.7-4.2-4.1-2.1-7.5c0.8-1.4,1.7-3,2.6-4.5
		l0.7-1.2l0,0c-1.3-0.8-1.7-1.7-1.2-2.7c0.6-1,1.3-1.3,1.9-0.9l1,0.6c0.2-0.4,0.4-0.8,0.7-1.2c0.7-1.2,1.7-1.6,3-1.3
		c1.6,0.3,2.2,1.4,1.4,2.7l-1.2,2.1l1.7,1c1.3,0.8,1.7,1.7,1.2,2.7s-1.5,1.1-2.7,0.4l-1.9-1.1c-0.2,0.4-0.5,0.8-0.8,1.3
		c-0.8,1.3-1.6,2.8-2.3,4c-0.8,1.4-0.7,2.3,0.5,3C328.7,539.4,329.5,539.9,329,540.9z"/>
	<path class="st16" d="M333.1,536.7c2.5-4.4,5.9-5.5,10-3.1c4.5,2.6,4.5,6.6,1.5,10.8c-0.2,0.2-0.4,0.3-0.6,0.2l-7.6-4.4
		c-1.3,2.5-0.8,3.6,0.5,4.4c0.6,0.4,1.2,0.5,1.7,0.5c1.3-0.1,1.7-0.7,2.8-0.1c1.2,0.7,1.7,1.9,0.8,2.8c-1.6,1.4-3.9,1.2-6.8-0.5
		C330.9,544.9,330.4,541.5,333.1,536.7z M341.6,540.3c1.2-1.9,1.1-3.2-0.3-4c-1.2-0.7-2.6-0.3-3.7,1.7L341.6,540.3z"/>
	<path class="st16" d="M359.6,552c-2.7,4.7-6.4,5.8-9.2,4.2c-1.5-0.9-2.1-2.4-2-4.1l-0.3,0.2c-0.7,1.6-1.5,3.2-2.3,4.7
		c-0.7,1.3-1.9,1.6-3.2,0.9l0,0c-1.3-0.8-1.6-1.9-0.9-3.2c1.9-3.2,3.7-6.2,5.6-9.5c0.9-1.6,1.7-3.1,2.6-4.6c0.7-1.3,1.9-1.6,3.2-0.9
		l0,0c1.3,0.8,1.9,1.4,1.7,1.7l-0.3,0.6c1.1-0.3,2.4-0.3,3.7,0.5C361.2,544.1,362.5,547,359.6,552z M355.6,550
		c1.5-2.5,1.1-4-0.4-4.8c-0.9-0.5-1.6-0.5-2.5-0.2c-0.1,0.3-0.3,0.6-1.5,2.6c-0.3,0.5-0.6,1-0.9,1.5l0,0c-0.8,1.6-0.2,2.6,0.8,3.2
		C352.4,553,353.9,553,355.6,550z"/>
	<path class="st16" d="M365.5,561.8l6.9-11.9c0.7-1.2,1.7-1.6,3.1-1.3l0.5,0.2c1.6,0.4,2.1,1.6,1.3,3.1l-7.3,12.6
		c-0.8,1.3-1.9,1.6-3.2,0.9l-0.4-0.2C365.1,564.3,364.8,563.1,365.5,561.8z"/>
	<path class="st16" d="M382.5,563.2c0.8-0.9,1.8-1,3-0.3l3.1,1.8c1.4,0.8,1.8,1.8,1.1,2.6c-0.8,0.9-1.8,1-3,0.3l-3.1-1.8
		C382.2,565,381.7,564,382.5,563.2z"/>
	<path class="st16" d="M397.9,572.1c3.3-5.7,7.3-7.2,12-4.4c3.5,2,4.7,5.1,3.2,8.5c-0.7,1.4-1.9,1.6-3.2,0.8l-0.1-0.1
		c-1.3-0.8-1.4-1.8-0.8-3.3c0.5-1.4,0.2-2.2-1-2.9c-1.7-1-3.1,0-5.4,4c-2.4,4.2-2.1,5.8-0.7,6.6c1,0.6,1.8,0.6,2.6-0.1
		c1.1-1,2-1.4,3.3-0.7l0,0c1.3,0.8,1.8,2,0.7,3.3c-2.2,2.6-5.1,2.7-8.5,0.8C395.1,581.9,394.6,577.8,397.9,572.1z"/>
	<path class="st16" d="M411.8,582.5c2.6-4.6,6-5.7,10.1-3.3c4.1,2.4,4.7,5.8,2.1,10.4c-2.7,4.6-6,5.7-10,3.4
		C409.9,590.5,409.2,587.1,411.8,582.5z M419.9,587.2c1.7-2.9,1.7-4.3,0.3-5.1c-1.5-0.9-2.7-0.2-4.3,2.8c-1.8,3.2-1.4,4.4-0.2,5.1
		C416.8,590.6,418.1,590.4,419.9,587.2z"/>
	<path class="st16" d="M432.3,603.1L432.3,603.1c-1.4-0.8-1.7-1.9-0.9-3.3c1.3-2.2,2.5-4.2,3.4-5.9c0.9-1.6,0.7-2.4-0.4-3
		c-0.9-0.5-1.9-0.4-2.8,0.2c-0.4,0.6-0.8,1.3-1.2,2c-0.9,1.5-1.8,3-2.6,4.6c-0.8,1.3-1.9,1.6-3.2,0.9l-0.1-0.1
		c-1.3-0.8-1.6-1.9-0.9-3.2c0.9-1.5,1.8-3,2.7-4.5c0.9-1.6,1.8-3.1,2.6-4.6c0.8-1.3,1.9-1.6,3.2-0.9c1.3,0.7,1.8,1.6,1.3,2.3
		c-0.2,0.3-0.4,0.7-0.7,1.1l0.1,0c1.9-1.2,3.7-1.1,5.6-0.1c2.5,1.5,2.9,3.8,0.5,7.7c-1,1.6-2.1,3.7-3.3,5.9
		C434.8,603.6,433.6,603.9,432.3,603.1z"/>
	<path class="st16" d="M446.9,611.5L446.9,611.5c-1.4-0.8-1.7-1.9-0.9-3.3c1.3-2.2,2.5-4.2,3.4-5.9c0.9-1.6,0.7-2.4-0.4-3
		c-0.9-0.5-1.9-0.4-2.8,0.2c-0.4,0.6-0.8,1.3-1.2,2c-0.9,1.5-1.8,3-2.6,4.6c-0.8,1.3-1.9,1.6-3.2,0.9l-0.1-0.1
		c-1.3-0.8-1.6-1.9-0.9-3.2c0.9-1.5,1.8-3,2.7-4.5c0.9-1.6,1.8-3.1,2.6-4.6c0.8-1.3,1.9-1.6,3.2-0.9c1.3,0.7,1.8,1.6,1.3,2.3
		c-0.2,0.3-0.4,0.7-0.7,1.2l0.1,0c1.9-1.2,3.7-1.1,5.6-0.1c2.5,1.5,2.9,3.8,0.5,7.7c-1,1.6-2.1,3.7-3.3,5.9
		C449.4,612,448.3,612.3,446.9,611.5z"/>
	<path class="st16" d="M455.1,607.1c2.5-4.4,5.9-5.5,10-3.1c4.5,2.6,4.5,6.6,1.5,10.8c-0.2,0.2-0.4,0.3-0.6,0.2l-7.6-4.4
		c-1.3,2.5-0.8,3.6,0.5,4.4c0.6,0.4,1.2,0.5,1.7,0.5c1.3-0.1,1.7-0.7,2.8-0.1c1.2,0.7,1.7,1.9,0.8,2.8c-1.6,1.4-3.9,1.2-6.8-0.5
		C452.9,615.3,452.3,611.9,455.1,607.1z M463.6,610.7c1.2-1.9,1.1-3.2-0.3-4c-1.2-0.7-2.6-0.3-3.7,1.7L463.6,610.7z"/>
	<path class="st16" d="M468.7,615.4c2.6-4.6,6-5.7,10.3-3.3c2.9,1.7,3.9,3.9,3.1,6.6c-0.5,1.5-1.7,1.9-2.9,1.2c-1.2-0.7-1.2-1.5-1-3
		c0.1-0.6-0.3-1.1-1.1-1.6c-1.5-0.9-2.7-0.3-4.2,2.5c-1.8,3.1-1.4,4.4-0.1,5.1c0.7,0.4,1.2,0.5,1.7,0.3c1.4-0.6,1.9-1.2,3.1-0.5
		c1.1,0.7,1.5,1.9,0.5,2.9c-1.8,1.8-4.2,1.8-7.1,0.2C466.7,623.3,466.1,619.9,468.7,615.4z"/>
	<path class="st16" d="M488.3,632.9c-0.5,1.1-1.4,1.6-2.5,1.2c-0.5-0.2-1.1-0.5-1.7-0.8c-3-1.7-4.2-4.1-2.1-7.5
		c0.8-1.4,1.7-3,2.6-4.5l0.7-1.2l0,0c-1.3-0.8-1.7-1.7-1.2-2.7s1.3-1.3,1.9-0.9l1,0.6c0.2-0.4,0.4-0.8,0.7-1.2
		c0.7-1.2,1.7-1.6,3-1.3c1.6,0.3,2.2,1.4,1.4,2.7l-1.2,2.1l1.7,1c1.3,0.8,1.7,1.7,1.2,2.7c-0.6,1-1.5,1.1-2.7,0.4l-1.9-1.1
		c-0.2,0.4-0.5,0.8-0.8,1.3c-0.8,1.3-1.6,2.8-2.3,4c-0.8,1.4-0.7,2.3,0.5,3C488,631.3,488.8,631.9,488.3,632.9z"/>
	<path class="st16" d="M522.4,633c1.3,0.7,1.5,1.9,0.7,3.3c-6.3,10.1-10.4,13.5-14.4,11.2c-2.2-1.3-2.7-3.6-1.7-6.6
		c-2.3,2.2-4.9,2.8-7.1,1.5c-3.6-2.1-2.7-7.4,3.1-17.8c0.8-1.4,1.9-1.8,3.3-1l0.3,0.2c1.3,0.8,1.6,1.9,0.8,3.4
		c-4.7,8.3-5.3,10.7-4.1,11.4c1.9,1.1,3-1,7.8-9.3c0.8-1.4,2-1.8,3.3-1l0.3,0.2c1.3,0.8,1.6,1.9,0.8,3.4c-4.7,8.3-5.3,10.7-4.1,11.4
		c1.4,0.8,3-1,7.9-9.2C519.9,632.6,521.1,632.2,522.4,633z"/>
	<path class="st16" d="M518.5,648.3c1.7-3,5.1-3.1,10.4,0.1l0.5-0.8c1-1.7,0.8-2.6-0.2-3.2c-0.6-0.4-1.2-0.5-1.8-0.2
		c-1.3,0.7-1.8,1.2-2.9,0.6l-0.2-0.1c-1.3-0.8-1.9-2.1-0.7-3.2c1.6-1.5,4-1.4,7.5,0.6c3.6,2.1,4.4,4.7,2.6,7.9
		c-1.7,2.9-2.9,5-3.7,6.6c-0.7,1.4-1.8,1.7-3.1,1l-0.2-0.1c-1.2-0.7-1.8-1.3-1.6-1.7c0-0.2,0.1-0.4,0.2-0.6
		c-1.5,0.4-3.1,0.1-4.4-0.7C518.3,653,517,650.9,518.5,648.3z M526.6,652.6l1.2-2.2c-2.2-1.2-4.3-2.1-5.2-0.5
		c-0.5,0.9-0.3,1.9,0.8,2.6C524.5,653.1,525.5,653,526.6,652.6z"/>
	<path class="st16" d="M532.1,658c1.4-2.3,2.7-4.5,4.1-6.9c1.2-2.1,2.4-4.3,3.6-6.4c0.8-1.3,1.9-1.6,3.2-0.9l0.1,0.1
		c1.3,0.8,1.6,1.9,0.9,3.2c-1.2,2.1-2.5,4.3-3.7,6.4c-1.4,2.4-2.6,4.6-4,6.9c-0.8,1.3-1.9,1.6-3.2,0.9l-0.1-0.1
		C531.7,660.5,531.4,659.3,532.1,658z"/>
	<path class="st16" d="M538.9,661.9c1.4-2.3,2.7-4.5,4.1-6.9c1.2-2.1,2.4-4.3,3.6-6.4c0.8-1.3,1.9-1.6,3.2-0.9l0.1,0.1
		c1.3,0.8,1.6,1.9,0.9,3.2c-1.2,2.1-2.5,4.3-3.7,6.4c-1.4,2.4-2.6,4.6-4,6.9c-0.8,1.3-1.9,1.6-3.2,0.9l-0.1-0.1
		C538.4,664.4,538.1,663.2,538.9,661.9z"/>
	<path class="st16" d="M548,660.8c2.5-4.4,5.9-5.5,10-3.1c4.5,2.6,4.5,6.6,1.5,10.8c-0.2,0.2-0.4,0.3-0.6,0.2l-7.6-4.4
		c-1.3,2.5-0.8,3.6,0.5,4.4c0.6,0.4,1.2,0.5,1.7,0.5c1.3-0.1,1.7-0.7,2.8-0.1c1.2,0.7,1.7,1.9,0.8,2.8c-1.6,1.4-3.9,1.2-6.8-0.5
		C545.8,668.9,545.2,665.5,548,660.8z M556.5,664.3c1.2-1.9,1.1-3.2-0.3-4c-1.2-0.7-2.6-0.3-3.7,1.7L556.5,664.3z"/>
	<path class="st16" d="M568,678.9c-0.5,1.1-1.4,1.6-2.5,1.2c-0.5-0.2-1.1-0.5-1.7-0.8c-3-1.7-4.2-4.1-2.1-7.5c0.8-1.4,1.7-3,2.6-4.5
		l0.7-1.2l0,0c-1.3-0.8-1.7-1.7-1.2-2.7c0.6-1,1.3-1.3,1.9-0.9l1,0.6c0.2-0.4,0.4-0.8,0.7-1.2c0.7-1.2,1.7-1.6,3-1.3
		c1.6,0.3,2.2,1.4,1.4,2.7l-1.2,2.1l1.7,1c1.3,0.8,1.7,1.7,1.2,2.7s-1.5,1.1-2.7,0.4l-1.9-1.1c-0.2,0.4-0.5,0.8-0.8,1.3
		c-0.8,1.3-1.6,2.8-2.3,4c-0.8,1.4-0.7,2.3,0.5,3C567.7,677.3,568.4,677.9,568,678.9z"/>
</g>
<g class="st15">
	<path class="st16" d="M300,565l-0.7-0.4c-1.1-0.6-1.6-1.2-1.6-1.9c0-0.3,0-0.6-0.1-1c-1.7,0.2-3.4-0.1-5.3-1.2
		c-3.6-2.1-4.3-4.5-2.2-8.1c1.4-2.5,3.2-3.3,5.7-2.4c-0.1-1.7,0.1-3.3,1-4.8c1.5-2.6,3.8-2.6,7.1-0.7c3.6,2.1,4,3.8,2.7,6.1
		c-1.6,2.7-3.9,3.4-6.3,2.7c0.2,1.1,0.5,2.2,0.8,3.5c0.5-0.2,0.9-0.5,1.3-0.8c1.3-0.9,2.3-1,2.9,0c0.6,1.1,0.3,2.1-0.9,2.9
		c-0.8,0.5-1.7,1.1-2.6,1.5c0.2,1,0.3,2,0.4,3C302.3,565.1,301.3,565.7,300,565z M297.1,558.1c-0.3-1.9-0.8-3.7-1.1-5.4
		c-0.8,0-1.5,0.6-2.1,1.7c-0.9,1.6-0.8,2.6,0.3,3.2C295,558.1,296.1,558.2,297.1,558.1z M299.9,547.5c-0.4,0.6-0.4,1.6-0.3,2.8
		c1.3,0.4,2.8,0.2,3.5-1c0.4-0.7,0.3-1.4-0.9-2C301.1,546.6,300.4,546.7,299.9,547.5z"/>
	<path class="st16" d="M325,563.4c-0.2,0.6-0.5,1.2-1,1.7c-1,1.1-2,1-2.4,0.4c-0.3-0.3-0.5-0.5-0.9-0.7c-1.1-0.6-2.2-0.3-3.4,0.7
		l-0.3,0.6c-0.3,0.5-0.6,1.1-0.9,1.6c-0.6,1-1.1,2-1.7,3c-0.7,1.4-1.8,1.7-3.2,0.9l-0.1,0c-1.3-0.8-1.6-1.9-0.9-3.2
		c0.9-1.5,1.8-3,2.7-4.6c0.9-1.6,1.7-3.1,2.6-4.6c0.8-1.3,1.9-1.6,3.1-0.9c1.2,0.7,1.6,1.6,1.1,2.7l-0.9,1.6l0,0.1
		c1.5-1.7,3.4-2.5,5-1.6c0.3,0.2,0.4,0.3,0.6,0.4C324.9,561.6,325.3,562.3,325,563.4z"/>
	<path class="st16" d="M323,569.2c2.5-4.4,5.9-5.5,10-3.1c4.5,2.6,4.5,6.6,1.5,10.8c-0.2,0.2-0.4,0.3-0.6,0.2l-7.6-4.4
		c-1.3,2.5-0.8,3.6,0.5,4.4c0.6,0.4,1.2,0.5,1.7,0.5c1.3-0.1,1.7-0.7,2.8-0.1c1.2,0.7,1.7,1.9,0.8,2.8c-1.6,1.4-3.9,1.2-6.8-0.5
		C320.8,577.4,320.3,574,323,569.2z M331.5,572.8c1.2-1.9,1.1-3.2-0.3-4c-1.2-0.7-2.6-0.3-3.7,1.7L331.5,572.8z"/>
	<path class="st16" d="M345.1,592.2c-1.6,2.7-4.7,4.1-9.9,1.2c-3.6-2.1-5.2-4.9-3.8-7.3c0.9-1.6,2.3-1.7,3.5-1.2
		c-0.6-0.9-0.7-2.1-0.1-3.1c0.6-1,1.7-1.5,2.7-1.4c-0.9-1.5-0.8-3.3,0.2-5.1c2.1-3.6,4.8-3.8,10.3-0.6c1,0.6,2.1,1.3,3.1,1.9
		c1.3,0.9,1.7,1.8,1.2,2.4c-0.5,0.6-1.1,0.7-1.6,0.3c-0.2-0.2-0.5-0.3-0.8-0.5c0.2,1.1,0,2.1-0.9,3.7c-1.6,2.8-4.4,3.2-8.1,1.1
		c-0.9-0.5-1.7-1.1-2.3-1.6c-0.1,0.1-0.2,0.1-0.3,0.2c-0.5,0.8,0,1.5,3.4,3.5C345.2,587.5,346.7,589.6,345.1,592.2z M341.5,591.4
		c0.6-1.1-0.4-1.7-2.6-3.1c-1-0.6-2.1-1.2-3-1.9c-0.4,0-0.8,0.2-1,0.6c-0.7,1.1,0.1,2.4,2.3,3.6
		C339.9,592.3,340.9,592.4,341.5,591.4z M341.8,577.5c-1.1,2-0.6,3,0.6,3.7c1.2,0.7,2.3,0.6,3.5-1.4c1-1.7,0.7-2.6-0.7-3.4
		C343.7,575.5,342.8,575.8,341.8,577.5z"/>
	<path class="st16" d="M348.7,590.4l1.2-2c2-3.6,3.2-5.7,4.1-7.2c0.7-1.3,1.9-1.6,3.2-0.8l0,0c1.3,0.8,1.6,1.9,0.9,3.2
		c-1,1.7-2.1,3.6-3,5.1c-0.8,1.4-1.6,2.7-2.4,4.1c-0.7,1.3-1.8,1.6-3.2,0.9C348.2,592.9,347.9,591.8,348.7,590.4z M356.8,575.2
		c0.8-1.4,1.9-1.6,3.7-0.6c1.8,1,2.1,2,1.3,3.5c-0.8,1.4-1.9,1.6-3.7,0.6C356.3,577.7,355.9,576.7,356.8,575.2z"/>
	<path class="st16" d="M355.3,594c0.3-1.6,1.7-1.8,2.8-1.2l0.1,0c1.1,0.7,0.9,1.3,1.1,2.7c0.1,0.5,0.4,0.8,1.2,1.3
		c1.5,0.9,2.3,0.6,2.8-0.1c1.8-3.1-7.1-4.3-3.9-9.9c1.6-2.7,4.2-3,8-0.8c2.9,1.7,4.1,3.5,3.6,5.4c-0.4,1.5-1.7,1.8-2.8,1.1l-0.1-0.1
		c-1.1-0.6-0.9-1.3-1.1-2.5c-0.1-0.4-0.5-0.8-1.2-1.2c-1.3-0.7-1.9-0.5-2.4,0.2c-1.7,2.9,7.2,4.3,4.1,9.6c-1.7,2.9-4.6,3.3-8.4,1.1
		C356,597.8,354.8,595.9,355.3,594z"/>
	<path class="st16" d="M376.9,606.9c-0.5,1.1-1.4,1.6-2.5,1.2c-0.5-0.2-1.1-0.5-1.7-0.8c-3-1.7-4.2-4.1-2.1-7.5
		c0.8-1.4,1.7-3,2.6-4.5l0.7-1.2l0,0c-1.3-0.8-1.7-1.7-1.2-2.7s1.3-1.3,1.9-0.9l1,0.6c0.2-0.4,0.4-0.8,0.7-1.2
		c0.7-1.2,1.7-1.6,3-1.3c1.6,0.3,2.2,1.4,1.4,2.7l-1.2,2.1l1.7,1c1.3,0.8,1.7,1.7,1.2,2.7c-0.6,1-1.5,1.1-2.7,0.4l-1.9-1.1
		c-0.2,0.4-0.5,0.8-0.8,1.3c-0.8,1.3-1.6,2.8-2.3,4c-0.8,1.4-0.7,2.3,0.5,3C376.7,605.4,377.4,605.9,376.9,606.9z"/>
	<path class="st16" d="M381.1,602.8c2.5-4.4,5.9-5.5,10-3.1c4.5,2.6,4.5,6.6,1.5,10.8c-0.2,0.2-0.4,0.3-0.6,0.2l-7.6-4.4
		c-1.3,2.5-0.8,3.6,0.5,4.4c0.6,0.4,1.2,0.5,1.7,0.5c1.3-0.1,1.7-0.7,2.8-0.1c1.2,0.7,1.7,1.9,0.8,2.8c-1.6,1.4-3.9,1.2-6.8-0.5
		C378.9,610.9,378.4,607.5,381.1,602.8z M389.6,606.3c1.2-1.9,1.1-3.2-0.3-4c-1.2-0.7-2.6-0.3-3.7,1.7L389.6,606.3z"/>
	<path class="st16" d="M407.4,610.9c-0.2,0.6-0.5,1.2-1,1.7c-1,1.1-2,1-2.4,0.4c-0.3-0.3-0.5-0.5-0.9-0.7c-1.1-0.6-2.2-0.3-3.4,0.7
		l-0.3,0.6c-0.3,0.5-0.6,1.1-0.9,1.6c-0.6,1-1.1,2-1.7,3c-0.7,1.4-1.8,1.7-3.2,0.9l-0.1,0c-1.3-0.8-1.6-1.9-0.9-3.2
		c0.9-1.5,1.8-3,2.7-4.6c0.9-1.6,1.7-3.1,2.6-4.6c0.8-1.3,1.9-1.6,3.1-0.9s1.6,1.6,1.1,2.7l-0.9,1.6l0,0.1c1.5-1.7,3.4-2.5,5-1.6
		c0.3,0.2,0.4,0.3,0.6,0.4C407.3,609.2,407.6,609.8,407.4,610.9z"/>
	<path class="st16" d="M409.2,623.6c1.7-3,5.1-3.1,10.4,0.1l0.5-0.8c1-1.7,0.8-2.6-0.2-3.2c-0.6-0.4-1.2-0.5-1.8-0.2
		c-1.3,0.7-1.8,1.2-2.9,0.6l-0.2-0.1c-1.3-0.8-1.9-2.1-0.7-3.2c1.6-1.5,4-1.4,7.5,0.6c3.6,2.1,4.4,4.7,2.6,7.9
		c-1.7,2.9-2.9,5-3.7,6.6c-0.7,1.4-1.8,1.7-3.1,1l-0.2-0.1c-1.2-0.7-1.8-1.3-1.6-1.7c0-0.2,0.1-0.4,0.2-0.6
		c-1.5,0.4-3.1,0.1-4.4-0.7C409.1,628.3,407.8,626.1,409.2,623.6z M417.3,627.8l1.2-2.2c-2.2-1.2-4.3-2.1-5.2-0.5
		c-0.5,0.9-0.3,1.9,0.8,2.6C415.3,628.3,416.3,628.3,417.3,627.8z"/>
	<path class="st16" d="M422.9,633c0.3-1.6,1.7-1.8,2.8-1.2l0.1,0c1.1,0.7,0.9,1.3,1.1,2.7c0.1,0.5,0.4,0.8,1.2,1.3
		c1.5,0.9,2.3,0.6,2.8-0.1c1.8-3.1-7.1-4.3-3.9-9.9c1.6-2.7,4.2-3,8-0.8c2.9,1.7,4.1,3.5,3.6,5.4c-0.4,1.5-1.7,1.8-2.8,1.1l-0.1-0.1
		c-1.1-0.7-0.9-1.3-1.1-2.5c-0.1-0.4-0.5-0.8-1.2-1.2c-1.3-0.7-1.9-0.5-2.4,0.2c-1.7,2.9,7.2,4.3,4.1,9.6c-1.7,2.9-4.6,3.3-8.4,1.1
		C423.6,636.8,422.5,635,422.9,633z"/>
	<path class="st16" d="M442.3,642.7c1.7-3,5.1-3.1,10.4,0.1l0.5-0.8c1-1.7,0.8-2.6-0.2-3.2c-0.6-0.4-1.2-0.5-1.8-0.2
		c-1.3,0.7-1.8,1.2-2.9,0.6l-0.2-0.1c-1.3-0.8-1.9-2.1-0.7-3.2c1.6-1.5,4-1.4,7.5,0.6c3.6,2.1,4.4,4.7,2.6,7.9
		c-1.7,2.9-2.9,5-3.7,6.6c-0.7,1.4-1.8,1.7-3.1,1l-0.2-0.1c-1.2-0.7-1.8-1.3-1.6-1.7c0-0.2,0.1-0.4,0.2-0.6
		c-1.5,0.4-3.1,0.1-4.4-0.7C442.1,647.4,440.8,645.2,442.3,642.7z M450.4,646.9l1.2-2.2c-2.2-1.2-4.3-2.1-5.2-0.5
		c-0.5,0.9-0.3,1.9,0.8,2.6C448.4,647.4,449.4,647.4,450.4,646.9z"/>
	<path class="st16" d="M478.3,668L478.3,668c-1.4-0.8-1.7-1.9-0.9-3.3c1.3-2.2,2.5-4.2,3.4-5.9c0.9-1.6,0.7-2.4-0.4-3
		c-0.9-0.5-1.8-0.4-2.6,0.1l-0.5,0.9c-1,1.6-2.1,3.7-3.3,5.9c-0.8,1.3-1.9,1.6-3.2,0.9l-0.1,0c-1.3-0.8-1.6-1.9-0.8-3.2
		c1.3-2.2,2.5-4.2,3.4-5.9c0.9-1.6,0.7-2.4-0.4-3c-0.9-0.5-1.9-0.4-2.8,0.2l-1.1,2c-0.9,1.6-1.8,3.1-2.7,4.6
		c-0.7,1.3-1.9,1.6-3.2,0.9l-0.2-0.1c-1.3-0.8-1.6-1.9-0.8-3.2c0.9-1.5,1.8-3,2.7-4.6c0.9-1.6,1.7-3.1,2.6-4.6
		c0.7-1.3,1.9-1.6,3.2-0.9c1.3,0.8,1.8,1.6,1.4,2.3c-0.2,0.3-0.4,0.7-0.7,1.1l0,0c1.9-1.2,3.7-1.1,5.6-0.1c1.7,1,2.4,2.4,2,4.4
		l0.1,0c1.9-1.2,3.7-1.1,5.6-0.1c2.5,1.5,2.9,3.8,0.5,7.7c-1,1.6-2.1,3.7-3.3,5.9C480.8,668.5,479.6,668.8,478.3,668z"/>
	<path class="st16" d="M486.5,663.6c2.5-4.4,5.9-5.5,10-3.1c4.5,2.6,4.5,6.6,1.5,10.8c-0.2,0.2-0.4,0.3-0.6,0.2l-7.6-4.4
		c-1.3,2.5-0.8,3.6,0.5,4.4c0.6,0.4,1.2,0.5,1.7,0.5c1.3-0.1,1.7-0.7,2.8-0.1c1.2,0.7,1.7,1.9,0.8,2.8c-1.6,1.4-3.9,1.2-6.8-0.5
		C484.3,671.8,483.8,668.4,486.5,663.6z M495,667.2c1.2-1.9,1.1-3.2-0.3-4c-1.2-0.7-2.6-0.3-3.7,1.7L495,667.2z"/>
	<path class="st16" d="M514.3,688.8L514.3,688.8c-1.4-0.8-1.7-1.9-0.9-3.3c1.3-2.2,2.5-4.2,3.4-5.9c0.9-1.6,0.7-2.4-0.4-3
		c-0.9-0.5-1.8-0.4-2.6,0.1l-0.5,0.9c-1,1.6-2.1,3.7-3.3,5.9c-0.8,1.3-1.9,1.6-3.2,0.9l-0.1,0c-1.3-0.8-1.6-1.9-0.8-3.2
		c1.3-2.2,2.5-4.2,3.4-5.9c0.9-1.6,0.7-2.4-0.4-3c-0.9-0.5-1.9-0.4-2.8,0.2l-1.1,2c-0.9,1.6-1.8,3.1-2.7,4.6
		c-0.7,1.3-1.9,1.6-3.2,0.9l-0.2-0.1c-1.3-0.8-1.6-1.9-0.8-3.2c0.9-1.5,1.8-3,2.7-4.6c0.9-1.6,1.7-3.1,2.6-4.6
		c0.7-1.3,1.9-1.6,3.2-0.9c1.3,0.8,1.8,1.6,1.4,2.3c-0.2,0.3-0.4,0.7-0.7,1.1l0,0c1.9-1.2,3.7-1.1,5.6-0.1c1.7,1,2.4,2.4,2,4.4
		l0.1,0c1.9-1.2,3.7-1.1,5.6-0.1c2.5,1.5,2.9,3.8,0.5,7.7c-1,1.6-2.1,3.7-3.3,5.9C516.8,689.3,515.7,689.6,514.3,688.8z"/>
	<path class="st16" d="M535,691.6c-2.7,4.7-6.4,5.8-9.2,4.2c-1.5-0.9-2.3-2.3-2.4-3.8c-0.2,0.1-0.5,0.2-0.8,0.2
		c-1.2,0.3-1.9,0.3-2.6-0.1c-0.6-0.4-0.6-1.3,0.2-2.6c1.4-2.3,2.7-4.5,4.1-6.9c1.2-2.1,2.4-4.3,3.6-6.4c0.8-1.3,1.9-1.6,3.2-0.9l0,0
		c1.3,0.8,1.6,1.9,0.9,3.2c-0.6,1-1.1,1.9-1.7,2.9c1.1-0.2,2.2-0.1,3.3,0.6C536.5,683.7,537.9,686.6,535,691.6z M531,689.6
		c1.5-2.5,1.1-4-0.4-4.8c-0.7-0.4-1.3-0.5-2-0.4l-0.4,0.7c-0.9,1.6-1.8,3.1-2.6,4.6c-0.3,1.1,0.2,1.8,1,2.3
		C527.8,692.6,529.3,692.5,531,689.6z"/>
	<path class="st16" d="M536.7,692.6c2.5-4.4,5.9-5.5,10-3.1c4.5,2.6,4.5,6.6,1.5,10.8c-0.2,0.2-0.4,0.3-0.6,0.2l-7.6-4.4
		c-1.3,2.5-0.8,3.6,0.5,4.4c0.6,0.4,1.2,0.5,1.7,0.5c1.3-0.1,1.7-0.7,2.8-0.1c1.2,0.7,1.7,1.9,0.8,2.8c-1.6,1.4-3.9,1.2-6.8-0.5
		C534.5,700.8,534,697.3,536.7,692.6z M545.2,696.1c1.2-1.9,1.1-3.2-0.3-4c-1.2-0.7-2.6-0.3-3.7,1.7L545.2,696.1z"/>
	<path class="st16" d="M563,700.8c-0.1,0.6-0.5,1.2-1,1.7c-1,1.1-2,1-2.4,0.4c-0.3-0.3-0.5-0.5-0.9-0.7c-1.1-0.6-2.2-0.3-3.4,0.7
		l-0.3,0.6c-0.3,0.5-0.6,1.1-0.9,1.6c-0.6,1-1.1,2-1.7,3c-0.7,1.4-1.8,1.7-3.2,0.9l-0.1,0c-1.3-0.8-1.6-1.9-0.9-3.2
		c0.9-1.5,1.8-3,2.7-4.6c0.9-1.6,1.7-3.1,2.6-4.6c0.8-1.3,1.9-1.6,3.1-0.9c1.2,0.7,1.6,1.6,1.1,2.7l-0.9,1.6l0,0.1
		c1.5-1.7,3.4-2.5,5-1.6c0.3,0.2,0.4,0.3,0.6,0.4C562.9,699,563.2,699.7,563,700.8z"/>
</g>
<g class="st15">
	<path class="st16" d="M275,580.2c2.6-4.6,6-5.7,10.1-3.3c4.1,2.4,4.7,5.8,2.1,10.4c-2.7,4.6-6,5.7-10,3.4
		C273.1,588.2,272.3,584.8,275,580.2z M283.1,584.9c1.7-2.9,1.7-4.3,0.3-5.1c-1.5-0.9-2.7-0.2-4.3,2.8c-1.8,3.2-1.4,4.4-0.2,5.1
		C280,588.3,281.3,588,283.1,584.9z"/>
	<path class="st16" d="M301.3,585c-1.1-0.7-2.3-0.6-3.1,0.9l-0.6,1.1l1.7,1c1.3,0.8,1.7,1.7,1.2,2.7c-0.6,1-1.6,1.1-2.8,0.4
		l-1.9-1.1c-0.2,0.4-0.4,0.8-0.6,1.2c-1,1.7-1.9,3.4-2.9,5.1c-0.8,1.3-1.8,1.6-3.1,0.9c-1.2-0.7-1.5-1.8-0.8-3.2
		c1-1.7,1.9-3.4,2.9-5.1l0.6-1.1l-0.2-0.1c-1.3-0.8-1.7-1.7-1.1-2.7c0.6-1,1.3-1.3,2-0.9l1.1,0.6c0.2-0.5,0.5-0.9,0.7-1.3
		c2-3.7,4.9-3.8,8.2-1.9c0.4,0.2,0.8,0.5,1.1,0.8c1.1,0.9,1,2,0.3,3.1C303.3,586.3,302.6,585.9,301.3,585z"/>
	<path class="st16" d="M307.6,596.7c3.3-5.7,7.2-7.2,12-4.5c3.2,1.9,4.5,4.3,3.5,7.1c-0.5,1.5-1.9,1.7-3.2,0.9l-0.3-0.2
		c-1.2-0.7-1-1.5-0.8-3c0.1-0.7-0.3-1.2-1.1-1.7c-2-1.2-3.5-0.2-5.7,3.7c-2.4,4.2-1.7,6-0.1,6.9c1.1,0.6,2.2,0.8,2.6,0.2l1.1-1.8
		l-0.4-0.2c-1.3-0.8-1.7-1.7-1.2-2.7c0.6-1,1.6-1.1,2.9-0.4l2.2,1.3c1.3,0.8,1.6,1.9,0.9,3.2l-1.9,3.3c-0.6,1-1,1.5-1.8,1.8
		c-1.6,0.5-3.6,0.4-6.3-1.1C304.9,606.6,304.3,602.4,307.6,596.7z"/>
	<path class="st16" d="M319.8,610.3c1.7-3,5.1-3.1,10.4,0.1l0.5-0.8c1-1.7,0.8-2.6-0.2-3.2c-0.6-0.4-1.2-0.5-1.8-0.2
		c-1.3,0.7-1.8,1.2-2.9,0.6l-0.2-0.1c-1.3-0.8-1.9-2.1-0.7-3.2c1.6-1.5,4-1.4,7.5,0.6c3.6,2.1,4.4,4.7,2.6,7.9
		c-1.7,2.9-2.9,5-3.7,6.6c-0.7,1.4-1.8,1.7-3.1,1l-0.2-0.1c-1.2-0.7-1.8-1.3-1.6-1.7c0-0.2,0.1-0.4,0.2-0.6
		c-1.5,0.4-3.1,0.1-4.4-0.7C319.6,615,318.4,612.8,319.8,610.3z M327.9,614.6l1.2-2.2c-2.2-1.2-4.3-2.1-5.2-0.5
		c-0.5,0.9-0.3,1.9,0.8,2.6C325.9,615,326.9,615,327.9,614.6z"/>
	<path class="st16" d="M335.7,615.3c2.6-4.6,6-5.7,10.3-3.3c2.9,1.7,3.9,3.9,3.1,6.6c-0.5,1.5-1.7,1.9-2.9,1.2c-1.2-0.7-1.2-1.5-1-3
		c0.1-0.6-0.3-1.1-1.1-1.6c-1.5-0.9-2.7-0.3-4.2,2.5c-1.8,3.1-1.4,4.4-0.1,5.1c0.7,0.4,1.2,0.5,1.7,0.3c1.4-0.6,1.9-1.2,3.1-0.5
		c1.1,0.7,1.5,1.9,0.5,2.9c-1.8,1.8-4.2,1.8-7.1,0.2C333.7,623.1,333.1,619.8,335.7,615.3z"/>
	<path class="st16" d="M355.5,635.4L355.5,635.4c-1.4-0.8-1.7-1.9-0.9-3.3c1.3-2.2,2.5-4.2,3.4-5.9c0.9-1.6,0.7-2.4-0.4-3
		c-0.9-0.5-1.9-0.4-2.8,0.3c-1.3,2.2-2.5,4.4-3.8,6.5c-0.8,1.3-1.9,1.6-3.2,0.9l-0.2-0.1c-1.3-0.8-1.6-1.9-0.9-3.2
		c1.4-2.3,2.7-4.5,4.1-6.9c1.2-2.2,2.4-4.2,3.6-6.4c0.8-1.3,1.9-1.6,3.2-0.9l0.2,0.1c1.3,0.8,1.7,1.7,1.1,2.8
		c-0.4,0.6-0.7,1.2-0.9,1.6c-0.6,1.1-1.2,2.1-2,3l0,0.1c1.9-1.2,3.7-1.1,5.6-0.1c2.5,1.5,2.9,3.8,0.5,7.7c-1,1.6-2.1,3.7-3.3,5.9
		C357.9,635.9,356.8,636.2,355.5,635.4z"/>
	<path class="st16" d="M373.7,641.8c-3.7,6.6-8.3,7.4-13.2,4.6c-0.6-0.3-1.1-0.7-1.5-1c-1.1-0.9-1.1-2-0.3-3c0.7-1,1.7-1,3.1-0.2
		c3.6,2.3,5.7,2.1,8.1-2l-0.1-0.1c-1.7,1.5-3.9,1.7-5.7,0.7c-2.6-1.5-3.3-3.6-1.2-7.2c1.3-2.2,2.5-4.3,3.8-6.6
		c0.8-1.3,1.9-1.6,3.2-0.9l0.1,0.1c1.3,0.8,1.6,1.9,0.9,3.2c-1.1,1.9-2.2,3.8-3.4,5.7c-0.8,1.4-0.5,2.4,0.4,3
		c1.1,0.6,2.3,0.1,3.4-1.7c1-1.7,2-3.4,2.9-5.1c0.7-1.3,1.9-1.6,3.2-0.9l0.1,0.1c1.3,0.8,1.6,1.9,0.8,3.2c-1,1.7-2,3.3-3,5
		C374.8,639.8,374.3,640.8,373.7,641.8z"/>
	<path class="st16" d="M375.9,644.5l1.2-2c2-3.6,3.2-5.7,4.1-7.2c0.7-1.3,1.9-1.6,3.2-0.8l0,0c1.3,0.8,1.6,1.9,0.9,3.2
		c-1,1.7-2.1,3.6-3,5.1c-0.8,1.4-1.6,2.7-2.4,4.1c-0.7,1.3-1.8,1.6-3.2,0.9C375.4,646.9,375.1,645.8,375.9,644.5z M384,629.3
		c0.8-1.4,1.9-1.6,3.7-0.6c1.8,1,2.1,2,1.3,3.5c-0.8,1.4-1.9,1.6-3.7,0.6C383.5,631.7,383.2,630.7,384,629.3z"/>
	<path class="st16" d="M382.5,648.3c1.4-2.3,2.7-4.5,4.1-6.9c1.2-2.1,2.4-4.3,3.6-6.4c0.8-1.3,1.9-1.6,3.2-0.9l0.1,0.1
		c1.3,0.8,1.6,1.9,0.9,3.2c-1.2,2.1-2.5,4.3-3.7,6.4c-1.4,2.4-2.6,4.6-4,6.9c-0.8,1.3-1.9,1.6-3.2,0.9l-0.1-0.1
		C382.1,650.8,381.7,649.6,382.5,648.3z"/>
	<path class="st16" d="M389.5,650.6c1.7-3,5.1-3.1,10.4,0.1l0.5-0.8c1-1.7,0.8-2.6-0.2-3.2c-0.6-0.4-1.2-0.5-1.8-0.2
		c-1.3,0.7-1.8,1.2-2.9,0.6l-0.2-0.1c-1.3-0.8-1.9-2.1-0.7-3.2c1.6-1.5,4-1.4,7.5,0.6c3.6,2.1,4.4,4.7,2.6,7.9
		c-1.7,2.9-2.9,5-3.7,6.6c-0.7,1.4-1.8,1.7-3.1,1l-0.2-0.1c-1.2-0.7-1.8-1.3-1.6-1.7c0-0.2,0.1-0.4,0.2-0.6
		c-1.5,0.4-3.1,0.1-4.4-0.7C389.3,655.3,388.1,653.1,389.5,650.6z M397.6,654.8l1.2-2.2c-2.2-1.2-4.3-2.1-5.2-0.5
		c-0.5,0.9-0.3,1.9,0.8,2.6C395.6,655.3,396.6,655.3,397.6,654.8z"/>
	<path class="st16" d="M412,668.1L412,668.1c-1.4-0.8-1.7-1.9-0.9-3.3c1.3-2.2,2.5-4.2,3.4-5.9c0.9-1.6,0.7-2.4-0.4-3
		c-0.9-0.5-1.9-0.4-2.8,0.2c-0.4,0.6-0.8,1.3-1.2,2c-0.9,1.5-1.8,3-2.6,4.6c-0.8,1.3-1.9,1.6-3.2,0.9l-0.1-0.1
		c-1.3-0.8-1.6-1.9-0.9-3.2c0.9-1.5,1.8-3,2.7-4.5c0.9-1.6,1.8-3.1,2.6-4.6c0.8-1.3,1.9-1.6,3.2-0.9c1.3,0.7,1.8,1.6,1.3,2.3
		c-0.2,0.3-0.4,0.7-0.7,1.1l0.1,0c1.9-1.2,3.7-1.1,5.6-0.1c2.5,1.5,2.9,3.8,0.5,7.7c-1,1.6-2.1,3.7-3.3,5.9
		C414.5,668.5,413.3,668.8,412,668.1z"/>
	<path class="st16" d="M437.4,662.1c-1.8,3.1-3.6,6.1-5.4,9.2c-0.8,1.4-1.6,2.7-2.3,4.1c-0.7,1.3-1.7,1.7-2.8,1.1
		c-1.1-0.6-1.6-1.2-1.5-1.8c0.1-0.3,0.2-0.5,0.2-0.8c-1.1,0.5-2.7,0.7-4.3-0.3c-2.9-1.7-4.3-4.5-1.4-9.6c2.7-4.7,6.4-5.8,9.2-4.2
		c1.3,0.8,2,2.1,2,3.5c0.7-1.3,1.4-2.5,2.1-3.8c0.8-1.3,1.9-1.6,3.2-0.9l0.1,0.1C437.8,659.7,438.2,660.8,437.4,662.1z M426.5,671.3
		c0.4-0.8,0.9-1.5,1.4-2.3c0.6-0.9,1.1-1.8,1.6-2.7c0.3-1.1-0.3-1.9-1.2-2.4c-1.2-0.7-2.7-0.6-4.4,2.3c-1.5,2.5-1.1,4,0.4,4.8
		C425.1,671.5,425.8,671.5,426.5,671.3z"/>
</g>
<g class="st15">
	<path class="st16" d="M800.5,796.4c0.4-1.5,1.8-1.8,3-1.1l0.2,0.1c1.1,0.7,1,1.5,1.3,2.8c0.2,0.5,0.6,1,1.4,1.4
		c1.3,0.7,2.2,0.6,2.7-0.4c1.9-3.3-6.8-5.9-3.4-11.7c2.1-3.6,5.1-3.7,8.9-1.5c3.7,2.2,4.7,4.8,3.3,7.8c-0.7,1.4-1.9,1.6-3.1,0.9
		s-1.2-1.6-0.7-3.2c0.4-1.1-0.1-1.9-1.3-2.5c-1.4-0.8-2.3-0.3-2.9,0.9c-2.2,3.9,7.2,6,3.9,11.8c-1.9,3.3-5.1,3.7-9.4,1.3
		C801.1,801.1,799.8,798.8,800.5,796.4z"/>
	<path class="st16" d="M822.8,810.8c-0.5,1.1-1.4,1.6-2.5,1.2c-0.5-0.2-1.1-0.5-1.7-0.8c-3-1.7-4.2-4.1-2.1-7.5
		c0.8-1.4,1.7-3,2.6-4.5l0.7-1.2l0,0c-1.3-0.8-1.7-1.7-1.2-2.7c0.6-1,1.3-1.3,1.9-0.9l1,0.6c0.2-0.4,0.4-0.8,0.7-1.2
		c0.7-1.2,1.7-1.6,3-1.3c1.6,0.3,2.2,1.4,1.4,2.7l-1.2,2.1l1.7,1c1.3,0.8,1.7,1.7,1.2,2.7s-1.5,1.1-2.7,0.4l-1.9-1.1
		c-0.2,0.4-0.5,0.8-0.8,1.3c-0.8,1.3-1.6,2.8-2.3,4c-0.8,1.4-0.7,2.3,0.5,3C822.6,809.2,823.3,809.8,822.8,810.8z"/>
	<path class="st16" d="M827,806.6c2.5-4.4,5.9-5.5,10-3.1c4.5,2.6,4.5,6.6,1.5,10.8c-0.2,0.2-0.4,0.3-0.6,0.2l-7.6-4.4
		c-1.3,2.5-0.8,3.6,0.5,4.4c0.6,0.4,1.2,0.5,1.7,0.5c1.3-0.1,1.7-0.7,2.8-0.1c1.2,0.7,1.7,1.9,0.8,2.8c-1.6,1.4-3.9,1.2-6.8-0.5
		C824.8,814.8,824.3,811.3,827,806.6z M835.5,810.1c1.2-1.9,1.1-3.2-0.3-4c-1.2-0.7-2.6-0.3-3.7,1.7L835.5,810.1z"/>
	<path class="st16" d="M853.5,821.9c-2.7,4.7-6.4,5.8-9.2,4.2c-1.5-0.9-2.1-2.4-2-4.1l-0.3,0.2c-0.7,1.6-1.5,3.2-2.3,4.7
		c-0.7,1.3-1.9,1.6-3.2,0.9l0,0c-1.3-0.8-1.6-1.9-0.9-3.2c1.9-3.2,3.7-6.2,5.6-9.5c0.9-1.6,1.7-3.1,2.6-4.6c0.7-1.3,1.9-1.6,3.2-0.9
		l0,0c1.3,0.8,1.9,1.4,1.7,1.7l-0.3,0.6c1.1-0.3,2.4-0.3,3.7,0.5C855,814,856.4,816.9,853.5,821.9z M849.5,819.9
		c1.5-2.5,1.1-4-0.4-4.8c-0.9-0.5-1.6-0.5-2.5-0.2c-0.1,0.3-0.3,0.6-1.5,2.6c-0.3,0.5-0.6,1-0.9,1.5l0,0c-0.8,1.6-0.2,2.6,0.8,3.2
		C846.3,822.9,847.8,822.8,849.5,819.9z"/>
	<path class="st16" d="M859.1,831.9l0.1-0.1c0.6-1.1,1.5-1.6,2.7-1.7c3.5-0.2,9.2-0.8,11-3.9c0.7-1.2,0.5-2.2-0.9-3
		c-1.3-0.8-2.3-0.5-3.4,1c-0.9,1.3-1.9,1.7-3.2,1c-1.3-0.7-1.7-1.9-0.9-3.2c2.3-3.4,5.6-4.1,9-2.2c4.1,2.3,5.1,5.3,3.1,8.7
		c-2.6,4.5-8.8,4.4-11.9,3.8l5.4,3.1c1.3,0.8,1.6,1.9,0.9,3.1c-0.7,1.3-1.9,1.6-3.2,0.8l-7.8-4.5C858.8,834.1,858.4,833,859.1,831.9
		z"/>
	<path class="st16" d="M883,836.9c0.8-0.9,1.8-1,3-0.3l3.1,1.8c1.4,0.8,1.8,1.8,1.1,2.6c-0.8,0.9-1.8,1-3,0.3l-3.1-1.8
		C882.7,838.7,882.2,837.7,883,836.9z"/>
	<path class="st16" d="M904.7,856.3c1.3,0.8,1.7,1.7,1.1,2.8c-0.6,1.1-1.7,1.2-3,0.5l-6.6-3.8c-1.3-0.8-1.6-1.9-0.8-3.2
		c1.2-2.1,2.4-4.2,3.6-6.3c1.2-2.1,2.4-4.2,3.6-6.3c0.7-1.3,1.9-1.6,3.2-0.9l6.4,3.7c1.3,0.8,1.7,1.8,1.1,2.8
		c-0.6,1.1-1.7,1.2-3,0.5c-1.3-0.8-2.6-1.5-3.9-2.3l-2.1,3.7c1,0.6,2,1.1,3,1.7c1.3,0.8,1.7,1.8,1.1,2.8c-0.6,1.1-1.7,1.2-3,0.5
		c-0.9-0.6-1.9-1.2-2.9-1.8l-2,3.4C901.9,854.7,903.4,855.5,904.7,856.3z"/>
	<path class="st16" d="M908.6,860l0.1-0.1c1.8-2.6,3.6-3.7,5.4-3.6l0-0.1c-0.8-1.5-1.1-3.1-0.1-5.7c0.5-1.2,1.5-1.3,2.9-0.5l0.4,0.2
		c1.2,0.7,1.6,1.8,1,3.3c-0.9,2.4-0.8,3.2,0.1,3.8c1.1,0.7,1.9,0.3,3.2-1.7c0.9-1.4,2-1.8,3.3-1l0.1,0.1c1.4,0.8,1.7,1.8,1,2.8
		c-1.9,2.1-3.2,2.8-4.9,2.8l0,0.1c0.9,1.5,0.6,3.5-0.4,6.5l-0.1,0.1c-0.7,1.4-1.8,1.8-3.1,1l-0.3-0.2c-1.3-0.7-1.5-1.9-0.9-3.3
		c1.2-2.6,1.1-3.7-0.3-4.5c-1-0.6-2-0.1-3.5,2.2c-0.9,1.3-2,1.7-3.3,1l0,0C907.9,862.4,907.7,861.2,908.6,860z"/>
	<path class="st16" d="M938.2,870.8c-2.7,4.7-6.4,5.8-9.2,4.2c-1.5-0.9-2.1-2.4-2-4.1l-0.3,0.2c-0.7,1.6-1.5,3.2-2.3,4.7
		c-0.7,1.3-1.9,1.6-3.2,0.9l0,0c-1.3-0.8-1.6-1.9-0.9-3.2c1.9-3.2,3.7-6.2,5.6-9.5c0.9-1.6,1.7-3.1,2.6-4.6c0.7-1.3,1.9-1.6,3.2-0.9
		l0,0c1.3,0.8,1.9,1.4,1.7,1.7l-0.3,0.6c1.1-0.3,2.4-0.3,3.7,0.5C939.8,862.9,941.1,865.8,938.2,870.8z M934.2,868.8
		c1.5-2.5,1.1-4-0.4-4.8c-0.9-0.5-1.6-0.5-2.5-0.2c-0.1,0.3-0.3,0.6-1.5,2.6c-0.3,0.5-0.6,1-0.9,1.5l0,0c-0.8,1.6-0.2,2.6,0.8,3.2
		C931,871.8,932.5,871.8,934.2,868.8z"/>
	<path class="st16" d="M937.6,876.8c1.4-2.3,2.7-4.5,4.1-6.9c1.2-2.1,2.4-4.3,3.6-6.4c0.8-1.3,1.9-1.6,3.2-0.9l0.1,0.1
		c1.3,0.8,1.6,1.9,0.9,3.2c-1.2,2.1-2.5,4.3-3.7,6.4c-1.4,2.4-2.6,4.6-4,6.9c-0.8,1.3-1.9,1.6-3.2,0.9l-0.1-0.1
		C937.1,879.3,936.8,878.2,937.6,876.8z"/>
	<path class="st16" d="M946.5,876c2.6-4.6,6-5.7,10.1-3.3c4.1,2.3,4.7,5.8,2.1,10.4c-2.7,4.6-6,5.7-10,3.4
		C944.6,884,943.9,880.6,946.5,876z M954.7,880.6c1.7-2.9,1.7-4.3,0.3-5.1c-1.5-0.9-2.7-0.2-4.3,2.8c-1.8,3.2-1.4,4.4-0.2,5.1
		C951.5,884.1,952.8,883.8,954.7,880.6z"/>
	<path class="st16" d="M973,883.9c-0.2,0.6-0.5,1.2-1,1.7c-1,1.1-2,1-2.4,0.4c-0.3-0.3-0.5-0.5-0.9-0.7c-1.1-0.6-2.2-0.3-3.4,0.7
		l-0.3,0.6c-0.3,0.5-0.6,1.1-0.9,1.6c-0.6,1-1.1,2-1.7,3c-0.7,1.4-1.8,1.7-3.2,0.9l-0.1,0c-1.3-0.8-1.6-1.9-0.9-3.2
		c0.9-1.5,1.8-3,2.7-4.6c0.9-1.6,1.7-3.1,2.6-4.6c0.8-1.3,1.9-1.6,3.1-0.9s1.6,1.6,1.1,2.7l-0.9,1.6l0,0.1c1.5-1.7,3.4-2.5,5-1.6
		c0.3,0.2,0.4,0.3,0.6,0.4C972.9,882.2,973.3,882.8,973,883.9z"/>
	<path class="st16" d="M971,889.8c2.5-4.4,5.9-5.5,10-3.1c4.5,2.6,4.5,6.6,1.5,10.8c-0.2,0.2-0.4,0.3-0.6,0.2l-7.6-4.4
		c-1.3,2.5-0.8,3.6,0.5,4.4c0.6,0.4,1.2,0.5,1.7,0.5c1.3-0.1,1.7-0.7,2.8-0.1c1.2,0.7,1.7,1.9,0.8,2.8c-1.6,1.4-3.9,1.2-6.8-0.5
		C968.8,897.9,968.3,894.5,971,889.8z M979.5,893.3c1.2-1.9,1.1-3.2-0.3-4c-1.2-0.7-2.6-0.3-3.7,1.7L979.5,893.3z"/>
	<path class="st16" d="M997,911.3c-0.5,1.1-1.4,1.6-2.5,1.2c-0.5-0.2-1.1-0.5-1.7-0.8c-3-1.7-4.2-4.1-2.1-7.5c0.8-1.4,1.7-3,2.6-4.5
		l0.7-1.2l0,0c-1.3-0.8-1.7-1.7-1.2-2.7c0.6-1,1.3-1.3,1.9-0.9l1,0.6c0.2-0.4,0.4-0.8,0.7-1.2c0.7-1.2,1.7-1.6,3-1.3
		c1.6,0.3,2.2,1.4,1.4,2.7l-1.2,2.1l1.7,1c1.3,0.8,1.7,1.7,1.2,2.7c-0.6,1-1.5,1.1-2.7,0.4l-1.9-1.1c-0.2,0.4-0.5,0.8-0.8,1.3
		c-0.8,1.3-1.6,2.8-2.3,4c-0.8,1.4-0.7,2.3,0.5,3C996.7,909.8,997.5,910.3,997,911.3z"/>
	<path class="st16" d="M1007.5,919.9L1007.5,919.9c-1.4-0.8-1.7-1.9-0.9-3.3c1.3-2.2,2.5-4.2,3.4-5.9c0.9-1.6,0.7-2.4-0.4-3
		c-0.9-0.5-1.9-0.4-2.8,0.3c-1.3,2.2-2.5,4.4-3.8,6.5c-0.8,1.3-1.9,1.6-3.2,0.9l-0.2-0.1c-1.3-0.8-1.6-1.9-0.9-3.2
		c1.4-2.3,2.7-4.5,4.1-6.9c1.2-2.2,2.4-4.2,3.6-6.4c0.8-1.3,1.9-1.6,3.2-0.9l0.2,0.1c1.3,0.8,1.7,1.7,1.1,2.8
		c-0.4,0.6-0.7,1.2-0.9,1.6c-0.6,1.1-1.2,2.1-2,3l0,0.1c1.9-1.2,3.7-1.1,5.6-0.1c2.5,1.5,2.9,3.8,0.5,7.7c-1,1.6-2.1,3.7-3.3,5.9
		C1010,920.4,1008.8,920.7,1007.5,919.9z"/>
	<path class="st16" d="M1015.7,915.5c2.5-4.4,5.9-5.5,10-3.1c4.5,2.6,4.5,6.6,1.5,10.8c-0.2,0.2-0.4,0.3-0.6,0.2l-7.6-4.4
		c-1.3,2.5-0.8,3.6,0.5,4.4c0.6,0.4,1.2,0.5,1.7,0.5c1.3-0.1,1.7-0.7,2.8-0.1c1.2,0.7,1.7,1.9,0.8,2.8c-1.6,1.4-3.9,1.2-6.8-0.5
		C1013.5,923.7,1012.9,920.3,1015.7,915.5z M1024.1,919.1c1.2-1.9,1.1-3.2-0.3-4c-1.2-0.7-2.6-0.3-3.7,1.7L1024.1,919.1z"/>
	<path class="st16" d="M1053.7,927.2c-2.4,4.2-4.8,8.3-7.2,12.5c-0.7,1.3-1.9,1.6-3.2,0.9l-0.4-0.2c-1.1-0.7-1.6-1.5-1.5-2.9
		l0.9-12.3l0,0c-1.9,3.4-3.3,6.2-4.8,9.2c-0.7,1.4-1.8,1.8-3,1.1c-1.2-0.7-1.5-1.8-0.7-3.1c2.4-4.2,4.8-8.3,7.2-12.5
		c0.7-1.3,1.9-1.6,3.2-0.9l1.2,0.7c1.1,0.7,1.6,1.5,1.5,2.9l-0.8,9.9l0,0c1.4-2.7,2.7-5,3.8-7.4c0.7-1.4,1.8-1.8,3-1.1
		C1054.2,924.8,1054.5,925.9,1053.7,927.2z"/>
	<path class="st16" d="M1065.1,935.7c-1.3-0.8-2.7-1.6-4.1-2.5l-2.1,3.7c1.1,0.6,2.2,1.2,3.3,1.8c1.3,0.8,1.7,1.8,1.1,2.8
		c-0.6,1.1-1.7,1.2-3,0.5c-1-0.6-2.1-1.3-3.2-1.9c-0.8,1.4-1.7,2.9-2.5,4.3c-0.7,1.3-1.9,1.6-3.2,0.9l-0.4-0.2
		c-1.3-0.8-1.6-1.9-0.8-3.2c1.2-2.1,2.4-4.2,3.6-6.3s2.4-4.2,3.6-6.3c0.7-1.3,1.9-1.6,3.2-0.9l6.6,3.8c1.3,0.8,1.7,1.8,1,2.9
		C1067.5,936.3,1066.4,936.5,1065.1,935.7z"/>
	<path class="st16" d="M1079.7,943.8c-0.8-0.5-1.4-0.9-2.2-1.3l-2.9,5.1c-1.2,2.1-2.4,4.2-3.6,6.3c-0.7,1.3-1.9,1.6-3.2,0.9
		l-0.4-0.2c-1.3-0.8-1.6-1.9-0.9-3.2c1.2-2.1,2.5-4.1,3.7-6.2c1-1.7,1.9-3.4,2.9-5.1c-0.7-0.4-1.4-0.8-2.1-1.2
		c-1.3-0.8-1.7-1.8-1.1-2.8c0.6-1,1.6-1.2,3-0.4l8.8,5.1c1.3,0.8,1.7,1.7,1.1,2.8C1082.1,944.4,1081,944.5,1079.7,943.8z"/>
</g>
<g class="st15">
	<path class="st16" d="M785.4,821.3c2.6-4.6,6-5.7,10.3-3.3c2.9,1.7,3.9,3.9,3.1,6.6c-0.5,1.5-1.7,1.9-2.9,1.2c-1.2-0.7-1.2-1.5-1-3
		c0.1-0.6-0.3-1.1-1.1-1.6c-1.5-0.9-2.7-0.3-4.2,2.5c-1.8,3.1-1.4,4.4-0.1,5.1c0.7,0.4,1.2,0.5,1.7,0.3c1.4-0.6,1.9-1.2,3.1-0.5
		c1.1,0.7,1.5,1.9,0.5,2.9c-1.8,1.8-4.2,1.8-7.1,0.2C783.4,829.2,782.8,825.9,785.4,821.3z"/>
	<path class="st16" d="M798.6,828.9c2.6-4.6,6-5.7,10.1-3.3c4.1,2.3,4.7,5.8,2.1,10.4c-2.7,4.6-6,5.7-10,3.4
		C796.7,836.9,796,833.5,798.6,828.9z M806.7,833.6c1.7-2.9,1.7-4.3,0.3-5.1c-1.5-0.9-2.7-0.2-4.3,2.8c-1.8,3.2-1.4,4.4-0.2,5.1
		C803.6,837,804.9,836.8,806.7,833.6z"/>
	<path class="st16" d="M810.3,841.7c1.4-2.3,2.7-4.5,4.1-6.9c1.2-2.1,2.4-4.3,3.6-6.4c0.8-1.3,1.9-1.6,3.2-0.9l0.1,0.1
		c1.3,0.8,1.6,1.9,0.9,3.2c-1.2,2.1-2.5,4.3-3.7,6.4c-1.4,2.4-2.6,4.6-4,6.9c-0.8,1.3-1.9,1.6-3.2,0.9l-0.1-0.1
		C809.9,844.2,809.6,843,810.3,841.7z"/>
	<path class="st16" d="M817.1,845.6c1.4-2.3,2.7-4.5,4.1-6.9c1.2-2.1,2.4-4.3,3.6-6.4c0.8-1.3,1.9-1.6,3.2-0.9l0.1,0.1
		c1.3,0.8,1.6,1.9,0.9,3.2c-1.2,2.1-2.5,4.3-3.7,6.4c-1.4,2.4-2.6,4.6-4,6.9c-0.8,1.3-1.9,1.6-3.2,0.9l-0.1-0.1
		C816.6,848.1,816.3,846.9,817.1,845.6z"/>
	<path class="st16" d="M826.2,844.5c2.5-4.4,5.9-5.5,10-3.1c4.5,2.6,4.5,6.6,1.5,10.8c-0.2,0.2-0.4,0.3-0.6,0.2l-7.6-4.4
		c-1.3,2.5-0.8,3.6,0.5,4.4c0.6,0.4,1.2,0.5,1.7,0.5c1.3-0.1,1.7-0.7,2.8-0.1c1.2,0.7,1.7,1.9,0.8,2.8c-1.6,1.4-3.9,1.2-6.8-0.5
		C824,852.6,823.5,849.2,826.2,844.5z M834.7,848c1.2-1.9,1.1-3.2-0.3-4c-1.2-0.7-2.6-0.3-3.7,1.7L834.7,848z"/>
	<path class="st16" d="M839.8,852.7c2.6-4.6,6-5.7,10.3-3.3c2.9,1.7,3.9,3.9,3.1,6.6c-0.5,1.5-1.7,1.9-2.9,1.2c-1.2-0.7-1.2-1.5-1-3
		c0.1-0.6-0.3-1.1-1.1-1.6c-1.5-0.9-2.7-0.3-4.2,2.5c-1.8,3.1-1.4,4.4-0.1,5.1c0.7,0.4,1.2,0.5,1.7,0.3c1.4-0.6,1.9-1.2,3.1-0.5
		c1.1,0.7,1.5,1.9,0.5,2.9c-1.8,1.8-4.2,1.8-7.1,0.2C837.8,860.6,837.2,857.3,839.8,852.7z"/>
	<path class="st16" d="M859.4,870.2c-0.5,1.1-1.4,1.6-2.5,1.2c-0.5-0.2-1.1-0.5-1.7-0.8c-3-1.7-4.2-4.1-2.1-7.5
		c0.8-1.4,1.7-3,2.6-4.5l0.7-1.2l0,0c-1.3-0.8-1.7-1.7-1.2-2.7c0.6-1,1.3-1.3,1.9-0.9l1,0.6c0.2-0.4,0.4-0.8,0.7-1.2
		c0.7-1.2,1.7-1.6,3-1.3c1.6,0.3,2.2,1.4,1.4,2.7l-1.2,2.1l1.7,1c1.3,0.8,1.7,1.7,1.2,2.7c-0.6,1-1.5,1.1-2.7,0.4l-1.9-1.1
		c-0.2,0.4-0.5,0.8-0.8,1.3c-0.8,1.3-1.6,2.8-2.3,4c-0.8,1.4-0.7,2.3,0.5,3C859.1,868.7,859.9,869.2,859.4,870.2z"/>
	<path class="st16" d="M861.4,871.2l1.2-2c2-3.6,3.2-5.7,4.1-7.2c0.7-1.3,1.9-1.6,3.2-0.8l0,0c1.3,0.8,1.6,1.9,0.9,3.2
		c-1,1.7-2.1,3.6-3,5.1c-0.8,1.4-1.6,2.7-2.4,4.1c-0.7,1.3-1.8,1.6-3.2,0.9C860.9,873.6,860.6,872.5,861.4,871.2z M869.4,856
		c0.8-1.4,1.9-1.6,3.7-0.6c1.8,1,2.1,2,1.3,3.5s-1.9,1.6-3.7,0.6C869,858.4,868.6,857.4,869.4,856z"/>
	<path class="st16" d="M870.2,870.2c2.6-4.6,6-5.7,10.1-3.3c4.1,2.3,4.7,5.8,2.1,10.4c-2.7,4.6-6,5.7-10,3.4
		C868.2,878.2,867.5,874.8,870.2,870.2z M878.3,874.9c1.7-2.9,1.7-4.3,0.3-5.1c-1.5-0.9-2.7-0.2-4.3,2.8c-1.8,3.2-1.4,4.4-0.2,5.1
		C875.2,878.3,876.4,878.1,878.3,874.9z"/>
	<path class="st16" d="M890.7,890.8L890.7,890.8c-1.4-0.8-1.7-1.9-0.9-3.3c1.3-2.2,2.5-4.2,3.4-5.9c0.9-1.6,0.7-2.4-0.4-3
		c-0.9-0.5-1.9-0.4-2.8,0.2c-0.4,0.6-0.8,1.3-1.2,2c-0.9,1.5-1.8,3-2.6,4.6c-0.8,1.3-1.9,1.6-3.2,0.9l-0.1-0.1
		c-1.3-0.8-1.6-1.9-0.9-3.2c0.9-1.5,1.8-3,2.7-4.5c0.9-1.6,1.8-3.1,2.6-4.6c0.8-1.3,1.9-1.6,3.2-0.9c1.3,0.7,1.8,1.6,1.3,2.3
		c-0.2,0.3-0.4,0.7-0.7,1.1l0.1,0c1.9-1.2,3.7-1.1,5.6-0.1c2.5,1.5,2.9,3.8,0.5,7.7c-1,1.6-2.1,3.7-3.3,5.9
		C893.1,891.3,892,891.6,890.7,890.8z"/>
	<path class="st16" d="M896.4,891.1c0.3-1.6,1.7-1.8,2.8-1.2l0.1,0c1.1,0.7,0.9,1.3,1.1,2.7c0.1,0.5,0.4,0.8,1.2,1.3
		c1.5,0.9,2.3,0.6,2.8-0.1c1.8-3.1-7.1-4.3-3.9-9.9c1.6-2.7,4.2-3,8-0.8c2.9,1.7,4.1,3.5,3.6,5.4c-0.4,1.5-1.7,1.8-2.8,1.1l-0.1-0.1
		c-1.1-0.6-0.9-1.3-1.1-2.5c-0.1-0.4-0.5-0.8-1.2-1.2c-1.3-0.7-1.9-0.5-2.4,0.2c-1.7,2.9,7.2,4.3,4.1,9.6c-1.7,2.9-4.6,3.3-8.4,1.1
		C897.1,894.9,895.9,893.1,896.4,891.1z"/>
	<path class="st16" d="M915.8,900.8c1.7-3,5.1-3.1,10.4,0.1l0.5-0.8c1-1.7,0.8-2.6-0.2-3.2c-0.6-0.4-1.2-0.5-1.8-0.2
		c-1.3,0.7-1.8,1.2-2.9,0.6l-0.2-0.1c-1.3-0.8-1.9-2.1-0.7-3.2c1.6-1.6,4-1.4,7.5,0.6c3.6,2.1,4.4,4.7,2.6,7.9
		c-1.7,2.9-2.9,5-3.7,6.6c-0.7,1.4-1.8,1.7-3.1,1l-0.2-0.1c-1.2-0.7-1.8-1.3-1.6-1.7c0-0.2,0.1-0.4,0.2-0.6
		c-1.5,0.4-3.1,0.1-4.4-0.7C915.6,905.5,914.3,903.3,915.8,900.8z M923.9,905l1.2-2.2c-2.2-1.2-4.3-2.1-5.2-0.5
		c-0.5,0.9-0.3,1.9,0.8,2.6C921.8,905.5,922.8,905.5,923.9,905z"/>
	<path class="st16" d="M938.3,918.3L938.3,918.3c-1.4-0.8-1.7-1.9-0.9-3.3c1.3-2.2,2.5-4.2,3.4-5.9c0.9-1.6,0.7-2.4-0.4-3
		c-0.9-0.5-1.9-0.4-2.8,0.2c-0.4,0.6-0.8,1.3-1.2,2c-0.9,1.5-1.8,3-2.6,4.6c-0.8,1.3-1.9,1.6-3.2,0.9l-0.1-0.1
		c-1.3-0.8-1.6-1.9-0.9-3.2c0.9-1.5,1.8-3,2.7-4.5c0.9-1.6,1.8-3.1,2.6-4.6c0.8-1.3,1.9-1.6,3.2-0.9c1.3,0.7,1.8,1.6,1.3,2.3
		c-0.2,0.3-0.4,0.7-0.7,1.1l0.1,0c1.9-1.2,3.7-1.1,5.6-0.1c2.5,1.5,2.9,3.8,0.5,7.7c-1,1.6-2.1,3.7-3.3,5.9
		C940.7,918.7,939.6,919,938.3,918.3z"/>
	<path class="st16" d="M963.6,912.4c-1.8,3.1-3.6,6.1-5.4,9.2c-0.8,1.4-1.6,2.7-2.3,4.1c-0.7,1.3-1.7,1.7-2.8,1.1
		c-1.1-0.6-1.6-1.2-1.5-1.8c0.1-0.3,0.2-0.5,0.2-0.8c-1.1,0.5-2.7,0.7-4.3-0.3c-2.9-1.7-4.3-4.5-1.4-9.6c2.7-4.7,6.4-5.8,9.2-4.2
		c1.3,0.8,2,2.1,2,3.5c0.7-1.3,1.4-2.5,2.1-3.8c0.8-1.3,1.9-1.6,3.2-0.9l0.1,0.1C964.1,909.9,964.4,911.1,963.6,912.4z M952.7,921.5
		c0.4-0.8,0.9-1.5,1.4-2.3c0.6-0.9,1.1-1.8,1.6-2.7c0.3-1.1-0.3-1.9-1.2-2.4c-1.2-0.7-2.7-0.6-4.4,2.3c-1.5,2.5-1.1,4,0.4,4.8
		C951.4,921.7,952,921.8,952.7,921.5z"/>
	<path class="st16" d="M979.5,933c-2.7,4.7-6.4,5.8-9.2,4.2c-1.5-0.9-2.1-2.4-2-4.1l-0.3,0.2c-0.7,1.6-1.5,3.2-2.3,4.7
		c-0.7,1.3-1.9,1.6-3.2,0.9l0,0c-1.3-0.8-1.6-1.9-0.9-3.2c1.9-3.2,3.7-6.2,5.6-9.5c0.9-1.6,1.7-3.1,2.6-4.6c0.7-1.3,1.9-1.6,3.2-0.9
		l0,0c1.3,0.8,1.9,1.4,1.7,1.7l-0.3,0.6c1.1-0.3,2.4-0.3,3.7,0.5C981,925.1,982.4,927.9,979.5,933z M975.5,931
		c1.5-2.5,1.1-4-0.4-4.8c-0.9-0.5-1.6-0.5-2.5-0.2c-0.1,0.3-0.3,0.6-1.5,2.6c-0.3,0.5-0.6,1-0.9,1.5l0,0c-0.8,1.6-0.2,2.6,0.8,3.2
		C972.3,934,973.8,933.9,975.5,931z"/>
	<path class="st16" d="M979,939.1l1.2-2c2-3.6,3.2-5.7,4.1-7.2c0.7-1.3,1.9-1.6,3.2-0.8l0,0c1.3,0.8,1.6,1.9,0.9,3.2
		c-1,1.7-2.1,3.6-3,5.1c-0.8,1.4-1.6,2.7-2.4,4.1c-0.7,1.3-1.8,1.6-3.2,0.9C978.6,941.6,978.3,940.4,979,939.1z M987.1,923.9
		c0.8-1.4,1.9-1.6,3.7-0.6c1.8,1,2.1,2,1.3,3.5c-0.8,1.4-1.9,1.6-3.7,0.6C986.6,926.3,986.3,925.3,987.1,923.9z"/>
	<path class="st16" d="M987.9,938.2c2.6-4.6,6-5.7,10.3-3.3c2.9,1.7,3.9,3.9,3.1,6.6c-0.5,1.5-1.7,1.9-2.9,1.2c-1.2-0.7-1.2-1.5-1-3
		c0.1-0.6-0.3-1.1-1.1-1.6c-1.5-0.9-2.7-0.3-4.2,2.5c-1.8,3.1-1.4,4.4-0.1,5.1c0.7,0.4,1.2,0.5,1.7,0.3c1.4-0.6,1.9-1.2,3.1-0.5
		c1.2,0.7,1.5,1.9,0.5,2.9c-1.8,1.8-4.2,1.8-7.1,0.2C985.8,946.1,985.2,942.7,987.9,938.2z"/>
	<path class="st16" d="M1007.7,958.4l-0.7-0.4c-1.2-0.7-1.6-1.7-1.2-3.2c0.9-3.2,0.8-4.3-0.4-5l-0.4-0.2c-0.6,1.1-1.3,2.2-1.9,3.4
		c-0.8,1.3-1.9,1.6-3.2,0.9l-0.1-0.1c-1.3-0.8-1.6-1.9-0.9-3.2c1.4-2.3,2.7-4.5,4.1-6.9c1.2-2.1,2.4-4.3,3.6-6.4
		c0.8-1.3,1.9-1.6,3.2-0.9l0.1,0.1c1.3,0.8,1.6,1.9,0.9,3.2c-1.2,2.1-2.5,4.3-3.7,6.4l-0.5,0.9c1.5,0,3.2-0.8,4.5-2
		c1.1-1,2-1.2,3.3-0.5l0.5,0.3c1.5,0.9,1.8,2.4,0.3,3.3c-1.8,1.1-3.9,1.7-5.4,1.5l-0.1,0.1c2,1.5,2.2,2.9,1.2,7.4
		C1010.4,958.8,1009.2,959.2,1007.7,958.4z"/>
</g>
<g class="st15">
	<path class="st16" d="M779.1,860.6c-3.7,6.6-8.3,7.4-13.2,4.6c-0.6-0.3-1.1-0.7-1.5-1c-1.1-0.9-1.1-2-0.3-3c0.7-1,1.7-1,3.1-0.2
		c3.6,2.3,5.7,2.1,8.1-2l-0.1-0.1c-1.7,1.5-3.9,1.7-5.7,0.7c-2.6-1.5-3.3-3.6-1.2-7.2c1.3-2.2,2.5-4.3,3.8-6.6
		c0.8-1.3,1.9-1.6,3.2-0.9l0.1,0.1c1.3,0.8,1.6,1.9,0.9,3.2c-1.1,1.9-2.2,3.8-3.4,5.7c-0.8,1.4-0.5,2.4,0.4,3
		c1.1,0.6,2.3,0.1,3.4-1.7c1-1.7,2-3.4,2.9-5.1c0.7-1.3,1.9-1.6,3.2-0.9l0.1,0.1c1.3,0.8,1.6,1.9,0.8,3.2c-1,1.7-2,3.3-3,5
		C780.2,858.6,779.7,859.6,779.1,860.6z"/>
	<path class="st16" d="M783.3,858.4c2.6-4.6,6-5.7,10.1-3.3c4.1,2.4,4.7,5.8,2.1,10.4c-2.7,4.6-6,5.7-10,3.4
		C781.4,866.5,780.7,863,783.3,858.4z M791.5,863.1c1.7-2.9,1.7-4.3,0.3-5.1c-1.5-0.9-2.7-0.2-4.3,2.8c-1.8,3.2-1.4,4.4-0.2,5.1
		C788.3,866.6,789.6,866.3,791.5,863.1z"/>
	<path class="st16" d="M812.1,868.9c-1,1.7-2,3.3-3,5c-0.8,1.4-1.6,2.7-2.3,4.1c-0.7,1.3-1.7,1.7-2.8,1.1c-1.1-0.6-1.6-1.4-1.4-2.2
		c0.1-0.4,0.3-0.8,0.4-1.2c-1.6,1.1-3.5,1.2-5.4,0.2c-2.3-1.4-3.2-3.6-1-7.2c1.3-2.2,2.5-4.3,3.8-6.6c0.8-1.3,1.9-1.6,3.2-0.9
		l0.1,0.1c1.3,0.8,1.6,1.9,0.9,3.2c-1.1,1.9-2.2,3.8-3.4,5.7c-0.9,1.5-0.8,2.6,0.2,3.2c1.1,0.6,2.4,0.1,3.6-1.9c1-1.7,2-3.4,2.9-5.1
		c0.7-1.3,1.9-1.6,3.2-0.9l0.1,0.1C812.6,866.4,812.9,867.5,812.1,868.9z"/>
	<path class="st16" d="M824.3,874.7c-0.2,0.6-0.5,1.2-1,1.7c-1,1.1-2,1-2.4,0.4c-0.3-0.3-0.5-0.5-0.9-0.7c-1.1-0.6-2.2-0.3-3.4,0.7
		l-0.3,0.6c-0.3,0.5-0.6,1.1-0.9,1.6c-0.6,1-1.1,2-1.7,3c-0.7,1.4-1.8,1.7-3.2,0.9l-0.1,0c-1.3-0.8-1.6-1.9-0.9-3.2
		c0.9-1.5,1.8-3,2.7-4.6c0.9-1.6,1.7-3.1,2.6-4.6c0.8-1.3,1.9-1.6,3.1-0.9c1.2,0.7,1.6,1.6,1.1,2.7l-0.9,1.6l0,0.1
		c1.5-1.7,3.4-2.5,5-1.6c0.3,0.2,0.4,0.3,0.6,0.4C824.2,873,824.6,873.6,824.3,874.7z"/>
	<path class="st16" d="M840.5,881c-1.1-0.7-2.3-0.6-3.1,0.9l-0.6,1.1l1.7,1c1.3,0.8,1.7,1.7,1.2,2.7c-0.6,1-1.6,1.1-2.8,0.4L835,886
		c-0.2,0.4-0.4,0.8-0.6,1.2c-1,1.7-1.9,3.4-2.9,5.1c-0.8,1.3-1.8,1.6-3.1,0.9c-1.2-0.7-1.5-1.8-0.8-3.2c1-1.7,1.9-3.4,2.9-5.1
		l0.6-1.1l-0.2-0.1c-1.3-0.8-1.7-1.7-1.1-2.7c0.6-1,1.3-1.3,2-0.9l1.1,0.6c0.2-0.5,0.5-0.9,0.7-1.3c2-3.7,4.9-3.8,8.2-1.9
		c0.4,0.2,0.8,0.5,1.1,0.8c1.1,0.9,1,2,0.3,3.1C842.6,882.3,841.8,881.9,840.5,881z"/>
	<path class="st16" d="M837.6,894c1.7-3,5.1-3.1,10.4,0.1l0.5-0.8c1-1.7,0.8-2.6-0.2-3.2c-0.6-0.4-1.2-0.5-1.8-0.2
		c-1.3,0.7-1.8,1.2-2.9,0.6l-0.2-0.1c-1.3-0.8-1.9-2.1-0.7-3.2c1.6-1.5,4-1.4,7.5,0.6c3.6,2.1,4.4,4.7,2.6,7.9
		c-1.7,2.9-2.9,5-3.7,6.6c-0.7,1.4-1.8,1.7-3.1,1l-0.2-0.1c-1.2-0.7-1.8-1.3-1.6-1.7c0-0.2,0.1-0.4,0.2-0.6
		c-1.5,0.4-3.1,0.1-4.4-0.7C837.4,898.7,836.1,896.5,837.6,894z M845.7,898.2l1.2-2.2c-2.2-1.2-4.3-2.1-5.2-0.5
		c-0.5,0.9-0.3,1.9,0.8,2.6C843.6,898.7,844.6,898.7,845.7,898.2z"/>
	<path class="st16" d="M856.3,894.5c0.8-1.4,2-1.8,3.3-1l0.2,0.1c1.3,0.8,1.6,1.9,0.8,3.4c-3.6,6.3-4.1,8.3-2.8,9
		c1.3,0.7,2.6,0.1,6.4-6.9c0.8-1.5,1.9-1.9,3.2-1.2c1.2,0.7,1,2.9-1.2,6c-4.3,6.1-7.4,7-10.5,5.2
		C851.9,907.1,851.5,903.3,856.3,894.5z"/>
	<path class="st16" d="M867.1,906.7c2.6-4.6,6-5.7,10.1-3.3c4.1,2.4,4.7,5.8,2.1,10.4c-2.7,4.6-6,5.7-10,3.4
		C865.1,914.8,864.4,911.3,867.1,906.7z M875.2,911.4c1.7-2.9,1.7-4.3,0.3-5.1c-1.5-0.9-2.7-0.2-4.3,2.8c-1.8,3.2-1.4,4.4-0.2,5.1
		C872.1,914.9,873.4,914.6,875.2,911.4z"/>
	<path class="st16" d="M895.9,917.2c-1,1.7-2,3.3-3,5c-0.8,1.4-1.6,2.7-2.3,4.1c-0.7,1.3-1.8,1.7-2.8,1.1c-1.1-0.6-1.6-1.4-1.4-2.2
		c0.1-0.4,0.3-0.8,0.4-1.2c-1.6,1.1-3.5,1.2-5.4,0.2c-2.3-1.4-3.2-3.6-1-7.2c1.3-2.2,2.5-4.3,3.8-6.5c0.8-1.3,1.9-1.6,3.2-0.9
		l0.1,0.1c1.3,0.8,1.6,1.9,0.9,3.2c-1.1,1.9-2.2,3.8-3.4,5.7c-0.9,1.5-0.8,2.6,0.2,3.2c1.1,0.6,2.4,0.1,3.6-1.9c1-1.7,2-3.4,2.9-5.1
		c0.7-1.3,1.9-1.6,3.2-0.9l0.1,0.1C896.3,914.8,896.6,915.9,895.9,917.2z"/>
	<path class="st16" d="M908.1,923.1c-0.2,0.6-0.5,1.2-1,1.7c-1,1.1-2,1-2.4,0.4c-0.3-0.3-0.5-0.5-0.9-0.7c-1.1-0.6-2.2-0.3-3.4,0.7
		l-0.3,0.6c-0.3,0.5-0.6,1.1-0.9,1.6c-0.6,1-1.1,2-1.7,3c-0.7,1.4-1.8,1.7-3.2,0.9l-0.1,0c-1.3-0.8-1.6-1.9-0.9-3.2
		c0.9-1.5,1.8-3,2.7-4.6c0.9-1.6,1.7-3.1,2.6-4.6c0.8-1.3,1.9-1.6,3.1-0.9c1.2,0.7,1.6,1.6,1.1,2.7l-0.9,1.6l0,0.1
		c1.5-1.7,3.4-2.5,5-1.6c0.3,0.2,0.4,0.3,0.6,0.4C907.9,921.3,908.3,922,908.1,923.1z"/>
	<path class="st16" d="M903.8,934l1.2-2c2-3.6,3.2-5.7,4.1-7.2c0.7-1.3,1.9-1.6,3.2-0.8l0,0c1.3,0.8,1.6,1.9,0.9,3.2
		c-1,1.7-2.1,3.6-3,5.1c-0.8,1.4-1.6,2.7-2.4,4.1c-0.7,1.3-1.8,1.6-3.2,0.9C903.4,936.5,903.1,935.4,903.8,934z M911.9,918.8
		c0.8-1.4,1.9-1.6,3.7-0.6c1.8,1,2.1,2,1.3,3.5c-0.8,1.4-1.9,1.6-3.7,0.6C911.5,921.3,911.1,920.3,911.9,918.8z"/>
	<path class="st16" d="M919,943c-0.5,1.1-1.4,1.6-2.5,1.2c-0.5-0.2-1.1-0.5-1.7-0.8c-3-1.7-4.2-4.1-2.1-7.5c0.8-1.4,1.7-3,2.6-4.5
		l0.7-1.2l0,0c-1.3-0.8-1.7-1.7-1.2-2.7s1.3-1.3,1.9-0.9l1,0.6c0.2-0.4,0.4-0.8,0.7-1.2c0.7-1.2,1.7-1.6,3-1.3
		c1.6,0.3,2.2,1.4,1.4,2.7l-1.2,2.1l1.7,1c1.3,0.8,1.7,1.7,1.2,2.7c-0.6,1-1.5,1.1-2.7,0.4l-1.9-1.1c-0.2,0.4-0.5,0.8-0.8,1.3
		c-0.8,1.3-1.6,2.8-2.3,4c-0.8,1.4-0.7,2.3,0.5,3C918.7,941.4,919.5,941.9,919,943z"/>
	<path class="st16" d="M923.1,938.8c2.5-4.4,5.9-5.5,10-3.1c4.5,2.6,4.5,6.6,1.5,10.8c-0.2,0.2-0.4,0.3-0.6,0.2l-7.6-4.4
		c-1.3,2.5-0.8,3.6,0.5,4.4c0.6,0.4,1.2,0.5,1.7,0.5c1.3-0.1,1.7-0.7,2.8-0.1c1.2,0.7,1.7,1.9,0.8,2.8c-1.6,1.4-3.9,1.2-6.8-0.5
		C920.9,946.9,920.4,943.5,923.1,938.8z M931.6,942.3c1.2-1.9,1.1-3.2-0.3-4c-1.2-0.7-2.6-0.3-3.7,1.7L931.6,942.3z"/>
</g>
<g class="st15">
	<path class="st16" d="M1276.1,533.3c0.4-1.5,1.8-1.8,3-1.1l0.2,0.1c1.1,0.7,1,1.5,1.3,2.8c0.2,0.5,0.6,1,1.4,1.4
		c1.3,0.7,2.2,0.6,2.7-0.4c1.9-3.3-6.8-5.9-3.4-11.7c2.1-3.6,5.1-3.7,8.9-1.5c3.7,2.2,4.7,4.8,3.3,7.8c-0.7,1.4-1.9,1.6-3.1,0.9
		c-1.2-0.7-1.2-1.6-0.7-3.2c0.4-1.1-0.1-1.9-1.3-2.5c-1.4-0.8-2.3-0.3-2.9,0.9c-2.2,3.9,7.2,6,3.9,11.8c-1.9,3.3-5.1,3.7-9.4,1.3
		C1276.7,538,1275.5,535.8,1276.1,533.3z"/>
	<path class="st16" d="M1298.5,547.7c-0.5,1.1-1.4,1.6-2.5,1.2c-0.5-0.2-1.1-0.5-1.7-0.8c-3-1.7-4.2-4.1-2.1-7.5
		c0.8-1.4,1.7-3,2.6-4.5l0.7-1.2l0,0c-1.3-0.8-1.7-1.7-1.2-2.7c0.6-1,1.3-1.3,1.9-0.9l1,0.6c0.2-0.4,0.4-0.8,0.7-1.2
		c0.7-1.2,1.7-1.6,3-1.3c1.6,0.3,2.2,1.4,1.4,2.7l-1.2,2.1l1.7,1c1.3,0.8,1.7,1.7,1.2,2.7s-1.5,1.1-2.7,0.4l-1.9-1.1
		c-0.2,0.4-0.5,0.8-0.8,1.3c-0.8,1.3-1.6,2.8-2.3,4c-0.8,1.4-0.7,2.3,0.5,3C1298.2,546.2,1299,546.7,1298.5,547.7z"/>
	<path class="st16" d="M1302.6,543.5c2.5-4.4,5.9-5.5,10-3.1c4.5,2.6,4.5,6.6,1.5,10.8c-0.2,0.2-0.4,0.3-0.6,0.2l-7.6-4.4
		c-1.3,2.5-0.8,3.6,0.5,4.4c0.6,0.4,1.2,0.5,1.7,0.5c1.3-0.1,1.7-0.7,2.8-0.1c1.2,0.7,1.7,1.9,0.8,2.8c-1.6,1.4-3.9,1.2-6.8-0.5
		C1300.5,551.7,1299.9,548.2,1302.6,543.5z M1311.1,547.1c1.2-1.9,1.1-3.2-0.3-4c-1.2-0.7-2.6-0.3-3.7,1.7L1311.1,547.1z"/>
	<path class="st16" d="M1329.2,558.8c-2.7,4.7-6.4,5.8-9.2,4.2c-1.5-0.9-2.1-2.4-2-4.1l-0.3,0.2c-0.7,1.6-1.5,3.2-2.3,4.7
		c-0.7,1.3-1.9,1.6-3.2,0.9l0,0c-1.3-0.8-1.6-1.9-0.9-3.2c1.9-3.2,3.7-6.2,5.6-9.5c0.9-1.6,1.7-3.1,2.6-4.6c0.7-1.3,1.9-1.6,3.2-0.9
		l0,0c1.3,0.8,1.9,1.4,1.7,1.7l-0.3,0.6c1.1-0.3,2.4-0.3,3.7,0.5C1330.7,550.9,1332.1,553.8,1329.2,558.8z M1325.1,556.8
		c1.5-2.5,1.1-4-0.4-4.8c-0.9-0.5-1.6-0.5-2.5-0.2c-0.1,0.3-0.3,0.6-1.5,2.6c-0.3,0.5-0.6,1-0.9,1.5l0,0c-0.8,1.6-0.2,2.6,0.8,3.2
		C1322,559.8,1323.4,559.8,1325.1,556.8z"/>
	<path class="st16" d="M1348.5,572.9c-1.8,3.1-5,4-9.6,1.3c-3.4-1.9-4.8-4.7-3.3-8c0.6-1.4,1.9-1.6,3.2-0.9l0.1,0
		c1.3,0.7,1.4,1.7,1,3.2c-0.3,1.2,0.1,1.9,1.1,2.5c1.2,0.7,2.4,0.6,3.3-0.8c0.7-1.1,0.9-2.3-0.5-3.1c-1.1-0.6-1.3-1.5-0.8-2.5
		c0.6-1,1.5-1.2,2.7-0.5c1.3,0.7,2.3-0.4,2.8-1.2c0.6-1.1,0.5-2-0.8-2.8c-1.2-0.7-2-0.7-2.7,0c-1.1,1.1-1.9,1.5-3.2,0.8
		c-1.3-0.7-1.7-2-0.7-3.2c2.1-2.5,5.1-2.8,8.5-0.8c3.9,2.2,4.7,5.3,3.3,7.7c-0.9,1.6-2.7,2.8-4.7,2.7
		C1349.7,569.1,1349.6,571.1,1348.5,572.9z"/>
	<path class="st16" d="M1358.6,573.8c0.8-0.9,1.8-1,3-0.3l3.1,1.8c1.4,0.8,1.8,1.8,1.1,2.6c-0.8,0.9-1.8,1-3,0.3l-3.1-1.8
		C1358.3,575.6,1357.9,574.6,1358.6,573.8z"/>
	<path class="st16" d="M1371,589.4l7.2-12.5c0.8-1.3,1.9-1.6,3.2-0.9l0.4,0.2c1.3,0.8,1.6,1.9,0.9,3.2l-7.2,12.5
		c-0.8,1.3-1.9,1.6-3.2,0.9l-0.4-0.2C1370.6,591.9,1370.3,590.7,1371,589.4z"/>
	<path class="st16" d="M1387.4,601.6L1387.4,601.6c-1.4-0.8-1.7-1.9-0.9-3.3c1.3-2.2,2.5-4.2,3.4-5.9c0.9-1.6,0.7-2.4-0.4-3
		c-0.9-0.5-1.9-0.4-2.8,0.2c-0.4,0.6-0.8,1.3-1.2,2c-0.9,1.5-1.8,3-2.6,4.6c-0.8,1.3-1.9,1.6-3.2,0.9l-0.1-0.1
		c-1.3-0.8-1.6-1.9-0.9-3.2c0.9-1.5,1.8-3,2.7-4.5c0.9-1.6,1.8-3.1,2.6-4.7c0.8-1.3,1.9-1.6,3.2-0.9c1.3,0.7,1.8,1.6,1.3,2.3
		c-0.2,0.3-0.4,0.7-0.7,1.1l0.1,0c1.9-1.2,3.7-1.1,5.6-0.1c2.5,1.5,2.9,3.8,0.5,7.7c-1,1.6-2.1,3.7-3.3,5.9
		C1389.9,602,1388.7,602.3,1387.4,601.6z"/>
	<path class="st16" d="M1393.1,601.9c0.3-1.6,1.7-1.8,2.8-1.2l0.1,0c1.1,0.7,0.9,1.3,1.1,2.7c0.1,0.5,0.4,0.8,1.2,1.3
		c1.5,0.9,2.3,0.6,2.8-0.1c1.8-3.1-7.1-4.3-3.9-9.9c1.6-2.7,4.2-3,8-0.8c2.9,1.7,4.1,3.5,3.6,5.4c-0.4,1.5-1.7,1.8-2.8,1.1l-0.1-0.1
		c-1.1-0.7-0.9-1.3-1.1-2.5c-0.1-0.4-0.5-0.8-1.2-1.2c-1.3-0.7-1.9-0.5-2.4,0.2c-1.7,2.9,7.2,4.3,4.1,9.6c-1.7,2.9-4.6,3.3-8.4,1.1
		C1393.8,605.7,1392.7,603.9,1393.1,601.9z"/>
	<path class="st16" d="M1408.6,604.7c2.5-4.4,5.9-5.5,10-3.1c4.5,2.6,4.5,6.6,1.5,10.8c-0.2,0.2-0.4,0.3-0.6,0.2l-7.6-4.4
		c-1.3,2.5-0.8,3.6,0.5,4.4c0.6,0.4,1.2,0.5,1.7,0.5c1.3-0.1,1.7-0.7,2.8-0.1c1.2,0.7,1.7,1.9,0.8,2.8c-1.6,1.4-3.9,1.2-6.8-0.5
		C1406.4,612.9,1405.9,609.4,1408.6,604.7z M1417.1,608.3c1.2-1.9,1.1-3.2-0.3-4c-1.2-0.7-2.6-0.3-3.7,1.7L1417.1,608.3z"/>
	<path class="st16" d="M1435,612.9c-0.2,0.6-0.5,1.2-1,1.7c-1,1.1-2,1-2.4,0.4c-0.3-0.3-0.5-0.5-0.9-0.7c-1.1-0.6-2.2-0.3-3.4,0.7
		l-0.3,0.6c-0.3,0.5-0.6,1.1-0.9,1.6c-0.6,1-1.1,2-1.7,3c-0.7,1.4-1.8,1.7-3.2,0.9l-0.1,0c-1.3-0.8-1.6-1.9-0.9-3.2
		c0.9-1.5,1.8-3,2.7-4.6s1.7-3.1,2.6-4.6c0.8-1.3,1.9-1.6,3.1-0.9c1.2,0.7,1.6,1.6,1.1,2.7l-0.9,1.6l0,0.1c1.5-1.7,3.4-2.5,5-1.6
		c0.3,0.2,0.4,0.3,0.6,0.4C1434.8,611.2,1435.2,611.8,1435,612.9z"/>
	<path class="st16" d="M1439.1,628.9c-0.5,1.1-1.4,1.6-2.5,1.2c-0.5-0.2-1.1-0.4-1.7-0.8c-3-1.7-4.2-4.1-2.1-7.5
		c0.8-1.4,1.7-3,2.6-4.5l0.7-1.2l0,0c-1.3-0.8-1.7-1.7-1.2-2.7c0.6-1,1.3-1.3,1.9-0.9l1,0.6c0.2-0.4,0.4-0.8,0.7-1.2
		c0.7-1.2,1.7-1.6,3-1.3c1.6,0.3,2.2,1.4,1.4,2.7l-1.2,2.1l1.7,1c1.3,0.8,1.7,1.7,1.2,2.7c-0.6,1-1.5,1.1-2.7,0.4l-1.9-1.1
		c-0.2,0.4-0.5,0.8-0.8,1.3c-0.8,1.3-1.6,2.8-2.3,4c-0.8,1.4-0.7,2.3,0.5,3C1438.8,627.3,1439.5,627.8,1439.1,628.9z"/>
	<path class="st16" d="M1449.1,628.4c2.6-4.6,6-5.7,10.3-3.3c2.9,1.7,3.9,3.9,3.1,6.6c-0.5,1.5-1.7,1.9-2.9,1.2
		c-1.2-0.7-1.2-1.5-1-3c0.1-0.6-0.3-1.1-1.1-1.6c-1.5-0.9-2.7-0.3-4.2,2.5c-1.8,3.1-1.4,4.4-0.1,5.1c0.7,0.4,1.2,0.5,1.7,0.3
		c1.4-0.6,1.9-1.2,3.1-0.5c1.1,0.7,1.5,1.9,0.5,2.9c-1.8,1.8-4.2,1.8-7.1,0.2C1447,636.3,1446.4,633,1449.1,628.4z"/>
	<path class="st16" d="M1462.2,636c2.6-4.6,6-5.7,10.1-3.3c4.1,2.3,4.7,5.8,2.1,10.4c-2.7,4.6-6,5.7-10,3.4
		C1460.3,644,1459.6,640.6,1462.2,636z M1470.4,640.7c1.7-2.9,1.7-4.3,0.3-5.1c-1.5-0.9-2.7-0.2-4.3,2.8c-1.8,3.2-1.4,4.4-0.2,5.1
		C1467.2,644.2,1468.5,643.9,1470.4,640.7z"/>
	<path class="st16" d="M1474.1,648.9l1.2-2c2-3.6,3.2-5.7,4.1-7.2c0.7-1.3,1.9-1.6,3.2-0.8l0,0c1.3,0.8,1.6,1.9,0.9,3.2
		c-1,1.7-2.1,3.6-3,5.1c-0.8,1.4-1.6,2.7-2.4,4.1c-0.7,1.3-1.8,1.6-3.2,0.9C1473.6,651.3,1473.3,650.2,1474.1,648.9z M1482.1,633.7
		c0.8-1.4,1.9-1.6,3.7-0.6c1.8,1,2.1,2,1.3,3.5s-1.9,1.6-3.7,0.6C1481.7,636.1,1481.3,635.1,1482.1,633.7z"/>
	<path class="st16" d="M1489.5,660.5L1489.5,660.5c-1.4-0.8-1.7-1.9-0.9-3.3c1.3-2.2,2.5-4.2,3.4-5.9c0.9-1.6,0.7-2.4-0.4-3
		c-0.9-0.5-1.9-0.4-2.8,0.2c-0.4,0.6-0.8,1.3-1.2,2c-0.9,1.5-1.8,3-2.6,4.6c-0.8,1.3-1.9,1.6-3.2,0.9l-0.1-0.1
		c-1.3-0.8-1.6-1.9-0.9-3.2c0.9-1.5,1.8-3,2.7-4.5c0.9-1.6,1.8-3.1,2.6-4.7c0.8-1.3,1.9-1.6,3.2-0.9c1.3,0.7,1.8,1.6,1.3,2.3
		c-0.2,0.3-0.4,0.7-0.7,1.1l0.1,0c1.9-1.2,3.7-1.1,5.6-0.1c2.5,1.5,2.9,3.8,0.5,7.7c-1,1.6-2.1,3.7-3.3,5.9
		C1491.9,661,1490.8,661.3,1489.5,660.5z"/>
	<path class="st16" d="M1495.2,660.8c0.3-1.6,1.7-1.8,2.8-1.2l0.1,0c1.1,0.7,0.9,1.3,1.1,2.7c0.1,0.4,0.4,0.8,1.2,1.3
		c1.5,0.9,2.3,0.6,2.8-0.1c1.8-3.1-7.1-4.3-3.9-9.9c1.6-2.7,4.2-3,8-0.8c2.9,1.7,4.1,3.5,3.6,5.4c-0.4,1.5-1.7,1.8-2.8,1.1l-0.1-0.1
		c-1.1-0.6-0.9-1.3-1.1-2.5c-0.1-0.4-0.5-0.8-1.2-1.2c-1.3-0.7-1.9-0.5-2.4,0.2c-1.7,2.9,7.2,4.3,4.1,9.6c-1.7,2.9-4.6,3.3-8.4,1.1
		C1495.9,664.6,1494.7,662.8,1495.2,660.8z"/>
</g>
<g class="st15">
	<path class="st16" d="M1259.1,561.4c1.7-3,5.1-3.1,10.4,0.1l0.5-0.8c1-1.7,0.8-2.6-0.2-3.2c-0.6-0.4-1.2-0.5-1.8-0.2
		c-1.3,0.7-1.8,1.2-2.9,0.6l-0.2-0.1c-1.3-0.8-1.9-2.1-0.7-3.2c1.6-1.5,4-1.4,7.5,0.6c3.6,2.1,4.4,4.7,2.6,7.9
		c-1.7,2.9-2.9,5-3.7,6.6c-0.7,1.4-1.8,1.7-3.1,1l-0.2-0.1c-1.2-0.7-1.8-1.3-1.6-1.7c0-0.2,0.1-0.4,0.2-0.6
		c-1.5,0.4-3.1,0.1-4.4-0.7C1258.9,566.1,1257.7,563.9,1259.1,561.4z M1267.2,565.6l1.2-2.2c-2.2-1.2-4.3-2.1-5.2-0.5
		c-0.5,0.9-0.3,1.9,0.8,2.6C1265.2,566.1,1266.2,566.1,1267.2,565.6z"/>
	<path class="st16" d="M1281.6,578.8L1281.6,578.8c-1.4-0.8-1.7-1.9-0.9-3.3c1.3-2.2,2.5-4.2,3.4-5.9c0.9-1.6,0.7-2.4-0.4-3
		c-0.9-0.5-1.9-0.4-2.8,0.2c-0.4,0.6-0.8,1.3-1.2,2c-0.9,1.5-1.8,3-2.6,4.6c-0.8,1.3-1.9,1.6-3.2,0.9l-0.1-0.1
		c-1.3-0.8-1.6-1.9-0.9-3.2c0.9-1.5,1.8-3,2.7-4.5c0.9-1.6,1.8-3.1,2.6-4.7c0.8-1.3,1.9-1.6,3.2-0.9c1.3,0.7,1.8,1.6,1.3,2.3
		c-0.2,0.3-0.4,0.7-0.7,1.1l0.1,0c1.9-1.2,3.7-1.1,5.6-0.1c2.5,1.5,2.9,3.8,0.5,7.7c-1,1.6-2.1,3.7-3.3,5.9
		C1284.1,579.3,1283,579.6,1281.6,578.8z"/>
	<path class="st16" d="M1307,572.9c-1.8,3.1-3.6,6.1-5.4,9.2c-0.8,1.4-1.6,2.7-2.3,4.1c-0.7,1.3-1.7,1.7-2.8,1.1
		c-1.1-0.6-1.6-1.2-1.5-1.8c0.1-0.3,0.2-0.5,0.2-0.8c-1.1,0.5-2.7,0.7-4.3-0.3c-2.9-1.7-4.3-4.5-1.4-9.6c2.7-4.7,6.4-5.8,9.2-4.2
		c1.3,0.8,2,2.1,2,3.5c0.7-1.3,1.4-2.5,2.1-3.8c0.8-1.3,1.9-1.6,3.2-0.9l0.1,0.1C1307.5,570.5,1307.8,571.6,1307,572.9z
		 M1296.1,582.1c0.4-0.8,0.9-1.5,1.4-2.3c0.6-0.9,1.1-1.8,1.6-2.7c0.3-1.1-0.3-1.9-1.2-2.4c-1.2-0.7-2.7-0.6-4.4,2.3
		c-1.5,2.5-1.1,4,0.4,4.8C1294.7,582.3,1295.4,582.3,1296.1,582.1z"/>
	<path class="st16" d="M1310.1,586.5c2.6-4.6,6-5.7,10.1-3.3c4.1,2.3,4.7,5.8,2.1,10.4c-2.7,4.6-6,5.7-10,3.4
		C1308.1,594.5,1307.4,591.1,1310.1,586.5z M1318.2,591.2c1.7-2.9,1.7-4.3,0.3-5.1c-1.5-0.9-2.7-0.2-4.3,2.8
		c-1.8,3.2-1.4,4.4-0.2,5.1C1315.1,594.6,1316.3,594.3,1318.2,591.2z"/>
	<path class="st16" d="M1336.8,601.6c-2.7,4.7-6.4,5.8-9.2,4.2c-1.5-0.9-2.1-2.4-2-4.1l-0.3,0.2c-0.7,1.6-1.5,3.2-2.3,4.7
		c-0.7,1.3-1.9,1.6-3.2,0.9l0,0c-1.3-0.8-1.6-1.9-0.9-3.2c1.9-3.2,3.7-6.2,5.6-9.5c0.9-1.6,1.7-3.1,2.6-4.6c0.7-1.3,1.9-1.6,3.2-0.9
		l0,0c1.3,0.8,1.9,1.4,1.7,1.7l-0.3,0.6c1.1-0.3,2.4-0.3,3.7,0.5C1338.4,593.7,1339.7,596.6,1336.8,601.6z M1332.8,599.6
		c1.5-2.5,1.1-4-0.4-4.8c-0.9-0.5-1.6-0.5-2.5-0.2c-0.1,0.3-0.3,0.6-1.5,2.6c-0.3,0.5-0.6,1-0.9,1.5l0,0c-0.8,1.6-0.2,2.6,0.8,3.2
		C1329.7,602.6,1331.1,602.5,1332.8,599.6z"/>
	<path class="st16" d="M1338.6,602.6c2.5-4.4,5.9-5.5,10-3.1c4.5,2.6,4.5,6.6,1.5,10.8c-0.2,0.2-0.4,0.3-0.6,0.2l-7.6-4.4
		c-1.3,2.5-0.8,3.6,0.5,4.4c0.6,0.4,1.2,0.5,1.7,0.5c1.3-0.1,1.7-0.7,2.8-0.1c1.2,0.7,1.7,1.9,0.8,2.8c-1.6,1.4-3.9,1.2-6.8-0.5
		C1336.4,610.8,1335.8,607.3,1338.6,602.6z M1347.1,606.1c1.2-1.9,1.1-3.2-0.3-4c-1.2-0.7-2.6-0.3-3.7,1.7L1347.1,606.1z"/>
	<path class="st16" d="M1358.8,623.4L1358.8,623.4c-1.4-0.8-1.7-1.9-0.9-3.3c1.3-2.2,2.5-4.2,3.4-5.9c0.9-1.6,0.7-2.4-0.4-3
		c-0.9-0.5-1.9-0.4-2.8,0.2c-0.4,0.6-0.8,1.3-1.2,2c-0.9,1.5-1.8,3-2.6,4.6c-0.8,1.3-1.9,1.6-3.2,0.9l-0.1-0.1
		c-1.3-0.8-1.6-1.9-0.9-3.2c0.9-1.5,1.8-3,2.7-4.5c0.9-1.6,1.8-3.1,2.6-4.7c0.8-1.3,1.9-1.6,3.2-0.9c1.3,0.7,1.8,1.6,1.3,2.3
		c-0.2,0.3-0.4,0.7-0.7,1.1l0.1,0c1.9-1.2,3.7-1.1,5.6-0.1c2.5,1.5,2.9,3.8,0.5,7.7c-1,1.6-2.1,3.7-3.3,5.9
		C1361.2,623.8,1360.1,624.1,1358.8,623.4z"/>
	<path class="st16" d="M1383.1,633.3c-3.7,6.6-8.3,7.4-13.2,4.6c-0.6-0.3-1.1-0.7-1.5-1c-1.1-0.9-1.1-2-0.3-3c0.7-1,1.7-1,3.1-0.2
		c3.6,2.3,5.7,2.1,8.1-2l-0.1-0.1c-1.7,1.5-3.9,1.7-5.7,0.7c-2.6-1.5-3.3-3.6-1.2-7.2c1.3-2.2,2.5-4.3,3.8-6.6
		c0.8-1.3,1.9-1.6,3.2-0.9l0.1,0.1c1.3,0.8,1.6,1.9,0.9,3.2c-1.1,1.9-2.2,3.8-3.4,5.7c-0.8,1.4-0.5,2.4,0.4,3
		c1.1,0.6,2.3,0.1,3.4-1.7c1-1.7,2-3.4,2.9-5.1c0.7-1.3,1.9-1.6,3.2-0.9l0.1,0.1c1.3,0.8,1.6,1.9,0.8,3.2c-1,1.7-2,3.3-3,5
		C1384.2,631.3,1383.7,632.3,1383.1,633.3z"/>
	<path class="st16" d="M1387.3,631.1c2.6-4.6,6-5.7,10.1-3.3c4.1,2.3,4.7,5.8,2.1,10.4c-2.7,4.6-6,5.7-10,3.4
		C1385.4,639.1,1384.7,635.7,1387.3,631.1z M1395.4,635.8c1.7-2.9,1.7-4.3,0.3-5.1c-1.5-0.9-2.7-0.2-4.3,2.8
		c-1.8,3.2-1.4,4.4-0.2,5.1C1392.3,639.2,1393.6,639,1395.4,635.8z"/>
	<path class="st16" d="M1416.1,641.5c-1,1.7-2,3.3-3,5c-0.8,1.4-1.6,2.7-2.3,4.1c-0.7,1.3-1.8,1.7-2.8,1.1c-1.1-0.6-1.6-1.4-1.4-2.2
		c0.1-0.4,0.3-0.8,0.4-1.2c-1.6,1.1-3.5,1.2-5.4,0.2c-2.3-1.4-3.2-3.6-1-7.2c1.3-2.2,2.5-4.3,3.8-6.6c0.8-1.3,1.9-1.6,3.2-0.9
		l0.1,0.1c1.3,0.8,1.6,1.9,0.9,3.2c-1.1,1.9-2.2,3.8-3.4,5.7c-0.9,1.5-0.8,2.6,0.2,3.2c1.1,0.6,2.4,0.1,3.6-1.9c1-1.7,2-3.4,2.9-5.1
		c0.7-1.3,1.9-1.6,3.2-0.9l0.1,0.1C1416.6,639.1,1416.9,640.2,1416.1,641.5z"/>
	<path class="st16" d="M1428.3,647.4c-0.2,0.6-0.5,1.2-1,1.7c-1,1.1-2,1-2.4,0.4c-0.3-0.3-0.5-0.5-0.9-0.7c-1.1-0.6-2.2-0.3-3.4,0.7
		l-0.3,0.6c-0.3,0.5-0.6,1.1-0.9,1.6c-0.6,1-1.1,2-1.7,3c-0.7,1.4-1.8,1.7-3.2,0.9l-0.1,0c-1.3-0.8-1.6-1.9-0.9-3.2
		c0.9-1.5,1.8-3,2.7-4.6c0.9-1.6,1.7-3.1,2.6-4.6c0.8-1.3,1.9-1.6,3.1-0.9s1.6,1.6,1.1,2.7l-0.9,1.6l0,0.1c1.5-1.7,3.4-2.5,5-1.6
		c0.3,0.2,0.4,0.3,0.6,0.4C1428.2,645.7,1428.5,646.3,1428.3,647.4z"/>
	<path class="st16" d="M1433.5,655.4c3.3-5.7,7.2-7.2,12-4.5c3.2,1.9,4.5,4.3,3.5,7.1c-0.5,1.5-1.9,1.7-3.2,0.9l-0.3-0.2
		c-1.2-0.7-1-1.5-0.8-3c0.1-0.7-0.3-1.2-1.1-1.7c-2-1.2-3.5-0.2-5.7,3.7c-2.4,4.2-1.7,6-0.1,6.9c1.1,0.6,2.2,0.8,2.6,0.2l1.1-1.8
		l-0.4-0.2c-1.3-0.8-1.7-1.7-1.2-2.7c0.6-1,1.6-1.1,2.9-0.4l2.2,1.3c1.3,0.8,1.6,1.9,0.9,3.2l-1.9,3.3c-0.6,1-1,1.5-1.8,1.8
		c-1.6,0.5-3.6,0.4-6.3-1.1C1430.8,665.3,1430.2,661.1,1433.5,655.4z"/>
	<path class="st16" d="M1445.7,669.1c1.7-3,5.1-3.1,10.4,0.1l0.5-0.8c1-1.7,0.8-2.6-0.2-3.2c-0.6-0.4-1.2-0.5-1.8-0.2
		c-1.3,0.7-1.8,1.2-2.9,0.6l-0.2-0.1c-1.3-0.8-1.9-2.1-0.7-3.2c1.6-1.5,4-1.4,7.5,0.6c3.6,2.1,4.4,4.7,2.6,7.9
		c-1.7,2.9-2.9,5-3.7,6.6c-0.7,1.4-1.8,1.7-3.1,1l-0.2-0.1c-1.2-0.7-1.8-1.3-1.6-1.7c0-0.2,0.1-0.4,0.2-0.6
		c-1.5,0.4-3.1,0.1-4.4-0.7C1445.5,673.8,1444.2,671.6,1445.7,669.1z M1453.8,673.3l1.2-2.2c-2.2-1.2-4.3-2.1-5.2-0.5
		c-0.5,0.9-0.3,1.9,0.8,2.6C1451.8,673.8,1452.8,673.8,1453.8,673.3z"/>
	<path class="st16" d="M1461.6,674c2.6-4.6,6-5.7,10.3-3.3c2.9,1.7,3.9,3.9,3.1,6.6c-0.5,1.5-1.7,1.9-2.9,1.2c-1.2-0.7-1.2-1.5-1-3
		c0.1-0.6-0.3-1.1-1.1-1.6c-1.5-0.9-2.7-0.3-4.2,2.5c-1.8,3.1-1.4,4.4-0.1,5.1c0.7,0.4,1.2,0.5,1.7,0.3c1.4-0.6,1.9-1.2,3.1-0.5
		c1.1,0.7,1.5,1.9,0.5,2.9c-1.8,1.8-4.2,1.8-7.1,0.2C1459.5,681.9,1458.9,678.5,1461.6,674z"/>
	<path class="st16" d="M1481.3,694.1L1481.3,694.1c-1.4-0.8-1.7-1.9-0.9-3.3c1.3-2.2,2.5-4.2,3.4-5.9c0.9-1.6,0.7-2.4-0.4-3
		c-0.9-0.5-1.9-0.4-2.8,0.3c-1.3,2.2-2.5,4.4-3.8,6.5c-0.8,1.3-1.9,1.6-3.2,0.9l-0.2-0.1c-1.3-0.8-1.6-1.9-0.9-3.2
		c1.4-2.3,2.7-4.5,4.1-6.9c1.2-2.2,2.4-4.2,3.6-6.4c0.8-1.3,1.9-1.6,3.2-0.9l0.2,0.1c1.3,0.8,1.7,1.7,1.1,2.8
		c-0.4,0.6-0.7,1.2-0.9,1.6c-0.6,1.1-1.2,2.1-2,3l0,0.1c1.9-1.2,3.7-1.1,5.6-0.1c2.5,1.5,2.9,3.8,0.5,7.7c-1,1.6-2.1,3.7-3.3,5.9
		C1483.8,694.6,1482.6,694.9,1481.3,694.1z"/>
	<path class="st16" d="M1487.3,693.1c1.7-3,5.1-3.1,10.4,0.1l0.5-0.8c1-1.7,0.8-2.6-0.2-3.2c-0.6-0.4-1.2-0.5-1.8-0.2
		c-1.3,0.7-1.8,1.2-2.9,0.6l-0.2-0.1c-1.3-0.8-1.9-2.1-0.7-3.2c1.6-1.5,4-1.4,7.5,0.6c3.6,2.1,4.4,4.7,2.6,7.9
		c-1.7,2.9-2.9,5-3.7,6.6c-0.7,1.4-1.8,1.7-3.1,1l-0.2-0.1c-1.2-0.7-1.8-1.3-1.6-1.7c0-0.2,0.1-0.4,0.2-0.6
		c-1.5,0.4-3.1,0.1-4.4-0.7C1487.1,697.8,1485.9,695.6,1487.3,693.1z M1495.4,697.3l1.2-2.2c-2.2-1.2-4.3-2.1-5.2-0.5
		c-0.5,0.9-0.3,1.9,0.8,2.6C1493.4,697.8,1494.4,697.8,1495.4,697.3z"/>
	<path class="st16" d="M1500.9,702.6c1-1.8,1.9-2,3.7-1c1.8,1,2,1.9,1,3.7c-1,1.8-1.9,2-3.7,1
		C1500.1,705.3,1499.9,704.4,1500.9,702.6z M1504.7,699.3c1-5.4,1.4-7.1,2.5-8.9c1.2-2.2,2.3-2.4,4.6-1.1c2.3,1.3,2.6,2.4,1.4,4.5
		c-1.1,1.9-2.4,3.1-6.6,6.6c-0.1,0.1-0.3,0.2-0.4,0.1l-1.3-0.8C1504.7,699.6,1504.6,699.4,1504.7,699.3z"/>
</g>
</svg>
