<svg width="348" height="375" viewBox="0 0 348 375" fill="none" xmlns="http://www.w3.org/2000/svg">
<g filter="url(#filter0_d)">
<path d="M317.535 108.653L177.708 28.7522C175.658 27.5805 173.154 27.5805 171.103 28.7522L31.2767 108.653C29.1993 109.838 27.9209 112.049 27.9209 114.433V260.918C27.9209 263.302 29.1993 265.512 31.2767 266.698L171.103 346.599C172.129 347.185 173.261 347.477 174.406 347.477C175.552 347.477 176.683 347.185 177.709 346.599L317.535 266.698C319.613 265.512 320.891 263.302 320.891 260.918V114.433C320.891 112.049 319.612 109.838 317.535 108.653ZM307.573 257.056L174.405 333.148L41.2375 257.056V118.294L174.405 42.2024L307.573 118.295V257.056V257.056Z" fill="url(#paint0_linear)"/>
<path d="M178.204 27.8839L178.204 27.8839C175.846 26.5366 172.965 26.5366 170.607 27.8839L170.607 27.8839L30.7811 107.785C28.3911 109.148 26.9209 111.691 26.9209 114.433V260.918C26.9209 263.66 28.3911 266.202 30.7811 267.566L170.607 347.467C171.785 348.14 173.088 348.477 174.406 348.477C175.724 348.477 177.027 348.14 178.205 347.467L318.031 267.566C320.421 266.202 321.891 263.66 321.891 260.918V114.433C321.891 111.691 320.421 109.149 318.031 107.785C318.031 107.785 318.031 107.785 318.03 107.785L178.204 27.8839ZM174.405 331.996L42.2375 256.476V118.875L174.405 43.3541L306.573 118.875V256.476L174.405 331.996Z" stroke="white" stroke-width="2"/>
</g>
<path d="M166.133 189.988C166.133 180.652 164.57 173.719 161.445 169.188C158.359 164.656 154.043 162.391 148.496 162.391C142.988 162.391 138.711 164.637 135.664 169.129C132.617 173.621 131.094 180.574 131.094 189.988C131.094 199.324 132.617 206.258 135.664 210.789C138.711 215.32 142.988 217.586 148.496 217.586C151.27 217.586 153.75 217.039 155.938 215.945C158.125 214.812 159.961 213.113 161.445 210.848C162.969 208.582 164.121 205.73 164.902 202.293C165.723 198.816 166.133 194.715 166.133 189.988ZM182.129 189.988C182.129 197.957 181.25 204.695 179.492 210.203C177.734 215.711 175.332 220.164 172.285 223.562C169.238 226.961 165.664 229.422 161.562 230.945C157.5 232.43 153.145 233.172 148.496 233.172C143.848 233.172 139.473 232.41 135.371 230.887C131.309 229.324 127.754 226.844 124.707 223.445C121.699 220.008 119.316 215.555 117.559 210.086C115.801 204.578 114.922 197.879 114.922 189.988C114.922 182.02 115.801 175.301 117.559 169.832C119.316 164.324 121.699 159.871 124.707 156.473C127.754 153.074 131.309 150.613 135.371 149.09C139.473 147.566 143.848 146.805 148.496 146.805C153.145 146.805 157.5 147.586 161.562 149.148C165.664 150.672 169.238 153.152 172.285 156.59C175.332 160.027 177.734 164.48 179.492 169.949C181.25 175.418 182.129 182.098 182.129 189.988ZM216.875 232H200.059V164.793H191.68V147.977H216.875V232Z" fill="white"/>
<defs>
<filter id="filter0_d" x="0.920898" y="0.873413" width="346.97" height="373.604" filterUnits="userSpaceOnUse" color-interpolation-filters="sRGB">
<feFlood flood-opacity="0" result="BackgroundImageFix"/>
<feColorMatrix in="SourceAlpha" type="matrix" values="0 0 0 0 0 0 0 0 0 0 0 0 0 0 0 0 0 0 127 0" result="hardAlpha"/>
<feOffset/>
<feGaussianBlur stdDeviation="12.5"/>
<feComposite in2="hardAlpha" operator="out"/>
<feColorMatrix type="matrix" values="0 0 0 0 0.827451 0 0 0 0 0.545098 0 0 0 0 0.94902 0 0 0 1 0"/>
<feBlend mode="normal" in2="BackgroundImageFix" result="effect1_dropShadow"/>
<feBlend mode="normal" in="SourceGraphic" in2="effect1_dropShadow" result="shape"/>
</filter>
<linearGradient id="paint0_linear" x1="174.406" y1="27.8734" x2="174.406" y2="347.477" gradientUnits="userSpaceOnUse">
<stop stop-color="#D28AF2"/>
<stop offset="1" stop-color="#FEDFFF"/>
</linearGradient>
</defs>
</svg>
