<svg width="348" height="374" viewBox="0 0 348 374" fill="none" xmlns="http://www.w3.org/2000/svg">
<g filter="url(#filter0_d)">
<path d="M316.94 108.063L177.114 28.162C175.063 26.9903 172.559 26.9903 170.509 28.162L30.682 108.063C28.6046 109.248 27.3262 111.459 27.3262 113.843V260.328C27.3262 262.712 28.6046 264.922 30.682 266.107L170.509 346.008C171.534 346.594 172.666 346.887 173.811 346.887C174.957 346.887 176.089 346.594 177.114 346.008L316.941 266.107C319.018 264.922 320.297 262.712 320.297 260.328V113.843C320.296 111.459 319.018 109.248 316.94 108.063ZM306.979 256.466L173.811 332.558L40.6428 256.466V117.704L173.811 41.6121L306.979 117.705V256.466Z" fill="url(#paint0_linear)"/>
<path d="M177.61 27.2937L177.61 27.2937C175.252 25.9464 172.37 25.9464 170.012 27.2937L170.012 27.2937L30.1864 107.194C30.1862 107.194 30.186 107.195 30.1859 107.195C27.7962 108.558 26.3262 111.101 26.3262 113.843V260.328C26.3262 263.07 27.7964 265.612 30.1864 266.976L170.012 346.877C171.191 347.55 172.494 347.887 173.811 347.887C175.129 347.887 176.432 347.55 177.61 346.877L317.436 266.976C319.826 265.612 321.297 263.07 321.297 260.328V113.843C321.296 111.1 319.826 108.558 317.436 107.194L177.61 27.2937ZM305.979 118.285V255.885L173.811 331.406L41.6428 255.885V118.284L173.811 42.7639L305.979 118.285Z" stroke="white" stroke-width="2"/>
</g>
<path d="M155.133 188.988C155.133 179.652 153.57 172.719 150.445 168.188C147.359 163.656 143.043 161.391 137.496 161.391C131.988 161.391 127.711 163.637 124.664 168.129C121.617 172.621 120.094 179.574 120.094 188.988C120.094 198.324 121.617 205.258 124.664 209.789C127.711 214.32 131.988 216.586 137.496 216.586C140.27 216.586 142.75 216.039 144.938 214.945C147.125 213.812 148.961 212.113 150.445 209.848C151.969 207.582 153.121 204.73 153.902 201.293C154.723 197.816 155.133 193.715 155.133 188.988ZM171.129 188.988C171.129 196.957 170.25 203.695 168.492 209.203C166.734 214.711 164.332 219.164 161.285 222.562C158.238 225.961 154.664 228.422 150.562 229.945C146.5 231.43 142.145 232.172 137.496 232.172C132.848 232.172 128.473 231.41 124.371 229.887C120.309 228.324 116.754 225.844 113.707 222.445C110.699 219.008 108.316 214.555 106.559 209.086C104.801 203.578 103.922 196.879 103.922 188.988C103.922 181.02 104.801 174.301 106.559 168.832C108.316 163.324 110.699 158.871 113.707 155.473C116.754 152.074 120.309 149.613 124.371 148.09C128.473 146.566 132.848 145.805 137.496 145.805C142.145 145.805 146.5 146.586 150.562 148.148C154.664 149.672 158.238 152.152 161.285 155.59C164.332 159.027 166.734 163.48 168.492 168.949C170.25 174.418 171.129 181.098 171.129 188.988ZM240.094 172.172C240.094 175.648 239.43 178.93 238.102 182.016C236.773 185.062 234.957 187.738 232.652 190.043C230.387 192.309 227.73 194.105 224.684 195.434C221.637 196.762 218.375 197.426 214.898 197.426H206.461C205.289 197.426 204.195 197.641 203.18 198.07C202.164 198.5 201.266 199.105 200.484 199.887C199.742 200.629 199.156 201.508 198.727 202.523C198.297 203.539 198.082 204.633 198.082 205.805V214.184H237.809V231H181.266V205.805C181.266 202.328 181.93 199.066 183.258 196.02C184.586 192.934 186.383 190.258 188.648 187.992C190.953 185.688 193.629 183.891 196.676 182.602C199.723 181.273 202.984 180.609 206.461 180.609H214.898C216.07 180.609 217.164 180.395 218.18 179.965C219.195 179.535 220.074 178.949 220.816 178.207C221.598 177.426 222.203 176.527 222.633 175.512C223.062 174.457 223.277 173.344 223.277 172.172C223.277 171 223.062 169.906 222.633 168.891C222.203 167.875 221.598 166.996 220.816 166.254C220.074 165.473 219.195 164.867 218.18 164.438C217.164 164.008 216.07 163.793 214.898 163.793H184.898V146.977H214.898C218.375 146.977 221.637 147.641 224.684 148.969C227.73 150.297 230.387 152.113 232.652 154.418C234.957 156.684 236.773 159.34 238.102 162.387C239.43 165.434 240.094 168.695 240.094 172.172Z" fill="white"/>
<defs>
<filter id="filter0_d" x="0.326172" y="0.283203" width="346.97" height="373.604" filterUnits="userSpaceOnUse" color-interpolation-filters="sRGB">
<feFlood flood-opacity="0" result="BackgroundImageFix"/>
<feColorMatrix in="SourceAlpha" type="matrix" values="0 0 0 0 0 0 0 0 0 0 0 0 0 0 0 0 0 0 127 0" result="hardAlpha"/>
<feOffset/>
<feGaussianBlur stdDeviation="12.5"/>
<feComposite in2="hardAlpha" operator="out"/>
<feColorMatrix type="matrix" values="0 0 0 0 0.827451 0 0 0 0 0.545098 0 0 0 0 0.94902 0 0 0 1 0"/>
<feBlend mode="normal" in2="BackgroundImageFix" result="effect1_dropShadow"/>
<feBlend mode="normal" in="SourceGraphic" in2="effect1_dropShadow" result="shape"/>
</filter>
<linearGradient id="paint0_linear" x1="173.811" y1="27.2832" x2="173.811" y2="346.887" gradientUnits="userSpaceOnUse">
<stop stop-color="#FDDDFF"/>
<stop offset="1" stop-color="#D38BF2"/>
</linearGradient>
</defs>
</svg>
