<svg width="348" height="375" viewBox="0 0 348 375" fill="none" xmlns="http://www.w3.org/2000/svg">
<g filter="url(#filter0_d)">
<path d="M317.224 108.653L177.397 28.7522C175.347 27.5805 172.843 27.5805 170.792 28.7522L30.9657 108.653C28.8883 109.838 27.6099 112.049 27.6099 114.433V260.918C27.6099 263.302 28.8883 265.512 30.9657 266.698L170.792 346.599C171.818 347.185 172.95 347.477 174.095 347.477C175.241 347.477 176.372 347.185 177.398 346.599L317.224 266.698C319.302 265.512 320.58 263.302 320.58 260.918V114.433C320.58 112.049 319.301 109.838 317.224 108.653ZM307.262 257.056L174.094 333.148L40.9265 257.056V118.294L174.094 42.2024L307.262 118.295V257.056Z" fill="url(#paint0_linear)"/>
<path d="M177.893 27.8839L177.893 27.8839C175.535 26.5366 172.654 26.5366 170.296 27.8839L170.296 27.8839L30.4701 107.785C30.4699 107.785 30.4697 107.785 30.4696 107.785C28.0798 109.149 26.6099 111.691 26.6099 114.433V260.918C26.6099 263.66 28.0801 266.202 30.4701 267.566L170.296 347.467C171.474 348.14 172.777 348.477 174.095 348.477C175.413 348.477 176.716 348.14 177.894 347.467L317.72 267.566C320.11 266.202 321.58 263.66 321.58 260.918V114.433C321.58 111.691 320.109 109.148 317.719 107.785L177.893 27.8839ZM306.262 118.875V256.476L174.094 331.996L41.9265 256.476V118.875L174.094 43.3541L306.262 118.875Z" stroke="white" stroke-width="2"/>
</g>
<path d="M148.133 189.988C148.133 180.652 146.57 173.719 143.445 169.188C140.359 164.656 136.043 162.391 130.496 162.391C124.988 162.391 120.711 164.637 117.664 169.129C114.617 173.621 113.094 180.574 113.094 189.988C113.094 199.324 114.617 206.258 117.664 210.789C120.711 215.32 124.988 217.586 130.496 217.586C133.27 217.586 135.75 217.039 137.938 215.945C140.125 214.812 141.961 213.113 143.445 210.848C144.969 208.582 146.121 205.73 146.902 202.293C147.723 198.816 148.133 194.715 148.133 189.988ZM164.129 189.988C164.129 197.957 163.25 204.695 161.492 210.203C159.734 215.711 157.332 220.164 154.285 223.562C151.238 226.961 147.664 229.422 143.562 230.945C139.5 232.43 135.145 233.172 130.496 233.172C125.848 233.172 121.473 232.41 117.371 230.887C113.309 229.324 109.754 226.844 106.707 223.445C103.699 220.008 101.316 215.555 99.5586 210.086C97.8008 204.578 96.9219 197.879 96.9219 189.988C96.9219 182.02 97.8008 175.301 99.5586 169.832C101.316 164.324 103.699 159.871 106.707 156.473C109.754 153.074 113.309 150.613 117.371 149.09C121.473 147.566 125.848 146.805 130.496 146.805C135.145 146.805 139.5 147.586 143.562 149.148C147.664 150.672 151.238 153.152 154.285 156.59C157.332 160.027 159.734 164.48 161.492 169.949C163.25 175.418 164.129 182.098 164.129 189.988ZM233.797 206.805C233.797 210.281 233.133 213.543 231.805 216.59C230.477 219.637 228.66 222.312 226.355 224.617C224.09 226.883 221.434 228.68 218.387 230.008C215.34 231.336 212.078 232 208.602 232H174.969V215.184H208.602C209.773 215.184 210.867 214.969 211.883 214.539C212.898 214.109 213.777 213.523 214.52 212.781C215.301 212 215.906 211.102 216.336 210.086C216.766 209.07 216.98 207.977 216.98 206.805C216.98 205.633 216.766 204.539 216.336 203.523C215.906 202.508 215.301 201.629 214.52 200.887C213.777 200.105 212.898 199.5 211.883 199.07C210.867 198.641 209.773 198.426 208.602 198.426H185.691V181.609H208.602C209.773 181.609 210.867 181.395 211.883 180.965C212.898 180.535 213.777 179.949 214.52 179.207C215.301 178.426 215.906 177.527 216.336 176.512C216.766 175.457 216.98 174.344 216.98 173.172C216.98 172 216.766 170.906 216.336 169.891C215.906 168.875 215.301 167.996 214.52 167.254C213.777 166.473 212.898 165.867 211.883 165.438C210.867 165.008 209.773 164.793 208.602 164.793H174.969V147.977H208.602C212.078 147.977 215.34 148.641 218.387 149.969C221.434 151.297 224.09 153.113 226.355 155.418C228.66 157.684 230.477 160.34 231.805 163.387C233.133 166.434 233.797 169.695 233.797 173.172C233.797 176.258 233.23 179.266 232.098 182.195C230.965 185.086 229.363 187.684 227.293 189.988C229.363 192.293 230.965 194.91 232.098 197.84C233.23 200.73 233.797 203.719 233.797 206.805Z" fill="white"/>
<defs>
<filter id="filter0_d" x="0.609863" y="0.873413" width="346.97" height="373.604" filterUnits="userSpaceOnUse" color-interpolation-filters="sRGB">
<feFlood flood-opacity="0" result="BackgroundImageFix"/>
<feColorMatrix in="SourceAlpha" type="matrix" values="0 0 0 0 0 0 0 0 0 0 0 0 0 0 0 0 0 0 127 0" result="hardAlpha"/>
<feOffset/>
<feGaussianBlur stdDeviation="12.5"/>
<feComposite in2="hardAlpha" operator="out"/>
<feColorMatrix type="matrix" values="0 0 0 0 0.827451 0 0 0 0 0.545098 0 0 0 0 0.94902 0 0 0 1 0"/>
<feBlend mode="normal" in2="BackgroundImageFix" result="effect1_dropShadow"/>
<feBlend mode="normal" in="SourceGraphic" in2="effect1_dropShadow" result="shape"/>
</filter>
<linearGradient id="paint0_linear" x1="174.095" y1="27.8734" x2="174.095" y2="347.477" gradientUnits="userSpaceOnUse">
<stop stop-color="#D38BF2"/>
<stop offset="1" stop-color="#FDDDFF"/>
</linearGradient>
</defs>
</svg>
